<svg xmlns="http://www.w3.org/2000/svg" xmlns:xlink="http://www.w3.org/1999/xlink" width="600" height="400" viewBox="0 0 2400 1600">
<defs>
  <clipPath id="clip100">
    <rect x="0" y="0" width="2400" height="1600"></rect>
  </clipPath>
</defs>
<path clip-path="url(#clip100)" d="M0 1600 L2400 1600 L2400 0 L0 0  Z" fill="#ffffff" fill-rule="evenodd" fill-opacity="1"></path>
<defs>
  <clipPath id="clip101">
    <rect x="480" y="0" width="1681" height="1600"></rect>
  </clipPath>
</defs>
<path clip-path="url(#clip100)" d="M156.598 1486.45 L2352.76 1486.45 L2352.76 47.2441 L156.598 47.2441  Z" fill="#ffffff" fill-rule="evenodd" fill-opacity="1"></path>
<defs>
  <clipPath id="clip102">
    <rect x="156" y="47" width="2197" height="1440"></rect>
  </clipPath>
</defs>
<polyline clip-path="url(#clip102)" style="stroke:#000000; stroke-linecap:round; stroke-linejoin:round; stroke-width:2; stroke-opacity:0.1; fill:none" points="277.391,1486.45 277.391,47.2441 "></polyline>
<polyline clip-path="url(#clip102)" style="stroke:#000000; stroke-linecap:round; stroke-linejoin:round; stroke-width:2; stroke-opacity:0.1; fill:none" points="766.034,1486.45 766.034,47.2441 "></polyline>
<polyline clip-path="url(#clip102)" style="stroke:#000000; stroke-linecap:round; stroke-linejoin:round; stroke-width:2; stroke-opacity:0.1; fill:none" points="1254.68,1486.45 1254.68,47.2441 "></polyline>
<polyline clip-path="url(#clip102)" style="stroke:#000000; stroke-linecap:round; stroke-linejoin:round; stroke-width:2; stroke-opacity:0.1; fill:none" points="1743.32,1486.45 1743.32,47.2441 "></polyline>
<polyline clip-path="url(#clip102)" style="stroke:#000000; stroke-linecap:round; stroke-linejoin:round; stroke-width:2; stroke-opacity:0.1; fill:none" points="2231.96,1486.45 2231.96,47.2441 "></polyline>
<polyline clip-path="url(#clip100)" style="stroke:#000000; stroke-linecap:round; stroke-linejoin:round; stroke-width:4; stroke-opacity:1; fill:none" points="156.598,1486.45 2352.76,1486.45 "></polyline>
<polyline clip-path="url(#clip100)" style="stroke:#000000; stroke-linecap:round; stroke-linejoin:round; stroke-width:4; stroke-opacity:1; fill:none" points="277.391,1486.45 277.391,1467.55 "></polyline>
<polyline clip-path="url(#clip100)" style="stroke:#000000; stroke-linecap:round; stroke-linejoin:round; stroke-width:4; stroke-opacity:1; fill:none" points="766.034,1486.45 766.034,1467.55 "></polyline>
<polyline clip-path="url(#clip100)" style="stroke:#000000; stroke-linecap:round; stroke-linejoin:round; stroke-width:4; stroke-opacity:1; fill:none" points="1254.68,1486.45 1254.68,1467.55 "></polyline>
<polyline clip-path="url(#clip100)" style="stroke:#000000; stroke-linecap:round; stroke-linejoin:round; stroke-width:4; stroke-opacity:1; fill:none" points="1743.32,1486.45 1743.32,1467.55 "></polyline>
<polyline clip-path="url(#clip100)" style="stroke:#000000; stroke-linecap:round; stroke-linejoin:round; stroke-width:4; stroke-opacity:1; fill:none" points="2231.96,1486.45 2231.96,1467.55 "></polyline>
<path clip-path="url(#clip100)" d="M239.694 1517.37 Q236.083 1517.37 234.254 1520.93 Q232.449 1524.47 232.449 1531.6 Q232.449 1538.71 234.254 1542.27 Q236.083 1545.82 239.694 1545.82 Q243.328 1545.82 245.134 1542.27 Q246.963 1538.71 246.963 1531.6 Q246.963 1524.47 245.134 1520.93 Q243.328 1517.37 239.694 1517.37 M239.694 1513.66 Q245.504 1513.66 248.56 1518.27 Q251.639 1522.85 251.639 1531.6 Q251.639 1540.33 248.56 1544.94 Q245.504 1549.52 239.694 1549.52 Q233.884 1549.52 230.805 1544.94 Q227.75 1540.33 227.75 1531.6 Q227.75 1522.85 230.805 1518.27 Q233.884 1513.66 239.694 1513.66 Z" fill="#000000" fill-rule="nonzero" fill-opacity="1"></path><path clip-path="url(#clip100)" d="M259.856 1542.97 L264.74 1542.97 L264.74 1548.85 L259.856 1548.85 L259.856 1542.97 Z" fill="#000000" fill-rule="nonzero" fill-opacity="1"></path><path clip-path="url(#clip100)" d="M284.925 1517.37 Q281.314 1517.37 279.486 1520.93 Q277.68 1524.47 277.68 1531.6 Q277.68 1538.71 279.486 1542.27 Q281.314 1545.82 284.925 1545.82 Q288.56 1545.82 290.365 1542.27 Q292.194 1538.71 292.194 1531.6 Q292.194 1524.47 290.365 1520.93 Q288.56 1517.37 284.925 1517.37 M284.925 1513.66 Q290.736 1513.66 293.791 1518.27 Q296.87 1522.85 296.87 1531.6 Q296.87 1540.33 293.791 1544.94 Q290.736 1549.52 284.925 1549.52 Q279.115 1549.52 276.037 1544.94 Q272.981 1540.33 272.981 1531.6 Q272.981 1522.85 276.037 1518.27 Q279.115 1513.66 284.925 1513.66 Z" fill="#000000" fill-rule="nonzero" fill-opacity="1"></path><path clip-path="url(#clip100)" d="M315.087 1517.37 Q311.476 1517.37 309.648 1520.93 Q307.842 1524.47 307.842 1531.6 Q307.842 1538.71 309.648 1542.27 Q311.476 1545.82 315.087 1545.82 Q318.722 1545.82 320.527 1542.27 Q322.356 1538.71 322.356 1531.6 Q322.356 1524.47 320.527 1520.93 Q318.722 1517.37 315.087 1517.37 M315.087 1513.66 Q320.898 1513.66 323.953 1518.27 Q327.032 1522.85 327.032 1531.6 Q327.032 1540.33 323.953 1544.94 Q320.898 1549.52 315.087 1549.52 Q309.277 1549.52 306.199 1544.94 Q303.143 1540.33 303.143 1531.6 Q303.143 1522.85 306.199 1518.27 Q309.277 1513.66 315.087 1513.66 Z" fill="#000000" fill-rule="nonzero" fill-opacity="1"></path><path clip-path="url(#clip100)" d="M728.835 1517.37 Q725.224 1517.37 723.395 1520.93 Q721.59 1524.47 721.59 1531.6 Q721.59 1538.71 723.395 1542.27 Q725.224 1545.82 728.835 1545.82 Q732.469 1545.82 734.275 1542.27 Q736.104 1538.71 736.104 1531.6 Q736.104 1524.47 734.275 1520.93 Q732.469 1517.37 728.835 1517.37 M728.835 1513.66 Q734.645 1513.66 737.701 1518.27 Q740.779 1522.85 740.779 1531.6 Q740.779 1540.33 737.701 1544.94 Q734.645 1549.52 728.835 1549.52 Q723.025 1549.52 719.946 1544.94 Q716.891 1540.33 716.891 1531.6 Q716.891 1522.85 719.946 1518.27 Q723.025 1513.66 728.835 1513.66 Z" fill="#000000" fill-rule="nonzero" fill-opacity="1"></path><path clip-path="url(#clip100)" d="M748.997 1542.97 L753.881 1542.97 L753.881 1548.85 L748.997 1548.85 L748.997 1542.97 Z" fill="#000000" fill-rule="nonzero" fill-opacity="1"></path><path clip-path="url(#clip100)" d="M768.094 1544.91 L784.413 1544.91 L784.413 1548.85 L762.469 1548.85 L762.469 1544.91 Q765.131 1542.16 769.714 1537.53 Q774.321 1532.88 775.501 1531.53 Q777.747 1529.01 778.626 1527.27 Q779.529 1525.51 779.529 1523.82 Q779.529 1521.07 777.585 1519.33 Q775.664 1517.6 772.562 1517.6 Q770.363 1517.6 767.909 1518.36 Q765.478 1519.13 762.701 1520.68 L762.701 1515.95 Q765.525 1514.82 767.978 1514.24 Q770.432 1513.66 772.469 1513.66 Q777.839 1513.66 781.034 1516.35 Q784.228 1519.03 784.228 1523.52 Q784.228 1525.65 783.418 1527.57 Q782.631 1529.47 780.525 1532.07 Q779.946 1532.74 776.844 1535.95 Q773.742 1539.15 768.094 1544.91 Z" fill="#000000" fill-rule="nonzero" fill-opacity="1"></path><path clip-path="url(#clip100)" d="M794.275 1514.29 L812.631 1514.29 L812.631 1518.22 L798.557 1518.22 L798.557 1526.7 Q799.575 1526.35 800.594 1526.19 Q801.612 1526 802.631 1526 Q808.418 1526 811.798 1529.17 Q815.177 1532.34 815.177 1537.76 Q815.177 1543.34 811.705 1546.44 Q808.233 1549.52 801.913 1549.52 Q799.737 1549.52 797.469 1549.15 Q795.224 1548.78 792.816 1548.04 L792.816 1543.34 Q794.9 1544.47 797.122 1545.03 Q799.344 1545.58 801.821 1545.58 Q805.825 1545.58 808.163 1543.48 Q810.501 1541.37 810.501 1537.76 Q810.501 1534.15 808.163 1532.04 Q805.825 1529.94 801.821 1529.94 Q799.946 1529.94 798.071 1530.35 Q796.219 1530.77 794.275 1531.65 L794.275 1514.29 Z" fill="#000000" fill-rule="nonzero" fill-opacity="1"></path><path clip-path="url(#clip100)" d="M1216.98 1517.37 Q1213.37 1517.37 1211.54 1520.93 Q1209.74 1524.47 1209.74 1531.6 Q1209.74 1538.71 1211.54 1542.27 Q1213.37 1545.82 1216.98 1545.82 Q1220.61 1545.82 1222.42 1542.27 Q1224.25 1538.71 1224.25 1531.6 Q1224.25 1524.47 1222.42 1520.93 Q1220.61 1517.37 1216.98 1517.37 M1216.98 1513.66 Q1222.79 1513.66 1225.85 1518.27 Q1228.92 1522.85 1228.92 1531.6 Q1228.92 1540.33 1225.85 1544.94 Q1222.79 1549.52 1216.98 1549.52 Q1211.17 1549.52 1208.09 1544.94 Q1205.04 1540.33 1205.04 1531.6 Q1205.04 1522.85 1208.09 1518.27 Q1211.17 1513.66 1216.98 1513.66 Z" fill="#000000" fill-rule="nonzero" fill-opacity="1"></path><path clip-path="url(#clip100)" d="M1237.14 1542.97 L1242.03 1542.97 L1242.03 1548.85 L1237.14 1548.85 L1237.14 1542.97 Z" fill="#000000" fill-rule="nonzero" fill-opacity="1"></path><path clip-path="url(#clip100)" d="M1252.26 1514.29 L1270.61 1514.29 L1270.61 1518.22 L1256.54 1518.22 L1256.54 1526.7 Q1257.56 1526.35 1258.58 1526.19 Q1259.6 1526 1260.61 1526 Q1266.4 1526 1269.78 1529.17 Q1273.16 1532.34 1273.16 1537.76 Q1273.16 1543.34 1269.69 1546.44 Q1266.22 1549.52 1259.9 1549.52 Q1257.72 1549.52 1255.45 1549.15 Q1253.21 1548.78 1250.8 1548.04 L1250.8 1543.34 Q1252.88 1544.47 1255.11 1545.03 Q1257.33 1545.58 1259.8 1545.58 Q1263.81 1545.58 1266.15 1543.48 Q1268.48 1541.37 1268.48 1537.76 Q1268.48 1534.15 1266.15 1532.04 Q1263.81 1529.94 1259.8 1529.94 Q1257.93 1529.94 1256.05 1530.35 Q1254.2 1530.77 1252.26 1531.65 L1252.26 1514.29 Z" fill="#000000" fill-rule="nonzero" fill-opacity="1"></path><path clip-path="url(#clip100)" d="M1292.37 1517.37 Q1288.76 1517.37 1286.93 1520.93 Q1285.13 1524.47 1285.13 1531.6 Q1285.13 1538.71 1286.93 1542.27 Q1288.76 1545.82 1292.37 1545.82 Q1296.01 1545.82 1297.81 1542.27 Q1299.64 1538.71 1299.64 1531.6 Q1299.64 1524.47 1297.81 1520.93 Q1296.01 1517.37 1292.37 1517.37 M1292.37 1513.66 Q1298.18 1513.66 1301.24 1518.27 Q1304.32 1522.85 1304.32 1531.6 Q1304.32 1540.33 1301.24 1544.94 Q1298.18 1549.52 1292.37 1549.52 Q1286.56 1549.52 1283.48 1544.94 Q1280.43 1540.33 1280.43 1531.6 Q1280.43 1522.85 1283.48 1518.27 Q1286.56 1513.66 1292.37 1513.66 Z" fill="#000000" fill-rule="nonzero" fill-opacity="1"></path><path clip-path="url(#clip100)" d="M1706.12 1517.37 Q1702.51 1517.37 1700.68 1520.93 Q1698.88 1524.47 1698.88 1531.6 Q1698.88 1538.71 1700.68 1542.27 Q1702.51 1545.82 1706.12 1545.82 Q1709.76 1545.82 1711.56 1542.27 Q1713.39 1538.71 1713.39 1531.6 Q1713.39 1524.47 1711.56 1520.93 Q1709.76 1517.37 1706.12 1517.37 M1706.12 1513.66 Q1711.93 1513.66 1714.99 1518.27 Q1718.07 1522.85 1718.07 1531.6 Q1718.07 1540.33 1714.99 1544.94 Q1711.93 1549.52 1706.12 1549.52 Q1700.31 1549.52 1697.23 1544.94 Q1694.18 1540.33 1694.18 1531.6 Q1694.18 1522.85 1697.23 1518.27 Q1700.31 1513.66 1706.12 1513.66 Z" fill="#000000" fill-rule="nonzero" fill-opacity="1"></path><path clip-path="url(#clip100)" d="M1726.28 1542.97 L1731.17 1542.97 L1731.17 1548.85 L1726.28 1548.85 L1726.28 1542.97 Z" fill="#000000" fill-rule="nonzero" fill-opacity="1"></path><path clip-path="url(#clip100)" d="M1740.17 1514.29 L1762.39 1514.29 L1762.39 1516.28 L1749.85 1548.85 L1744.96 1548.85 L1756.77 1518.22 L1740.17 1518.22 L1740.17 1514.29 Z" fill="#000000" fill-rule="nonzero" fill-opacity="1"></path><path clip-path="url(#clip100)" d="M1771.56 1514.29 L1789.92 1514.29 L1789.92 1518.22 L1775.84 1518.22 L1775.84 1526.7 Q1776.86 1526.35 1777.88 1526.19 Q1778.9 1526 1779.92 1526 Q1785.7 1526 1789.08 1529.17 Q1792.46 1532.34 1792.46 1537.76 Q1792.46 1543.34 1788.99 1546.44 Q1785.52 1549.52 1779.2 1549.52 Q1777.02 1549.52 1774.76 1549.15 Q1772.51 1548.78 1770.1 1548.04 L1770.1 1543.34 Q1772.19 1544.47 1774.41 1545.03 Q1776.63 1545.58 1779.11 1545.58 Q1783.11 1545.58 1785.45 1543.48 Q1787.79 1541.37 1787.79 1537.76 Q1787.79 1534.15 1785.45 1532.04 Q1783.11 1529.94 1779.11 1529.94 Q1777.23 1529.94 1775.36 1530.35 Q1773.51 1530.77 1771.56 1531.65 L1771.56 1514.29 Z" fill="#000000" fill-rule="nonzero" fill-opacity="1"></path><path clip-path="url(#clip100)" d="M2184.04 1544.91 L2191.67 1544.91 L2191.67 1518.55 L2183.36 1520.21 L2183.36 1515.95 L2191.63 1514.29 L2196.3 1514.29 L2196.3 1544.91 L2203.94 1544.91 L2203.94 1548.85 L2184.04 1548.85 L2184.04 1544.91 Z" fill="#000000" fill-rule="nonzero" fill-opacity="1"></path><path clip-path="url(#clip100)" d="M2213.39 1542.97 L2218.27 1542.97 L2218.27 1548.85 L2213.39 1548.85 L2213.39 1542.97 Z" fill="#000000" fill-rule="nonzero" fill-opacity="1"></path><path clip-path="url(#clip100)" d="M2238.46 1517.37 Q2234.85 1517.37 2233.02 1520.93 Q2231.21 1524.47 2231.21 1531.6 Q2231.21 1538.71 2233.02 1542.27 Q2234.85 1545.82 2238.46 1545.82 Q2242.09 1545.82 2243.9 1542.27 Q2245.72 1538.71 2245.72 1531.6 Q2245.72 1524.47 2243.9 1520.93 Q2242.09 1517.37 2238.46 1517.37 M2238.46 1513.66 Q2244.27 1513.66 2247.32 1518.27 Q2250.4 1522.85 2250.4 1531.6 Q2250.4 1540.33 2247.32 1544.94 Q2244.27 1549.52 2238.46 1549.52 Q2232.65 1549.52 2229.57 1544.94 Q2226.51 1540.33 2226.51 1531.6 Q2226.51 1522.85 2229.57 1518.27 Q2232.65 1513.66 2238.46 1513.66 Z" fill="#000000" fill-rule="nonzero" fill-opacity="1"></path><path clip-path="url(#clip100)" d="M2268.62 1517.37 Q2265.01 1517.37 2263.18 1520.93 Q2261.37 1524.47 2261.37 1531.6 Q2261.37 1538.71 2263.18 1542.27 Q2265.01 1545.82 2268.62 1545.82 Q2272.25 1545.82 2274.06 1542.27 Q2275.89 1538.71 2275.89 1531.6 Q2275.89 1524.47 2274.06 1520.93 Q2272.25 1517.37 2268.62 1517.37 M2268.62 1513.66 Q2274.43 1513.66 2277.48 1518.27 Q2280.56 1522.85 2280.56 1531.6 Q2280.56 1540.33 2277.48 1544.94 Q2274.43 1549.52 2268.62 1549.52 Q2262.81 1549.52 2259.73 1544.94 Q2256.67 1540.33 2256.67 1531.6 Q2256.67 1522.85 2259.73 1518.27 Q2262.81 1513.66 2268.62 1513.66 Z" fill="#000000" fill-rule="nonzero" fill-opacity="1"></path><polyline clip-path="url(#clip102)" style="stroke:#000000; stroke-linecap:round; stroke-linejoin:round; stroke-width:2; stroke-opacity:0.1; fill:none" points="156.598,1486.45 2352.76,1486.45 "></polyline>
<polyline clip-path="url(#clip102)" style="stroke:#000000; stroke-linecap:round; stroke-linejoin:round; stroke-width:2; stroke-opacity:0.1; fill:none" points="156.598,1273.66 2352.76,1273.66 "></polyline>
<polyline clip-path="url(#clip102)" style="stroke:#000000; stroke-linecap:round; stroke-linejoin:round; stroke-width:2; stroke-opacity:0.1; fill:none" points="156.598,1060.87 2352.76,1060.87 "></polyline>
<polyline clip-path="url(#clip102)" style="stroke:#000000; stroke-linecap:round; stroke-linejoin:round; stroke-width:2; stroke-opacity:0.1; fill:none" points="156.598,848.078 2352.76,848.078 "></polyline>
<polyline clip-path="url(#clip102)" style="stroke:#000000; stroke-linecap:round; stroke-linejoin:round; stroke-width:2; stroke-opacity:0.1; fill:none" points="156.598,635.289 2352.76,635.289 "></polyline>
<polyline clip-path="url(#clip102)" style="stroke:#000000; stroke-linecap:round; stroke-linejoin:round; stroke-width:2; stroke-opacity:0.1; fill:none" points="156.598,422.499 2352.76,422.499 "></polyline>
<polyline clip-path="url(#clip102)" style="stroke:#000000; stroke-linecap:round; stroke-linejoin:round; stroke-width:2; stroke-opacity:0.1; fill:none" points="156.598,209.709 2352.76,209.709 "></polyline>
<polyline clip-path="url(#clip100)" style="stroke:#000000; stroke-linecap:round; stroke-linejoin:round; stroke-width:4; stroke-opacity:1; fill:none" points="156.598,1486.45 156.598,47.2441 "></polyline>
<polyline clip-path="url(#clip100)" style="stroke:#000000; stroke-linecap:round; stroke-linejoin:round; stroke-width:4; stroke-opacity:1; fill:none" points="156.598,1486.45 175.496,1486.45 "></polyline>
<polyline clip-path="url(#clip100)" style="stroke:#000000; stroke-linecap:round; stroke-linejoin:round; stroke-width:4; stroke-opacity:1; fill:none" points="156.598,1273.66 175.496,1273.66 "></polyline>
<polyline clip-path="url(#clip100)" style="stroke:#000000; stroke-linecap:round; stroke-linejoin:round; stroke-width:4; stroke-opacity:1; fill:none" points="156.598,1060.87 175.496,1060.87 "></polyline>
<polyline clip-path="url(#clip100)" style="stroke:#000000; stroke-linecap:round; stroke-linejoin:round; stroke-width:4; stroke-opacity:1; fill:none" points="156.598,848.078 175.496,848.078 "></polyline>
<polyline clip-path="url(#clip100)" style="stroke:#000000; stroke-linecap:round; stroke-linejoin:round; stroke-width:4; stroke-opacity:1; fill:none" points="156.598,635.289 175.496,635.289 "></polyline>
<polyline clip-path="url(#clip100)" style="stroke:#000000; stroke-linecap:round; stroke-linejoin:round; stroke-width:4; stroke-opacity:1; fill:none" points="156.598,422.499 175.496,422.499 "></polyline>
<polyline clip-path="url(#clip100)" style="stroke:#000000; stroke-linecap:round; stroke-linejoin:round; stroke-width:4; stroke-opacity:1; fill:none" points="156.598,209.709 175.496,209.709 "></polyline>
<path clip-path="url(#clip100)" d="M63.4226 1472.25 Q59.8115 1472.25 57.9828 1475.81 Q56.1773 1479.35 56.1773 1486.48 Q56.1773 1493.59 57.9828 1497.15 Q59.8115 1500.7 63.4226 1500.7 Q67.0569 1500.7 68.8624 1497.15 Q70.6911 1493.59 70.6911 1486.48 Q70.6911 1479.35 68.8624 1475.81 Q67.0569 1472.25 63.4226 1472.25 M63.4226 1468.54 Q69.2328 1468.54 72.2883 1473.15 Q75.367 1477.73 75.367 1486.48 Q75.367 1495.21 72.2883 1499.82 Q69.2328 1504.4 63.4226 1504.4 Q57.6125 1504.4 54.5338 1499.82 Q51.4782 1495.21 51.4782 1486.48 Q51.4782 1477.73 54.5338 1473.15 Q57.6125 1468.54 63.4226 1468.54 Z" fill="#000000" fill-rule="nonzero" fill-opacity="1"></path><path clip-path="url(#clip100)" d="M83.5845 1497.85 L88.4688 1497.85 L88.4688 1503.73 L83.5845 1503.73 L83.5845 1497.85 Z" fill="#000000" fill-rule="nonzero" fill-opacity="1"></path><path clip-path="url(#clip100)" d="M108.654 1472.25 Q105.043 1472.25 103.214 1475.81 Q101.409 1479.35 101.409 1486.48 Q101.409 1493.59 103.214 1497.15 Q105.043 1500.7 108.654 1500.7 Q112.288 1500.7 114.094 1497.15 Q115.922 1493.59 115.922 1486.48 Q115.922 1479.35 114.094 1475.81 Q112.288 1472.25 108.654 1472.25 M108.654 1468.54 Q114.464 1468.54 117.52 1473.15 Q120.598 1477.73 120.598 1486.48 Q120.598 1495.21 117.52 1499.82 Q114.464 1504.4 108.654 1504.4 Q102.844 1504.4 99.765 1499.82 Q96.7095 1495.21 96.7095 1486.48 Q96.7095 1477.73 99.765 1473.15 Q102.844 1468.54 108.654 1468.54 Z" fill="#000000" fill-rule="nonzero" fill-opacity="1"></path><path clip-path="url(#clip100)" d="M65.0198 1259.46 Q61.4087 1259.46 59.58 1263.02 Q57.7745 1266.56 57.7745 1273.69 Q57.7745 1280.8 59.58 1284.36 Q61.4087 1287.91 65.0198 1287.91 Q68.6541 1287.91 70.4596 1284.36 Q72.2883 1280.8 72.2883 1273.69 Q72.2883 1266.56 70.4596 1263.02 Q68.6541 1259.46 65.0198 1259.46 M65.0198 1255.75 Q70.83 1255.75 73.8855 1260.36 Q76.9642 1264.94 76.9642 1273.69 Q76.9642 1282.42 73.8855 1287.03 Q70.83 1291.61 65.0198 1291.61 Q59.2097 1291.61 56.131 1287.03 Q53.0754 1282.42 53.0754 1273.69 Q53.0754 1264.94 56.131 1260.36 Q59.2097 1255.75 65.0198 1255.75 Z" fill="#000000" fill-rule="nonzero" fill-opacity="1"></path><path clip-path="url(#clip100)" d="M85.1818 1285.06 L90.066 1285.06 L90.066 1290.94 L85.1818 1290.94 L85.1818 1285.06 Z" fill="#000000" fill-rule="nonzero" fill-opacity="1"></path><path clip-path="url(#clip100)" d="M104.279 1287 L120.598 1287 L120.598 1290.94 L98.6539 1290.94 L98.6539 1287 Q101.316 1284.25 105.899 1279.62 Q110.506 1274.97 111.686 1273.62 Q113.932 1271.1 114.811 1269.36 Q115.714 1267.6 115.714 1265.92 Q115.714 1263.16 113.77 1261.42 Q111.848 1259.69 108.746 1259.69 Q106.547 1259.69 104.094 1260.45 Q101.663 1261.22 98.8854 1262.77 L98.8854 1258.04 Q101.709 1256.91 104.163 1256.33 Q106.617 1255.75 108.654 1255.75 Q114.024 1255.75 117.219 1258.44 Q120.413 1261.12 120.413 1265.61 Q120.413 1267.74 119.603 1269.67 Q118.816 1271.56 116.709 1274.16 Q116.131 1274.83 113.029 1278.04 Q109.927 1281.24 104.279 1287 Z" fill="#000000" fill-rule="nonzero" fill-opacity="1"></path><path clip-path="url(#clip100)" d="M62.9365 1046.67 Q59.3254 1046.67 57.4967 1050.23 Q55.6912 1053.77 55.6912 1060.9 Q55.6912 1068.01 57.4967 1071.57 Q59.3254 1075.12 62.9365 1075.12 Q66.5707 1075.12 68.3763 1071.57 Q70.205 1068.01 70.205 1060.9 Q70.205 1053.77 68.3763 1050.23 Q66.5707 1046.67 62.9365 1046.67 M62.9365 1042.96 Q68.7467 1042.96 71.8022 1047.57 Q74.8809 1052.15 74.8809 1060.9 Q74.8809 1069.63 71.8022 1074.24 Q68.7467 1078.82 62.9365 1078.82 Q57.1264 1078.82 54.0477 1074.24 Q50.9921 1069.63 50.9921 1060.9 Q50.9921 1052.15 54.0477 1047.57 Q57.1264 1042.96 62.9365 1042.96 Z" fill="#000000" fill-rule="nonzero" fill-opacity="1"></path><path clip-path="url(#clip100)" d="M83.0984 1072.27 L87.9827 1072.27 L87.9827 1078.15 L83.0984 1078.15 L83.0984 1072.27 Z" fill="#000000" fill-rule="nonzero" fill-opacity="1"></path><path clip-path="url(#clip100)" d="M111.015 1047.66 L99.2095 1066.11 L111.015 1066.11 L111.015 1047.66 M109.788 1043.59 L115.668 1043.59 L115.668 1066.11 L120.598 1066.11 L120.598 1070 L115.668 1070 L115.668 1078.15 L111.015 1078.15 L111.015 1070 L95.4132 1070 L95.4132 1065.49 L109.788 1043.59 Z" fill="#000000" fill-rule="nonzero" fill-opacity="1"></path><path clip-path="url(#clip100)" d="M63.2606 833.877 Q59.6495 833.877 57.8208 837.442 Q56.0152 840.984 56.0152 848.113 Q56.0152 855.22 57.8208 858.784 Q59.6495 862.326 63.2606 862.326 Q66.8948 862.326 68.7004 858.784 Q70.5291 855.22 70.5291 848.113 Q70.5291 840.984 68.7004 837.442 Q66.8948 833.877 63.2606 833.877 M63.2606 830.173 Q69.0707 830.173 72.1263 834.78 Q75.205 839.363 75.205 848.113 Q75.205 856.84 72.1263 861.446 Q69.0707 866.03 63.2606 866.03 Q57.4504 866.03 54.3717 861.446 Q51.3162 856.84 51.3162 848.113 Q51.3162 839.363 54.3717 834.78 Q57.4504 830.173 63.2606 830.173 Z" fill="#000000" fill-rule="nonzero" fill-opacity="1"></path><path clip-path="url(#clip100)" d="M83.4225 859.479 L88.3067 859.479 L88.3067 865.358 L83.4225 865.358 L83.4225 859.479 Z" fill="#000000" fill-rule="nonzero" fill-opacity="1"></path><path clip-path="url(#clip100)" d="M109.071 846.215 Q105.922 846.215 104.071 848.368 Q102.242 850.521 102.242 854.271 Q102.242 857.997 104.071 860.173 Q105.922 862.326 109.071 862.326 Q112.219 862.326 114.047 860.173 Q115.899 857.997 115.899 854.271 Q115.899 850.521 114.047 848.368 Q112.219 846.215 109.071 846.215 M118.353 831.562 L118.353 835.822 Q116.594 834.988 114.788 834.548 Q113.006 834.109 111.246 834.109 Q106.617 834.109 104.163 837.234 Q101.733 840.359 101.385 846.678 Q102.751 844.664 104.811 843.599 Q106.871 842.511 109.348 842.511 Q114.557 842.511 117.566 845.683 Q120.598 848.831 120.598 854.271 Q120.598 859.595 117.45 862.812 Q114.302 866.03 109.071 866.03 Q103.075 866.03 99.9039 861.446 Q96.7326 856.84 96.7326 848.113 Q96.7326 839.919 100.621 835.058 Q104.51 830.173 111.061 830.173 Q112.82 830.173 114.603 830.521 Q116.408 830.868 118.353 831.562 Z" fill="#000000" fill-rule="nonzero" fill-opacity="1"></path><path clip-path="url(#clip100)" d="M63.5152 621.087 Q59.9041 621.087 58.0754 624.652 Q56.2699 628.194 56.2699 635.323 Q56.2699 642.43 58.0754 645.995 Q59.9041 649.536 63.5152 649.536 Q67.1494 649.536 68.955 645.995 Q70.7837 642.43 70.7837 635.323 Q70.7837 628.194 68.955 624.652 Q67.1494 621.087 63.5152 621.087 M63.5152 617.384 Q69.3254 617.384 72.3809 621.99 Q75.4596 626.573 75.4596 635.323 Q75.4596 644.05 72.3809 648.657 Q69.3254 653.24 63.5152 653.24 Q57.7051 653.24 54.6264 648.657 Q51.5708 644.05 51.5708 635.323 Q51.5708 626.573 54.6264 621.99 Q57.7051 617.384 63.5152 617.384 Z" fill="#000000" fill-rule="nonzero" fill-opacity="1"></path><path clip-path="url(#clip100)" d="M83.6771 646.689 L88.5614 646.689 L88.5614 652.569 L83.6771 652.569 L83.6771 646.689 Z" fill="#000000" fill-rule="nonzero" fill-opacity="1"></path><path clip-path="url(#clip100)" d="M108.746 636.157 Q105.413 636.157 103.492 637.939 Q101.594 639.722 101.594 642.847 Q101.594 645.972 103.492 647.754 Q105.413 649.536 108.746 649.536 Q112.08 649.536 114.001 647.754 Q115.922 645.948 115.922 642.847 Q115.922 639.722 114.001 637.939 Q112.103 636.157 108.746 636.157 M104.071 634.166 Q101.061 633.425 99.3715 631.365 Q97.7048 629.305 97.7048 626.342 Q97.7048 622.198 100.645 619.791 Q103.608 617.384 108.746 617.384 Q113.908 617.384 116.848 619.791 Q119.788 622.198 119.788 626.342 Q119.788 629.305 118.098 631.365 Q116.432 633.425 113.445 634.166 Q116.825 634.953 118.7 637.245 Q120.598 639.536 120.598 642.847 Q120.598 647.87 117.52 650.555 Q114.464 653.24 108.746 653.24 Q103.029 653.24 99.9502 650.555 Q96.8947 647.87 96.8947 642.847 Q96.8947 639.536 98.7928 637.245 Q100.691 634.953 104.071 634.166 M102.358 626.782 Q102.358 629.467 104.024 630.972 Q105.714 632.476 108.746 632.476 Q111.756 632.476 113.445 630.972 Q115.158 629.467 115.158 626.782 Q115.158 624.097 113.445 622.592 Q111.756 621.087 108.746 621.087 Q105.714 621.087 104.024 622.592 Q102.358 624.097 102.358 626.782 Z" fill="#000000" fill-rule="nonzero" fill-opacity="1"></path><path clip-path="url(#clip100)" d="M54.2328 435.844 L61.8717 435.844 L61.8717 409.478 L53.5616 411.145 L53.5616 406.886 L61.8254 405.219 L66.5013 405.219 L66.5013 435.844 L74.1402 435.844 L74.1402 439.779 L54.2328 439.779 L54.2328 435.844 Z" fill="#000000" fill-rule="nonzero" fill-opacity="1"></path><path clip-path="url(#clip100)" d="M83.5845 433.899 L88.4688 433.899 L88.4688 439.779 L83.5845 439.779 L83.5845 433.899 Z" fill="#000000" fill-rule="nonzero" fill-opacity="1"></path><path clip-path="url(#clip100)" d="M108.654 408.298 Q105.043 408.298 103.214 411.862 Q101.409 415.404 101.409 422.534 Q101.409 429.64 103.214 433.205 Q105.043 436.747 108.654 436.747 Q112.288 436.747 114.094 433.205 Q115.922 429.64 115.922 422.534 Q115.922 415.404 114.094 411.862 Q112.288 408.298 108.654 408.298 M108.654 404.594 Q114.464 404.594 117.52 409.2 Q120.598 413.784 120.598 422.534 Q120.598 431.26 117.52 435.867 Q114.464 440.45 108.654 440.45 Q102.844 440.45 99.765 435.867 Q96.7095 431.26 96.7095 422.534 Q96.7095 413.784 99.765 409.2 Q102.844 404.594 108.654 404.594 Z" fill="#000000" fill-rule="nonzero" fill-opacity="1"></path><path clip-path="url(#clip100)" d="M55.8301 223.054 L63.4689 223.054 L63.4689 196.688 L55.1588 198.355 L55.1588 194.096 L63.4226 192.429 L68.0985 192.429 L68.0985 223.054 L75.7374 223.054 L75.7374 226.989 L55.8301 226.989 L55.8301 223.054 Z" fill="#000000" fill-rule="nonzero" fill-opacity="1"></path><path clip-path="url(#clip100)" d="M85.1818 221.11 L90.066 221.11 L90.066 226.989 L85.1818 226.989 L85.1818 221.11 Z" fill="#000000" fill-rule="nonzero" fill-opacity="1"></path><path clip-path="url(#clip100)" d="M104.279 223.054 L120.598 223.054 L120.598 226.989 L98.6539 226.989 L98.6539 223.054 Q101.316 220.299 105.899 215.67 Q110.506 211.017 111.686 209.674 Q113.932 207.151 114.811 205.415 Q115.714 203.656 115.714 201.966 Q115.714 199.211 113.77 197.475 Q111.848 195.739 108.746 195.739 Q106.547 195.739 104.094 196.503 Q101.663 197.267 98.8854 198.818 L98.8854 194.096 Q101.709 192.962 104.163 192.383 Q106.617 191.804 108.654 191.804 Q114.024 191.804 117.219 194.489 Q120.413 197.174 120.413 201.665 Q120.413 203.795 119.603 205.716 Q118.816 207.614 116.709 210.207 Q116.131 210.878 113.029 214.096 Q109.927 217.29 104.279 223.054 Z" fill="#000000" fill-rule="nonzero" fill-opacity="1"></path><path clip-path="url(#clip102)" d="M277.391 63.5225 L277.391 1486.45 L296.937 1486.45 L296.937 63.5225 L277.391 63.5225 L277.391 63.5225  Z" fill="#009af9" fill-rule="evenodd" fill-opacity="1"></path>
<polyline clip-path="url(#clip102)" style="stroke:#000000; stroke-linecap:round; stroke-linejoin:round; stroke-width:4; stroke-opacity:1; fill:none" points="277.391,63.5225 277.391,1486.45 296.937,1486.45 296.937,63.5225 277.391,63.5225 "></polyline>
<path clip-path="url(#clip102)" d="M296.937 87.7806 L296.937 1486.45 L316.482 1486.45 L316.482 87.7806 L296.937 87.7806 L296.937 87.7806  Z" fill="#009af9" fill-rule="evenodd" fill-opacity="1"></path>
<polyline clip-path="url(#clip102)" style="stroke:#000000; stroke-linecap:round; stroke-linejoin:round; stroke-width:4; stroke-opacity:1; fill:none" points="296.937,87.7806 296.937,1486.45 316.482,1486.45 316.482,87.7806 296.937,87.7806 "></polyline>
<path clip-path="url(#clip102)" d="M316.482 47.9889 L316.482 1486.45 L336.028 1486.45 L336.028 47.9889 L316.482 47.9889 L316.482 47.9889  Z" fill="#009af9" fill-rule="evenodd" fill-opacity="1"></path>
<polyline clip-path="url(#clip102)" style="stroke:#000000; stroke-linecap:round; stroke-linejoin:round; stroke-width:4; stroke-opacity:1; fill:none" points="316.482,47.9889 316.482,1486.45 336.028,1486.45 336.028,47.9889 316.482,47.9889 "></polyline>
<path clip-path="url(#clip102)" d="M336.028 80.2265 L336.028 1486.45 L355.574 1486.45 L355.574 80.2265 L336.028 80.2265 L336.028 80.2265  Z" fill="#009af9" fill-rule="evenodd" fill-opacity="1"></path>
<polyline clip-path="url(#clip102)" style="stroke:#000000; stroke-linecap:round; stroke-linejoin:round; stroke-width:4; stroke-opacity:1; fill:none" points="336.028,80.2265 336.028,1486.45 355.574,1486.45 355.574,80.2265 336.028,80.2265 "></polyline>
<path clip-path="url(#clip102)" d="M355.574 63.5225 L355.574 1486.45 L375.119 1486.45 L375.119 63.5225 L355.574 63.5225 L355.574 63.5225  Z" fill="#009af9" fill-rule="evenodd" fill-opacity="1"></path>
<polyline clip-path="url(#clip102)" style="stroke:#000000; stroke-linecap:round; stroke-linejoin:round; stroke-width:4; stroke-opacity:1; fill:none" points="355.574,63.5225 355.574,1486.45 375.119,1486.45 375.119,63.5225 355.574,63.5225 "></polyline>
<path clip-path="url(#clip102)" d="M375.119 57.0324 L375.119 1486.45 L394.665 1486.45 L394.665 57.0324 L375.119 57.0324 L375.119 57.0324  Z" fill="#009af9" fill-rule="evenodd" fill-opacity="1"></path>
<polyline clip-path="url(#clip102)" style="stroke:#000000; stroke-linecap:round; stroke-linejoin:round; stroke-width:4; stroke-opacity:1; fill:none" points="375.119,57.0324 375.119,1486.45 394.665,1486.45 394.665,57.0324 375.119,57.0324 "></polyline>
<path clip-path="url(#clip102)" d="M394.665 47.2441 L394.665 1486.45 L414.211 1486.45 L414.211 47.2441 L394.665 47.2441 L394.665 47.2441  Z" fill="#009af9" fill-rule="evenodd" fill-opacity="1"></path>
<polyline clip-path="url(#clip102)" style="stroke:#000000; stroke-linecap:round; stroke-linejoin:round; stroke-width:4; stroke-opacity:1; fill:none" points="394.665,47.2441 394.665,1486.45 414.211,1486.45 414.211,47.2441 394.665,47.2441 "></polyline>
<path clip-path="url(#clip102)" d="M414.211 69.587 L414.211 1486.45 L433.757 1486.45 L433.757 69.587 L414.211 69.587 L414.211 69.587  Z" fill="#009af9" fill-rule="evenodd" fill-opacity="1"></path>
<polyline clip-path="url(#clip102)" style="stroke:#000000; stroke-linecap:round; stroke-linejoin:round; stroke-width:4; stroke-opacity:1; fill:none" points="414.211,69.587 414.211,1486.45 433.757,1486.45 433.757,69.587 414.211,69.587 "></polyline>
<path clip-path="url(#clip102)" d="M433.757 79.9073 L433.757 1486.45 L453.302 1486.45 L453.302 79.9073 L433.757 79.9073 L433.757 79.9073  Z" fill="#009af9" fill-rule="evenodd" fill-opacity="1"></path>
<polyline clip-path="url(#clip102)" style="stroke:#000000; stroke-linecap:round; stroke-linejoin:round; stroke-width:4; stroke-opacity:1; fill:none" points="433.757,79.9073 433.757,1486.45 453.302,1486.45 453.302,79.9073 433.757,79.9073 "></polyline>
<path clip-path="url(#clip102)" d="M453.302 80.4393 L453.302 1486.45 L472.848 1486.45 L472.848 80.4393 L453.302 80.4393 L453.302 80.4393  Z" fill="#009af9" fill-rule="evenodd" fill-opacity="1"></path>
<polyline clip-path="url(#clip102)" style="stroke:#000000; stroke-linecap:round; stroke-linejoin:round; stroke-width:4; stroke-opacity:1; fill:none" points="453.302,80.4393 453.302,1486.45 472.848,1486.45 472.848,80.4393 453.302,80.4393 "></polyline>
<path clip-path="url(#clip102)" d="M472.848 95.2282 L472.848 1486.45 L492.394 1486.45 L492.394 95.2282 L472.848 95.2282 L472.848 95.2282  Z" fill="#009af9" fill-rule="evenodd" fill-opacity="1"></path>
<polyline clip-path="url(#clip102)" style="stroke:#000000; stroke-linecap:round; stroke-linejoin:round; stroke-width:4; stroke-opacity:1; fill:none" points="472.848,95.2282 472.848,1486.45 492.394,1486.45 492.394,95.2282 472.848,95.2282 "></polyline>
<path clip-path="url(#clip102)" d="M492.394 71.6085 L492.394 1486.45 L511.94 1486.45 L511.94 71.6085 L492.394 71.6085 L492.394 71.6085  Z" fill="#009af9" fill-rule="evenodd" fill-opacity="1"></path>
<polyline clip-path="url(#clip102)" style="stroke:#000000; stroke-linecap:round; stroke-linejoin:round; stroke-width:4; stroke-opacity:1; fill:none" points="492.394,71.6085 492.394,1486.45 511.94,1486.45 511.94,71.6085 492.394,71.6085 "></polyline>
<path clip-path="url(#clip102)" d="M511.94 80.4393 L511.94 1486.45 L531.485 1486.45 L531.485 80.4393 L511.94 80.4393 L511.94 80.4393  Z" fill="#009af9" fill-rule="evenodd" fill-opacity="1"></path>
<polyline clip-path="url(#clip102)" style="stroke:#000000; stroke-linecap:round; stroke-linejoin:round; stroke-width:4; stroke-opacity:1; fill:none" points="511.94,80.4393 511.94,1486.45 531.485,1486.45 531.485,80.4393 511.94,80.4393 "></polyline>
<path clip-path="url(#clip102)" d="M531.485 73.7364 L531.485 1486.45 L551.031 1486.45 L551.031 73.7364 L531.485 73.7364 L531.485 73.7364  Z" fill="#009af9" fill-rule="evenodd" fill-opacity="1"></path>
<polyline clip-path="url(#clip102)" style="stroke:#000000; stroke-linecap:round; stroke-linejoin:round; stroke-width:4; stroke-opacity:1; fill:none" points="531.485,73.7364 531.485,1486.45 551.031,1486.45 551.031,73.7364 531.485,73.7364 "></polyline>
<path clip-path="url(#clip102)" d="M551.031 80.1201 L551.031 1486.45 L570.577 1486.45 L570.577 80.1201 L551.031 80.1201 L551.031 80.1201  Z" fill="#009af9" fill-rule="evenodd" fill-opacity="1"></path>
<polyline clip-path="url(#clip102)" style="stroke:#000000; stroke-linecap:round; stroke-linejoin:round; stroke-width:4; stroke-opacity:1; fill:none" points="551.031,80.1201 551.031,1486.45 570.577,1486.45 570.577,80.1201 551.031,80.1201 "></polyline>
<path clip-path="url(#clip102)" d="M570.577 85.9718 L570.577 1486.45 L590.122 1486.45 L590.122 85.9718 L570.577 85.9718 L570.577 85.9718  Z" fill="#009af9" fill-rule="evenodd" fill-opacity="1"></path>
<polyline clip-path="url(#clip102)" style="stroke:#000000; stroke-linecap:round; stroke-linejoin:round; stroke-width:4; stroke-opacity:1; fill:none" points="570.577,85.9718 570.577,1486.45 590.122,1486.45 590.122,85.9718 570.577,85.9718 "></polyline>
<path clip-path="url(#clip102)" d="M590.122 96.0794 L590.122 1486.45 L609.668 1486.45 L609.668 96.0794 L590.122 96.0794 L590.122 96.0794  Z" fill="#009af9" fill-rule="evenodd" fill-opacity="1"></path>
<polyline clip-path="url(#clip102)" style="stroke:#000000; stroke-linecap:round; stroke-linejoin:round; stroke-width:4; stroke-opacity:1; fill:none" points="590.122,96.0794 590.122,1486.45 609.668,1486.45 609.668,96.0794 590.122,96.0794 "></polyline>
<path clip-path="url(#clip102)" d="M609.668 99.3776 L609.668 1486.45 L629.214 1486.45 L629.214 99.3776 L609.668 99.3776 L609.668 99.3776  Z" fill="#009af9" fill-rule="evenodd" fill-opacity="1"></path>
<polyline clip-path="url(#clip102)" style="stroke:#000000; stroke-linecap:round; stroke-linejoin:round; stroke-width:4; stroke-opacity:1; fill:none" points="609.668,99.3776 609.668,1486.45 629.214,1486.45 629.214,99.3776 609.668,99.3776 "></polyline>
<path clip-path="url(#clip102)" d="M629.214 119.486 L629.214 1486.45 L648.76 1486.45 L648.76 119.486 L629.214 119.486 L629.214 119.486  Z" fill="#009af9" fill-rule="evenodd" fill-opacity="1"></path>
<polyline clip-path="url(#clip102)" style="stroke:#000000; stroke-linecap:round; stroke-linejoin:round; stroke-width:4; stroke-opacity:1; fill:none" points="629.214,119.486 629.214,1486.45 648.76,1486.45 648.76,119.486 629.214,119.486 "></polyline>
<path clip-path="url(#clip102)" d="M648.76 105.655 L648.76 1486.45 L668.305 1486.45 L668.305 105.655 L648.76 105.655 L648.76 105.655  Z" fill="#009af9" fill-rule="evenodd" fill-opacity="1"></path>
<polyline clip-path="url(#clip102)" style="stroke:#000000; stroke-linecap:round; stroke-linejoin:round; stroke-width:4; stroke-opacity:1; fill:none" points="648.76,105.655 648.76,1486.45 668.305,1486.45 668.305,105.655 648.76,105.655 "></polyline>
<path clip-path="url(#clip102)" d="M668.305 114.379 L668.305 1486.45 L687.851 1486.45 L687.851 114.379 L668.305 114.379 L668.305 114.379  Z" fill="#009af9" fill-rule="evenodd" fill-opacity="1"></path>
<polyline clip-path="url(#clip102)" style="stroke:#000000; stroke-linecap:round; stroke-linejoin:round; stroke-width:4; stroke-opacity:1; fill:none" points="668.305,114.379 668.305,1486.45 687.851,1486.45 687.851,114.379 668.305,114.379 "></polyline>
<path clip-path="url(#clip102)" d="M687.851 118.316 L687.851 1486.45 L707.397 1486.45 L707.397 118.316 L687.851 118.316 L687.851 118.316  Z" fill="#009af9" fill-rule="evenodd" fill-opacity="1"></path>
<polyline clip-path="url(#clip102)" style="stroke:#000000; stroke-linecap:round; stroke-linejoin:round; stroke-width:4; stroke-opacity:1; fill:none" points="687.851,118.316 687.851,1486.45 707.397,1486.45 707.397,118.316 687.851,118.316 "></polyline>
<path clip-path="url(#clip102)" d="M707.397 118.316 L707.397 1486.45 L726.942 1486.45 L726.942 118.316 L707.397 118.316 L707.397 118.316  Z" fill="#009af9" fill-rule="evenodd" fill-opacity="1"></path>
<polyline clip-path="url(#clip102)" style="stroke:#000000; stroke-linecap:round; stroke-linejoin:round; stroke-width:4; stroke-opacity:1; fill:none" points="707.397,118.316 707.397,1486.45 726.942,1486.45 726.942,118.316 707.397,118.316 "></polyline>
<path clip-path="url(#clip102)" d="M726.942 149.277 L726.942 1486.45 L746.488 1486.45 L746.488 149.277 L726.942 149.277 L726.942 149.277  Z" fill="#009af9" fill-rule="evenodd" fill-opacity="1"></path>
<polyline clip-path="url(#clip102)" style="stroke:#000000; stroke-linecap:round; stroke-linejoin:round; stroke-width:4; stroke-opacity:1; fill:none" points="726.942,149.277 726.942,1486.45 746.488,1486.45 746.488,149.277 726.942,149.277 "></polyline>
<path clip-path="url(#clip102)" d="M746.488 137.148 L746.488 1486.45 L766.034 1486.45 L766.034 137.148 L746.488 137.148 L746.488 137.148  Z" fill="#009af9" fill-rule="evenodd" fill-opacity="1"></path>
<polyline clip-path="url(#clip102)" style="stroke:#000000; stroke-linecap:round; stroke-linejoin:round; stroke-width:4; stroke-opacity:1; fill:none" points="746.488,137.148 746.488,1486.45 766.034,1486.45 766.034,137.148 746.488,137.148 "></polyline>
<path clip-path="url(#clip102)" d="M766.034 136.722 L766.034 1486.45 L785.58 1486.45 L785.58 136.722 L766.034 136.722 L766.034 136.722  Z" fill="#009af9" fill-rule="evenodd" fill-opacity="1"></path>
<polyline clip-path="url(#clip102)" style="stroke:#000000; stroke-linecap:round; stroke-linejoin:round; stroke-width:4; stroke-opacity:1; fill:none" points="766.034,136.722 766.034,1486.45 785.58,1486.45 785.58,136.722 766.034,136.722 "></polyline>
<path clip-path="url(#clip102)" d="M785.58 171.62 L785.58 1486.45 L805.125 1486.45 L805.125 171.62 L785.58 171.62 L785.58 171.62  Z" fill="#009af9" fill-rule="evenodd" fill-opacity="1"></path>
<polyline clip-path="url(#clip102)" style="stroke:#000000; stroke-linecap:round; stroke-linejoin:round; stroke-width:4; stroke-opacity:1; fill:none" points="785.58,171.62 785.58,1486.45 805.125,1486.45 805.125,171.62 785.58,171.62 "></polyline>
<path clip-path="url(#clip102)" d="M805.125 184.706 L805.125 1486.45 L824.671 1486.45 L824.671 184.706 L805.125 184.706 L805.125 184.706  Z" fill="#009af9" fill-rule="evenodd" fill-opacity="1"></path>
<polyline clip-path="url(#clip102)" style="stroke:#000000; stroke-linecap:round; stroke-linejoin:round; stroke-width:4; stroke-opacity:1; fill:none" points="805.125,184.706 805.125,1486.45 824.671,1486.45 824.671,184.706 805.125,184.706 "></polyline>
<path clip-path="url(#clip102)" d="M824.671 183.642 L824.671 1486.45 L844.217 1486.45 L844.217 183.642 L824.671 183.642 L824.671 183.642  Z" fill="#009af9" fill-rule="evenodd" fill-opacity="1"></path>
<polyline clip-path="url(#clip102)" style="stroke:#000000; stroke-linecap:round; stroke-linejoin:round; stroke-width:4; stroke-opacity:1; fill:none" points="824.671,183.642 824.671,1486.45 844.217,1486.45 844.217,183.642 824.671,183.642 "></polyline>
<path clip-path="url(#clip102)" d="M844.217 183.536 L844.217 1486.45 L863.763 1486.45 L863.763 183.536 L844.217 183.536 L844.217 183.536  Z" fill="#009af9" fill-rule="evenodd" fill-opacity="1"></path>
<polyline clip-path="url(#clip102)" style="stroke:#000000; stroke-linecap:round; stroke-linejoin:round; stroke-width:4; stroke-opacity:1; fill:none" points="844.217,183.536 844.217,1486.45 863.763,1486.45 863.763,183.536 844.217,183.536 "></polyline>
<path clip-path="url(#clip102)" d="M863.763 176.833 L863.763 1486.45 L883.308 1486.45 L883.308 176.833 L863.763 176.833 L863.763 176.833  Z" fill="#009af9" fill-rule="evenodd" fill-opacity="1"></path>
<polyline clip-path="url(#clip102)" style="stroke:#000000; stroke-linecap:round; stroke-linejoin:round; stroke-width:4; stroke-opacity:1; fill:none" points="863.763,176.833 863.763,1486.45 883.308,1486.45 883.308,176.833 863.763,176.833 "></polyline>
<path clip-path="url(#clip102)" d="M883.308 187.685 L883.308 1486.45 L902.854 1486.45 L902.854 187.685 L883.308 187.685 L883.308 187.685  Z" fill="#009af9" fill-rule="evenodd" fill-opacity="1"></path>
<polyline clip-path="url(#clip102)" style="stroke:#000000; stroke-linecap:round; stroke-linejoin:round; stroke-width:4; stroke-opacity:1; fill:none" points="883.308,187.685 883.308,1486.45 902.854,1486.45 902.854,187.685 883.308,187.685 "></polyline>
<path clip-path="url(#clip102)" d="M902.854 191.835 L902.854 1486.45 L922.4 1486.45 L922.4 191.835 L902.854 191.835 L902.854 191.835  Z" fill="#009af9" fill-rule="evenodd" fill-opacity="1"></path>
<polyline clip-path="url(#clip102)" style="stroke:#000000; stroke-linecap:round; stroke-linejoin:round; stroke-width:4; stroke-opacity:1; fill:none" points="902.854,191.835 902.854,1486.45 922.4,1486.45 922.4,191.835 902.854,191.835 "></polyline>
<path clip-path="url(#clip102)" d="M922.4 224.817 L922.4 1486.45 L941.945 1486.45 L941.945 224.817 L922.4 224.817 L922.4 224.817  Z" fill="#009af9" fill-rule="evenodd" fill-opacity="1"></path>
<polyline clip-path="url(#clip102)" style="stroke:#000000; stroke-linecap:round; stroke-linejoin:round; stroke-width:4; stroke-opacity:1; fill:none" points="922.4,224.817 922.4,1486.45 941.945,1486.45 941.945,224.817 922.4,224.817 "></polyline>
<path clip-path="url(#clip102)" d="M941.945 215.774 L941.945 1486.45 L961.491 1486.45 L961.491 215.774 L941.945 215.774 L941.945 215.774  Z" fill="#009af9" fill-rule="evenodd" fill-opacity="1"></path>
<polyline clip-path="url(#clip102)" style="stroke:#000000; stroke-linecap:round; stroke-linejoin:round; stroke-width:4; stroke-opacity:1; fill:none" points="941.945,215.774 941.945,1486.45 961.491,1486.45 961.491,215.774 941.945,215.774 "></polyline>
<path clip-path="url(#clip102)" d="M961.491 220.242 L961.491 1486.45 L981.037 1486.45 L981.037 220.242 L961.491 220.242 L961.491 220.242  Z" fill="#009af9" fill-rule="evenodd" fill-opacity="1"></path>
<polyline clip-path="url(#clip102)" style="stroke:#000000; stroke-linecap:round; stroke-linejoin:round; stroke-width:4; stroke-opacity:1; fill:none" points="961.491,220.242 961.491,1486.45 981.037,1486.45 981.037,220.242 961.491,220.242 "></polyline>
<path clip-path="url(#clip102)" d="M981.037 236.095 L981.037 1486.45 L1000.58 1486.45 L1000.58 236.095 L981.037 236.095 L981.037 236.095  Z" fill="#009af9" fill-rule="evenodd" fill-opacity="1"></path>
<polyline clip-path="url(#clip102)" style="stroke:#000000; stroke-linecap:round; stroke-linejoin:round; stroke-width:4; stroke-opacity:1; fill:none" points="981.037,236.095 981.037,1486.45 1000.58,1486.45 1000.58,236.095 981.037,236.095 "></polyline>
<path clip-path="url(#clip102)" d="M1000.58 241.521 L1000.58 1486.45 L1020.13 1486.45 L1020.13 241.521 L1000.58 241.521 L1000.58 241.521  Z" fill="#009af9" fill-rule="evenodd" fill-opacity="1"></path>
<polyline clip-path="url(#clip102)" style="stroke:#000000; stroke-linecap:round; stroke-linejoin:round; stroke-width:4; stroke-opacity:1; fill:none" points="1000.58,241.521 1000.58,1486.45 1020.13,1486.45 1020.13,241.521 1000.58,241.521 "></polyline>
<path clip-path="url(#clip102)" d="M1020.13 249.075 L1020.13 1486.45 L1039.67 1486.45 L1039.67 249.075 L1020.13 249.075 L1020.13 249.075  Z" fill="#009af9" fill-rule="evenodd" fill-opacity="1"></path>
<polyline clip-path="url(#clip102)" style="stroke:#000000; stroke-linecap:round; stroke-linejoin:round; stroke-width:4; stroke-opacity:1; fill:none" points="1020.13,249.075 1020.13,1486.45 1039.67,1486.45 1039.67,249.075 1020.13,249.075 "></polyline>
<path clip-path="url(#clip102)" d="M1039.67 259.821 L1039.67 1486.45 L1059.22 1486.45 L1059.22 259.821 L1039.67 259.821 L1039.67 259.821  Z" fill="#009af9" fill-rule="evenodd" fill-opacity="1"></path>
<polyline clip-path="url(#clip102)" style="stroke:#000000; stroke-linecap:round; stroke-linejoin:round; stroke-width:4; stroke-opacity:1; fill:none" points="1039.67,259.821 1039.67,1486.45 1059.22,1486.45 1059.22,259.821 1039.67,259.821 "></polyline>
<path clip-path="url(#clip102)" d="M1059.22 295.889 L1059.22 1486.45 L1078.77 1486.45 L1078.77 295.889 L1059.22 295.889 L1059.22 295.889  Z" fill="#009af9" fill-rule="evenodd" fill-opacity="1"></path>
<polyline clip-path="url(#clip102)" style="stroke:#000000; stroke-linecap:round; stroke-linejoin:round; stroke-width:4; stroke-opacity:1; fill:none" points="1059.22,295.889 1059.22,1486.45 1078.77,1486.45 1078.77,295.889 1059.22,295.889 "></polyline>
<path clip-path="url(#clip102)" d="M1078.77 283.015 L1078.77 1486.45 L1098.31 1486.45 L1098.31 283.015 L1078.77 283.015 L1078.77 283.015  Z" fill="#009af9" fill-rule="evenodd" fill-opacity="1"></path>
<polyline clip-path="url(#clip102)" style="stroke:#000000; stroke-linecap:round; stroke-linejoin:round; stroke-width:4; stroke-opacity:1; fill:none" points="1078.77,283.015 1078.77,1486.45 1098.31,1486.45 1098.31,283.015 1078.77,283.015 "></polyline>
<path clip-path="url(#clip102)" d="M1098.31 278.866 L1098.31 1486.45 L1117.86 1486.45 L1117.86 278.866 L1098.31 278.866 L1098.31 278.866  Z" fill="#009af9" fill-rule="evenodd" fill-opacity="1"></path>
<polyline clip-path="url(#clip102)" style="stroke:#000000; stroke-linecap:round; stroke-linejoin:round; stroke-width:4; stroke-opacity:1; fill:none" points="1098.31,278.866 1098.31,1486.45 1117.86,1486.45 1117.86,278.866 1098.31,278.866 "></polyline>
<path clip-path="url(#clip102)" d="M1117.86 326.637 L1117.86 1486.45 L1137.4 1486.45 L1137.4 326.637 L1117.86 326.637 L1117.86 326.637  Z" fill="#009af9" fill-rule="evenodd" fill-opacity="1"></path>
<polyline clip-path="url(#clip102)" style="stroke:#000000; stroke-linecap:round; stroke-linejoin:round; stroke-width:4; stroke-opacity:1; fill:none" points="1117.86,326.637 1117.86,1486.45 1137.4,1486.45 1137.4,326.637 1117.86,326.637 "></polyline>
<path clip-path="url(#clip102)" d="M1137.4 313.338 L1137.4 1486.45 L1156.95 1486.45 L1156.95 313.338 L1137.4 313.338 L1137.4 313.338  Z" fill="#009af9" fill-rule="evenodd" fill-opacity="1"></path>
<polyline clip-path="url(#clip102)" style="stroke:#000000; stroke-linecap:round; stroke-linejoin:round; stroke-width:4; stroke-opacity:1; fill:none" points="1137.4,313.338 1137.4,1486.45 1156.95,1486.45 1156.95,313.338 1137.4,313.338 "></polyline>
<path clip-path="url(#clip102)" d="M1156.95 335.787 L1156.95 1486.45 L1176.49 1486.45 L1176.49 335.787 L1156.95 335.787 L1156.95 335.787  Z" fill="#009af9" fill-rule="evenodd" fill-opacity="1"></path>
<polyline clip-path="url(#clip102)" style="stroke:#000000; stroke-linecap:round; stroke-linejoin:round; stroke-width:4; stroke-opacity:1; fill:none" points="1156.95,335.787 1156.95,1486.45 1176.49,1486.45 1176.49,335.787 1156.95,335.787 "></polyline>
<path clip-path="url(#clip102)" d="M1176.49 340.256 L1176.49 1486.45 L1196.04 1486.45 L1196.04 340.256 L1176.49 340.256 L1176.49 340.256  Z" fill="#009af9" fill-rule="evenodd" fill-opacity="1"></path>
<polyline clip-path="url(#clip102)" style="stroke:#000000; stroke-linecap:round; stroke-linejoin:round; stroke-width:4; stroke-opacity:1; fill:none" points="1176.49,340.256 1176.49,1486.45 1196.04,1486.45 1196.04,340.256 1176.49,340.256 "></polyline>
<path clip-path="url(#clip102)" d="M1196.04 348.767 L1196.04 1486.45 L1215.59 1486.45 L1215.59 348.767 L1196.04 348.767 L1196.04 348.767  Z" fill="#009af9" fill-rule="evenodd" fill-opacity="1"></path>
<polyline clip-path="url(#clip102)" style="stroke:#000000; stroke-linecap:round; stroke-linejoin:round; stroke-width:4; stroke-opacity:1; fill:none" points="1196.04,348.767 1196.04,1486.45 1215.59,1486.45 1215.59,348.767 1196.04,348.767 "></polyline>
<path clip-path="url(#clip102)" d="M1215.59 361.109 L1215.59 1486.45 L1235.13 1486.45 L1235.13 361.109 L1215.59 361.109 L1215.59 361.109  Z" fill="#009af9" fill-rule="evenodd" fill-opacity="1"></path>
<polyline clip-path="url(#clip102)" style="stroke:#000000; stroke-linecap:round; stroke-linejoin:round; stroke-width:4; stroke-opacity:1; fill:none" points="1215.59,361.109 1215.59,1486.45 1235.13,1486.45 1235.13,361.109 1215.59,361.109 "></polyline>
<path clip-path="url(#clip102)" d="M1235.13 379.622 L1235.13 1486.45 L1254.68 1486.45 L1254.68 379.622 L1235.13 379.622 L1235.13 379.622  Z" fill="#009af9" fill-rule="evenodd" fill-opacity="1"></path>
<polyline clip-path="url(#clip102)" style="stroke:#000000; stroke-linecap:round; stroke-linejoin:round; stroke-width:4; stroke-opacity:1; fill:none" points="1235.13,379.622 1235.13,1486.45 1254.68,1486.45 1254.68,379.622 1235.13,379.622 "></polyline>
<path clip-path="url(#clip102)" d="M1254.68 393.879 L1254.68 1486.45 L1274.22 1486.45 L1274.22 393.879 L1254.68 393.879 L1254.68 393.879  Z" fill="#009af9" fill-rule="evenodd" fill-opacity="1"></path>
<polyline clip-path="url(#clip102)" style="stroke:#000000; stroke-linecap:round; stroke-linejoin:round; stroke-width:4; stroke-opacity:1; fill:none" points="1254.68,393.879 1254.68,1486.45 1274.22,1486.45 1274.22,393.879 1254.68,393.879 "></polyline>
<path clip-path="url(#clip102)" d="M1274.22 374.515 L1274.22 1486.45 L1293.77 1486.45 L1293.77 374.515 L1274.22 374.515 L1274.22 374.515  Z" fill="#009af9" fill-rule="evenodd" fill-opacity="1"></path>
<polyline clip-path="url(#clip102)" style="stroke:#000000; stroke-linecap:round; stroke-linejoin:round; stroke-width:4; stroke-opacity:1; fill:none" points="1274.22,374.515 1274.22,1486.45 1293.77,1486.45 1293.77,374.515 1274.22,374.515 "></polyline>
<path clip-path="url(#clip102)" d="M1293.77 386.325 L1293.77 1486.45 L1313.31 1486.45 L1313.31 386.325 L1293.77 386.325 L1293.77 386.325  Z" fill="#009af9" fill-rule="evenodd" fill-opacity="1"></path>
<polyline clip-path="url(#clip102)" style="stroke:#000000; stroke-linecap:round; stroke-linejoin:round; stroke-width:4; stroke-opacity:1; fill:none" points="1293.77,386.325 1293.77,1486.45 1313.31,1486.45 1313.31,386.325 1293.77,386.325 "></polyline>
<path clip-path="url(#clip102)" d="M1313.31 429.521 L1313.31 1486.45 L1332.86 1486.45 L1332.86 429.521 L1313.31 429.521 L1313.31 429.521  Z" fill="#009af9" fill-rule="evenodd" fill-opacity="1"></path>
<polyline clip-path="url(#clip102)" style="stroke:#000000; stroke-linecap:round; stroke-linejoin:round; stroke-width:4; stroke-opacity:1; fill:none" points="1313.31,429.521 1313.31,1486.45 1332.86,1486.45 1332.86,429.521 1313.31,429.521 "></polyline>
<path clip-path="url(#clip102)" d="M1332.86 421.967 L1332.86 1486.45 L1352.41 1486.45 L1352.41 421.967 L1332.86 421.967 L1332.86 421.967  Z" fill="#009af9" fill-rule="evenodd" fill-opacity="1"></path>
<polyline clip-path="url(#clip102)" style="stroke:#000000; stroke-linecap:round; stroke-linejoin:round; stroke-width:4; stroke-opacity:1; fill:none" points="1332.86,421.967 1332.86,1486.45 1352.41,1486.45 1352.41,421.967 1332.86,421.967 "></polyline>
<path clip-path="url(#clip102)" d="M1352.41 421.541 L1352.41 1486.45 L1371.95 1486.45 L1371.95 421.541 L1352.41 421.541 L1352.41 421.541  Z" fill="#009af9" fill-rule="evenodd" fill-opacity="1"></path>
<polyline clip-path="url(#clip102)" style="stroke:#000000; stroke-linecap:round; stroke-linejoin:round; stroke-width:4; stroke-opacity:1; fill:none" points="1352.41,421.541 1352.41,1486.45 1371.95,1486.45 1371.95,421.541 1352.41,421.541 "></polyline>
<path clip-path="url(#clip102)" d="M1371.95 457.822 L1371.95 1486.45 L1391.5 1486.45 L1391.5 457.822 L1371.95 457.822 L1371.95 457.822  Z" fill="#009af9" fill-rule="evenodd" fill-opacity="1"></path>
<polyline clip-path="url(#clip102)" style="stroke:#000000; stroke-linecap:round; stroke-linejoin:round; stroke-width:4; stroke-opacity:1; fill:none" points="1371.95,457.822 1371.95,1486.45 1391.5,1486.45 1391.5,457.822 1371.95,457.822 "></polyline>
<path clip-path="url(#clip102)" d="M1391.5 462.716 L1391.5 1486.45 L1411.04 1486.45 L1411.04 462.716 L1391.5 462.716 L1391.5 462.716  Z" fill="#009af9" fill-rule="evenodd" fill-opacity="1"></path>
<polyline clip-path="url(#clip102)" style="stroke:#000000; stroke-linecap:round; stroke-linejoin:round; stroke-width:4; stroke-opacity:1; fill:none" points="1391.5,462.716 1391.5,1486.45 1411.04,1486.45 1411.04,462.716 1391.5,462.716 "></polyline>
<path clip-path="url(#clip102)" d="M1411.04 466.546 L1411.04 1486.45 L1430.59 1486.45 L1430.59 466.546 L1411.04 466.546 L1411.04 466.546  Z" fill="#009af9" fill-rule="evenodd" fill-opacity="1"></path>
<polyline clip-path="url(#clip102)" style="stroke:#000000; stroke-linecap:round; stroke-linejoin:round; stroke-width:4; stroke-opacity:1; fill:none" points="1411.04,466.546 1411.04,1486.45 1430.59,1486.45 1430.59,466.546 1411.04,466.546 "></polyline>
<path clip-path="url(#clip102)" d="M1430.59 488.57 L1430.59 1486.45 L1450.13 1486.45 L1450.13 488.57 L1430.59 488.57 L1430.59 488.57  Z" fill="#009af9" fill-rule="evenodd" fill-opacity="1"></path>
<polyline clip-path="url(#clip102)" style="stroke:#000000; stroke-linecap:round; stroke-linejoin:round; stroke-width:4; stroke-opacity:1; fill:none" points="1430.59,488.57 1430.59,1486.45 1450.13,1486.45 1450.13,488.57 1430.59,488.57 "></polyline>
<path clip-path="url(#clip102)" d="M1450.13 517.51 L1450.13 1486.45 L1469.68 1486.45 L1469.68 517.51 L1450.13 517.51 L1450.13 517.51  Z" fill="#009af9" fill-rule="evenodd" fill-opacity="1"></path>
<polyline clip-path="url(#clip102)" style="stroke:#000000; stroke-linecap:round; stroke-linejoin:round; stroke-width:4; stroke-opacity:1; fill:none" points="1450.13,517.51 1450.13,1486.45 1469.68,1486.45 1469.68,517.51 1450.13,517.51 "></polyline>
<path clip-path="url(#clip102)" d="M1469.68 513.254 L1469.68 1486.45 L1489.23 1486.45 L1489.23 513.254 L1469.68 513.254 L1469.68 513.254  Z" fill="#009af9" fill-rule="evenodd" fill-opacity="1"></path>
<polyline clip-path="url(#clip102)" style="stroke:#000000; stroke-linecap:round; stroke-linejoin:round; stroke-width:4; stroke-opacity:1; fill:none" points="1469.68,513.254 1469.68,1486.45 1489.23,1486.45 1489.23,513.254 1469.68,513.254 "></polyline>
<path clip-path="url(#clip102)" d="M1489.23 524.425 L1489.23 1486.45 L1508.77 1486.45 L1508.77 524.425 L1489.23 524.425 L1489.23 524.425  Z" fill="#009af9" fill-rule="evenodd" fill-opacity="1"></path>
<polyline clip-path="url(#clip102)" style="stroke:#000000; stroke-linecap:round; stroke-linejoin:round; stroke-width:4; stroke-opacity:1; fill:none" points="1489.23,524.425 1489.23,1486.45 1508.77,1486.45 1508.77,524.425 1489.23,524.425 "></polyline>
<path clip-path="url(#clip102)" d="M1508.77 536.235 L1508.77 1486.45 L1528.32 1486.45 L1528.32 536.235 L1508.77 536.235 L1508.77 536.235  Z" fill="#009af9" fill-rule="evenodd" fill-opacity="1"></path>
<polyline clip-path="url(#clip102)" style="stroke:#000000; stroke-linecap:round; stroke-linejoin:round; stroke-width:4; stroke-opacity:1; fill:none" points="1508.77,536.235 1508.77,1486.45 1528.32,1486.45 1528.32,536.235 1508.77,536.235 "></polyline>
<path clip-path="url(#clip102)" d="M1528.32 536.661 L1528.32 1486.45 L1547.86 1486.45 L1547.86 536.661 L1528.32 536.661 L1528.32 536.661  Z" fill="#009af9" fill-rule="evenodd" fill-opacity="1"></path>
<polyline clip-path="url(#clip102)" style="stroke:#000000; stroke-linecap:round; stroke-linejoin:round; stroke-width:4; stroke-opacity:1; fill:none" points="1528.32,536.661 1528.32,1486.45 1547.86,1486.45 1547.86,536.661 1528.32,536.661 "></polyline>
<path clip-path="url(#clip102)" d="M1547.86 558.365 L1547.86 1486.45 L1567.41 1486.45 L1567.41 558.365 L1547.86 558.365 L1547.86 558.365  Z" fill="#009af9" fill-rule="evenodd" fill-opacity="1"></path>
<polyline clip-path="url(#clip102)" style="stroke:#000000; stroke-linecap:round; stroke-linejoin:round; stroke-width:4; stroke-opacity:1; fill:none" points="1547.86,558.365 1547.86,1486.45 1567.41,1486.45 1567.41,558.365 1547.86,558.365 "></polyline>
<path clip-path="url(#clip102)" d="M1567.41 575.814 L1567.41 1486.45 L1586.95 1486.45 L1586.95 575.814 L1567.41 575.814 L1567.41 575.814  Z" fill="#009af9" fill-rule="evenodd" fill-opacity="1"></path>
<polyline clip-path="url(#clip102)" style="stroke:#000000; stroke-linecap:round; stroke-linejoin:round; stroke-width:4; stroke-opacity:1; fill:none" points="1567.41,575.814 1567.41,1486.45 1586.95,1486.45 1586.95,575.814 1567.41,575.814 "></polyline>
<path clip-path="url(#clip102)" d="M1586.95 593.156 L1586.95 1486.45 L1606.5 1486.45 L1606.5 593.156 L1586.95 593.156 L1586.95 593.156  Z" fill="#009af9" fill-rule="evenodd" fill-opacity="1"></path>
<polyline clip-path="url(#clip102)" style="stroke:#000000; stroke-linecap:round; stroke-linejoin:round; stroke-width:4; stroke-opacity:1; fill:none" points="1586.95,593.156 1586.95,1486.45 1606.5,1486.45 1606.5,593.156 1586.95,593.156 "></polyline>
<path clip-path="url(#clip102)" d="M1606.5 602.2 L1606.5 1486.45 L1626.05 1486.45 L1626.05 602.2 L1606.5 602.2 L1606.5 602.2  Z" fill="#009af9" fill-rule="evenodd" fill-opacity="1"></path>
<polyline clip-path="url(#clip102)" style="stroke:#000000; stroke-linecap:round; stroke-linejoin:round; stroke-width:4; stroke-opacity:1; fill:none" points="1606.5,602.2 1606.5,1486.45 1626.05,1486.45 1626.05,602.2 1606.5,602.2 "></polyline>
<path clip-path="url(#clip102)" d="M1626.05 616.35 L1626.05 1486.45 L1645.59 1486.45 L1645.59 616.35 L1626.05 616.35 L1626.05 616.35  Z" fill="#009af9" fill-rule="evenodd" fill-opacity="1"></path>
<polyline clip-path="url(#clip102)" style="stroke:#000000; stroke-linecap:round; stroke-linejoin:round; stroke-width:4; stroke-opacity:1; fill:none" points="1626.05,616.35 1626.05,1486.45 1645.59,1486.45 1645.59,616.35 1626.05,616.35 "></polyline>
<path clip-path="url(#clip102)" d="M1645.59 620.925 L1645.59 1486.45 L1665.14 1486.45 L1665.14 620.925 L1645.59 620.925 L1645.59 620.925  Z" fill="#009af9" fill-rule="evenodd" fill-opacity="1"></path>
<polyline clip-path="url(#clip102)" style="stroke:#000000; stroke-linecap:round; stroke-linejoin:round; stroke-width:4; stroke-opacity:1; fill:none" points="1645.59,620.925 1645.59,1486.45 1665.14,1486.45 1665.14,620.925 1645.59,620.925 "></polyline>
<path clip-path="url(#clip102)" d="M1665.14 624.33 L1665.14 1486.45 L1684.68 1486.45 L1684.68 624.33 L1665.14 624.33 L1665.14 624.33  Z" fill="#009af9" fill-rule="evenodd" fill-opacity="1"></path>
<polyline clip-path="url(#clip102)" style="stroke:#000000; stroke-linecap:round; stroke-linejoin:round; stroke-width:4; stroke-opacity:1; fill:none" points="1665.14,624.33 1665.14,1486.45 1684.68,1486.45 1684.68,624.33 1665.14,624.33 "></polyline>
<path clip-path="url(#clip102)" d="M1684.68 638.693 L1684.68 1486.45 L1704.23 1486.45 L1704.23 638.693 L1684.68 638.693 L1684.68 638.693  Z" fill="#009af9" fill-rule="evenodd" fill-opacity="1"></path>
<polyline clip-path="url(#clip102)" style="stroke:#000000; stroke-linecap:round; stroke-linejoin:round; stroke-width:4; stroke-opacity:1; fill:none" points="1684.68,638.693 1684.68,1486.45 1704.23,1486.45 1704.23,638.693 1684.68,638.693 "></polyline>
<path clip-path="url(#clip102)" d="M1704.23 659.121 L1704.23 1486.45 L1723.77 1486.45 L1723.77 659.121 L1704.23 659.121 L1704.23 659.121  Z" fill="#009af9" fill-rule="evenodd" fill-opacity="1"></path>
<polyline clip-path="url(#clip102)" style="stroke:#000000; stroke-linecap:round; stroke-linejoin:round; stroke-width:4; stroke-opacity:1; fill:none" points="1704.23,659.121 1704.23,1486.45 1723.77,1486.45 1723.77,659.121 1704.23,659.121 "></polyline>
<path clip-path="url(#clip102)" d="M1723.77 674.229 L1723.77 1486.45 L1743.32 1486.45 L1743.32 674.229 L1723.77 674.229 L1723.77 674.229  Z" fill="#009af9" fill-rule="evenodd" fill-opacity="1"></path>
<polyline clip-path="url(#clip102)" style="stroke:#000000; stroke-linecap:round; stroke-linejoin:round; stroke-width:4; stroke-opacity:1; fill:none" points="1723.77,674.229 1723.77,1486.45 1743.32,1486.45 1743.32,674.229 1723.77,674.229 "></polyline>
<path clip-path="url(#clip102)" d="M1743.32 671.037 L1743.32 1486.45 L1762.87 1486.45 L1762.87 671.037 L1743.32 671.037 L1743.32 671.037  Z" fill="#009af9" fill-rule="evenodd" fill-opacity="1"></path>
<polyline clip-path="url(#clip102)" style="stroke:#000000; stroke-linecap:round; stroke-linejoin:round; stroke-width:4; stroke-opacity:1; fill:none" points="1743.32,671.037 1743.32,1486.45 1762.87,1486.45 1762.87,671.037 1743.32,671.037 "></polyline>
<path clip-path="url(#clip102)" d="M1762.87 704.765 L1762.87 1486.45 L1782.41 1486.45 L1782.41 704.765 L1762.87 704.765 L1762.87 704.765  Z" fill="#009af9" fill-rule="evenodd" fill-opacity="1"></path>
<polyline clip-path="url(#clip102)" style="stroke:#000000; stroke-linecap:round; stroke-linejoin:round; stroke-width:4; stroke-opacity:1; fill:none" points="1762.87,704.765 1762.87,1486.45 1782.41,1486.45 1782.41,704.765 1762.87,704.765 "></polyline>
<path clip-path="url(#clip102)" d="M1782.41 706.573 L1782.41 1486.45 L1801.96 1486.45 L1801.96 706.573 L1782.41 706.573 L1782.41 706.573  Z" fill="#009af9" fill-rule="evenodd" fill-opacity="1"></path>
<polyline clip-path="url(#clip102)" style="stroke:#000000; stroke-linecap:round; stroke-linejoin:round; stroke-width:4; stroke-opacity:1; fill:none" points="1782.41,706.573 1782.41,1486.45 1801.96,1486.45 1801.96,706.573 1782.41,706.573 "></polyline>
<path clip-path="url(#clip102)" d="M1801.96 736.896 L1801.96 1486.45 L1821.5 1486.45 L1821.5 736.896 L1801.96 736.896 L1801.96 736.896  Z" fill="#009af9" fill-rule="evenodd" fill-opacity="1"></path>
<polyline clip-path="url(#clip102)" style="stroke:#000000; stroke-linecap:round; stroke-linejoin:round; stroke-width:4; stroke-opacity:1; fill:none" points="1801.96,736.896 1801.96,1486.45 1821.5,1486.45 1821.5,736.896 1801.96,736.896 "></polyline>
<path clip-path="url(#clip102)" d="M1821.5 744.769 L1821.5 1486.45 L1841.05 1486.45 L1841.05 744.769 L1821.5 744.769 L1821.5 744.769  Z" fill="#009af9" fill-rule="evenodd" fill-opacity="1"></path>
<polyline clip-path="url(#clip102)" style="stroke:#000000; stroke-linecap:round; stroke-linejoin:round; stroke-width:4; stroke-opacity:1; fill:none" points="1821.5,744.769 1821.5,1486.45 1841.05,1486.45 1841.05,744.769 1821.5,744.769 "></polyline>
<path clip-path="url(#clip102)" d="M1841.05 729.98 L1841.05 1486.45 L1860.59 1486.45 L1860.59 729.98 L1841.05 729.98 L1841.05 729.98  Z" fill="#009af9" fill-rule="evenodd" fill-opacity="1"></path>
<polyline clip-path="url(#clip102)" style="stroke:#000000; stroke-linecap:round; stroke-linejoin:round; stroke-width:4; stroke-opacity:1; fill:none" points="1841.05,729.98 1841.05,1486.45 1860.59,1486.45 1860.59,729.98 1841.05,729.98 "></polyline>
<path clip-path="url(#clip102)" d="M1860.59 756.153 L1860.59 1486.45 L1880.14 1486.45 L1880.14 756.153 L1860.59 756.153 L1860.59 756.153  Z" fill="#009af9" fill-rule="evenodd" fill-opacity="1"></path>
<polyline clip-path="url(#clip102)" style="stroke:#000000; stroke-linecap:round; stroke-linejoin:round; stroke-width:4; stroke-opacity:1; fill:none" points="1860.59,756.153 1860.59,1486.45 1880.14,1486.45 1880.14,756.153 1860.59,756.153 "></polyline>
<path clip-path="url(#clip102)" d="M1880.14 769.453 L1880.14 1486.45 L1899.69 1486.45 L1899.69 769.453 L1880.14 769.453 L1880.14 769.453  Z" fill="#009af9" fill-rule="evenodd" fill-opacity="1"></path>
<polyline clip-path="url(#clip102)" style="stroke:#000000; stroke-linecap:round; stroke-linejoin:round; stroke-width:4; stroke-opacity:1; fill:none" points="1880.14,769.453 1880.14,1486.45 1899.69,1486.45 1899.69,769.453 1880.14,769.453 "></polyline>
<path clip-path="url(#clip102)" d="M1899.69 768.07 L1899.69 1486.45 L1919.23 1486.45 L1919.23 768.07 L1899.69 768.07 L1899.69 768.07  Z" fill="#009af9" fill-rule="evenodd" fill-opacity="1"></path>
<polyline clip-path="url(#clip102)" style="stroke:#000000; stroke-linecap:round; stroke-linejoin:round; stroke-width:4; stroke-opacity:1; fill:none" points="1899.69,768.07 1899.69,1486.45 1919.23,1486.45 1919.23,768.07 1899.69,768.07 "></polyline>
<path clip-path="url(#clip102)" d="M1919.23 768.07 L1919.23 1486.45 L1938.78 1486.45 L1938.78 768.07 L1919.23 768.07 L1919.23 768.07  Z" fill="#009af9" fill-rule="evenodd" fill-opacity="1"></path>
<polyline clip-path="url(#clip102)" style="stroke:#000000; stroke-linecap:round; stroke-linejoin:round; stroke-width:4; stroke-opacity:1; fill:none" points="1919.23,768.07 1919.23,1486.45 1938.78,1486.45 1938.78,768.07 1919.23,768.07 "></polyline>
<path clip-path="url(#clip102)" d="M1938.78 805.414 L1938.78 1486.45 L1958.32 1486.45 L1958.32 805.414 L1938.78 805.414 L1938.78 805.414  Z" fill="#009af9" fill-rule="evenodd" fill-opacity="1"></path>
<polyline clip-path="url(#clip102)" style="stroke:#000000; stroke-linecap:round; stroke-linejoin:round; stroke-width:4; stroke-opacity:1; fill:none" points="1938.78,805.414 1938.78,1486.45 1958.32,1486.45 1958.32,805.414 1938.78,805.414 "></polyline>
<path clip-path="url(#clip102)" d="M1958.32 819.139 L1958.32 1486.45 L1977.87 1486.45 L1977.87 819.139 L1958.32 819.139 L1958.32 819.139  Z" fill="#009af9" fill-rule="evenodd" fill-opacity="1"></path>
<polyline clip-path="url(#clip102)" style="stroke:#000000; stroke-linecap:round; stroke-linejoin:round; stroke-width:4; stroke-opacity:1; fill:none" points="1958.32,819.139 1958.32,1486.45 1977.87,1486.45 1977.87,819.139 1958.32,819.139 "></polyline>
<path clip-path="url(#clip102)" d="M1977.87 813.926 L1977.87 1486.45 L1997.41 1486.45 L1997.41 813.926 L1977.87 813.926 L1977.87 813.926  Z" fill="#009af9" fill-rule="evenodd" fill-opacity="1"></path>
<polyline clip-path="url(#clip102)" style="stroke:#000000; stroke-linecap:round; stroke-linejoin:round; stroke-width:4; stroke-opacity:1; fill:none" points="1977.87,813.926 1977.87,1486.45 1997.41,1486.45 1997.41,813.926 1977.87,813.926 "></polyline>
<path clip-path="url(#clip102)" d="M1997.41 840.418 L1997.41 1486.45 L2016.96 1486.45 L2016.96 840.418 L1997.41 840.418 L1997.41 840.418  Z" fill="#009af9" fill-rule="evenodd" fill-opacity="1"></path>
<polyline clip-path="url(#clip102)" style="stroke:#000000; stroke-linecap:round; stroke-linejoin:round; stroke-width:4; stroke-opacity:1; fill:none" points="1997.41,840.418 1997.41,1486.45 2016.96,1486.45 2016.96,840.418 1997.41,840.418 "></polyline>
<path clip-path="url(#clip102)" d="M2016.96 848.823 L2016.96 1486.45 L2036.51 1486.45 L2036.51 848.823 L2016.96 848.823 L2016.96 848.823  Z" fill="#009af9" fill-rule="evenodd" fill-opacity="1"></path>
<polyline clip-path="url(#clip102)" style="stroke:#000000; stroke-linecap:round; stroke-linejoin:round; stroke-width:4; stroke-opacity:1; fill:none" points="2016.96,848.823 2016.96,1486.45 2036.51,1486.45 2036.51,848.823 2016.96,848.823 "></polyline>
<path clip-path="url(#clip102)" d="M2036.51 867.442 L2036.51 1486.45 L2056.05 1486.45 L2056.05 867.442 L2036.51 867.442 L2036.51 867.442  Z" fill="#009af9" fill-rule="evenodd" fill-opacity="1"></path>
<polyline clip-path="url(#clip102)" style="stroke:#000000; stroke-linecap:round; stroke-linejoin:round; stroke-width:4; stroke-opacity:1; fill:none" points="2036.51,867.442 2036.51,1486.45 2056.05,1486.45 2056.05,867.442 2036.51,867.442 "></polyline>
<path clip-path="url(#clip102)" d="M2056.05 879.252 L2056.05 1486.45 L2075.6 1486.45 L2075.6 879.252 L2056.05 879.252 L2056.05 879.252  Z" fill="#009af9" fill-rule="evenodd" fill-opacity="1"></path>
<polyline clip-path="url(#clip102)" style="stroke:#000000; stroke-linecap:round; stroke-linejoin:round; stroke-width:4; stroke-opacity:1; fill:none" points="2056.05,879.252 2056.05,1486.45 2075.6,1486.45 2075.6,879.252 2056.05,879.252 "></polyline>
<path clip-path="url(#clip102)" d="M2075.6 880.529 L2075.6 1486.45 L2095.14 1486.45 L2095.14 880.529 L2075.6 880.529 L2075.6 880.529  Z" fill="#009af9" fill-rule="evenodd" fill-opacity="1"></path>
<polyline clip-path="url(#clip102)" style="stroke:#000000; stroke-linecap:round; stroke-linejoin:round; stroke-width:4; stroke-opacity:1; fill:none" points="2075.6,880.529 2075.6,1486.45 2095.14,1486.45 2095.14,880.529 2075.6,880.529 "></polyline>
<path clip-path="url(#clip102)" d="M2095.14 896.914 L2095.14 1486.45 L2114.69 1486.45 L2114.69 896.914 L2095.14 896.914 L2095.14 896.914  Z" fill="#009af9" fill-rule="evenodd" fill-opacity="1"></path>
<polyline clip-path="url(#clip102)" style="stroke:#000000; stroke-linecap:round; stroke-linejoin:round; stroke-width:4; stroke-opacity:1; fill:none" points="2095.14,896.914 2095.14,1486.45 2114.69,1486.45 2114.69,896.914 2095.14,896.914 "></polyline>
<path clip-path="url(#clip102)" d="M2114.69 902.233 L2114.69 1486.45 L2134.23 1486.45 L2134.23 902.233 L2114.69 902.233 L2114.69 902.233  Z" fill="#009af9" fill-rule="evenodd" fill-opacity="1"></path>
<polyline clip-path="url(#clip102)" style="stroke:#000000; stroke-linecap:round; stroke-linejoin:round; stroke-width:4; stroke-opacity:1; fill:none" points="2114.69,902.233 2114.69,1486.45 2134.23,1486.45 2134.23,902.233 2114.69,902.233 "></polyline>
<path clip-path="url(#clip102)" d="M2134.23 920.533 L2134.23 1486.45 L2153.78 1486.45 L2153.78 920.533 L2134.23 920.533 L2134.23 920.533  Z" fill="#009af9" fill-rule="evenodd" fill-opacity="1"></path>
<polyline clip-path="url(#clip102)" style="stroke:#000000; stroke-linecap:round; stroke-linejoin:round; stroke-width:4; stroke-opacity:1; fill:none" points="2134.23,920.533 2134.23,1486.45 2153.78,1486.45 2153.78,920.533 2134.23,920.533 "></polyline>
<path clip-path="url(#clip102)" d="M2153.78 933.194 L2153.78 1486.45 L2173.33 1486.45 L2173.33 933.194 L2153.78 933.194 L2153.78 933.194  Z" fill="#009af9" fill-rule="evenodd" fill-opacity="1"></path>
<polyline clip-path="url(#clip102)" style="stroke:#000000; stroke-linecap:round; stroke-linejoin:round; stroke-width:4; stroke-opacity:1; fill:none" points="2153.78,933.194 2153.78,1486.45 2173.33,1486.45 2173.33,933.194 2153.78,933.194 "></polyline>
<path clip-path="url(#clip102)" d="M2173.33 939.791 L2173.33 1486.45 L2192.87 1486.45 L2192.87 939.791 L2173.33 939.791 L2173.33 939.791  Z" fill="#009af9" fill-rule="evenodd" fill-opacity="1"></path>
<polyline clip-path="url(#clip102)" style="stroke:#000000; stroke-linecap:round; stroke-linejoin:round; stroke-width:4; stroke-opacity:1; fill:none" points="2173.33,939.791 2173.33,1486.45 2192.87,1486.45 2192.87,939.791 2173.33,939.791 "></polyline>
<path clip-path="url(#clip102)" d="M2192.87 945.323 L2192.87 1486.45 L2212.42 1486.45 L2212.42 945.323 L2192.87 945.323 L2192.87 945.323  Z" fill="#009af9" fill-rule="evenodd" fill-opacity="1"></path>
<polyline clip-path="url(#clip102)" style="stroke:#000000; stroke-linecap:round; stroke-linejoin:round; stroke-width:4; stroke-opacity:1; fill:none" points="2192.87,945.323 2192.87,1486.45 2212.42,1486.45 2212.42,945.323 2192.87,945.323 "></polyline>
<path clip-path="url(#clip102)" d="M2212.42 956.92 L2212.42 1486.45 L2231.96 1486.45 L2231.96 956.92 L2212.42 956.92 L2212.42 956.92  Z" fill="#009af9" fill-rule="evenodd" fill-opacity="1"></path>
<polyline clip-path="url(#clip102)" style="stroke:#000000; stroke-linecap:round; stroke-linejoin:round; stroke-width:4; stroke-opacity:1; fill:none" points="2212.42,956.92 2212.42,1486.45 2231.96,1486.45 2231.96,956.92 2212.42,956.92 "></polyline>
<circle clip-path="url(#clip102)" style="fill:#009af9; stroke:none; fill-opacity:0" cx="287.164" cy="63.5225" r="2"></circle>
<circle clip-path="url(#clip102)" style="fill:#009af9; stroke:none; fill-opacity:0" cx="306.709" cy="87.7806" r="2"></circle>
<circle clip-path="url(#clip102)" style="fill:#009af9; stroke:none; fill-opacity:0" cx="326.255" cy="47.9889" r="2"></circle>
<circle clip-path="url(#clip102)" style="fill:#009af9; stroke:none; fill-opacity:0" cx="345.801" cy="80.2265" r="2"></circle>
<circle clip-path="url(#clip102)" style="fill:#009af9; stroke:none; fill-opacity:0" cx="365.347" cy="63.5225" r="2"></circle>
<circle clip-path="url(#clip102)" style="fill:#009af9; stroke:none; fill-opacity:0" cx="384.892" cy="57.0324" r="2"></circle>
<circle clip-path="url(#clip102)" style="fill:#009af9; stroke:none; fill-opacity:0" cx="404.438" cy="47.2441" r="2"></circle>
<circle clip-path="url(#clip102)" style="fill:#009af9; stroke:none; fill-opacity:0" cx="423.984" cy="69.587" r="2"></circle>
<circle clip-path="url(#clip102)" style="fill:#009af9; stroke:none; fill-opacity:0" cx="443.529" cy="79.9073" r="2"></circle>
<circle clip-path="url(#clip102)" style="fill:#009af9; stroke:none; fill-opacity:0" cx="463.075" cy="80.4393" r="2"></circle>
<circle clip-path="url(#clip102)" style="fill:#009af9; stroke:none; fill-opacity:0" cx="482.621" cy="95.2282" r="2"></circle>
<circle clip-path="url(#clip102)" style="fill:#009af9; stroke:none; fill-opacity:0" cx="502.167" cy="71.6085" r="2"></circle>
<circle clip-path="url(#clip102)" style="fill:#009af9; stroke:none; fill-opacity:0" cx="521.712" cy="80.4393" r="2"></circle>
<circle clip-path="url(#clip102)" style="fill:#009af9; stroke:none; fill-opacity:0" cx="541.258" cy="73.7364" r="2"></circle>
<circle clip-path="url(#clip102)" style="fill:#009af9; stroke:none; fill-opacity:0" cx="560.804" cy="80.1201" r="2"></circle>
<circle clip-path="url(#clip102)" style="fill:#009af9; stroke:none; fill-opacity:0" cx="580.35" cy="85.9718" r="2"></circle>
<circle clip-path="url(#clip102)" style="fill:#009af9; stroke:none; fill-opacity:0" cx="599.895" cy="96.0794" r="2"></circle>
<circle clip-path="url(#clip102)" style="fill:#009af9; stroke:none; fill-opacity:0" cx="619.441" cy="99.3776" r="2"></circle>
<circle clip-path="url(#clip102)" style="fill:#009af9; stroke:none; fill-opacity:0" cx="638.987" cy="119.486" r="2"></circle>
<circle clip-path="url(#clip102)" style="fill:#009af9; stroke:none; fill-opacity:0" cx="658.532" cy="105.655" r="2"></circle>
<circle clip-path="url(#clip102)" style="fill:#009af9; stroke:none; fill-opacity:0" cx="678.078" cy="114.379" r="2"></circle>
<circle clip-path="url(#clip102)" style="fill:#009af9; stroke:none; fill-opacity:0" cx="697.624" cy="118.316" r="2"></circle>
<circle clip-path="url(#clip102)" style="fill:#009af9; stroke:none; fill-opacity:0" cx="717.17" cy="118.316" r="2"></circle>
<circle clip-path="url(#clip102)" style="fill:#009af9; stroke:none; fill-opacity:0" cx="736.715" cy="149.277" r="2"></circle>
<circle clip-path="url(#clip102)" style="fill:#009af9; stroke:none; fill-opacity:0" cx="756.261" cy="137.148" r="2"></circle>
<circle clip-path="url(#clip102)" style="fill:#009af9; stroke:none; fill-opacity:0" cx="775.807" cy="136.722" r="2"></circle>
<circle clip-path="url(#clip102)" style="fill:#009af9; stroke:none; fill-opacity:0" cx="795.353" cy="171.62" r="2"></circle>
<circle clip-path="url(#clip102)" style="fill:#009af9; stroke:none; fill-opacity:0" cx="814.898" cy="184.706" r="2"></circle>
<circle clip-path="url(#clip102)" style="fill:#009af9; stroke:none; fill-opacity:0" cx="834.444" cy="183.642" r="2"></circle>
<circle clip-path="url(#clip102)" style="fill:#009af9; stroke:none; fill-opacity:0" cx="853.99" cy="183.536" r="2"></circle>
<circle clip-path="url(#clip102)" style="fill:#009af9; stroke:none; fill-opacity:0" cx="873.535" cy="176.833" r="2"></circle>
<circle clip-path="url(#clip102)" style="fill:#009af9; stroke:none; fill-opacity:0" cx="893.081" cy="187.685" r="2"></circle>
<circle clip-path="url(#clip102)" style="fill:#009af9; stroke:none; fill-opacity:0" cx="912.627" cy="191.835" r="2"></circle>
<circle clip-path="url(#clip102)" style="fill:#009af9; stroke:none; fill-opacity:0" cx="932.173" cy="224.817" r="2"></circle>
<circle clip-path="url(#clip102)" style="fill:#009af9; stroke:none; fill-opacity:0" cx="951.718" cy="215.774" r="2"></circle>
<circle clip-path="url(#clip102)" style="fill:#009af9; stroke:none; fill-opacity:0" cx="971.264" cy="220.242" r="2"></circle>
<circle clip-path="url(#clip102)" style="fill:#009af9; stroke:none; fill-opacity:0" cx="990.81" cy="236.095" r="2"></circle>
<circle clip-path="url(#clip102)" style="fill:#009af9; stroke:none; fill-opacity:0" cx="1010.36" cy="241.521" r="2"></circle>
<circle clip-path="url(#clip102)" style="fill:#009af9; stroke:none; fill-opacity:0" cx="1029.9" cy="249.075" r="2"></circle>
<circle clip-path="url(#clip102)" style="fill:#009af9; stroke:none; fill-opacity:0" cx="1049.45" cy="259.821" r="2"></circle>
<circle clip-path="url(#clip102)" style="fill:#009af9; stroke:none; fill-opacity:0" cx="1068.99" cy="295.889" r="2"></circle>
<circle clip-path="url(#clip102)" style="fill:#009af9; stroke:none; fill-opacity:0" cx="1088.54" cy="283.015" r="2"></circle>
<circle clip-path="url(#clip102)" style="fill:#009af9; stroke:none; fill-opacity:0" cx="1108.08" cy="278.866" r="2"></circle>
<circle clip-path="url(#clip102)" style="fill:#009af9; stroke:none; fill-opacity:0" cx="1127.63" cy="326.637" r="2"></circle>
<circle clip-path="url(#clip102)" style="fill:#009af9; stroke:none; fill-opacity:0" cx="1147.18" cy="313.338" r="2"></circle>
<circle clip-path="url(#clip102)" style="fill:#009af9; stroke:none; fill-opacity:0" cx="1166.72" cy="335.787" r="2"></circle>
<circle clip-path="url(#clip102)" style="fill:#009af9; stroke:none; fill-opacity:0" cx="1186.27" cy="340.256" r="2"></circle>
<circle clip-path="url(#clip102)" style="fill:#009af9; stroke:none; fill-opacity:0" cx="1205.81" cy="348.767" r="2"></circle>
<circle clip-path="url(#clip102)" style="fill:#009af9; stroke:none; fill-opacity:0" cx="1225.36" cy="361.109" r="2"></circle>
<circle clip-path="url(#clip102)" style="fill:#009af9; stroke:none; fill-opacity:0" cx="1244.9" cy="379.622" r="2"></circle>
<circle clip-path="url(#clip102)" style="fill:#009af9; stroke:none; fill-opacity:0" cx="1264.45" cy="393.879" r="2"></circle>
<circle clip-path="url(#clip102)" style="fill:#009af9; stroke:none; fill-opacity:0" cx="1284" cy="374.515" r="2"></circle>
<circle clip-path="url(#clip102)" style="fill:#009af9; stroke:none; fill-opacity:0" cx="1303.54" cy="386.325" r="2"></circle>
<circle clip-path="url(#clip102)" style="fill:#009af9; stroke:none; fill-opacity:0" cx="1323.09" cy="429.521" r="2"></circle>
<circle clip-path="url(#clip102)" style="fill:#009af9; stroke:none; fill-opacity:0" cx="1342.63" cy="421.967" r="2"></circle>
<circle clip-path="url(#clip102)" style="fill:#009af9; stroke:none; fill-opacity:0" cx="1362.18" cy="421.541" r="2"></circle>
<circle clip-path="url(#clip102)" style="fill:#009af9; stroke:none; fill-opacity:0" cx="1381.72" cy="457.822" r="2"></circle>
<circle clip-path="url(#clip102)" style="fill:#009af9; stroke:none; fill-opacity:0" cx="1401.27" cy="462.716" r="2"></circle>
<circle clip-path="url(#clip102)" style="fill:#009af9; stroke:none; fill-opacity:0" cx="1420.82" cy="466.546" r="2"></circle>
<circle clip-path="url(#clip102)" style="fill:#009af9; stroke:none; fill-opacity:0" cx="1440.36" cy="488.57" r="2"></circle>
<circle clip-path="url(#clip102)" style="fill:#009af9; stroke:none; fill-opacity:0" cx="1459.91" cy="517.51" r="2"></circle>
<circle clip-path="url(#clip102)" style="fill:#009af9; stroke:none; fill-opacity:0" cx="1479.45" cy="513.254" r="2"></circle>
<circle clip-path="url(#clip102)" style="fill:#009af9; stroke:none; fill-opacity:0" cx="1499" cy="524.425" r="2"></circle>
<circle clip-path="url(#clip102)" style="fill:#009af9; stroke:none; fill-opacity:0" cx="1518.54" cy="536.235" r="2"></circle>
<circle clip-path="url(#clip102)" style="fill:#009af9; stroke:none; fill-opacity:0" cx="1538.09" cy="536.661" r="2"></circle>
<circle clip-path="url(#clip102)" style="fill:#009af9; stroke:none; fill-opacity:0" cx="1557.64" cy="558.365" r="2"></circle>
<circle clip-path="url(#clip102)" style="fill:#009af9; stroke:none; fill-opacity:0" cx="1577.18" cy="575.814" r="2"></circle>
<circle clip-path="url(#clip102)" style="fill:#009af9; stroke:none; fill-opacity:0" cx="1596.73" cy="593.156" r="2"></circle>
<circle clip-path="url(#clip102)" style="fill:#009af9; stroke:none; fill-opacity:0" cx="1616.27" cy="602.2" r="2"></circle>
<circle clip-path="url(#clip102)" style="fill:#009af9; stroke:none; fill-opacity:0" cx="1635.82" cy="616.35" r="2"></circle>
<circle clip-path="url(#clip102)" style="fill:#009af9; stroke:none; fill-opacity:0" cx="1655.36" cy="620.925" r="2"></circle>
<circle clip-path="url(#clip102)" style="fill:#009af9; stroke:none; fill-opacity:0" cx="1674.91" cy="624.33" r="2"></circle>
<circle clip-path="url(#clip102)" style="fill:#009af9; stroke:none; fill-opacity:0" cx="1694.46" cy="638.693" r="2"></circle>
<circle clip-path="url(#clip102)" style="fill:#009af9; stroke:none; fill-opacity:0" cx="1714" cy="659.121" r="2"></circle>
<circle clip-path="url(#clip102)" style="fill:#009af9; stroke:none; fill-opacity:0" cx="1733.55" cy="674.229" r="2"></circle>
<circle clip-path="url(#clip102)" style="fill:#009af9; stroke:none; fill-opacity:0" cx="1753.09" cy="671.037" r="2"></circle>
<circle clip-path="url(#clip102)" style="fill:#009af9; stroke:none; fill-opacity:0" cx="1772.64" cy="704.765" r="2"></circle>
<circle clip-path="url(#clip102)" style="fill:#009af9; stroke:none; fill-opacity:0" cx="1792.18" cy="706.573" r="2"></circle>
<circle clip-path="url(#clip102)" style="fill:#009af9; stroke:none; fill-opacity:0" cx="1811.73" cy="736.896" r="2"></circle>
<circle clip-path="url(#clip102)" style="fill:#009af9; stroke:none; fill-opacity:0" cx="1831.28" cy="744.769" r="2"></circle>
<circle clip-path="url(#clip102)" style="fill:#009af9; stroke:none; fill-opacity:0" cx="1850.82" cy="729.98" r="2"></circle>
<circle clip-path="url(#clip102)" style="fill:#009af9; stroke:none; fill-opacity:0" cx="1870.37" cy="756.153" r="2"></circle>
<circle clip-path="url(#clip102)" style="fill:#009af9; stroke:none; fill-opacity:0" cx="1889.91" cy="769.453" r="2"></circle>
<circle clip-path="url(#clip102)" style="fill:#009af9; stroke:none; fill-opacity:0" cx="1909.46" cy="768.07" r="2"></circle>
<circle clip-path="url(#clip102)" style="fill:#009af9; stroke:none; fill-opacity:0" cx="1929" cy="768.07" r="2"></circle>
<circle clip-path="url(#clip102)" style="fill:#009af9; stroke:none; fill-opacity:0" cx="1948.55" cy="805.414" r="2"></circle>
<circle clip-path="url(#clip102)" style="fill:#009af9; stroke:none; fill-opacity:0" cx="1968.1" cy="819.139" r="2"></circle>
<circle clip-path="url(#clip102)" style="fill:#009af9; stroke:none; fill-opacity:0" cx="1987.64" cy="813.926" r="2"></circle>
<circle clip-path="url(#clip102)" style="fill:#009af9; stroke:none; fill-opacity:0" cx="2007.19" cy="840.418" r="2"></circle>
<circle clip-path="url(#clip102)" style="fill:#009af9; stroke:none; fill-opacity:0" cx="2026.73" cy="848.823" r="2"></circle>
<circle clip-path="url(#clip102)" style="fill:#009af9; stroke:none; fill-opacity:0" cx="2046.28" cy="867.442" r="2"></circle>
<circle clip-path="url(#clip102)" style="fill:#009af9; stroke:none; fill-opacity:0" cx="2065.82" cy="879.252" r="2"></circle>
<circle clip-path="url(#clip102)" style="fill:#009af9; stroke:none; fill-opacity:0" cx="2085.37" cy="880.529" r="2"></circle>
<circle clip-path="url(#clip102)" style="fill:#009af9; stroke:none; fill-opacity:0" cx="2104.92" cy="896.914" r="2"></circle>
<circle clip-path="url(#clip102)" style="fill:#009af9; stroke:none; fill-opacity:0" cx="2124.46" cy="902.233" r="2"></circle>
<circle clip-path="url(#clip102)" style="fill:#009af9; stroke:none; fill-opacity:0" cx="2144.01" cy="920.533" r="2"></circle>
<circle clip-path="url(#clip102)" style="fill:#009af9; stroke:none; fill-opacity:0" cx="2163.55" cy="933.194" r="2"></circle>
<circle clip-path="url(#clip102)" style="fill:#009af9; stroke:none; fill-opacity:0" cx="2183.1" cy="939.791" r="2"></circle>
<circle clip-path="url(#clip102)" style="fill:#009af9; stroke:none; fill-opacity:0" cx="2202.64" cy="945.323" r="2"></circle>
<circle clip-path="url(#clip102)" style="fill:#009af9; stroke:none; fill-opacity:0" cx="2222.19" cy="956.92" r="2"></circle>
<polyline clip-path="url(#clip102)" style="stroke:#000000; stroke-linecap:round; stroke-linejoin:round; stroke-width:12; stroke-opacity:1; fill:none" points="218.754,1486.45 222.126,1486.45 225.498,1486.45 228.87,1486.45 232.242,1486.45 240.038,1486.45 247.833,1486.45 255.628,1486.45 263.423,1486.45 267.321,1486.45 271.219,1486.45 273.168,1486.45 275.116,1486.45 276.091,1486.45 277.065,1486.45 278.04,61.8166 279.014,61.8174 279.988,61.8189 280.963,61.8212 281.937,61.8241 282.912,61.8278 284.86,61.8372 286.809,61.8495 290.707,61.8825 294.604,61.9269 310.195,62.2176 325.785,62.6895 341.376,63.3423 356.966,64.1758 394.443,66.9165 431.92,70.6934 463.607,74.6889 495.293,79.4129 564.133,92.1496 627.598,106.825 695.639,125.578 774.471,151.041 844.528,176.849 905.961,201.789 972.94,231.268 1040.32,263.142 1114.81,300.727 1185.69,338.515 1259.39,379.621 1321.42,415.443 1397.17,460.416 1466.55,502.552 1530.63,542.046 1595.54,582.419 1668.29,627.872 1734.21,669.042 1809.69,715.915 1879.57,758.853 1948.47,800.56 2015.36,840.304 2049.65,860.343 2083.94,880.133 2121.5,901.512 2159.07,922.554 2172.71,930.109 2186.35,937.616 2200,945.074 2213.64,952.483 2217.05,954.327 2220.46,956.169 2223.87,958.007 2227.28,959.842 2228.13,960.3 2228.99,960.758 2229.84,961.216 2230.69,961.674 2231.55,962.131 2232.4,1486.45 2233.25,1486.45 2234.1,1486.45 2235.81,1486.45 2237.51,1486.45 2239.22,1486.45 2240.92,1486.45 2247.75,1486.45 2254.57,1486.45 2261.39,1486.45 2268.21,1486.45 2273.81,1486.45 2279.41,1486.45 2285,1486.45 2290.6,1486.45 "></polyline>
<path clip-path="url(#clip100)" d="M2007.5 250.738 L2279.55 250.738 L2279.55 95.2176 L2007.5 95.2176  Z" fill="#ffffff" fill-rule="evenodd" fill-opacity="1"></path>
<polyline clip-path="url(#clip100)" style="stroke:#000000; stroke-linecap:round; stroke-linejoin:round; stroke-width:4; stroke-opacity:1; fill:none" points="2007.5,250.738 2279.55,250.738 2279.55,95.2176 2007.5,95.2176 2007.5,250.738 "></polyline>
<path clip-path="url(#clip100)" d="M2031.91 167.794 L2178.32 167.794 L2178.32 126.322 L2031.91 126.322 L2031.91 167.794  Z" fill="#009af9" fill-rule="evenodd" fill-opacity="1"></path>
<polyline clip-path="url(#clip100)" style="stroke:#000000; stroke-linecap:round; stroke-linejoin:round; stroke-width:4; stroke-opacity:1; fill:none" points="2031.91,167.794 2178.32,167.794 2178.32,126.322 2031.91,126.322 2031.91,167.794 "></polyline>
<path clip-path="url(#clip100)" d="M2216.56 166.745 Q2214.76 171.375 2213.04 172.787 Q2211.33 174.199 2208.46 174.199 L2205.06 174.199 L2205.06 170.634 L2207.56 170.634 Q2209.32 170.634 2210.29 169.8 Q2211.26 168.967 2212.44 165.865 L2213.2 163.921 L2202.72 138.412 L2207.23 138.412 L2215.33 158.689 L2223.44 138.412 L2227.95 138.412 L2216.56 166.745 Z" fill="#000000" fill-rule="nonzero" fill-opacity="1"></path><path clip-path="url(#clip100)" d="M2235.24 160.402 L2242.88 160.402 L2242.88 134.037 L2234.57 135.703 L2234.57 131.444 L2242.83 129.778 L2247.51 129.778 L2247.51 160.402 L2255.15 160.402 L2255.15 164.338 L2235.24 164.338 L2235.24 160.402 Z" fill="#000000" fill-rule="nonzero" fill-opacity="1"></path><polyline clip-path="url(#clip100)" style="stroke:#000000; stroke-linecap:round; stroke-linejoin:round; stroke-width:12; stroke-opacity:1; fill:none" points="2031.91,198.898 2178.32,198.898 "></polyline>
<path clip-path="url(#clip100)" d="M2216.56 218.585 Q2214.76 223.215 2213.04 224.627 Q2211.33 226.039 2208.46 226.039 L2205.06 226.039 L2205.06 222.474 L2207.56 222.474 Q2209.32 222.474 2210.29 221.64 Q2211.26 220.807 2212.44 217.705 L2213.2 215.761 L2202.72 190.252 L2207.23 190.252 L2215.33 210.529 L2223.44 190.252 L2227.95 190.252 L2216.56 218.585 Z" fill="#000000" fill-rule="nonzero" fill-opacity="1"></path><path clip-path="url(#clip100)" d="M2238.46 212.242 L2254.78 212.242 L2254.78 216.178 L2232.83 216.178 L2232.83 212.242 Q2235.5 209.488 2240.08 204.858 Q2244.69 200.205 2245.87 198.863 Q2248.11 196.34 2248.99 194.604 Q2249.89 192.844 2249.89 191.155 Q2249.89 188.4 2247.95 186.664 Q2246.03 184.928 2242.93 184.928 Q2240.73 184.928 2238.27 185.692 Q2235.84 186.455 2233.07 188.006 L2233.07 183.284 Q2235.89 182.15 2238.34 181.571 Q2240.8 180.993 2242.83 180.993 Q2248.2 180.993 2251.4 183.678 Q2254.59 186.363 2254.59 190.854 Q2254.59 192.983 2253.78 194.905 Q2253 196.803 2250.89 199.395 Q2250.31 200.067 2247.21 203.284 Q2244.11 206.479 2238.46 212.242 Z" fill="#000000" fill-rule="nonzero" fill-opacity="1"></path></svg>