<svg xmlns="http://www.w3.org/2000/svg" xmlns:xlink="http://www.w3.org/1999/xlink" width="600" height="400" viewBox="0 0 2400 1600">
<defs>
  <clipPath id="clip140">
    <rect x="0" y="0" width="2400" height="1600"></rect>
  </clipPath>
</defs>
<path clip-path="url(#clip140)" d="M0 1600 L2400 1600 L2400 0 L0 0  Z" fill="#ffffff" fill-rule="evenodd" fill-opacity="1"></path>
<defs>
  <clipPath id="clip141">
    <rect x="480" y="0" width="1681" height="1600"></rect>
  </clipPath>
</defs>
<path clip-path="url(#clip140)" d="M186.274 1486.45 L2352.76 1486.45 L2352.76 47.2441 L186.274 47.2441  Z" fill="#ffffff" fill-rule="evenodd" fill-opacity="1"></path>
<defs>
  <clipPath id="clip142">
    <rect x="186" y="47" width="2167" height="1440"></rect>
  </clipPath>
</defs>
<polyline clip-path="url(#clip142)" style="stroke:#000000; stroke-linecap:round; stroke-linejoin:round; stroke-width:2; stroke-opacity:0.1; fill:none" points="186.274,1486.45 186.274,47.2441 "></polyline>
<polyline clip-path="url(#clip142)" style="stroke:#000000; stroke-linecap:round; stroke-linejoin:round; stroke-width:2; stroke-opacity:0.1; fill:none" points="887.401,1486.45 887.401,47.2441 "></polyline>
<polyline clip-path="url(#clip142)" style="stroke:#000000; stroke-linecap:round; stroke-linejoin:round; stroke-width:2; stroke-opacity:0.1; fill:none" points="1588.53,1486.45 1588.53,47.2441 "></polyline>
<polyline clip-path="url(#clip142)" style="stroke:#000000; stroke-linecap:round; stroke-linejoin:round; stroke-width:2; stroke-opacity:0.1; fill:none" points="2289.65,1486.45 2289.65,47.2441 "></polyline>
<polyline clip-path="url(#clip140)" style="stroke:#000000; stroke-linecap:round; stroke-linejoin:round; stroke-width:4; stroke-opacity:1; fill:none" points="186.274,1486.45 2352.76,1486.45 "></polyline>
<polyline clip-path="url(#clip140)" style="stroke:#000000; stroke-linecap:round; stroke-linejoin:round; stroke-width:4; stroke-opacity:1; fill:none" points="186.274,1486.45 186.274,1467.55 "></polyline>
<polyline clip-path="url(#clip140)" style="stroke:#000000; stroke-linecap:round; stroke-linejoin:round; stroke-width:4; stroke-opacity:1; fill:none" points="887.401,1486.45 887.401,1467.55 "></polyline>
<polyline clip-path="url(#clip140)" style="stroke:#000000; stroke-linecap:round; stroke-linejoin:round; stroke-width:4; stroke-opacity:1; fill:none" points="1588.53,1486.45 1588.53,1467.55 "></polyline>
<polyline clip-path="url(#clip140)" style="stroke:#000000; stroke-linecap:round; stroke-linejoin:round; stroke-width:4; stroke-opacity:1; fill:none" points="2289.65,1486.45 2289.65,1467.55 "></polyline>
<path clip-path="url(#clip140)" d="M163.658 1517.37 Q160.047 1517.37 158.219 1520.93 Q156.413 1524.47 156.413 1531.6 Q156.413 1538.71 158.219 1542.27 Q160.047 1545.82 163.658 1545.82 Q167.293 1545.82 169.098 1542.27 Q170.927 1538.71 170.927 1531.6 Q170.927 1524.47 169.098 1520.93 Q167.293 1517.37 163.658 1517.37 M163.658 1513.66 Q169.469 1513.66 172.524 1518.27 Q175.603 1522.85 175.603 1531.6 Q175.603 1540.33 172.524 1544.94 Q169.469 1549.52 163.658 1549.52 Q157.848 1549.52 154.77 1544.94 Q151.714 1540.33 151.714 1531.6 Q151.714 1522.85 154.77 1518.27 Q157.848 1513.66 163.658 1513.66 Z" fill="#000000" fill-rule="nonzero" fill-opacity="1"></path><path clip-path="url(#clip140)" d="M183.82 1542.97 L188.705 1542.97 L188.705 1548.85 L183.82 1548.85 L183.82 1542.97 Z" fill="#000000" fill-rule="nonzero" fill-opacity="1"></path><path clip-path="url(#clip140)" d="M208.89 1517.37 Q205.279 1517.37 203.45 1520.93 Q201.644 1524.47 201.644 1531.6 Q201.644 1538.71 203.45 1542.27 Q205.279 1545.82 208.89 1545.82 Q212.524 1545.82 214.329 1542.27 Q216.158 1538.71 216.158 1531.6 Q216.158 1524.47 214.329 1520.93 Q212.524 1517.37 208.89 1517.37 M208.89 1513.66 Q214.7 1513.66 217.755 1518.27 Q220.834 1522.85 220.834 1531.6 Q220.834 1540.33 217.755 1544.94 Q214.7 1549.52 208.89 1549.52 Q203.079 1549.52 200.001 1544.94 Q196.945 1540.33 196.945 1531.6 Q196.945 1522.85 200.001 1518.27 Q203.079 1513.66 208.89 1513.66 Z" fill="#000000" fill-rule="nonzero" fill-opacity="1"></path><path clip-path="url(#clip140)" d="M865.283 1517.37 Q861.672 1517.37 859.843 1520.93 Q858.038 1524.47 858.038 1531.6 Q858.038 1538.71 859.843 1542.27 Q861.672 1545.82 865.283 1545.82 Q868.917 1545.82 870.723 1542.27 Q872.551 1538.71 872.551 1531.6 Q872.551 1524.47 870.723 1520.93 Q868.917 1517.37 865.283 1517.37 M865.283 1513.66 Q871.093 1513.66 874.149 1518.27 Q877.227 1522.85 877.227 1531.6 Q877.227 1540.33 874.149 1544.94 Q871.093 1549.52 865.283 1549.52 Q859.473 1549.52 856.394 1544.94 Q853.339 1540.33 853.339 1531.6 Q853.339 1522.85 856.394 1518.27 Q859.473 1513.66 865.283 1513.66 Z" fill="#000000" fill-rule="nonzero" fill-opacity="1"></path><path clip-path="url(#clip140)" d="M885.445 1542.97 L890.329 1542.97 L890.329 1548.85 L885.445 1548.85 L885.445 1542.97 Z" fill="#000000" fill-rule="nonzero" fill-opacity="1"></path><path clip-path="url(#clip140)" d="M900.56 1514.29 L918.917 1514.29 L918.917 1518.22 L904.843 1518.22 L904.843 1526.7 Q905.861 1526.35 906.88 1526.19 Q907.898 1526 908.917 1526 Q914.704 1526 918.084 1529.17 Q921.463 1532.34 921.463 1537.76 Q921.463 1543.34 917.991 1546.44 Q914.519 1549.52 908.199 1549.52 Q906.023 1549.52 903.755 1549.15 Q901.51 1548.78 899.102 1548.04 L899.102 1543.34 Q901.185 1544.47 903.408 1545.03 Q905.63 1545.58 908.107 1545.58 Q912.111 1545.58 914.449 1543.48 Q916.787 1541.37 916.787 1537.76 Q916.787 1534.15 914.449 1532.04 Q912.111 1529.94 908.107 1529.94 Q906.232 1529.94 904.357 1530.35 Q902.505 1530.77 900.56 1531.65 L900.56 1514.29 Z" fill="#000000" fill-rule="nonzero" fill-opacity="1"></path><path clip-path="url(#clip140)" d="M1555.68 1544.91 L1563.32 1544.91 L1563.32 1518.55 L1555.01 1520.21 L1555.01 1515.95 L1563.27 1514.29 L1567.95 1514.29 L1567.95 1544.91 L1575.59 1544.91 L1575.59 1548.85 L1555.68 1548.85 L1555.68 1544.91 Z" fill="#000000" fill-rule="nonzero" fill-opacity="1"></path><path clip-path="url(#clip140)" d="M1585.03 1542.97 L1589.92 1542.97 L1589.92 1548.85 L1585.03 1548.85 L1585.03 1542.97 Z" fill="#000000" fill-rule="nonzero" fill-opacity="1"></path><path clip-path="url(#clip140)" d="M1610.1 1517.37 Q1606.49 1517.37 1604.66 1520.93 Q1602.86 1524.47 1602.86 1531.6 Q1602.86 1538.71 1604.66 1542.27 Q1606.49 1545.82 1610.1 1545.82 Q1613.74 1545.82 1615.54 1542.27 Q1617.37 1538.71 1617.37 1531.6 Q1617.37 1524.47 1615.54 1520.93 Q1613.74 1517.37 1610.1 1517.37 M1610.1 1513.66 Q1615.91 1513.66 1618.97 1518.27 Q1622.05 1522.85 1622.05 1531.6 Q1622.05 1540.33 1618.97 1544.94 Q1615.91 1549.52 1610.1 1549.52 Q1604.29 1549.52 1601.21 1544.94 Q1598.16 1540.33 1598.16 1531.6 Q1598.16 1522.85 1601.21 1518.27 Q1604.29 1513.66 1610.1 1513.66 Z" fill="#000000" fill-rule="nonzero" fill-opacity="1"></path><path clip-path="url(#clip140)" d="M2257.31 1544.91 L2264.94 1544.91 L2264.94 1518.55 L2256.63 1520.21 L2256.63 1515.95 L2264.9 1514.29 L2269.57 1514.29 L2269.57 1544.91 L2277.21 1544.91 L2277.21 1548.85 L2257.31 1548.85 L2257.31 1544.91 Z" fill="#000000" fill-rule="nonzero" fill-opacity="1"></path><path clip-path="url(#clip140)" d="M2286.66 1542.97 L2291.54 1542.97 L2291.54 1548.85 L2286.66 1548.85 L2286.66 1542.97 Z" fill="#000000" fill-rule="nonzero" fill-opacity="1"></path><path clip-path="url(#clip140)" d="M2301.77 1514.29 L2320.13 1514.29 L2320.13 1518.22 L2306.05 1518.22 L2306.05 1526.7 Q2307.07 1526.35 2308.09 1526.19 Q2309.11 1526 2310.13 1526 Q2315.92 1526 2319.3 1529.17 Q2322.68 1532.34 2322.68 1537.76 Q2322.68 1543.34 2319.2 1546.44 Q2315.73 1549.52 2309.41 1549.52 Q2307.24 1549.52 2304.97 1549.15 Q2302.72 1548.78 2300.31 1548.04 L2300.31 1543.34 Q2302.4 1544.47 2304.62 1545.03 Q2306.84 1545.58 2309.32 1545.58 Q2313.32 1545.58 2315.66 1543.48 Q2318 1541.37 2318 1537.76 Q2318 1534.15 2315.66 1532.04 Q2313.32 1529.94 2309.32 1529.94 Q2307.44 1529.94 2305.57 1530.35 Q2303.72 1530.77 2301.77 1531.65 L2301.77 1514.29 Z" fill="#000000" fill-rule="nonzero" fill-opacity="1"></path><polyline clip-path="url(#clip142)" style="stroke:#000000; stroke-linecap:round; stroke-linejoin:round; stroke-width:2; stroke-opacity:0.1; fill:none" points="186.274,1486.45 2352.76,1486.45 "></polyline>
<polyline clip-path="url(#clip142)" style="stroke:#000000; stroke-linecap:round; stroke-linejoin:round; stroke-width:2; stroke-opacity:0.1; fill:none" points="186.274,1137.13 2352.76,1137.13 "></polyline>
<polyline clip-path="url(#clip142)" style="stroke:#000000; stroke-linecap:round; stroke-linejoin:round; stroke-width:2; stroke-opacity:0.1; fill:none" points="186.274,787.805 2352.76,787.805 "></polyline>
<polyline clip-path="url(#clip142)" style="stroke:#000000; stroke-linecap:round; stroke-linejoin:round; stroke-width:2; stroke-opacity:0.1; fill:none" points="186.274,438.484 2352.76,438.484 "></polyline>
<polyline clip-path="url(#clip142)" style="stroke:#000000; stroke-linecap:round; stroke-linejoin:round; stroke-width:2; stroke-opacity:0.1; fill:none" points="186.274,89.1627 2352.76,89.1627 "></polyline>
<polyline clip-path="url(#clip140)" style="stroke:#000000; stroke-linecap:round; stroke-linejoin:round; stroke-width:4; stroke-opacity:1; fill:none" points="186.274,1486.45 186.274,47.2441 "></polyline>
<polyline clip-path="url(#clip140)" style="stroke:#000000; stroke-linecap:round; stroke-linejoin:round; stroke-width:4; stroke-opacity:1; fill:none" points="186.274,1486.45 205.172,1486.45 "></polyline>
<polyline clip-path="url(#clip140)" style="stroke:#000000; stroke-linecap:round; stroke-linejoin:round; stroke-width:4; stroke-opacity:1; fill:none" points="186.274,1137.13 205.172,1137.13 "></polyline>
<polyline clip-path="url(#clip140)" style="stroke:#000000; stroke-linecap:round; stroke-linejoin:round; stroke-width:4; stroke-opacity:1; fill:none" points="186.274,787.805 205.172,787.805 "></polyline>
<polyline clip-path="url(#clip140)" style="stroke:#000000; stroke-linecap:round; stroke-linejoin:round; stroke-width:4; stroke-opacity:1; fill:none" points="186.274,438.484 205.172,438.484 "></polyline>
<polyline clip-path="url(#clip140)" style="stroke:#000000; stroke-linecap:round; stroke-linejoin:round; stroke-width:4; stroke-opacity:1; fill:none" points="186.274,89.1627 205.172,89.1627 "></polyline>
<path clip-path="url(#clip140)" d="M62.9365 1472.25 Q59.3254 1472.25 57.4967 1475.81 Q55.6912 1479.35 55.6912 1486.48 Q55.6912 1493.59 57.4967 1497.15 Q59.3254 1500.7 62.9365 1500.7 Q66.5707 1500.7 68.3763 1497.15 Q70.205 1493.59 70.205 1486.48 Q70.205 1479.35 68.3763 1475.81 Q66.5707 1472.25 62.9365 1472.25 M62.9365 1468.54 Q68.7467 1468.54 71.8022 1473.15 Q74.8809 1477.73 74.8809 1486.48 Q74.8809 1495.21 71.8022 1499.82 Q68.7467 1504.4 62.9365 1504.4 Q57.1264 1504.4 54.0477 1499.82 Q50.9921 1495.21 50.9921 1486.48 Q50.9921 1477.73 54.0477 1473.15 Q57.1264 1468.54 62.9365 1468.54 Z" fill="#000000" fill-rule="nonzero" fill-opacity="1"></path><path clip-path="url(#clip140)" d="M83.0984 1497.85 L87.9827 1497.85 L87.9827 1503.73 L83.0984 1503.73 L83.0984 1497.85 Z" fill="#000000" fill-rule="nonzero" fill-opacity="1"></path><path clip-path="url(#clip140)" d="M108.168 1472.25 Q104.557 1472.25 102.728 1475.81 Q100.922 1479.35 100.922 1486.48 Q100.922 1493.59 102.728 1497.15 Q104.557 1500.7 108.168 1500.7 Q111.802 1500.7 113.608 1497.15 Q115.436 1493.59 115.436 1486.48 Q115.436 1479.35 113.608 1475.81 Q111.802 1472.25 108.168 1472.25 M108.168 1468.54 Q113.978 1468.54 117.033 1473.15 Q120.112 1477.73 120.112 1486.48 Q120.112 1495.21 117.033 1499.82 Q113.978 1504.4 108.168 1504.4 Q102.358 1504.4 99.2789 1499.82 Q96.2234 1495.21 96.2234 1486.48 Q96.2234 1477.73 99.2789 1473.15 Q102.358 1468.54 108.168 1468.54 Z" fill="#000000" fill-rule="nonzero" fill-opacity="1"></path><path clip-path="url(#clip140)" d="M138.33 1472.25 Q134.719 1472.25 132.89 1475.81 Q131.084 1479.35 131.084 1486.48 Q131.084 1493.59 132.89 1497.15 Q134.719 1500.7 138.33 1500.7 Q141.964 1500.7 143.769 1497.15 Q145.598 1493.59 145.598 1486.48 Q145.598 1479.35 143.769 1475.81 Q141.964 1472.25 138.33 1472.25 M138.33 1468.54 Q144.14 1468.54 147.195 1473.15 Q150.274 1477.73 150.274 1486.48 Q150.274 1495.21 147.195 1499.82 Q144.14 1504.4 138.33 1504.4 Q132.519 1504.4 129.441 1499.82 Q126.385 1495.21 126.385 1486.48 Q126.385 1477.73 129.441 1473.15 Q132.519 1468.54 138.33 1468.54 Z" fill="#000000" fill-rule="nonzero" fill-opacity="1"></path><path clip-path="url(#clip140)" d="M63.9319 1122.93 Q60.3208 1122.93 58.4921 1126.49 Q56.6865 1130.03 56.6865 1137.16 Q56.6865 1144.27 58.4921 1147.83 Q60.3208 1151.37 63.9319 1151.37 Q67.5661 1151.37 69.3717 1147.83 Q71.2004 1144.27 71.2004 1137.16 Q71.2004 1130.03 69.3717 1126.49 Q67.5661 1122.93 63.9319 1122.93 M63.9319 1119.22 Q69.742 1119.22 72.7976 1123.83 Q75.8763 1128.41 75.8763 1137.16 Q75.8763 1145.89 72.7976 1150.49 Q69.742 1155.08 63.9319 1155.08 Q58.1217 1155.08 55.043 1150.49 Q51.9875 1145.89 51.9875 1137.16 Q51.9875 1128.41 55.043 1123.83 Q58.1217 1119.22 63.9319 1119.22 Z" fill="#000000" fill-rule="nonzero" fill-opacity="1"></path><path clip-path="url(#clip140)" d="M84.0938 1148.53 L88.978 1148.53 L88.978 1154.41 L84.0938 1154.41 L84.0938 1148.53 Z" fill="#000000" fill-rule="nonzero" fill-opacity="1"></path><path clip-path="url(#clip140)" d="M103.191 1150.47 L119.51 1150.47 L119.51 1154.41 L97.566 1154.41 L97.566 1150.47 Q100.228 1147.72 104.811 1143.09 Q109.418 1138.43 110.598 1137.09 Q112.844 1134.57 113.723 1132.83 Q114.626 1131.07 114.626 1129.38 Q114.626 1126.63 112.682 1124.89 Q110.76 1123.16 107.658 1123.16 Q105.459 1123.16 103.006 1123.92 Q100.575 1124.68 97.7974 1126.24 L97.7974 1121.51 Q100.621 1120.38 103.075 1119.8 Q105.529 1119.22 107.566 1119.22 Q112.936 1119.22 116.131 1121.91 Q119.325 1124.59 119.325 1129.08 Q119.325 1131.21 118.515 1133.13 Q117.728 1135.03 115.621 1137.62 Q115.043 1138.3 111.941 1141.51 Q108.839 1144.71 103.191 1150.47 Z" fill="#000000" fill-rule="nonzero" fill-opacity="1"></path><path clip-path="url(#clip140)" d="M129.371 1119.85 L147.728 1119.85 L147.728 1123.78 L133.654 1123.78 L133.654 1132.25 Q134.672 1131.91 135.691 1131.74 Q136.709 1131.56 137.728 1131.56 Q143.515 1131.56 146.894 1134.73 Q150.274 1137.9 150.274 1143.32 Q150.274 1148.9 146.802 1152 Q143.33 1155.08 137.01 1155.08 Q134.834 1155.08 132.566 1154.71 Q130.32 1154.34 127.913 1153.6 L127.913 1148.9 Q129.996 1150.03 132.219 1150.59 Q134.441 1151.14 136.918 1151.14 Q140.922 1151.14 143.26 1149.04 Q145.598 1146.93 145.598 1143.32 Q145.598 1139.71 143.26 1137.6 Q140.922 1135.49 136.918 1135.49 Q135.043 1135.49 133.168 1135.91 Q131.316 1136.33 129.371 1137.21 L129.371 1119.85 Z" fill="#000000" fill-rule="nonzero" fill-opacity="1"></path><path clip-path="url(#clip140)" d="M62.9365 773.604 Q59.3254 773.604 57.4967 777.169 Q55.6912 780.71 55.6912 787.84 Q55.6912 794.946 57.4967 798.511 Q59.3254 802.053 62.9365 802.053 Q66.5707 802.053 68.3763 798.511 Q70.205 794.946 70.205 787.84 Q70.205 780.71 68.3763 777.169 Q66.5707 773.604 62.9365 773.604 M62.9365 769.9 Q68.7467 769.9 71.8022 774.507 Q74.8809 779.09 74.8809 787.84 Q74.8809 796.567 71.8022 801.173 Q68.7467 805.757 62.9365 805.757 Q57.1264 805.757 54.0477 801.173 Q50.9921 796.567 50.9921 787.84 Q50.9921 779.09 54.0477 774.507 Q57.1264 769.9 62.9365 769.9 Z" fill="#000000" fill-rule="nonzero" fill-opacity="1"></path><path clip-path="url(#clip140)" d="M83.0984 799.206 L87.9827 799.206 L87.9827 805.085 L83.0984 805.085 L83.0984 799.206 Z" fill="#000000" fill-rule="nonzero" fill-opacity="1"></path><path clip-path="url(#clip140)" d="M98.2141 770.525 L116.57 770.525 L116.57 774.46 L102.496 774.46 L102.496 782.933 Q103.515 782.585 104.534 782.423 Q105.552 782.238 106.571 782.238 Q112.358 782.238 115.737 785.409 Q119.117 788.581 119.117 793.997 Q119.117 799.576 115.645 802.678 Q112.172 805.757 105.853 805.757 Q103.677 805.757 101.409 805.386 Q99.1632 805.016 96.7558 804.275 L96.7558 799.576 Q98.8391 800.71 101.061 801.266 Q103.284 801.821 105.76 801.821 Q109.765 801.821 112.103 799.715 Q114.441 797.608 114.441 793.997 Q114.441 790.386 112.103 788.28 Q109.765 786.173 105.76 786.173 Q103.885 786.173 102.01 786.59 Q100.159 787.007 98.2141 787.886 L98.2141 770.525 Z" fill="#000000" fill-rule="nonzero" fill-opacity="1"></path><path clip-path="url(#clip140)" d="M138.33 773.604 Q134.719 773.604 132.89 777.169 Q131.084 780.71 131.084 787.84 Q131.084 794.946 132.89 798.511 Q134.719 802.053 138.33 802.053 Q141.964 802.053 143.769 798.511 Q145.598 794.946 145.598 787.84 Q145.598 780.71 143.769 777.169 Q141.964 773.604 138.33 773.604 M138.33 769.9 Q144.14 769.9 147.195 774.507 Q150.274 779.09 150.274 787.84 Q150.274 796.567 147.195 801.173 Q144.14 805.757 138.33 805.757 Q132.519 805.757 129.441 801.173 Q126.385 796.567 126.385 787.84 Q126.385 779.09 129.441 774.507 Q132.519 769.9 138.33 769.9 Z" fill="#000000" fill-rule="nonzero" fill-opacity="1"></path><path clip-path="url(#clip140)" d="M63.9319 424.283 Q60.3208 424.283 58.4921 427.847 Q56.6865 431.389 56.6865 438.519 Q56.6865 445.625 58.4921 449.19 Q60.3208 452.732 63.9319 452.732 Q67.5661 452.732 69.3717 449.19 Q71.2004 445.625 71.2004 438.519 Q71.2004 431.389 69.3717 427.847 Q67.5661 424.283 63.9319 424.283 M63.9319 420.579 Q69.742 420.579 72.7976 425.185 Q75.8763 429.769 75.8763 438.519 Q75.8763 447.245 72.7976 451.852 Q69.742 456.435 63.9319 456.435 Q58.1217 456.435 55.043 451.852 Q51.9875 447.245 51.9875 438.519 Q51.9875 429.769 55.043 425.185 Q58.1217 420.579 63.9319 420.579 Z" fill="#000000" fill-rule="nonzero" fill-opacity="1"></path><path clip-path="url(#clip140)" d="M84.0938 449.884 L88.978 449.884 L88.978 455.764 L84.0938 455.764 L84.0938 449.884 Z" fill="#000000" fill-rule="nonzero" fill-opacity="1"></path><path clip-path="url(#clip140)" d="M97.9826 421.204 L120.205 421.204 L120.205 423.195 L107.658 455.764 L102.774 455.764 L114.58 425.139 L97.9826 425.139 L97.9826 421.204 Z" fill="#000000" fill-rule="nonzero" fill-opacity="1"></path><path clip-path="url(#clip140)" d="M129.371 421.204 L147.728 421.204 L147.728 425.139 L133.654 425.139 L133.654 433.611 Q134.672 433.264 135.691 433.102 Q136.709 432.917 137.728 432.917 Q143.515 432.917 146.894 436.088 Q150.274 439.259 150.274 444.676 Q150.274 450.255 146.802 453.357 Q143.33 456.435 137.01 456.435 Q134.834 456.435 132.566 456.065 Q130.32 455.695 127.913 454.954 L127.913 450.255 Q129.996 451.389 132.219 451.945 Q134.441 452.5 136.918 452.5 Q140.922 452.5 143.26 450.394 Q145.598 448.287 145.598 444.676 Q145.598 441.065 143.26 438.958 Q140.922 436.852 136.918 436.852 Q135.043 436.852 133.168 437.269 Q131.316 437.685 129.371 438.565 L129.371 421.204 Z" fill="#000000" fill-rule="nonzero" fill-opacity="1"></path><path clip-path="url(#clip140)" d="M53.7467 102.507 L61.3856 102.507 L61.3856 76.1419 L53.0754 77.8085 L53.0754 73.5493 L61.3393 71.8827 L66.0152 71.8827 L66.0152 102.507 L73.654 102.507 L73.654 106.443 L53.7467 106.443 L53.7467 102.507 Z" fill="#000000" fill-rule="nonzero" fill-opacity="1"></path><path clip-path="url(#clip140)" d="M83.0984 100.563 L87.9827 100.563 L87.9827 106.443 L83.0984 106.443 L83.0984 100.563 Z" fill="#000000" fill-rule="nonzero" fill-opacity="1"></path><path clip-path="url(#clip140)" d="M108.168 74.9613 Q104.557 74.9613 102.728 78.5261 Q100.922 82.0678 100.922 89.1974 Q100.922 96.3038 102.728 99.8686 Q104.557 103.41 108.168 103.41 Q111.802 103.41 113.608 99.8686 Q115.436 96.3038 115.436 89.1974 Q115.436 82.0678 113.608 78.5261 Q111.802 74.9613 108.168 74.9613 M108.168 71.2577 Q113.978 71.2577 117.033 75.8641 Q120.112 80.4474 120.112 89.1974 Q120.112 97.9242 117.033 102.531 Q113.978 107.114 108.168 107.114 Q102.358 107.114 99.2789 102.531 Q96.2234 97.9242 96.2234 89.1974 Q96.2234 80.4474 99.2789 75.8641 Q102.358 71.2577 108.168 71.2577 Z" fill="#000000" fill-rule="nonzero" fill-opacity="1"></path><path clip-path="url(#clip140)" d="M138.33 74.9613 Q134.719 74.9613 132.89 78.5261 Q131.084 82.0678 131.084 89.1974 Q131.084 96.3038 132.89 99.8686 Q134.719 103.41 138.33 103.41 Q141.964 103.41 143.769 99.8686 Q145.598 96.3038 145.598 89.1974 Q145.598 82.0678 143.769 78.5261 Q141.964 74.9613 138.33 74.9613 M138.33 71.2577 Q144.14 71.2577 147.195 75.8641 Q150.274 80.4474 150.274 89.1974 Q150.274 97.9242 147.195 102.531 Q144.14 107.114 138.33 107.114 Q132.519 107.114 129.441 102.531 Q126.385 97.9242 126.385 89.1974 Q126.385 80.4474 129.441 75.8641 Q132.519 71.2577 138.33 71.2577 Z" fill="#000000" fill-rule="nonzero" fill-opacity="1"></path><polyline clip-path="url(#clip142)" style="stroke:#000000; stroke-linecap:round; stroke-linejoin:round; stroke-width:4; stroke-opacity:1; fill:none" points="186.274,1486.45 1588.53,1486.45 "></polyline>
<circle clip-path="url(#clip142)" cx="1588.53" cy="1486.45" r="14.4" fill="#000000" fill-rule="evenodd" fill-opacity="1" stroke="none"></circle>
<polyline clip-path="url(#clip142)" style="stroke:#000000; stroke-linecap:round; stroke-linejoin:round; stroke-width:4; stroke-opacity:1; fill:none" points="186.274,1374.29 1588.53,1374.29 1588.53,1486.45 "></polyline>
<polyline clip-path="url(#clip142)" style="stroke:#000000; stroke-linecap:round; stroke-linejoin:round; stroke-width:4; stroke-opacity:1; fill:none" stroke-dasharray="16, 10" points="1588.53,1374.29 1588.53,1486.45 "></polyline>
<circle clip-path="url(#clip142)" cx="1588.53" cy="1374.29" r="14.4" fill="#000000" fill-rule="evenodd" fill-opacity="1" stroke="none"></circle>
<polyline clip-path="url(#clip142)" style="stroke:#000000; stroke-linecap:round; stroke-linejoin:round; stroke-width:4; stroke-opacity:1; fill:none" points="186.274,1262.13 1588.53,1262.13 1588.53,1374.29 "></polyline>
<polyline clip-path="url(#clip142)" style="stroke:#000000; stroke-linecap:round; stroke-linejoin:round; stroke-width:4; stroke-opacity:1; fill:none" stroke-dasharray="16, 10" points="1588.53,1262.13 1588.53,1374.29 "></polyline>
<circle clip-path="url(#clip142)" cx="1588.53" cy="1262.13" r="14.4" fill="#000000" fill-rule="evenodd" fill-opacity="1" stroke="none"></circle>
<polyline clip-path="url(#clip142)" style="stroke:#000000; stroke-linecap:round; stroke-linejoin:round; stroke-width:4; stroke-opacity:1; fill:none" points="186.274,1149.97 1588.53,1149.97 1588.53,1262.13 "></polyline>
<polyline clip-path="url(#clip142)" style="stroke:#000000; stroke-linecap:round; stroke-linejoin:round; stroke-width:4; stroke-opacity:1; fill:none" stroke-dasharray="16, 10" points="1588.53,1149.97 1588.53,1262.13 "></polyline>
<circle clip-path="url(#clip142)" cx="1588.53" cy="1149.97" r="14.4" fill="#000000" fill-rule="evenodd" fill-opacity="1" stroke="none"></circle>
<polyline clip-path="url(#clip142)" style="stroke:#000000; stroke-linecap:round; stroke-linejoin:round; stroke-width:4; stroke-opacity:1; fill:none" points="186.274,1037.81 1588.53,1037.81 1588.53,1149.97 "></polyline>
<polyline clip-path="url(#clip142)" style="stroke:#000000; stroke-linecap:round; stroke-linejoin:round; stroke-width:4; stroke-opacity:1; fill:none" stroke-dasharray="16, 10" points="1588.53,1037.81 1588.53,1149.97 "></polyline>
<circle clip-path="url(#clip142)" cx="1588.53" cy="1037.81" r="14.4" fill="#000000" fill-rule="evenodd" fill-opacity="1" stroke="none"></circle>
<polyline clip-path="url(#clip142)" style="stroke:#000000; stroke-linecap:round; stroke-linejoin:round; stroke-width:4; stroke-opacity:1; fill:none" points="186.274,925.648 1588.53,925.648 1588.53,1037.81 "></polyline>
<polyline clip-path="url(#clip142)" style="stroke:#000000; stroke-linecap:round; stroke-linejoin:round; stroke-width:4; stroke-opacity:1; fill:none" stroke-dasharray="16, 10" points="1526.08,925.648 1526.08,1037.81 "></polyline>
<circle clip-path="url(#clip142)" cx="1526.08" cy="925.648" r="14.4" fill="#000000" fill-rule="evenodd" fill-opacity="1" stroke="none"></circle>
<polyline clip-path="url(#clip142)" style="stroke:#000000; stroke-linecap:round; stroke-linejoin:round; stroke-width:4; stroke-opacity:1; fill:none" points="186.274,808.26 1526.08,808.26 1526.08,925.648 "></polyline>
<polyline clip-path="url(#clip142)" style="stroke:#000000; stroke-linecap:round; stroke-linejoin:round; stroke-width:4; stroke-opacity:1; fill:none" stroke-dasharray="16, 10" points="1378.49,808.26 1378.49,925.648 "></polyline>
<circle clip-path="url(#clip142)" cx="1378.49" cy="808.26" r="14.4" fill="#000000" fill-rule="evenodd" fill-opacity="1" stroke="none"></circle>
<polyline clip-path="url(#clip142)" style="stroke:#000000; stroke-linecap:round; stroke-linejoin:round; stroke-width:4; stroke-opacity:1; fill:none" points="186.274,676.34 1378.49,676.34 1378.49,808.26 "></polyline>
<polyline clip-path="url(#clip142)" style="stroke:#000000; stroke-linecap:round; stroke-linejoin:round; stroke-width:4; stroke-opacity:1; fill:none" stroke-dasharray="16, 10" points="1221.59,676.34 1221.59,808.26 "></polyline>
<circle clip-path="url(#clip142)" cx="1221.59" cy="676.34" r="14.4" fill="#000000" fill-rule="evenodd" fill-opacity="1" stroke="none"></circle>
<polyline clip-path="url(#clip142)" style="stroke:#000000; stroke-linecap:round; stroke-linejoin:round; stroke-width:4; stroke-opacity:1; fill:none" points="186.274,524.428 1221.59,524.428 1221.59,676.34 "></polyline>
<polyline clip-path="url(#clip142)" style="stroke:#000000; stroke-linecap:round; stroke-linejoin:round; stroke-width:4; stroke-opacity:1; fill:none" stroke-dasharray="16, 10" points="1042.97,524.428 1042.97,676.34 "></polyline>
<circle clip-path="url(#clip142)" cx="1042.97" cy="524.428" r="14.4" fill="#000000" fill-rule="evenodd" fill-opacity="1" stroke="none"></circle>
<polyline clip-path="url(#clip142)" style="stroke:#000000; stroke-linecap:round; stroke-linejoin:round; stroke-width:4; stroke-opacity:1; fill:none" points="186.274,340.843 1042.97,340.843 1042.97,524.428 "></polyline>
<polyline clip-path="url(#clip142)" style="stroke:#000000; stroke-linecap:round; stroke-linejoin:round; stroke-width:4; stroke-opacity:1; fill:none" stroke-dasharray="16, 10" points="811.18,340.843 811.18,524.428 "></polyline>
<circle clip-path="url(#clip142)" cx="811.18" cy="340.843" r="14.4" fill="#000000" fill-rule="evenodd" fill-opacity="1" stroke="none"></circle>
<polyline clip-path="url(#clip142)" style="stroke:#000000; stroke-linecap:round; stroke-linejoin:round; stroke-width:4; stroke-opacity:1; fill:none" points="186.274,89.1627 811.18,89.1627 811.18,340.843 "></polyline>
<polyline clip-path="url(#clip142)" style="stroke:#000000; stroke-linecap:round; stroke-linejoin:round; stroke-width:4; stroke-opacity:1; fill:none" stroke-dasharray="16, 10" points="186.274,89.1627 186.274,340.843 "></polyline>
<circle clip-path="url(#clip142)" cx="186.274" cy="89.1627" r="14.4" fill="#000000" fill-rule="evenodd" fill-opacity="1" stroke="none"></circle>
<polyline clip-path="url(#clip142)" style="stroke:#0000ff; stroke-linecap:round; stroke-linejoin:round; stroke-width:8; stroke-opacity:1; fill:none" points="186.274,89.1627 189.8,89.1715 193.326,89.198 196.853,89.2422 200.379,89.304 232.984,90.7122 265.589,93.6259 298.195,98.0356 330.8,103.927 369.989,112.942 409.177,124.028 442.311,134.979 475.445,147.338 511.437,162.312 547.429,178.843 580.611,195.407 613.793,213.189 649.367,233.541 684.942,255.153 726.158,281.668 767.375,309.647 840.631,362.585 904.871,411.881 974.909,468.049 1045.36,526.434 1123.26,592.368 1197.38,655.667 1274.44,721.283 1339.31,775.818 1418.51,840.916 1491.06,898.602 1507.82,911.609 1524.57,924.489 1541.32,937.237 1558.07,949.849 1566.56,956.183 1575.04,962.481 1579.28,965.617 1583.53,968.743 1584.59,969.523 1585.65,970.302 1586.18,970.692 1586.71,971.081 1587.24,971.47 1587.77,971.859 1588.3,972.248 1588.83,1486.45 1589.36,1486.45 1589.89,1486.45 1590.95,1486.45 1592.01,1486.45 1594.13,1486.45 1596.25,1486.45 1598.38,1486.45 1600.5,1486.45 1604.74,1486.45 1608.98,1486.45 1617.47,1486.45 1625.95,1486.45 1663.99,1486.45 1702.02,1486.45 1736.49,1486.45 1770.95,1486.45 1849.88,1486.45 1922.95,1486.45 1995,1486.45 2064.95,1486.45 2136.65,1486.45 2215.22,1486.45 2329.34,1486.45 2352.76,1486.45 "></polyline>
</svg>