<svg xmlns="http://www.w3.org/2000/svg" xmlns:xlink="http://www.w3.org/1999/xlink" width="600" height="400" viewBox="0 0 2400 1600">
<defs>
  <clipPath id="clip820">
    <rect x="0" y="0" width="2400" height="1600"></rect>
  </clipPath>
</defs>
<path clip-path="url(#clip820)" d="M0 1600 L2400 1600 L2400 0 L0 0  Z" fill="#ffffff" fill-rule="evenodd" fill-opacity="1"></path>
<defs>
  <clipPath id="clip821">
    <rect x="480" y="0" width="1681" height="1600"></rect>
  </clipPath>
</defs>
<path clip-path="url(#clip820)" d="M186.274 1486.45 L2352.76 1486.45 L2352.76 47.2441 L186.274 47.2441  Z" fill="#ffffff" fill-rule="evenodd" fill-opacity="1"></path>
<defs>
  <clipPath id="clip822">
    <rect x="186" y="47" width="2167" height="1440"></rect>
  </clipPath>
</defs>
<polyline clip-path="url(#clip822)" style="stroke:#000000; stroke-linecap:round; stroke-linejoin:round; stroke-width:2; stroke-opacity:0.1; fill:none" points="365.689,1486.45 365.689,47.2441 "></polyline>
<polyline clip-path="url(#clip822)" style="stroke:#000000; stroke-linecap:round; stroke-linejoin:round; stroke-width:2; stroke-opacity:0.1; fill:none" points="666.965,1486.45 666.965,47.2441 "></polyline>
<polyline clip-path="url(#clip822)" style="stroke:#000000; stroke-linecap:round; stroke-linejoin:round; stroke-width:2; stroke-opacity:0.1; fill:none" points="968.24,1486.45 968.24,47.2441 "></polyline>
<polyline clip-path="url(#clip822)" style="stroke:#000000; stroke-linecap:round; stroke-linejoin:round; stroke-width:2; stroke-opacity:0.1; fill:none" points="1269.51,1486.45 1269.51,47.2441 "></polyline>
<polyline clip-path="url(#clip822)" style="stroke:#000000; stroke-linecap:round; stroke-linejoin:round; stroke-width:2; stroke-opacity:0.1; fill:none" points="1570.79,1486.45 1570.79,47.2441 "></polyline>
<polyline clip-path="url(#clip822)" style="stroke:#000000; stroke-linecap:round; stroke-linejoin:round; stroke-width:2; stroke-opacity:0.1; fill:none" points="1872.07,1486.45 1872.07,47.2441 "></polyline>
<polyline clip-path="url(#clip822)" style="stroke:#000000; stroke-linecap:round; stroke-linejoin:round; stroke-width:2; stroke-opacity:0.1; fill:none" points="2173.34,1486.45 2173.34,47.2441 "></polyline>
<polyline clip-path="url(#clip822)" style="stroke:#000000; stroke-linecap:round; stroke-linejoin:round; stroke-width:2; stroke-opacity:0.1; fill:none" points="186.274,1486.45 2352.76,1486.45 "></polyline>
<polyline clip-path="url(#clip822)" style="stroke:#000000; stroke-linecap:round; stroke-linejoin:round; stroke-width:2; stroke-opacity:0.1; fill:none" points="186.274,1199.42 2352.76,1199.42 "></polyline>
<polyline clip-path="url(#clip822)" style="stroke:#000000; stroke-linecap:round; stroke-linejoin:round; stroke-width:2; stroke-opacity:0.1; fill:none" points="186.274,912.397 2352.76,912.397 "></polyline>
<polyline clip-path="url(#clip822)" style="stroke:#000000; stroke-linecap:round; stroke-linejoin:round; stroke-width:2; stroke-opacity:0.1; fill:none" points="186.274,625.371 2352.76,625.371 "></polyline>
<polyline clip-path="url(#clip822)" style="stroke:#000000; stroke-linecap:round; stroke-linejoin:round; stroke-width:2; stroke-opacity:0.1; fill:none" points="186.274,338.345 2352.76,338.345 "></polyline>
<polyline clip-path="url(#clip822)" style="stroke:#000000; stroke-linecap:round; stroke-linejoin:round; stroke-width:2; stroke-opacity:0.1; fill:none" points="186.274,51.3199 2352.76,51.3199 "></polyline>
<polyline clip-path="url(#clip820)" style="stroke:#000000; stroke-linecap:round; stroke-linejoin:round; stroke-width:4; stroke-opacity:1; fill:none" points="186.274,1486.45 2352.76,1486.45 "></polyline>
<polyline clip-path="url(#clip820)" style="stroke:#000000; stroke-linecap:round; stroke-linejoin:round; stroke-width:4; stroke-opacity:1; fill:none" points="365.689,1486.45 365.689,1467.55 "></polyline>
<polyline clip-path="url(#clip820)" style="stroke:#000000; stroke-linecap:round; stroke-linejoin:round; stroke-width:4; stroke-opacity:1; fill:none" points="666.965,1486.45 666.965,1467.55 "></polyline>
<polyline clip-path="url(#clip820)" style="stroke:#000000; stroke-linecap:round; stroke-linejoin:round; stroke-width:4; stroke-opacity:1; fill:none" points="968.24,1486.45 968.24,1467.55 "></polyline>
<polyline clip-path="url(#clip820)" style="stroke:#000000; stroke-linecap:round; stroke-linejoin:round; stroke-width:4; stroke-opacity:1; fill:none" points="1269.51,1486.45 1269.51,1467.55 "></polyline>
<polyline clip-path="url(#clip820)" style="stroke:#000000; stroke-linecap:round; stroke-linejoin:round; stroke-width:4; stroke-opacity:1; fill:none" points="1570.79,1486.45 1570.79,1467.55 "></polyline>
<polyline clip-path="url(#clip820)" style="stroke:#000000; stroke-linecap:round; stroke-linejoin:round; stroke-width:4; stroke-opacity:1; fill:none" points="1872.07,1486.45 1872.07,1467.55 "></polyline>
<polyline clip-path="url(#clip820)" style="stroke:#000000; stroke-linecap:round; stroke-linejoin:round; stroke-width:4; stroke-opacity:1; fill:none" points="2173.34,1486.45 2173.34,1467.55 "></polyline>
<path clip-path="url(#clip820)" d="M335.157 1532.02 L364.833 1532.02 L364.833 1535.95 L335.157 1535.95 L335.157 1532.02 Z" fill="#000000" fill-rule="nonzero" fill-opacity="1"></path><path clip-path="url(#clip820)" d="M389.092 1530.21 Q392.449 1530.93 394.324 1533.2 Q396.222 1535.47 396.222 1538.8 Q396.222 1543.92 392.703 1546.72 Q389.185 1549.52 382.703 1549.52 Q380.527 1549.52 378.212 1549.08 Q375.921 1548.66 373.467 1547.81 L373.467 1543.29 Q375.412 1544.43 377.726 1545.01 Q380.041 1545.58 382.564 1545.58 Q386.962 1545.58 389.254 1543.85 Q391.569 1542.11 391.569 1538.8 Q391.569 1535.75 389.416 1534.03 Q387.287 1532.3 383.467 1532.3 L379.439 1532.3 L379.439 1528.45 L383.652 1528.45 Q387.101 1528.45 388.93 1527.09 Q390.759 1525.7 390.759 1523.11 Q390.759 1520.45 388.861 1519.03 Q386.986 1517.6 383.467 1517.6 Q381.546 1517.6 379.347 1518.01 Q377.148 1518.43 374.509 1519.31 L374.509 1515.14 Q377.171 1514.4 379.486 1514.03 Q381.824 1513.66 383.884 1513.66 Q389.208 1513.66 392.31 1516.09 Q395.411 1518.5 395.411 1522.62 Q395.411 1525.49 393.768 1527.48 Q392.124 1529.45 389.092 1530.21 Z" fill="#000000" fill-rule="nonzero" fill-opacity="1"></path><path clip-path="url(#clip820)" d="M636.907 1532.02 L666.583 1532.02 L666.583 1535.95 L636.907 1535.95 L636.907 1532.02 Z" fill="#000000" fill-rule="nonzero" fill-opacity="1"></path><path clip-path="url(#clip820)" d="M680.703 1544.91 L697.022 1544.91 L697.022 1548.85 L675.078 1548.85 L675.078 1544.91 Q677.74 1542.16 682.323 1537.53 Q686.93 1532.88 688.11 1531.53 Q690.356 1529.01 691.235 1527.27 Q692.138 1525.51 692.138 1523.82 Q692.138 1521.07 690.194 1519.33 Q688.272 1517.6 685.171 1517.6 Q682.971 1517.6 680.518 1518.36 Q678.087 1519.13 675.309 1520.68 L675.309 1515.95 Q678.134 1514.82 680.587 1514.24 Q683.041 1513.66 685.078 1513.66 Q690.448 1513.66 693.643 1516.35 Q696.837 1519.03 696.837 1523.52 Q696.837 1525.65 696.027 1527.57 Q695.24 1529.47 693.133 1532.07 Q692.555 1532.74 689.453 1535.95 Q686.351 1539.15 680.703 1544.91 Z" fill="#000000" fill-rule="nonzero" fill-opacity="1"></path><path clip-path="url(#clip820)" d="M937.997 1532.02 L967.673 1532.02 L967.673 1535.95 L937.997 1535.95 L937.997 1532.02 Z" fill="#000000" fill-rule="nonzero" fill-opacity="1"></path><path clip-path="url(#clip820)" d="M978.575 1544.91 L986.214 1544.91 L986.214 1518.55 L977.904 1520.21 L977.904 1515.95 L986.168 1514.29 L990.844 1514.29 L990.844 1544.91 L998.483 1544.91 L998.483 1548.85 L978.575 1548.85 L978.575 1544.91 Z" fill="#000000" fill-rule="nonzero" fill-opacity="1"></path><path clip-path="url(#clip820)" d="M1269.51 1517.37 Q1265.9 1517.37 1264.08 1520.93 Q1262.27 1524.47 1262.27 1531.6 Q1262.27 1538.71 1264.08 1542.27 Q1265.9 1545.82 1269.51 1545.82 Q1273.15 1545.82 1274.95 1542.27 Q1276.78 1538.71 1276.78 1531.6 Q1276.78 1524.47 1274.95 1520.93 Q1273.15 1517.37 1269.51 1517.37 M1269.51 1513.66 Q1275.33 1513.66 1278.38 1518.27 Q1281.46 1522.85 1281.46 1531.6 Q1281.46 1540.33 1278.38 1544.94 Q1275.33 1549.52 1269.51 1549.52 Q1263.7 1549.52 1260.63 1544.94 Q1257.57 1540.33 1257.57 1531.6 Q1257.57 1522.85 1260.63 1518.27 Q1263.7 1513.66 1269.51 1513.66 Z" fill="#000000" fill-rule="nonzero" fill-opacity="1"></path><path clip-path="url(#clip820)" d="M1561.17 1544.91 L1568.81 1544.91 L1568.81 1518.55 L1560.5 1520.21 L1560.5 1515.95 L1568.76 1514.29 L1573.44 1514.29 L1573.44 1544.91 L1581.08 1544.91 L1581.08 1548.85 L1561.17 1548.85 L1561.17 1544.91 Z" fill="#000000" fill-rule="nonzero" fill-opacity="1"></path><path clip-path="url(#clip820)" d="M1866.72 1544.91 L1883.04 1544.91 L1883.04 1548.85 L1861.09 1548.85 L1861.09 1544.91 Q1863.76 1542.16 1868.34 1537.53 Q1872.94 1532.88 1874.13 1531.53 Q1876.37 1529.01 1877.25 1527.27 Q1878.15 1525.51 1878.15 1523.82 Q1878.15 1521.07 1876.21 1519.33 Q1874.29 1517.6 1871.19 1517.6 Q1868.99 1517.6 1866.53 1518.36 Q1864.1 1519.13 1861.32 1520.68 L1861.32 1515.95 Q1864.15 1514.82 1866.6 1514.24 Q1869.06 1513.66 1871.09 1513.66 Q1876.46 1513.66 1879.66 1516.35 Q1882.85 1519.03 1882.85 1523.52 Q1882.85 1525.65 1882.04 1527.57 Q1881.26 1529.47 1879.15 1532.07 Q1878.57 1532.74 1875.47 1535.95 Q1872.37 1539.15 1866.72 1544.91 Z" fill="#000000" fill-rule="nonzero" fill-opacity="1"></path><path clip-path="url(#clip820)" d="M2177.59 1530.21 Q2180.94 1530.93 2182.82 1533.2 Q2184.72 1535.47 2184.72 1538.8 Q2184.72 1543.92 2181.2 1546.72 Q2177.68 1549.52 2171.2 1549.52 Q2169.02 1549.52 2166.71 1549.08 Q2164.42 1548.66 2161.96 1547.81 L2161.96 1543.29 Q2163.91 1544.43 2166.22 1545.01 Q2168.54 1545.58 2171.06 1545.58 Q2175.46 1545.58 2177.75 1543.85 Q2180.07 1542.11 2180.07 1538.8 Q2180.07 1535.75 2177.91 1534.03 Q2175.78 1532.3 2171.96 1532.3 L2167.94 1532.3 L2167.94 1528.45 L2172.15 1528.45 Q2175.6 1528.45 2177.43 1527.09 Q2179.25 1525.7 2179.25 1523.11 Q2179.25 1520.45 2177.36 1519.03 Q2175.48 1517.6 2171.96 1517.6 Q2170.04 1517.6 2167.84 1518.01 Q2165.64 1518.43 2163 1519.31 L2163 1515.14 Q2165.67 1514.4 2167.98 1514.03 Q2170.32 1513.66 2172.38 1513.66 Q2177.7 1513.66 2180.81 1516.09 Q2183.91 1518.5 2183.91 1522.62 Q2183.91 1525.49 2182.26 1527.48 Q2180.62 1529.45 2177.59 1530.21 Z" fill="#000000" fill-rule="nonzero" fill-opacity="1"></path><polyline clip-path="url(#clip820)" style="stroke:#000000; stroke-linecap:round; stroke-linejoin:round; stroke-width:4; stroke-opacity:1; fill:none" points="186.274,1486.45 186.274,47.2441 "></polyline>
<polyline clip-path="url(#clip820)" style="stroke:#000000; stroke-linecap:round; stroke-linejoin:round; stroke-width:4; stroke-opacity:1; fill:none" points="186.274,1486.45 205.172,1486.45 "></polyline>
<polyline clip-path="url(#clip820)" style="stroke:#000000; stroke-linecap:round; stroke-linejoin:round; stroke-width:4; stroke-opacity:1; fill:none" points="186.274,1199.42 205.172,1199.42 "></polyline>
<polyline clip-path="url(#clip820)" style="stroke:#000000; stroke-linecap:round; stroke-linejoin:round; stroke-width:4; stroke-opacity:1; fill:none" points="186.274,912.397 205.172,912.397 "></polyline>
<polyline clip-path="url(#clip820)" style="stroke:#000000; stroke-linecap:round; stroke-linejoin:round; stroke-width:4; stroke-opacity:1; fill:none" points="186.274,625.371 205.172,625.371 "></polyline>
<polyline clip-path="url(#clip820)" style="stroke:#000000; stroke-linecap:round; stroke-linejoin:round; stroke-width:4; stroke-opacity:1; fill:none" points="186.274,338.345 205.172,338.345 "></polyline>
<polyline clip-path="url(#clip820)" style="stroke:#000000; stroke-linecap:round; stroke-linejoin:round; stroke-width:4; stroke-opacity:1; fill:none" points="186.274,51.3199 205.172,51.3199 "></polyline>
<path clip-path="url(#clip820)" d="M62.9365 1472.25 Q59.3254 1472.25 57.4967 1475.81 Q55.6912 1479.35 55.6912 1486.48 Q55.6912 1493.59 57.4967 1497.15 Q59.3254 1500.7 62.9365 1500.7 Q66.5707 1500.7 68.3763 1497.15 Q70.205 1493.59 70.205 1486.48 Q70.205 1479.35 68.3763 1475.81 Q66.5707 1472.25 62.9365 1472.25 M62.9365 1468.54 Q68.7467 1468.54 71.8022 1473.15 Q74.8809 1477.73 74.8809 1486.48 Q74.8809 1495.21 71.8022 1499.82 Q68.7467 1504.4 62.9365 1504.4 Q57.1264 1504.4 54.0477 1499.82 Q50.9921 1495.21 50.9921 1486.48 Q50.9921 1477.73 54.0477 1473.15 Q57.1264 1468.54 62.9365 1468.54 Z" fill="#000000" fill-rule="nonzero" fill-opacity="1"></path><path clip-path="url(#clip820)" d="M83.0984 1497.85 L87.9827 1497.85 L87.9827 1503.73 L83.0984 1503.73 L83.0984 1497.85 Z" fill="#000000" fill-rule="nonzero" fill-opacity="1"></path><path clip-path="url(#clip820)" d="M108.168 1472.25 Q104.557 1472.25 102.728 1475.81 Q100.922 1479.35 100.922 1486.48 Q100.922 1493.59 102.728 1497.15 Q104.557 1500.7 108.168 1500.7 Q111.802 1500.7 113.608 1497.15 Q115.436 1493.59 115.436 1486.48 Q115.436 1479.35 113.608 1475.81 Q111.802 1472.25 108.168 1472.25 M108.168 1468.54 Q113.978 1468.54 117.033 1473.15 Q120.112 1477.73 120.112 1486.48 Q120.112 1495.21 117.033 1499.82 Q113.978 1504.4 108.168 1504.4 Q102.358 1504.4 99.2789 1499.82 Q96.2234 1495.21 96.2234 1486.48 Q96.2234 1477.73 99.2789 1473.15 Q102.358 1468.54 108.168 1468.54 Z" fill="#000000" fill-rule="nonzero" fill-opacity="1"></path><path clip-path="url(#clip820)" d="M138.33 1472.25 Q134.719 1472.25 132.89 1475.81 Q131.084 1479.35 131.084 1486.48 Q131.084 1493.59 132.89 1497.15 Q134.719 1500.7 138.33 1500.7 Q141.964 1500.7 143.769 1497.15 Q145.598 1493.59 145.598 1486.48 Q145.598 1479.35 143.769 1475.81 Q141.964 1472.25 138.33 1472.25 M138.33 1468.54 Q144.14 1468.54 147.195 1473.15 Q150.274 1477.73 150.274 1486.48 Q150.274 1495.21 147.195 1499.82 Q144.14 1504.4 138.33 1504.4 Q132.519 1504.4 129.441 1499.82 Q126.385 1495.21 126.385 1486.48 Q126.385 1477.73 129.441 1473.15 Q132.519 1468.54 138.33 1468.54 Z" fill="#000000" fill-rule="nonzero" fill-opacity="1"></path><path clip-path="url(#clip820)" d="M63.9319 1185.22 Q60.3208 1185.22 58.4921 1188.79 Q56.6865 1192.33 56.6865 1199.46 Q56.6865 1206.56 58.4921 1210.13 Q60.3208 1213.67 63.9319 1213.67 Q67.5661 1213.67 69.3717 1210.13 Q71.2004 1206.56 71.2004 1199.46 Q71.2004 1192.33 69.3717 1188.79 Q67.5661 1185.22 63.9319 1185.22 M63.9319 1181.52 Q69.742 1181.52 72.7976 1186.12 Q75.8763 1190.71 75.8763 1199.46 Q75.8763 1208.18 72.7976 1212.79 Q69.742 1217.37 63.9319 1217.37 Q58.1217 1217.37 55.043 1212.79 Q51.9875 1208.18 51.9875 1199.46 Q51.9875 1190.71 55.043 1186.12 Q58.1217 1181.52 63.9319 1181.52 Z" fill="#000000" fill-rule="nonzero" fill-opacity="1"></path><path clip-path="url(#clip820)" d="M84.0938 1210.82 L88.978 1210.82 L88.978 1216.7 L84.0938 1216.7 L84.0938 1210.82 Z" fill="#000000" fill-rule="nonzero" fill-opacity="1"></path><path clip-path="url(#clip820)" d="M109.163 1185.22 Q105.552 1185.22 103.723 1188.79 Q101.918 1192.33 101.918 1199.46 Q101.918 1206.56 103.723 1210.13 Q105.552 1213.67 109.163 1213.67 Q112.797 1213.67 114.603 1210.13 Q116.432 1206.56 116.432 1199.46 Q116.432 1192.33 114.603 1188.79 Q112.797 1185.22 109.163 1185.22 M109.163 1181.52 Q114.973 1181.52 118.029 1186.12 Q121.107 1190.71 121.107 1199.46 Q121.107 1208.18 118.029 1212.79 Q114.973 1217.37 109.163 1217.37 Q103.353 1217.37 100.274 1212.79 Q97.2187 1208.18 97.2187 1199.46 Q97.2187 1190.71 100.274 1186.12 Q103.353 1181.52 109.163 1181.52 Z" fill="#000000" fill-rule="nonzero" fill-opacity="1"></path><path clip-path="url(#clip820)" d="M129.371 1182.14 L147.728 1182.14 L147.728 1186.08 L133.654 1186.08 L133.654 1194.55 Q134.672 1194.2 135.691 1194.04 Q136.709 1193.86 137.728 1193.86 Q143.515 1193.86 146.894 1197.03 Q150.274 1200.2 150.274 1205.61 Q150.274 1211.19 146.802 1214.29 Q143.33 1217.37 137.01 1217.37 Q134.834 1217.37 132.566 1217 Q130.32 1216.63 127.913 1215.89 L127.913 1211.19 Q129.996 1212.33 132.219 1212.88 Q134.441 1213.44 136.918 1213.44 Q140.922 1213.44 143.26 1211.33 Q145.598 1209.23 145.598 1205.61 Q145.598 1202 143.26 1199.9 Q140.922 1197.79 136.918 1197.79 Q135.043 1197.79 133.168 1198.21 Q131.316 1198.62 129.371 1199.5 L129.371 1182.14 Z" fill="#000000" fill-rule="nonzero" fill-opacity="1"></path><path clip-path="url(#clip820)" d="M62.9365 898.195 Q59.3254 898.195 57.4967 901.76 Q55.6912 905.302 55.6912 912.431 Q55.6912 919.538 57.4967 923.103 Q59.3254 926.644 62.9365 926.644 Q66.5707 926.644 68.3763 923.103 Q70.205 919.538 70.205 912.431 Q70.205 905.302 68.3763 901.76 Q66.5707 898.195 62.9365 898.195 M62.9365 894.492 Q68.7467 894.492 71.8022 899.098 Q74.8809 903.681 74.8809 912.431 Q74.8809 921.158 71.8022 925.765 Q68.7467 930.348 62.9365 930.348 Q57.1264 930.348 54.0477 925.765 Q50.9921 921.158 50.9921 912.431 Q50.9921 903.681 54.0477 899.098 Q57.1264 894.492 62.9365 894.492 Z" fill="#000000" fill-rule="nonzero" fill-opacity="1"></path><path clip-path="url(#clip820)" d="M83.0984 923.797 L87.9827 923.797 L87.9827 929.677 L83.0984 929.677 L83.0984 923.797 Z" fill="#000000" fill-rule="nonzero" fill-opacity="1"></path><path clip-path="url(#clip820)" d="M98.978 925.742 L106.617 925.742 L106.617 899.376 L98.3067 901.043 L98.3067 896.783 L106.571 895.117 L111.246 895.117 L111.246 925.742 L118.885 925.742 L118.885 929.677 L98.978 929.677 L98.978 925.742 Z" fill="#000000" fill-rule="nonzero" fill-opacity="1"></path><path clip-path="url(#clip820)" d="M138.33 898.195 Q134.719 898.195 132.89 901.76 Q131.084 905.302 131.084 912.431 Q131.084 919.538 132.89 923.103 Q134.719 926.644 138.33 926.644 Q141.964 926.644 143.769 923.103 Q145.598 919.538 145.598 912.431 Q145.598 905.302 143.769 901.76 Q141.964 898.195 138.33 898.195 M138.33 894.492 Q144.14 894.492 147.195 899.098 Q150.274 903.681 150.274 912.431 Q150.274 921.158 147.195 925.765 Q144.14 930.348 138.33 930.348 Q132.519 930.348 129.441 925.765 Q126.385 921.158 126.385 912.431 Q126.385 903.681 129.441 899.098 Q132.519 894.492 138.33 894.492 Z" fill="#000000" fill-rule="nonzero" fill-opacity="1"></path><path clip-path="url(#clip820)" d="M63.9319 611.17 Q60.3208 611.17 58.4921 614.735 Q56.6865 618.276 56.6865 625.406 Q56.6865 632.512 58.4921 636.077 Q60.3208 639.619 63.9319 639.619 Q67.5661 639.619 69.3717 636.077 Q71.2004 632.512 71.2004 625.406 Q71.2004 618.276 69.3717 614.735 Q67.5661 611.17 63.9319 611.17 M63.9319 607.466 Q69.742 607.466 72.7976 612.073 Q75.8763 616.656 75.8763 625.406 Q75.8763 634.133 72.7976 638.739 Q69.742 643.322 63.9319 643.322 Q58.1217 643.322 55.043 638.739 Q51.9875 634.133 51.9875 625.406 Q51.9875 616.656 55.043 612.073 Q58.1217 607.466 63.9319 607.466 Z" fill="#000000" fill-rule="nonzero" fill-opacity="1"></path><path clip-path="url(#clip820)" d="M84.0938 636.771 L88.978 636.771 L88.978 642.651 L84.0938 642.651 L84.0938 636.771 Z" fill="#000000" fill-rule="nonzero" fill-opacity="1"></path><path clip-path="url(#clip820)" d="M99.9733 638.716 L107.612 638.716 L107.612 612.35 L99.3021 614.017 L99.3021 609.758 L107.566 608.091 L112.242 608.091 L112.242 638.716 L119.881 638.716 L119.881 642.651 L99.9733 642.651 L99.9733 638.716 Z" fill="#000000" fill-rule="nonzero" fill-opacity="1"></path><path clip-path="url(#clip820)" d="M129.371 608.091 L147.728 608.091 L147.728 612.026 L133.654 612.026 L133.654 620.498 Q134.672 620.151 135.691 619.989 Q136.709 619.804 137.728 619.804 Q143.515 619.804 146.894 622.975 Q150.274 626.147 150.274 631.563 Q150.274 637.142 146.802 640.244 Q143.33 643.322 137.01 643.322 Q134.834 643.322 132.566 642.952 Q130.32 642.582 127.913 641.841 L127.913 637.142 Q129.996 638.276 132.219 638.832 Q134.441 639.387 136.918 639.387 Q140.922 639.387 143.26 637.281 Q145.598 635.174 145.598 631.563 Q145.598 627.952 143.26 625.846 Q140.922 623.739 136.918 623.739 Q135.043 623.739 133.168 624.156 Q131.316 624.572 129.371 625.452 L129.371 608.091 Z" fill="#000000" fill-rule="nonzero" fill-opacity="1"></path><path clip-path="url(#clip820)" d="M62.9365 324.144 Q59.3254 324.144 57.4967 327.709 Q55.6912 331.251 55.6912 338.38 Q55.6912 345.487 57.4967 349.051 Q59.3254 352.593 62.9365 352.593 Q66.5707 352.593 68.3763 349.051 Q70.205 345.487 70.205 338.38 Q70.205 331.251 68.3763 327.709 Q66.5707 324.144 62.9365 324.144 M62.9365 320.44 Q68.7467 320.44 71.8022 325.047 Q74.8809 329.63 74.8809 338.38 Q74.8809 347.107 71.8022 351.713 Q68.7467 356.297 62.9365 356.297 Q57.1264 356.297 54.0477 351.713 Q50.9921 347.107 50.9921 338.38 Q50.9921 329.63 54.0477 325.047 Q57.1264 320.44 62.9365 320.44 Z" fill="#000000" fill-rule="nonzero" fill-opacity="1"></path><path clip-path="url(#clip820)" d="M83.0984 349.746 L87.9827 349.746 L87.9827 355.625 L83.0984 355.625 L83.0984 349.746 Z" fill="#000000" fill-rule="nonzero" fill-opacity="1"></path><path clip-path="url(#clip820)" d="M102.196 351.69 L118.515 351.69 L118.515 355.625 L96.5706 355.625 L96.5706 351.69 Q99.2326 348.936 103.816 344.306 Q108.422 339.653 109.603 338.311 Q111.848 335.788 112.728 334.052 Q113.631 332.292 113.631 330.602 Q113.631 327.848 111.686 326.112 Q109.765 324.376 106.663 324.376 Q104.464 324.376 102.01 325.14 Q99.5798 325.903 96.8021 327.454 L96.8021 322.732 Q99.6261 321.598 102.08 321.019 Q104.534 320.44 106.571 320.44 Q111.941 320.44 115.135 323.126 Q118.33 325.811 118.33 330.302 Q118.33 332.431 117.52 334.352 Q116.733 336.251 114.626 338.843 Q114.047 339.514 110.946 342.732 Q107.844 345.926 102.196 351.69 Z" fill="#000000" fill-rule="nonzero" fill-opacity="1"></path><path clip-path="url(#clip820)" d="M138.33 324.144 Q134.719 324.144 132.89 327.709 Q131.084 331.251 131.084 338.38 Q131.084 345.487 132.89 349.051 Q134.719 352.593 138.33 352.593 Q141.964 352.593 143.769 349.051 Q145.598 345.487 145.598 338.38 Q145.598 331.251 143.769 327.709 Q141.964 324.144 138.33 324.144 M138.33 320.44 Q144.14 320.44 147.195 325.047 Q150.274 329.63 150.274 338.38 Q150.274 347.107 147.195 351.713 Q144.14 356.297 138.33 356.297 Q132.519 356.297 129.441 351.713 Q126.385 347.107 126.385 338.38 Q126.385 329.63 129.441 325.047 Q132.519 320.44 138.33 320.44 Z" fill="#000000" fill-rule="nonzero" fill-opacity="1"></path><path clip-path="url(#clip820)" d="M63.9319 37.1185 Q60.3208 37.1185 58.4921 40.6833 Q56.6865 44.225 56.6865 51.3546 Q56.6865 58.461 58.4921 62.0258 Q60.3208 65.5675 63.9319 65.5675 Q67.5661 65.5675 69.3717 62.0258 Q71.2004 58.461 71.2004 51.3546 Q71.2004 44.225 69.3717 40.6833 Q67.5661 37.1185 63.9319 37.1185 M63.9319 33.4149 Q69.742 33.4149 72.7976 38.0213 Q75.8763 42.6046 75.8763 51.3546 Q75.8763 60.0814 72.7976 64.6878 Q69.742 69.2712 63.9319 69.2712 Q58.1217 69.2712 55.043 64.6878 Q51.9875 60.0814 51.9875 51.3546 Q51.9875 42.6046 55.043 38.0213 Q58.1217 33.4149 63.9319 33.4149 Z" fill="#000000" fill-rule="nonzero" fill-opacity="1"></path><path clip-path="url(#clip820)" d="M84.0938 62.7203 L88.978 62.7203 L88.978 68.5999 L84.0938 68.5999 L84.0938 62.7203 Z" fill="#000000" fill-rule="nonzero" fill-opacity="1"></path><path clip-path="url(#clip820)" d="M103.191 64.6647 L119.51 64.6647 L119.51 68.5999 L97.566 68.5999 L97.566 64.6647 Q100.228 61.9101 104.811 57.2805 Q109.418 52.6277 110.598 51.2851 Q112.844 48.762 113.723 47.0259 Q114.626 45.2666 114.626 43.5768 Q114.626 40.8222 112.682 39.0861 Q110.76 37.35 107.658 37.35 Q105.459 37.35 103.006 38.1139 Q100.575 38.8778 97.7974 40.4287 L97.7974 35.7065 Q100.621 34.5723 103.075 33.9936 Q105.529 33.4149 107.566 33.4149 Q112.936 33.4149 116.131 36.1 Q119.325 38.7852 119.325 43.2759 Q119.325 45.4055 118.515 47.3268 Q117.728 49.225 115.621 51.8175 Q115.043 52.4888 111.941 55.7064 Q108.839 58.9008 103.191 64.6647 Z" fill="#000000" fill-rule="nonzero" fill-opacity="1"></path><path clip-path="url(#clip820)" d="M129.371 34.0399 L147.728 34.0399 L147.728 37.975 L133.654 37.975 L133.654 46.4472 Q134.672 46.1 135.691 45.9379 Q136.709 45.7528 137.728 45.7528 Q143.515 45.7528 146.894 48.924 Q150.274 52.0953 150.274 57.512 Q150.274 63.0906 146.802 66.1925 Q143.33 69.2712 137.01 69.2712 Q134.834 69.2712 132.566 68.9008 Q130.32 68.5304 127.913 67.7897 L127.913 63.0906 Q129.996 64.2249 132.219 64.7804 Q134.441 65.336 136.918 65.336 Q140.922 65.336 143.26 63.2295 Q145.598 61.123 145.598 57.512 Q145.598 53.9009 143.26 51.7944 Q140.922 49.6879 136.918 49.6879 Q135.043 49.6879 133.168 50.1046 Q131.316 50.5213 129.371 51.4009 L129.371 34.0399 Z" fill="#000000" fill-rule="nonzero" fill-opacity="1"></path><path clip-path="url(#clip822)" d="M305.434 889.205 L305.434 1486.45 L335.562 1486.45 L335.562 889.205 L305.434 889.205 L305.434 889.205  Z" fill="#009af9" fill-rule="evenodd" fill-opacity="1"></path>
<polyline clip-path="url(#clip822)" style="stroke:#000000; stroke-linecap:round; stroke-linejoin:round; stroke-width:4; stroke-opacity:1; fill:none" points="305.434,889.205 305.434,1486.45 335.562,1486.45 335.562,889.205 305.434,889.205 "></polyline>
<path clip-path="url(#clip822)" d="M335.562 60.7917 L335.562 1486.45 L365.689 1486.45 L365.689 60.7917 L335.562 60.7917 L335.562 60.7917  Z" fill="#009af9" fill-rule="evenodd" fill-opacity="1"></path>
<polyline clip-path="url(#clip822)" style="stroke:#000000; stroke-linecap:round; stroke-linejoin:round; stroke-width:4; stroke-opacity:1; fill:none" points="335.562,60.7917 335.562,1486.45 365.689,1486.45 365.689,60.7917 335.562,60.7917 "></polyline>
<path clip-path="url(#clip822)" d="M365.689 81.5724 L365.689 1486.45 L395.817 1486.45 L395.817 81.5724 L365.689 81.5724 L365.689 81.5724  Z" fill="#009af9" fill-rule="evenodd" fill-opacity="1"></path>
<polyline clip-path="url(#clip822)" style="stroke:#000000; stroke-linecap:round; stroke-linejoin:round; stroke-width:4; stroke-opacity:1; fill:none" points="365.689,81.5724 365.689,1486.45 395.817,1486.45 395.817,81.5724 365.689,81.5724 "></polyline>
<path clip-path="url(#clip822)" d="M395.817 94.8903 L395.817 1486.45 L425.944 1486.45 L425.944 94.8903 L395.817 94.8903 L395.817 94.8903  Z" fill="#009af9" fill-rule="evenodd" fill-opacity="1"></path>
<polyline clip-path="url(#clip822)" style="stroke:#000000; stroke-linecap:round; stroke-linejoin:round; stroke-width:4; stroke-opacity:1; fill:none" points="395.817,94.8903 395.817,1486.45 425.944,1486.45 425.944,94.8903 395.817,94.8903 "></polyline>
<path clip-path="url(#clip822)" d="M425.944 165.154 L425.944 1486.45 L456.072 1486.45 L456.072 165.154 L425.944 165.154 L425.944 165.154  Z" fill="#009af9" fill-rule="evenodd" fill-opacity="1"></path>
<polyline clip-path="url(#clip822)" style="stroke:#000000; stroke-linecap:round; stroke-linejoin:round; stroke-width:4; stroke-opacity:1; fill:none" points="425.944,165.154 425.944,1486.45 456.072,1486.45 456.072,165.154 425.944,165.154 "></polyline>
<path clip-path="url(#clip822)" d="M456.072 226.176 L456.072 1486.45 L486.199 1486.45 L486.199 226.176 L456.072 226.176 L456.072 226.176  Z" fill="#009af9" fill-rule="evenodd" fill-opacity="1"></path>
<polyline clip-path="url(#clip822)" style="stroke:#000000; stroke-linecap:round; stroke-linejoin:round; stroke-width:4; stroke-opacity:1; fill:none" points="456.072,226.176 456.072,1486.45 486.199,1486.45 486.199,226.176 456.072,226.176 "></polyline>
<path clip-path="url(#clip822)" d="M486.199 294.258 L486.199 1486.45 L516.327 1486.45 L516.327 294.258 L486.199 294.258 L486.199 294.258  Z" fill="#009af9" fill-rule="evenodd" fill-opacity="1"></path>
<polyline clip-path="url(#clip822)" style="stroke:#000000; stroke-linecap:round; stroke-linejoin:round; stroke-width:4; stroke-opacity:1; fill:none" points="486.199,294.258 486.199,1486.45 516.327,1486.45 516.327,294.258 486.199,294.258 "></polyline>
<path clip-path="url(#clip822)" d="M516.327 384.327 L516.327 1486.45 L546.455 1486.45 L546.455 384.327 L516.327 384.327 L516.327 384.327  Z" fill="#009af9" fill-rule="evenodd" fill-opacity="1"></path>
<polyline clip-path="url(#clip822)" style="stroke:#000000; stroke-linecap:round; stroke-linejoin:round; stroke-width:4; stroke-opacity:1; fill:none" points="516.327,384.327 516.327,1486.45 546.455,1486.45 546.455,384.327 516.327,384.327 "></polyline>
<path clip-path="url(#clip822)" d="M546.455 489.608 L546.455 1486.45 L576.582 1486.45 L576.582 489.608 L546.455 489.608 L546.455 489.608  Z" fill="#009af9" fill-rule="evenodd" fill-opacity="1"></path>
<polyline clip-path="url(#clip822)" style="stroke:#000000; stroke-linecap:round; stroke-linejoin:round; stroke-width:4; stroke-opacity:1; fill:none" points="546.455,489.608 546.455,1486.45 576.582,1486.45 576.582,489.608 546.455,489.608 "></polyline>
<path clip-path="url(#clip822)" d="M576.582 580.595 L576.582 1486.45 L606.71 1486.45 L606.71 580.595 L576.582 580.595 L576.582 580.595  Z" fill="#009af9" fill-rule="evenodd" fill-opacity="1"></path>
<polyline clip-path="url(#clip822)" style="stroke:#000000; stroke-linecap:round; stroke-linejoin:round; stroke-width:4; stroke-opacity:1; fill:none" points="576.582,580.595 576.582,1486.45 606.71,1486.45 606.71,580.595 576.582,580.595 "></polyline>
<path clip-path="url(#clip822)" d="M606.71 694.544 L606.71 1486.45 L636.837 1486.45 L636.837 694.544 L606.71 694.544 L606.71 694.544  Z" fill="#009af9" fill-rule="evenodd" fill-opacity="1"></path>
<polyline clip-path="url(#clip822)" style="stroke:#000000; stroke-linecap:round; stroke-linejoin:round; stroke-width:4; stroke-opacity:1; fill:none" points="606.71,694.544 606.71,1486.45 636.837,1486.45 636.837,694.544 606.71,694.544 "></polyline>
<path clip-path="url(#clip822)" d="M636.837 826.289 L636.837 1486.45 L666.965 1486.45 L666.965 826.289 L636.837 826.289 L636.837 826.289  Z" fill="#009af9" fill-rule="evenodd" fill-opacity="1"></path>
<polyline clip-path="url(#clip822)" style="stroke:#000000; stroke-linecap:round; stroke-linejoin:round; stroke-width:4; stroke-opacity:1; fill:none" points="636.837,826.289 636.837,1486.45 666.965,1486.45 666.965,826.289 636.837,826.289 "></polyline>
<path clip-path="url(#clip822)" d="M666.965 960.674 L666.965 1486.45 L697.092 1486.45 L697.092 960.674 L666.965 960.674 L666.965 960.674  Z" fill="#009af9" fill-rule="evenodd" fill-opacity="1"></path>
<polyline clip-path="url(#clip822)" style="stroke:#000000; stroke-linecap:round; stroke-linejoin:round; stroke-width:4; stroke-opacity:1; fill:none" points="666.965,960.674 666.965,1486.45 697.092,1486.45 697.092,960.674 666.965,960.674 "></polyline>
<path clip-path="url(#clip822)" d="M697.092 1092.07 L697.092 1486.45 L727.22 1486.45 L727.22 1092.07 L697.092 1092.07 L697.092 1092.07  Z" fill="#009af9" fill-rule="evenodd" fill-opacity="1"></path>
<polyline clip-path="url(#clip822)" style="stroke:#000000; stroke-linecap:round; stroke-linejoin:round; stroke-width:4; stroke-opacity:1; fill:none" points="697.092,1092.07 697.092,1486.45 727.22,1486.45 727.22,1092.07 697.092,1092.07 "></polyline>
<path clip-path="url(#clip822)" d="M727.22 1233.81 L727.22 1486.45 L757.347 1486.45 L757.347 1233.81 L727.22 1233.81 L727.22 1233.81  Z" fill="#009af9" fill-rule="evenodd" fill-opacity="1"></path>
<polyline clip-path="url(#clip822)" style="stroke:#000000; stroke-linecap:round; stroke-linejoin:round; stroke-width:4; stroke-opacity:1; fill:none" points="727.22,1233.81 727.22,1486.45 757.347,1486.45 757.347,1233.81 727.22,1233.81 "></polyline>
<path clip-path="url(#clip822)" d="M757.347 1372.67 L757.347 1486.45 L787.475 1486.45 L787.475 1372.67 L757.347 1372.67 L757.347 1372.67  Z" fill="#009af9" fill-rule="evenodd" fill-opacity="1"></path>
<polyline clip-path="url(#clip822)" style="stroke:#000000; stroke-linecap:round; stroke-linejoin:round; stroke-width:4; stroke-opacity:1; fill:none" points="757.347,1372.67 757.347,1486.45 787.475,1486.45 787.475,1372.67 757.347,1372.67 "></polyline>
<path clip-path="url(#clip822)" d="M787.475 1447.64 L787.475 1486.45 L817.602 1486.45 L817.602 1447.64 L787.475 1447.64 L787.475 1447.64  Z" fill="#009af9" fill-rule="evenodd" fill-opacity="1"></path>
<polyline clip-path="url(#clip822)" style="stroke:#000000; stroke-linecap:round; stroke-linejoin:round; stroke-width:4; stroke-opacity:1; fill:none" points="787.475,1447.64 787.475,1486.45 817.602,1486.45 817.602,1447.64 787.475,1447.64 "></polyline>
<path clip-path="url(#clip822)" d="M817.602 1316.76 L817.602 1486.45 L847.73 1486.45 L847.73 1316.76 L817.602 1316.76 L817.602 1316.76  Z" fill="#009af9" fill-rule="evenodd" fill-opacity="1"></path>
<polyline clip-path="url(#clip822)" style="stroke:#000000; stroke-linecap:round; stroke-linejoin:round; stroke-width:4; stroke-opacity:1; fill:none" points="817.602,1316.76 817.602,1486.45 847.73,1486.45 847.73,1316.76 817.602,1316.76 "></polyline>
<path clip-path="url(#clip822)" d="M847.73 1168.37 L847.73 1486.45 L877.857 1486.45 L877.857 1168.37 L847.73 1168.37 L847.73 1168.37  Z" fill="#009af9" fill-rule="evenodd" fill-opacity="1"></path>
<polyline clip-path="url(#clip822)" style="stroke:#000000; stroke-linecap:round; stroke-linejoin:round; stroke-width:4; stroke-opacity:1; fill:none" points="847.73,1168.37 847.73,1486.45 877.857,1486.45 877.857,1168.37 847.73,1168.37 "></polyline>
<path clip-path="url(#clip822)" d="M877.857 1023.93 L877.857 1486.45 L907.985 1486.45 L907.985 1023.93 L877.857 1023.93 L877.857 1023.93  Z" fill="#009af9" fill-rule="evenodd" fill-opacity="1"></path>
<polyline clip-path="url(#clip822)" style="stroke:#000000; stroke-linecap:round; stroke-linejoin:round; stroke-width:4; stroke-opacity:1; fill:none" points="877.857,1023.93 877.857,1486.45 907.985,1486.45 907.985,1023.93 877.857,1023.93 "></polyline>
<path clip-path="url(#clip822)" d="M907.985 896.955 L907.985 1486.45 L938.112 1486.45 L938.112 896.955 L907.985 896.955 L907.985 896.955  Z" fill="#009af9" fill-rule="evenodd" fill-opacity="1"></path>
<polyline clip-path="url(#clip822)" style="stroke:#000000; stroke-linecap:round; stroke-linejoin:round; stroke-width:4; stroke-opacity:1; fill:none" points="907.985,896.955 907.985,1486.45 938.112,1486.45 938.112,896.955 907.985,896.955 "></polyline>
<path clip-path="url(#clip822)" d="M938.112 772.615 L938.112 1486.45 L968.24 1486.45 L968.24 772.615 L938.112 772.615 L938.112 772.615  Z" fill="#009af9" fill-rule="evenodd" fill-opacity="1"></path>
<polyline clip-path="url(#clip822)" style="stroke:#000000; stroke-linecap:round; stroke-linejoin:round; stroke-width:4; stroke-opacity:1; fill:none" points="938.112,772.615 938.112,1486.45 968.24,1486.45 968.24,772.615 938.112,772.615 "></polyline>
<path clip-path="url(#clip822)" d="M968.24 645.061 L968.24 1486.45 L998.367 1486.45 L998.367 645.061 L968.24 645.061 L968.24 645.061  Z" fill="#009af9" fill-rule="evenodd" fill-opacity="1"></path>
<polyline clip-path="url(#clip822)" style="stroke:#000000; stroke-linecap:round; stroke-linejoin:round; stroke-width:4; stroke-opacity:1; fill:none" points="968.24,645.061 968.24,1486.45 998.367,1486.45 998.367,645.061 968.24,645.061 "></polyline>
<path clip-path="url(#clip822)" d="M998.367 545.693 L998.367 1486.45 L1028.49 1486.45 L1028.49 545.693 L998.367 545.693 L998.367 545.693  Z" fill="#009af9" fill-rule="evenodd" fill-opacity="1"></path>
<polyline clip-path="url(#clip822)" style="stroke:#000000; stroke-linecap:round; stroke-linejoin:round; stroke-width:4; stroke-opacity:1; fill:none" points="998.367,545.693 998.367,1486.45 1028.49,1486.45 1028.49,545.693 998.367,545.693 "></polyline>
<path clip-path="url(#clip822)" d="M1028.49 433.351 L1028.49 1486.45 L1058.62 1486.45 L1058.62 433.351 L1028.49 433.351 L1028.49 433.351  Z" fill="#009af9" fill-rule="evenodd" fill-opacity="1"></path>
<polyline clip-path="url(#clip822)" style="stroke:#000000; stroke-linecap:round; stroke-linejoin:round; stroke-width:4; stroke-opacity:1; fill:none" points="1028.49,433.351 1028.49,1486.45 1058.62,1486.45 1058.62,433.351 1028.49,433.351 "></polyline>
<path clip-path="url(#clip822)" d="M1058.62 340.871 L1058.62 1486.45 L1088.75 1486.45 L1088.75 340.871 L1058.62 340.871 L1058.62 340.871  Z" fill="#009af9" fill-rule="evenodd" fill-opacity="1"></path>
<polyline clip-path="url(#clip822)" style="stroke:#000000; stroke-linecap:round; stroke-linejoin:round; stroke-width:4; stroke-opacity:1; fill:none" points="1058.62,340.871 1058.62,1486.45 1088.75,1486.45 1088.75,340.871 1058.62,340.871 "></polyline>
<path clip-path="url(#clip822)" d="M1088.75 248.334 L1088.75 1486.45 L1118.88 1486.45 L1118.88 248.334 L1088.75 248.334 L1088.75 248.334  Z" fill="#009af9" fill-rule="evenodd" fill-opacity="1"></path>
<polyline clip-path="url(#clip822)" style="stroke:#000000; stroke-linecap:round; stroke-linejoin:round; stroke-width:4; stroke-opacity:1; fill:none" points="1088.75,248.334 1088.75,1486.45 1118.88,1486.45 1118.88,248.334 1088.75,248.334 "></polyline>
<path clip-path="url(#clip822)" d="M1118.88 185.648 L1118.88 1486.45 L1149 1486.45 L1149 185.648 L1118.88 185.648 L1118.88 185.648  Z" fill="#009af9" fill-rule="evenodd" fill-opacity="1"></path>
<polyline clip-path="url(#clip822)" style="stroke:#000000; stroke-linecap:round; stroke-linejoin:round; stroke-width:4; stroke-opacity:1; fill:none" points="1118.88,185.648 1118.88,1486.45 1149,1486.45 1149,185.648 1118.88,185.648 "></polyline>
<path clip-path="url(#clip822)" d="M1149 139.437 L1149 1486.45 L1179.13 1486.45 L1179.13 139.437 L1149 139.437 L1149 139.437  Z" fill="#009af9" fill-rule="evenodd" fill-opacity="1"></path>
<polyline clip-path="url(#clip822)" style="stroke:#000000; stroke-linecap:round; stroke-linejoin:round; stroke-width:4; stroke-opacity:1; fill:none" points="1149,139.437 1149,1486.45 1179.13,1486.45 1179.13,139.437 1149,139.437 "></polyline>
<path clip-path="url(#clip822)" d="M1179.13 99.2531 L1179.13 1486.45 L1209.26 1486.45 L1209.26 99.2531 L1179.13 99.2531 L1179.13 99.2531  Z" fill="#009af9" fill-rule="evenodd" fill-opacity="1"></path>
<polyline clip-path="url(#clip822)" style="stroke:#000000; stroke-linecap:round; stroke-linejoin:round; stroke-width:4; stroke-opacity:1; fill:none" points="1179.13,99.2531 1179.13,1486.45 1209.26,1486.45 1209.26,99.2531 1179.13,99.2531 "></polyline>
<path clip-path="url(#clip822)" d="M1209.26 72.9616 L1209.26 1486.45 L1239.39 1486.45 L1239.39 72.9616 L1209.26 72.9616 L1209.26 72.9616  Z" fill="#009af9" fill-rule="evenodd" fill-opacity="1"></path>
<polyline clip-path="url(#clip822)" style="stroke:#000000; stroke-linecap:round; stroke-linejoin:round; stroke-width:4; stroke-opacity:1; fill:none" points="1209.26,72.9616 1209.26,1486.45 1239.39,1486.45 1239.39,72.9616 1209.26,72.9616 "></polyline>
<path clip-path="url(#clip822)" d="M1239.39 56.3715 L1239.39 1486.45 L1269.51 1486.45 L1269.51 56.3715 L1239.39 56.3715 L1239.39 56.3715  Z" fill="#009af9" fill-rule="evenodd" fill-opacity="1"></path>
<polyline clip-path="url(#clip822)" style="stroke:#000000; stroke-linecap:round; stroke-linejoin:round; stroke-width:4; stroke-opacity:1; fill:none" points="1239.39,56.3715 1239.39,1486.45 1269.51,1486.45 1269.51,56.3715 1239.39,56.3715 "></polyline>
<path clip-path="url(#clip822)" d="M1269.51 62.399 L1269.51 1486.45 L1299.64 1486.45 L1299.64 62.399 L1269.51 62.399 L1269.51 62.399  Z" fill="#009af9" fill-rule="evenodd" fill-opacity="1"></path>
<polyline clip-path="url(#clip822)" style="stroke:#000000; stroke-linecap:round; stroke-linejoin:round; stroke-width:4; stroke-opacity:1; fill:none" points="1269.51,62.399 1269.51,1486.45 1299.64,1486.45 1299.64,62.399 1269.51,62.399 "></polyline>
<path clip-path="url(#clip822)" d="M1299.64 65.3841 L1299.64 1486.45 L1329.77 1486.45 L1329.77 65.3841 L1299.64 65.3841 L1299.64 65.3841  Z" fill="#009af9" fill-rule="evenodd" fill-opacity="1"></path>
<polyline clip-path="url(#clip822)" style="stroke:#000000; stroke-linecap:round; stroke-linejoin:round; stroke-width:4; stroke-opacity:1; fill:none" points="1299.64,65.3841 1299.64,1486.45 1329.77,1486.45 1329.77,65.3841 1299.64,65.3841 "></polyline>
<path clip-path="url(#clip822)" d="M1329.77 91.9053 L1329.77 1486.45 L1359.9 1486.45 L1359.9 91.9053 L1329.77 91.9053 L1329.77 91.9053  Z" fill="#009af9" fill-rule="evenodd" fill-opacity="1"></path>
<polyline clip-path="url(#clip822)" style="stroke:#000000; stroke-linecap:round; stroke-linejoin:round; stroke-width:4; stroke-opacity:1; fill:none" points="1329.77,91.9053 1329.77,1486.45 1359.9,1486.45 1359.9,91.9053 1329.77,91.9053 "></polyline>
<path clip-path="url(#clip822)" d="M1359.9 131.63 L1359.9 1486.45 L1390.03 1486.45 L1390.03 131.63 L1359.9 131.63 L1359.9 131.63  Z" fill="#009af9" fill-rule="evenodd" fill-opacity="1"></path>
<polyline clip-path="url(#clip822)" style="stroke:#000000; stroke-linecap:round; stroke-linejoin:round; stroke-width:4; stroke-opacity:1; fill:none" points="1359.9,131.63 1359.9,1486.45 1390.03,1486.45 1390.03,131.63 1359.9,131.63 "></polyline>
<path clip-path="url(#clip822)" d="M1390.03 209.012 L1390.03 1486.45 L1420.15 1486.45 L1420.15 209.012 L1390.03 209.012 L1390.03 209.012  Z" fill="#009af9" fill-rule="evenodd" fill-opacity="1"></path>
<polyline clip-path="url(#clip822)" style="stroke:#000000; stroke-linecap:round; stroke-linejoin:round; stroke-width:4; stroke-opacity:1; fill:none" points="1390.03,209.012 1390.03,1486.45 1420.15,1486.45 1420.15,209.012 1390.03,209.012 "></polyline>
<path clip-path="url(#clip822)" d="M1420.15 274.109 L1420.15 1486.45 L1450.28 1486.45 L1450.28 274.109 L1420.15 274.109 L1420.15 274.109  Z" fill="#009af9" fill-rule="evenodd" fill-opacity="1"></path>
<polyline clip-path="url(#clip822)" style="stroke:#000000; stroke-linecap:round; stroke-linejoin:round; stroke-width:4; stroke-opacity:1; fill:none" points="1420.15,274.109 1420.15,1486.45 1450.28,1486.45 1450.28,274.109 1420.15,274.109 "></polyline>
<path clip-path="url(#clip822)" d="M1450.28 335.303 L1450.28 1486.45 L1480.41 1486.45 L1480.41 335.303 L1450.28 335.303 L1450.28 335.303  Z" fill="#009af9" fill-rule="evenodd" fill-opacity="1"></path>
<polyline clip-path="url(#clip822)" style="stroke:#000000; stroke-linecap:round; stroke-linejoin:round; stroke-width:4; stroke-opacity:1; fill:none" points="1450.28,335.303 1450.28,1486.45 1480.41,1486.45 1480.41,335.303 1450.28,335.303 "></polyline>
<path clip-path="url(#clip822)" d="M1480.41 436.508 L1480.41 1486.45 L1510.54 1486.45 L1510.54 436.508 L1480.41 436.508 L1480.41 436.508  Z" fill="#009af9" fill-rule="evenodd" fill-opacity="1"></path>
<polyline clip-path="url(#clip822)" style="stroke:#000000; stroke-linecap:round; stroke-linejoin:round; stroke-width:4; stroke-opacity:1; fill:none" points="1480.41,436.508 1480.41,1486.45 1510.54,1486.45 1510.54,436.508 1480.41,436.508 "></polyline>
<path clip-path="url(#clip822)" d="M1510.54 539.895 L1510.54 1486.45 L1540.66 1486.45 L1540.66 539.895 L1510.54 539.895 L1510.54 539.895  Z" fill="#009af9" fill-rule="evenodd" fill-opacity="1"></path>
<polyline clip-path="url(#clip822)" style="stroke:#000000; stroke-linecap:round; stroke-linejoin:round; stroke-width:4; stroke-opacity:1; fill:none" points="1510.54,539.895 1510.54,1486.45 1540.66,1486.45 1540.66,539.895 1510.54,539.895 "></polyline>
<path clip-path="url(#clip822)" d="M1540.66 653.155 L1540.66 1486.45 L1570.79 1486.45 L1570.79 653.155 L1540.66 653.155 L1540.66 653.155  Z" fill="#009af9" fill-rule="evenodd" fill-opacity="1"></path>
<polyline clip-path="url(#clip822)" style="stroke:#000000; stroke-linecap:round; stroke-linejoin:round; stroke-width:4; stroke-opacity:1; fill:none" points="1540.66,653.155 1540.66,1486.45 1570.79,1486.45 1570.79,653.155 1540.66,653.155 "></polyline>
<path clip-path="url(#clip822)" d="M1570.79 772.443 L1570.79 1486.45 L1600.92 1486.45 L1600.92 772.443 L1570.79 772.443 L1570.79 772.443  Z" fill="#009af9" fill-rule="evenodd" fill-opacity="1"></path>
<polyline clip-path="url(#clip822)" style="stroke:#000000; stroke-linecap:round; stroke-linejoin:round; stroke-width:4; stroke-opacity:1; fill:none" points="1570.79,772.443 1570.79,1486.45 1600.92,1486.45 1600.92,772.443 1570.79,772.443 "></polyline>
<path clip-path="url(#clip822)" d="M1600.92 908.665 L1600.92 1486.45 L1631.05 1486.45 L1631.05 908.665 L1600.92 908.665 L1600.92 908.665  Z" fill="#009af9" fill-rule="evenodd" fill-opacity="1"></path>
<polyline clip-path="url(#clip822)" style="stroke:#000000; stroke-linecap:round; stroke-linejoin:round; stroke-width:4; stroke-opacity:1; fill:none" points="1600.92,908.665 1600.92,1486.45 1631.05,1486.45 1631.05,908.665 1600.92,908.665 "></polyline>
<path clip-path="url(#clip822)" d="M1631.05 1029.68 L1631.05 1486.45 L1661.17 1486.45 L1661.17 1029.68 L1631.05 1029.68 L1631.05 1029.68  Z" fill="#009af9" fill-rule="evenodd" fill-opacity="1"></path>
<polyline clip-path="url(#clip822)" style="stroke:#000000; stroke-linecap:round; stroke-linejoin:round; stroke-width:4; stroke-opacity:1; fill:none" points="1631.05,1029.68 1631.05,1486.45 1661.17,1486.45 1661.17,1029.68 1631.05,1029.68 "></polyline>
<path clip-path="url(#clip822)" d="M1661.17 1168.94 L1661.17 1486.45 L1691.3 1486.45 L1691.3 1168.94 L1661.17 1168.94 L1661.17 1168.94  Z" fill="#009af9" fill-rule="evenodd" fill-opacity="1"></path>
<polyline clip-path="url(#clip822)" style="stroke:#000000; stroke-linecap:round; stroke-linejoin:round; stroke-width:4; stroke-opacity:1; fill:none" points="1661.17,1168.94 1661.17,1486.45 1691.3,1486.45 1691.3,1168.94 1661.17,1168.94 "></polyline>
<path clip-path="url(#clip822)" d="M1691.3 1309.24 L1691.3 1486.45 L1721.43 1486.45 L1721.43 1309.24 L1691.3 1309.24 L1691.3 1309.24  Z" fill="#009af9" fill-rule="evenodd" fill-opacity="1"></path>
<polyline clip-path="url(#clip822)" style="stroke:#000000; stroke-linecap:round; stroke-linejoin:round; stroke-width:4; stroke-opacity:1; fill:none" points="1691.3,1309.24 1691.3,1486.45 1721.43,1486.45 1721.43,1309.24 1691.3,1309.24 "></polyline>
<path clip-path="url(#clip822)" d="M1721.43 1444.37 L1721.43 1486.45 L1751.56 1486.45 L1751.56 1444.37 L1721.43 1444.37 L1721.43 1444.37  Z" fill="#009af9" fill-rule="evenodd" fill-opacity="1"></path>
<polyline clip-path="url(#clip822)" style="stroke:#000000; stroke-linecap:round; stroke-linejoin:round; stroke-width:4; stroke-opacity:1; fill:none" points="1721.43,1444.37 1721.43,1486.45 1751.56,1486.45 1751.56,1444.37 1721.43,1444.37 "></polyline>
<path clip-path="url(#clip822)" d="M1751.56 1374.62 L1751.56 1486.45 L1781.68 1486.45 L1781.68 1374.62 L1751.56 1374.62 L1751.56 1374.62  Z" fill="#009af9" fill-rule="evenodd" fill-opacity="1"></path>
<polyline clip-path="url(#clip822)" style="stroke:#000000; stroke-linecap:round; stroke-linejoin:round; stroke-width:4; stroke-opacity:1; fill:none" points="1751.56,1374.62 1751.56,1486.45 1781.68,1486.45 1781.68,1374.62 1751.56,1374.62 "></polyline>
<path clip-path="url(#clip822)" d="M1781.68 1234.15 L1781.68 1486.45 L1811.81 1486.45 L1811.81 1234.15 L1781.68 1234.15 L1781.68 1234.15  Z" fill="#009af9" fill-rule="evenodd" fill-opacity="1"></path>
<polyline clip-path="url(#clip822)" style="stroke:#000000; stroke-linecap:round; stroke-linejoin:round; stroke-width:4; stroke-opacity:1; fill:none" points="1781.68,1234.15 1781.68,1486.45 1811.81,1486.45 1811.81,1234.15 1781.68,1234.15 "></polyline>
<path clip-path="url(#clip822)" d="M1811.81 1085.59 L1811.81 1486.45 L1841.94 1486.45 L1841.94 1085.59 L1811.81 1085.59 L1811.81 1085.59  Z" fill="#009af9" fill-rule="evenodd" fill-opacity="1"></path>
<polyline clip-path="url(#clip822)" style="stroke:#000000; stroke-linecap:round; stroke-linejoin:round; stroke-width:4; stroke-opacity:1; fill:none" points="1811.81,1085.59 1811.81,1486.45 1841.94,1486.45 1841.94,1085.59 1811.81,1085.59 "></polyline>
<path clip-path="url(#clip822)" d="M1841.94 951.03 L1841.94 1486.45 L1872.07 1486.45 L1872.07 951.03 L1841.94 951.03 L1841.94 951.03  Z" fill="#009af9" fill-rule="evenodd" fill-opacity="1"></path>
<polyline clip-path="url(#clip822)" style="stroke:#000000; stroke-linecap:round; stroke-linejoin:round; stroke-width:4; stroke-opacity:1; fill:none" points="1841.94,951.03 1841.94,1486.45 1872.07,1486.45 1872.07,951.03 1841.94,951.03 "></polyline>
<path clip-path="url(#clip822)" d="M1872.07 827.265 L1872.07 1486.45 L1902.19 1486.45 L1902.19 827.265 L1872.07 827.265 L1872.07 827.265  Z" fill="#009af9" fill-rule="evenodd" fill-opacity="1"></path>
<polyline clip-path="url(#clip822)" style="stroke:#000000; stroke-linecap:round; stroke-linejoin:round; stroke-width:4; stroke-opacity:1; fill:none" points="1872.07,827.265 1872.07,1486.45 1902.19,1486.45 1902.19,827.265 1872.07,827.265 "></polyline>
<path clip-path="url(#clip822)" d="M1902.19 692.879 L1902.19 1486.45 L1932.32 1486.45 L1932.32 692.879 L1902.19 692.879 L1902.19 692.879  Z" fill="#009af9" fill-rule="evenodd" fill-opacity="1"></path>
<polyline clip-path="url(#clip822)" style="stroke:#000000; stroke-linecap:round; stroke-linejoin:round; stroke-width:4; stroke-opacity:1; fill:none" points="1902.19,692.879 1902.19,1486.45 1932.32,1486.45 1932.32,692.879 1902.19,692.879 "></polyline>
<path clip-path="url(#clip822)" d="M1932.32 593.454 L1932.32 1486.45 L1962.45 1486.45 L1962.45 593.454 L1932.32 593.454 L1932.32 593.454  Z" fill="#009af9" fill-rule="evenodd" fill-opacity="1"></path>
<polyline clip-path="url(#clip822)" style="stroke:#000000; stroke-linecap:round; stroke-linejoin:round; stroke-width:4; stroke-opacity:1; fill:none" points="1932.32,593.454 1932.32,1486.45 1962.45,1486.45 1962.45,593.454 1932.32,593.454 "></polyline>
<path clip-path="url(#clip822)" d="M1962.45 476.692 L1962.45 1486.45 L1992.58 1486.45 L1992.58 476.692 L1962.45 476.692 L1962.45 476.692  Z" fill="#009af9" fill-rule="evenodd" fill-opacity="1"></path>
<polyline clip-path="url(#clip822)" style="stroke:#000000; stroke-linecap:round; stroke-linejoin:round; stroke-width:4; stroke-opacity:1; fill:none" points="1962.45,476.692 1962.45,1486.45 1992.58,1486.45 1992.58,476.692 1962.45,476.692 "></polyline>
<path clip-path="url(#clip822)" d="M1992.58 373.65 L1992.58 1486.45 L2022.7 1486.45 L2022.7 373.65 L1992.58 373.65 L1992.58 373.65  Z" fill="#009af9" fill-rule="evenodd" fill-opacity="1"></path>
<polyline clip-path="url(#clip822)" style="stroke:#000000; stroke-linecap:round; stroke-linejoin:round; stroke-width:4; stroke-opacity:1; fill:none" points="1992.58,373.65 1992.58,1486.45 2022.7,1486.45 2022.7,373.65 1992.58,373.65 "></polyline>
<path clip-path="url(#clip822)" d="M2022.7 297.301 L2022.7 1486.45 L2052.83 1486.45 L2052.83 297.301 L2022.7 297.301 L2022.7 297.301  Z" fill="#009af9" fill-rule="evenodd" fill-opacity="1"></path>
<polyline clip-path="url(#clip822)" style="stroke:#000000; stroke-linecap:round; stroke-linejoin:round; stroke-width:4; stroke-opacity:1; fill:none" points="2022.7,297.301 2022.7,1486.45 2052.83,1486.45 2052.83,297.301 2022.7,297.301 "></polyline>
<path clip-path="url(#clip822)" d="M2052.83 225.602 L2052.83 1486.45 L2082.96 1486.45 L2082.96 225.602 L2052.83 225.602 L2052.83 225.602  Z" fill="#009af9" fill-rule="evenodd" fill-opacity="1"></path>
<polyline clip-path="url(#clip822)" style="stroke:#000000; stroke-linecap:round; stroke-linejoin:round; stroke-width:4; stroke-opacity:1; fill:none" points="2052.83,225.602 2052.83,1486.45 2082.96,1486.45 2082.96,225.602 2052.83,225.602 "></polyline>
<path clip-path="url(#clip822)" d="M2082.96 173.363 L2082.96 1486.45 L2113.09 1486.45 L2113.09 173.363 L2082.96 173.363 L2082.96 173.363  Z" fill="#009af9" fill-rule="evenodd" fill-opacity="1"></path>
<polyline clip-path="url(#clip822)" style="stroke:#000000; stroke-linecap:round; stroke-linejoin:round; stroke-width:4; stroke-opacity:1; fill:none" points="2082.96,173.363 2082.96,1486.45 2113.09,1486.45 2113.09,173.363 2082.96,173.363 "></polyline>
<path clip-path="url(#clip822)" d="M2113.09 114.293 L2113.09 1486.45 L2143.21 1486.45 L2143.21 114.293 L2113.09 114.293 L2113.09 114.293  Z" fill="#009af9" fill-rule="evenodd" fill-opacity="1"></path>
<polyline clip-path="url(#clip822)" style="stroke:#000000; stroke-linecap:round; stroke-linejoin:round; stroke-width:4; stroke-opacity:1; fill:none" points="2113.09,114.293 2113.09,1486.45 2143.21,1486.45 2143.21,114.293 2113.09,114.293 "></polyline>
<path clip-path="url(#clip822)" d="M2143.21 86.2222 L2143.21 1486.45 L2173.34 1486.45 L2173.34 86.2222 L2143.21 86.2222 L2143.21 86.2222  Z" fill="#009af9" fill-rule="evenodd" fill-opacity="1"></path>
<polyline clip-path="url(#clip822)" style="stroke:#000000; stroke-linecap:round; stroke-linejoin:round; stroke-width:4; stroke-opacity:1; fill:none" points="2143.21,86.2222 2143.21,1486.45 2173.34,1486.45 2173.34,86.2222 2143.21,86.2222 "></polyline>
<path clip-path="url(#clip822)" d="M2173.34 47.2441 L2173.34 1486.45 L2203.47 1486.45 L2203.47 47.2441 L2173.34 47.2441 L2173.34 47.2441  Z" fill="#009af9" fill-rule="evenodd" fill-opacity="1"></path>
<polyline clip-path="url(#clip822)" style="stroke:#000000; stroke-linecap:round; stroke-linejoin:round; stroke-width:4; stroke-opacity:1; fill:none" points="2173.34,47.2441 2173.34,1486.45 2203.47,1486.45 2203.47,47.2441 2173.34,47.2441 "></polyline>
<path clip-path="url(#clip822)" d="M2203.47 901.662 L2203.47 1486.45 L2233.6 1486.45 L2233.6 901.662 L2203.47 901.662 L2203.47 901.662  Z" fill="#009af9" fill-rule="evenodd" fill-opacity="1"></path>
<polyline clip-path="url(#clip822)" style="stroke:#000000; stroke-linecap:round; stroke-linejoin:round; stroke-width:4; stroke-opacity:1; fill:none" points="2203.47,901.662 2203.47,1486.45 2233.6,1486.45 2233.6,901.662 2203.47,901.662 "></polyline>
<circle clip-path="url(#clip822)" style="fill:#009af9; stroke:none; fill-opacity:0" cx="320.498" cy="889.205" r="2"></circle>
<circle clip-path="url(#clip822)" style="fill:#009af9; stroke:none; fill-opacity:0" cx="350.626" cy="60.7917" r="2"></circle>
<circle clip-path="url(#clip822)" style="fill:#009af9; stroke:none; fill-opacity:0" cx="380.753" cy="81.5724" r="2"></circle>
<circle clip-path="url(#clip822)" style="fill:#009af9; stroke:none; fill-opacity:0" cx="410.881" cy="94.8903" r="2"></circle>
<circle clip-path="url(#clip822)" style="fill:#009af9; stroke:none; fill-opacity:0" cx="441.008" cy="165.154" r="2"></circle>
<circle clip-path="url(#clip822)" style="fill:#009af9; stroke:none; fill-opacity:0" cx="471.136" cy="226.176" r="2"></circle>
<circle clip-path="url(#clip822)" style="fill:#009af9; stroke:none; fill-opacity:0" cx="501.263" cy="294.258" r="2"></circle>
<circle clip-path="url(#clip822)" style="fill:#009af9; stroke:none; fill-opacity:0" cx="531.391" cy="384.327" r="2"></circle>
<circle clip-path="url(#clip822)" style="fill:#009af9; stroke:none; fill-opacity:0" cx="561.518" cy="489.608" r="2"></circle>
<circle clip-path="url(#clip822)" style="fill:#009af9; stroke:none; fill-opacity:0" cx="591.646" cy="580.595" r="2"></circle>
<circle clip-path="url(#clip822)" style="fill:#009af9; stroke:none; fill-opacity:0" cx="621.773" cy="694.544" r="2"></circle>
<circle clip-path="url(#clip822)" style="fill:#009af9; stroke:none; fill-opacity:0" cx="651.901" cy="826.289" r="2"></circle>
<circle clip-path="url(#clip822)" style="fill:#009af9; stroke:none; fill-opacity:0" cx="682.028" cy="960.674" r="2"></circle>
<circle clip-path="url(#clip822)" style="fill:#009af9; stroke:none; fill-opacity:0" cx="712.156" cy="1092.07" r="2"></circle>
<circle clip-path="url(#clip822)" style="fill:#009af9; stroke:none; fill-opacity:0" cx="742.283" cy="1233.81" r="2"></circle>
<circle clip-path="url(#clip822)" style="fill:#009af9; stroke:none; fill-opacity:0" cx="772.411" cy="1372.67" r="2"></circle>
<circle clip-path="url(#clip822)" style="fill:#009af9; stroke:none; fill-opacity:0" cx="802.538" cy="1447.64" r="2"></circle>
<circle clip-path="url(#clip822)" style="fill:#009af9; stroke:none; fill-opacity:0" cx="832.666" cy="1316.76" r="2"></circle>
<circle clip-path="url(#clip822)" style="fill:#009af9; stroke:none; fill-opacity:0" cx="862.793" cy="1168.37" r="2"></circle>
<circle clip-path="url(#clip822)" style="fill:#009af9; stroke:none; fill-opacity:0" cx="892.921" cy="1023.93" r="2"></circle>
<circle clip-path="url(#clip822)" style="fill:#009af9; stroke:none; fill-opacity:0" cx="923.048" cy="896.955" r="2"></circle>
<circle clip-path="url(#clip822)" style="fill:#009af9; stroke:none; fill-opacity:0" cx="953.176" cy="772.615" r="2"></circle>
<circle clip-path="url(#clip822)" style="fill:#009af9; stroke:none; fill-opacity:0" cx="983.304" cy="645.061" r="2"></circle>
<circle clip-path="url(#clip822)" style="fill:#009af9; stroke:none; fill-opacity:0" cx="1013.43" cy="545.693" r="2"></circle>
<circle clip-path="url(#clip822)" style="fill:#009af9; stroke:none; fill-opacity:0" cx="1043.56" cy="433.351" r="2"></circle>
<circle clip-path="url(#clip822)" style="fill:#009af9; stroke:none; fill-opacity:0" cx="1073.69" cy="340.871" r="2"></circle>
<circle clip-path="url(#clip822)" style="fill:#009af9; stroke:none; fill-opacity:0" cx="1103.81" cy="248.334" r="2"></circle>
<circle clip-path="url(#clip822)" style="fill:#009af9; stroke:none; fill-opacity:0" cx="1133.94" cy="185.648" r="2"></circle>
<circle clip-path="url(#clip822)" style="fill:#009af9; stroke:none; fill-opacity:0" cx="1164.07" cy="139.437" r="2"></circle>
<circle clip-path="url(#clip822)" style="fill:#009af9; stroke:none; fill-opacity:0" cx="1194.2" cy="99.2531" r="2"></circle>
<circle clip-path="url(#clip822)" style="fill:#009af9; stroke:none; fill-opacity:0" cx="1224.32" cy="72.9616" r="2"></circle>
<circle clip-path="url(#clip822)" style="fill:#009af9; stroke:none; fill-opacity:0" cx="1254.45" cy="56.3715" r="2"></circle>
<circle clip-path="url(#clip822)" style="fill:#009af9; stroke:none; fill-opacity:0" cx="1284.58" cy="62.399" r="2"></circle>
<circle clip-path="url(#clip822)" style="fill:#009af9; stroke:none; fill-opacity:0" cx="1314.71" cy="65.3841" r="2"></circle>
<circle clip-path="url(#clip822)" style="fill:#009af9; stroke:none; fill-opacity:0" cx="1344.83" cy="91.9053" r="2"></circle>
<circle clip-path="url(#clip822)" style="fill:#009af9; stroke:none; fill-opacity:0" cx="1374.96" cy="131.63" r="2"></circle>
<circle clip-path="url(#clip822)" style="fill:#009af9; stroke:none; fill-opacity:0" cx="1405.09" cy="209.012" r="2"></circle>
<circle clip-path="url(#clip822)" style="fill:#009af9; stroke:none; fill-opacity:0" cx="1435.22" cy="274.109" r="2"></circle>
<circle clip-path="url(#clip822)" style="fill:#009af9; stroke:none; fill-opacity:0" cx="1465.34" cy="335.303" r="2"></circle>
<circle clip-path="url(#clip822)" style="fill:#009af9; stroke:none; fill-opacity:0" cx="1495.47" cy="436.508" r="2"></circle>
<circle clip-path="url(#clip822)" style="fill:#009af9; stroke:none; fill-opacity:0" cx="1525.6" cy="539.895" r="2"></circle>
<circle clip-path="url(#clip822)" style="fill:#009af9; stroke:none; fill-opacity:0" cx="1555.73" cy="653.155" r="2"></circle>
<circle clip-path="url(#clip822)" style="fill:#009af9; stroke:none; fill-opacity:0" cx="1585.85" cy="772.443" r="2"></circle>
<circle clip-path="url(#clip822)" style="fill:#009af9; stroke:none; fill-opacity:0" cx="1615.98" cy="908.665" r="2"></circle>
<circle clip-path="url(#clip822)" style="fill:#009af9; stroke:none; fill-opacity:0" cx="1646.11" cy="1029.68" r="2"></circle>
<circle clip-path="url(#clip822)" style="fill:#009af9; stroke:none; fill-opacity:0" cx="1676.24" cy="1168.94" r="2"></circle>
<circle clip-path="url(#clip822)" style="fill:#009af9; stroke:none; fill-opacity:0" cx="1706.36" cy="1309.24" r="2"></circle>
<circle clip-path="url(#clip822)" style="fill:#009af9; stroke:none; fill-opacity:0" cx="1736.49" cy="1444.37" r="2"></circle>
<circle clip-path="url(#clip822)" style="fill:#009af9; stroke:none; fill-opacity:0" cx="1766.62" cy="1374.62" r="2"></circle>
<circle clip-path="url(#clip822)" style="fill:#009af9; stroke:none; fill-opacity:0" cx="1796.75" cy="1234.15" r="2"></circle>
<circle clip-path="url(#clip822)" style="fill:#009af9; stroke:none; fill-opacity:0" cx="1826.87" cy="1085.59" r="2"></circle>
<circle clip-path="url(#clip822)" style="fill:#009af9; stroke:none; fill-opacity:0" cx="1857" cy="951.03" r="2"></circle>
<circle clip-path="url(#clip822)" style="fill:#009af9; stroke:none; fill-opacity:0" cx="1887.13" cy="827.265" r="2"></circle>
<circle clip-path="url(#clip822)" style="fill:#009af9; stroke:none; fill-opacity:0" cx="1917.26" cy="692.879" r="2"></circle>
<circle clip-path="url(#clip822)" style="fill:#009af9; stroke:none; fill-opacity:0" cx="1947.38" cy="593.454" r="2"></circle>
<circle clip-path="url(#clip822)" style="fill:#009af9; stroke:none; fill-opacity:0" cx="1977.51" cy="476.692" r="2"></circle>
<circle clip-path="url(#clip822)" style="fill:#009af9; stroke:none; fill-opacity:0" cx="2007.64" cy="373.65" r="2"></circle>
<circle clip-path="url(#clip822)" style="fill:#009af9; stroke:none; fill-opacity:0" cx="2037.77" cy="297.301" r="2"></circle>
<circle clip-path="url(#clip822)" style="fill:#009af9; stroke:none; fill-opacity:0" cx="2067.89" cy="225.602" r="2"></circle>
<circle clip-path="url(#clip822)" style="fill:#009af9; stroke:none; fill-opacity:0" cx="2098.02" cy="173.363" r="2"></circle>
<circle clip-path="url(#clip822)" style="fill:#009af9; stroke:none; fill-opacity:0" cx="2128.15" cy="114.293" r="2"></circle>
<circle clip-path="url(#clip822)" style="fill:#009af9; stroke:none; fill-opacity:0" cx="2158.28" cy="86.2222" r="2"></circle>
<circle clip-path="url(#clip822)" style="fill:#009af9; stroke:none; fill-opacity:0" cx="2188.4" cy="47.2441" r="2"></circle>
<circle clip-path="url(#clip822)" style="fill:#009af9; stroke:none; fill-opacity:0" cx="2218.53" cy="901.662" r="2"></circle>
<polyline clip-path="url(#clip822)" style="stroke:#000000; stroke-linecap:round; stroke-linejoin:round; stroke-width:8; stroke-opacity:1; fill:none" points="247.59,96.0793 252.865,90.0661 258.14,84.481 263.415,79.3257 268.69,74.6017 284.137,63.2622 299.585,55.6635 307.309,53.2736 315.033,51.8256 322.757,51.3205 330.48,51.7585 338.204,53.1395 345.928,55.4625 353.652,58.726 361.376,62.9279 376.823,74.1349 392.271,89.0542 399.457,97.2491 406.644,106.234 413.83,116.005 421.016,126.555 435.389,149.97 449.761,176.427 459.393,195.829 469.026,216.551 478.658,238.571 488.29,261.866 497.922,286.413 507.555,312.187 517.187,339.161 526.819,367.307 542.738,416.315 558.656,468.31 574.575,523.147 590.493,580.673 605.296,636.438 620.098,694.254 634.901,753.982 649.703,815.479 668.286,894.952 686.868,976.675 705.45,1060.34 724.033,1145.62 740.701,1223.23 757.37,1301.65 765.704,1341.08 774.038,1380.63 778.205,1400.43 782.372,1420.25 786.539,1440.09 790.706,1459.93 791.899,1465.61 793.091,1471.29 794.284,1476.97 795.476,1482.65 796.073,1485.49 796.669,1484.56 797.265,1481.72 797.861,1478.88 799.054,1473.2 800.246,1467.52 805.016,1444.81 809.786,1422.1 819.325,1376.74 828.865,1331.5 847.944,1241.52 867.024,1152.52 895.547,1022.07 924.071,895.775 942.312,817.715 960.553,742.106 978.794,669.225 997.035,599.338 1013.68,538.384 1030.33,480.324 1046.98,425.336 1063.63,373.588 1073.1,345.647 1082.58,318.834 1092.05,293.175 1101.53,268.697 1111,245.422 1120.47,223.375 1129.95,202.577 1139.42,183.048 1154.44,154.735 1169.46,129.731 1176.97,118.491 1184.48,108.1 1192,98.5654 1199.51,89.8935 1208.84,80.3292 1218.17,72.1135 1227.5,65.2542 1236.83,59.7581 1246.16,55.6302 1255.49,52.8747 1264.82,51.4941 1274.15,51.4898 1288.44,54.1511 1302.73,60.0349 1317.03,69.1278 1331.32,81.4095 1341.39,91.9688 1351.47,104.087 1361.54,117.751 1371.62,132.946 1381.69,149.653 1391.76,167.856 1401.84,187.532 1411.91,208.661 1426.97,242.896 1442.03,280.235 1457.08,320.587 1472.14,363.851 1489.26,416.451 1506.39,472.508 1523.51,531.838 1540.63,594.252 1557.59,658.903 1574.55,726.175 1591.51,795.855 1608.47,867.723 1627.12,949.046 1645.78,1032.43 1664.44,1117.55 1683.09,1204.09 1697.34,1270.94 1711.59,1338.27 1718.72,1372.06 1725.84,1405.93 1729.41,1422.88 1732.97,1439.83 1734.75,1448.31 1736.53,1456.8 1738.31,1465.28 1740.09,1473.77 1741.22,1479.12 1742.34,1484.47 1742.9,1485.74 1743.47,1483.07 1744.03,1480.39 1744.59,1477.71 1746.84,1467.01 1749.09,1456.3 1753.58,1434.89 1758.08,1413.5 1767.07,1370.76 1776.06,1328.13 1794.04,1243.32 1812.03,1159.38 1828.66,1082.78 1845.29,1007.4 1861.92,933.483 1878.56,861.251 1895.71,788.755 1912.86,718.519 1930.02,650.773 1947.17,585.734 1964.56,522.79 1981.94,463.055 1990.64,434.453 1999.33,406.727 2008.02,379.9 2016.72,353.994 2025.79,327.951 2034.87,302.958 2043.95,279.041 2053.03,256.219 2062.11,234.514 2071.18,213.946 2080.26,194.532 2089.34,176.292 2103.64,149.973 2117.94,126.665 2132.24,106.421 2146.54,89.2865 2154.69,80.9353 2162.83,73.6106 2170.97,67.3178 2179.11,62.0615 2187.26,57.8456 2195.4,54.6732 2203.54,52.5464 2211.68,51.467 2219.83,51.4357 2227.97,52.4525 2236.11,54.5166 2244.25,57.6267 2260.54,66.9745 2276.82,80.4686 2280.48,84.0623 2284.13,87.8624 2287.79,91.8683 2291.44,96.0793 "></polyline>
<path clip-path="url(#clip820)" d="M2011.46 1438.47 L2280.54 1438.47 L2280.54 1282.95 L2011.46 1282.95  Z" fill="#ffffff" fill-rule="evenodd" fill-opacity="1"></path>
<polyline clip-path="url(#clip820)" style="stroke:#000000; stroke-linecap:round; stroke-linejoin:round; stroke-width:4; stroke-opacity:1; fill:none" points="2011.46,1438.47 2280.54,1438.47 2280.54,1282.95 2011.46,1282.95 2011.46,1438.47 "></polyline>
<path clip-path="url(#clip820)" d="M2035.53 1355.53 L2179.97 1355.53 L2179.97 1314.06 L2035.53 1314.06 L2035.53 1355.53  Z" fill="#009af9" fill-rule="evenodd" fill-opacity="1"></path>
<polyline clip-path="url(#clip820)" style="stroke:#000000; stroke-linecap:round; stroke-linejoin:round; stroke-width:4; stroke-opacity:1; fill:none" points="2035.53,1355.53 2179.97,1355.53 2179.97,1314.06 2035.53,1314.06 2035.53,1355.53 "></polyline>
<path clip-path="url(#clip820)" d="M2217.88 1354.48 Q2216.07 1359.11 2214.36 1360.52 Q2212.65 1361.94 2209.78 1361.94 L2206.38 1361.94 L2206.38 1358.37 L2208.88 1358.37 Q2210.63 1358.37 2211.61 1357.54 Q2212.58 1356.7 2213.76 1353.6 L2214.52 1351.66 L2204.04 1326.15 L2208.55 1326.15 L2216.65 1346.43 L2224.76 1326.15 L2229.27 1326.15 L2217.88 1354.48 Z" fill="#000000" fill-rule="nonzero" fill-opacity="1"></path><path clip-path="url(#clip820)" d="M2236.56 1348.14 L2244.2 1348.14 L2244.2 1321.77 L2235.89 1323.44 L2235.89 1319.18 L2244.15 1317.51 L2248.83 1317.51 L2248.83 1348.14 L2256.47 1348.14 L2256.47 1352.07 L2236.56 1352.07 L2236.56 1348.14 Z" fill="#000000" fill-rule="nonzero" fill-opacity="1"></path><polyline clip-path="url(#clip820)" style="stroke:#000000; stroke-linecap:round; stroke-linejoin:round; stroke-width:8; stroke-opacity:1; fill:none" points="2035.53,1386.63 2179.97,1386.63 "></polyline>
<path clip-path="url(#clip820)" d="M2217.88 1406.32 Q2216.07 1410.95 2214.36 1412.36 Q2212.65 1413.78 2209.78 1413.78 L2206.38 1413.78 L2206.38 1410.21 L2208.88 1410.21 Q2210.63 1410.21 2211.61 1409.38 Q2212.58 1408.54 2213.76 1405.44 L2214.52 1403.5 L2204.04 1377.99 L2208.55 1377.99 L2216.65 1398.27 L2224.76 1377.99 L2229.27 1377.99 L2217.88 1406.32 Z" fill="#000000" fill-rule="nonzero" fill-opacity="1"></path><path clip-path="url(#clip820)" d="M2239.78 1399.98 L2256.1 1399.98 L2256.1 1403.91 L2234.15 1403.91 L2234.15 1399.98 Q2236.82 1397.22 2241.4 1392.6 Q2246 1387.94 2247.19 1386.6 Q2249.43 1384.08 2250.31 1382.34 Q2251.21 1380.58 2251.21 1378.89 Q2251.21 1376.14 2249.27 1374.4 Q2247.35 1372.66 2244.25 1372.66 Q2242.05 1372.66 2239.59 1373.43 Q2237.16 1374.19 2234.38 1375.74 L2234.38 1371.02 Q2237.21 1369.89 2239.66 1369.31 Q2242.12 1368.73 2244.15 1368.73 Q2249.52 1368.73 2252.72 1371.41 Q2255.91 1374.1 2255.91 1378.59 Q2255.91 1380.72 2255.1 1382.64 Q2254.32 1384.54 2252.21 1387.13 Q2251.63 1387.8 2248.53 1391.02 Q2245.43 1394.22 2239.78 1399.98 Z" fill="#000000" fill-rule="nonzero" fill-opacity="1"></path></svg>