<svg xmlns="http://www.w3.org/2000/svg" xmlns:xlink="http://www.w3.org/1999/xlink" width="600" height="400" viewBox="0 0 2400 1600">
<defs>
  <clipPath id="clip780">
    <rect x="0" y="0" width="2400" height="1600"></rect>
  </clipPath>
</defs>
<path clip-path="url(#clip780)" d="M0 1600 L2400 1600 L2400 0 L0 0  Z" fill="#ffffff" fill-rule="evenodd" fill-opacity="1"></path>
<defs>
  <clipPath id="clip781">
    <rect x="480" y="0" width="1681" height="1600"></rect>
  </clipPath>
</defs>
<path clip-path="url(#clip780)" d="M186.274 1486.45 L2352.76 1486.45 L2352.76 47.2441 L186.274 47.2441  Z" fill="#ffffff" fill-rule="evenodd" fill-opacity="1"></path>
<defs>
  <clipPath id="clip782">
    <rect x="186" y="47" width="2167" height="1440"></rect>
  </clipPath>
</defs>
<polyline clip-path="url(#clip782)" style="stroke:#000000; stroke-linecap:round; stroke-linejoin:round; stroke-width:2; stroke-opacity:0.1; fill:none" points="305.434,1486.45 305.434,47.2441 "></polyline>
<polyline clip-path="url(#clip782)" style="stroke:#000000; stroke-linecap:round; stroke-linejoin:round; stroke-width:2; stroke-opacity:0.1; fill:none" points="787.475,1486.45 787.475,47.2441 "></polyline>
<polyline clip-path="url(#clip782)" style="stroke:#000000; stroke-linecap:round; stroke-linejoin:round; stroke-width:2; stroke-opacity:0.1; fill:none" points="1269.51,1486.45 1269.51,47.2441 "></polyline>
<polyline clip-path="url(#clip782)" style="stroke:#000000; stroke-linecap:round; stroke-linejoin:round; stroke-width:2; stroke-opacity:0.1; fill:none" points="1751.56,1486.45 1751.56,47.2441 "></polyline>
<polyline clip-path="url(#clip782)" style="stroke:#000000; stroke-linecap:round; stroke-linejoin:round; stroke-width:2; stroke-opacity:0.1; fill:none" points="2233.6,1486.45 2233.6,47.2441 "></polyline>
<polyline clip-path="url(#clip782)" style="stroke:#000000; stroke-linecap:round; stroke-linejoin:round; stroke-width:2; stroke-opacity:0.1; fill:none" points="186.274,1477.92 2352.76,1477.92 "></polyline>
<polyline clip-path="url(#clip782)" style="stroke:#000000; stroke-linecap:round; stroke-linejoin:round; stroke-width:2; stroke-opacity:0.1; fill:none" points="186.274,1122.38 2352.76,1122.38 "></polyline>
<polyline clip-path="url(#clip782)" style="stroke:#000000; stroke-linecap:round; stroke-linejoin:round; stroke-width:2; stroke-opacity:0.1; fill:none" points="186.274,766.846 2352.76,766.846 "></polyline>
<polyline clip-path="url(#clip782)" style="stroke:#000000; stroke-linecap:round; stroke-linejoin:round; stroke-width:2; stroke-opacity:0.1; fill:none" points="186.274,411.311 2352.76,411.311 "></polyline>
<polyline clip-path="url(#clip782)" style="stroke:#000000; stroke-linecap:round; stroke-linejoin:round; stroke-width:2; stroke-opacity:0.1; fill:none" points="186.274,55.7769 2352.76,55.7769 "></polyline>
<polyline clip-path="url(#clip780)" style="stroke:#000000; stroke-linecap:round; stroke-linejoin:round; stroke-width:4; stroke-opacity:1; fill:none" points="186.274,1486.45 2352.76,1486.45 "></polyline>
<polyline clip-path="url(#clip780)" style="stroke:#000000; stroke-linecap:round; stroke-linejoin:round; stroke-width:4; stroke-opacity:1; fill:none" points="305.434,1486.45 305.434,1467.55 "></polyline>
<polyline clip-path="url(#clip780)" style="stroke:#000000; stroke-linecap:round; stroke-linejoin:round; stroke-width:4; stroke-opacity:1; fill:none" points="787.475,1486.45 787.475,1467.55 "></polyline>
<polyline clip-path="url(#clip780)" style="stroke:#000000; stroke-linecap:round; stroke-linejoin:round; stroke-width:4; stroke-opacity:1; fill:none" points="1269.51,1486.45 1269.51,1467.55 "></polyline>
<polyline clip-path="url(#clip780)" style="stroke:#000000; stroke-linecap:round; stroke-linejoin:round; stroke-width:4; stroke-opacity:1; fill:none" points="1751.56,1486.45 1751.56,1467.55 "></polyline>
<polyline clip-path="url(#clip780)" style="stroke:#000000; stroke-linecap:round; stroke-linejoin:round; stroke-width:4; stroke-opacity:1; fill:none" points="2233.6,1486.45 2233.6,1467.55 "></polyline>
<path clip-path="url(#clip780)" d="M282.819 1517.37 Q279.208 1517.37 277.379 1520.93 Q275.573 1524.47 275.573 1531.6 Q275.573 1538.71 277.379 1542.27 Q279.208 1545.82 282.819 1545.82 Q286.453 1545.82 288.259 1542.27 Q290.087 1538.71 290.087 1531.6 Q290.087 1524.47 288.259 1520.93 Q286.453 1517.37 282.819 1517.37 M282.819 1513.66 Q288.629 1513.66 291.684 1518.27 Q294.763 1522.85 294.763 1531.6 Q294.763 1540.33 291.684 1544.94 Q288.629 1549.52 282.819 1549.52 Q277.009 1549.52 273.93 1544.94 Q270.874 1540.33 270.874 1531.6 Q270.874 1522.85 273.93 1518.27 Q277.009 1513.66 282.819 1513.66 Z" fill="#000000" fill-rule="nonzero" fill-opacity="1"></path><path clip-path="url(#clip780)" d="M302.981 1542.97 L307.865 1542.97 L307.865 1548.85 L302.981 1548.85 L302.981 1542.97 Z" fill="#000000" fill-rule="nonzero" fill-opacity="1"></path><path clip-path="url(#clip780)" d="M328.05 1517.37 Q324.439 1517.37 322.61 1520.93 Q320.805 1524.47 320.805 1531.6 Q320.805 1538.71 322.61 1542.27 Q324.439 1545.82 328.05 1545.82 Q331.684 1545.82 333.49 1542.27 Q335.318 1538.71 335.318 1531.6 Q335.318 1524.47 333.49 1520.93 Q331.684 1517.37 328.05 1517.37 M328.05 1513.66 Q333.86 1513.66 336.916 1518.27 Q339.994 1522.85 339.994 1531.6 Q339.994 1540.33 336.916 1544.94 Q333.86 1549.52 328.05 1549.52 Q322.24 1549.52 319.161 1544.94 Q316.106 1540.33 316.106 1531.6 Q316.106 1522.85 319.161 1518.27 Q322.24 1513.66 328.05 1513.66 Z" fill="#000000" fill-rule="nonzero" fill-opacity="1"></path><path clip-path="url(#clip780)" d="M765.357 1517.37 Q761.746 1517.37 759.917 1520.93 Q758.111 1524.47 758.111 1531.6 Q758.111 1538.71 759.917 1542.27 Q761.746 1545.82 765.357 1545.82 Q768.991 1545.82 770.797 1542.27 Q772.625 1538.71 772.625 1531.6 Q772.625 1524.47 770.797 1520.93 Q768.991 1517.37 765.357 1517.37 M765.357 1513.66 Q771.167 1513.66 774.222 1518.27 Q777.301 1522.85 777.301 1531.6 Q777.301 1540.33 774.222 1544.94 Q771.167 1549.52 765.357 1549.52 Q759.547 1549.52 756.468 1544.94 Q753.412 1540.33 753.412 1531.6 Q753.412 1522.85 756.468 1518.27 Q759.547 1513.66 765.357 1513.66 Z" fill="#000000" fill-rule="nonzero" fill-opacity="1"></path><path clip-path="url(#clip780)" d="M785.519 1542.97 L790.403 1542.97 L790.403 1548.85 L785.519 1548.85 L785.519 1542.97 Z" fill="#000000" fill-rule="nonzero" fill-opacity="1"></path><path clip-path="url(#clip780)" d="M800.634 1514.29 L818.991 1514.29 L818.991 1518.22 L804.917 1518.22 L804.917 1526.7 Q805.935 1526.35 806.954 1526.19 Q807.972 1526 808.991 1526 Q814.778 1526 818.157 1529.17 Q821.537 1532.34 821.537 1537.76 Q821.537 1543.34 818.065 1546.44 Q814.593 1549.52 808.273 1549.52 Q806.097 1549.52 803.829 1549.15 Q801.583 1548.78 799.176 1548.04 L799.176 1543.34 Q801.259 1544.47 803.482 1545.03 Q805.704 1545.58 808.181 1545.58 Q812.185 1545.58 814.523 1543.48 Q816.861 1541.37 816.861 1537.76 Q816.861 1534.15 814.523 1532.04 Q812.185 1529.94 808.181 1529.94 Q806.306 1529.94 804.431 1530.35 Q802.579 1530.77 800.634 1531.65 L800.634 1514.29 Z" fill="#000000" fill-rule="nonzero" fill-opacity="1"></path><path clip-path="url(#clip780)" d="M1236.67 1544.91 L1244.31 1544.91 L1244.31 1518.55 L1236 1520.21 L1236 1515.95 L1244.26 1514.29 L1248.94 1514.29 L1248.94 1544.91 L1256.58 1544.91 L1256.58 1548.85 L1236.67 1548.85 L1236.67 1544.91 Z" fill="#000000" fill-rule="nonzero" fill-opacity="1"></path><path clip-path="url(#clip780)" d="M1266.02 1542.97 L1270.9 1542.97 L1270.9 1548.85 L1266.02 1548.85 L1266.02 1542.97 Z" fill="#000000" fill-rule="nonzero" fill-opacity="1"></path><path clip-path="url(#clip780)" d="M1291.09 1517.37 Q1287.48 1517.37 1285.65 1520.93 Q1283.84 1524.47 1283.84 1531.6 Q1283.84 1538.71 1285.65 1542.27 Q1287.48 1545.82 1291.09 1545.82 Q1294.72 1545.82 1296.53 1542.27 Q1298.36 1538.71 1298.36 1531.6 Q1298.36 1524.47 1296.53 1520.93 Q1294.72 1517.37 1291.09 1517.37 M1291.09 1513.66 Q1296.9 1513.66 1299.95 1518.27 Q1303.03 1522.85 1303.03 1531.6 Q1303.03 1540.33 1299.95 1544.94 Q1296.9 1549.52 1291.09 1549.52 Q1285.28 1549.52 1282.2 1544.94 Q1279.14 1540.33 1279.14 1531.6 Q1279.14 1522.85 1282.2 1518.27 Q1285.28 1513.66 1291.09 1513.66 Z" fill="#000000" fill-rule="nonzero" fill-opacity="1"></path><path clip-path="url(#clip780)" d="M1719.21 1544.91 L1726.84 1544.91 L1726.84 1518.55 L1718.53 1520.21 L1718.53 1515.95 L1726.8 1514.29 L1731.47 1514.29 L1731.47 1544.91 L1739.11 1544.91 L1739.11 1548.85 L1719.21 1548.85 L1719.21 1544.91 Z" fill="#000000" fill-rule="nonzero" fill-opacity="1"></path><path clip-path="url(#clip780)" d="M1748.56 1542.97 L1753.44 1542.97 L1753.44 1548.85 L1748.56 1548.85 L1748.56 1542.97 Z" fill="#000000" fill-rule="nonzero" fill-opacity="1"></path><path clip-path="url(#clip780)" d="M1763.67 1514.29 L1782.03 1514.29 L1782.03 1518.22 L1767.96 1518.22 L1767.96 1526.7 Q1768.97 1526.35 1769.99 1526.19 Q1771.01 1526 1772.03 1526 Q1777.82 1526 1781.2 1529.17 Q1784.58 1532.34 1784.58 1537.76 Q1784.58 1543.34 1781.1 1546.44 Q1777.63 1549.52 1771.31 1549.52 Q1769.14 1549.52 1766.87 1549.15 Q1764.62 1548.78 1762.21 1548.04 L1762.21 1543.34 Q1764.3 1544.47 1766.52 1545.03 Q1768.74 1545.58 1771.22 1545.58 Q1775.22 1545.58 1777.56 1543.48 Q1779.9 1541.37 1779.9 1537.76 Q1779.9 1534.15 1777.56 1532.04 Q1775.22 1529.94 1771.22 1529.94 Q1769.34 1529.94 1767.47 1530.35 Q1765.62 1530.77 1763.67 1531.65 L1763.67 1514.29 Z" fill="#000000" fill-rule="nonzero" fill-opacity="1"></path><path clip-path="url(#clip780)" d="M2204.83 1544.91 L2221.15 1544.91 L2221.15 1548.85 L2199.21 1548.85 L2199.21 1544.91 Q2201.87 1542.16 2206.45 1537.53 Q2211.06 1532.88 2212.24 1531.53 Q2214.49 1529.01 2215.37 1527.27 Q2216.27 1525.51 2216.27 1523.82 Q2216.27 1521.07 2214.32 1519.33 Q2212.4 1517.6 2209.3 1517.6 Q2207.1 1517.6 2204.65 1518.36 Q2202.22 1519.13 2199.44 1520.68 L2199.44 1515.95 Q2202.26 1514.82 2204.72 1514.24 Q2207.17 1513.66 2209.21 1513.66 Q2214.58 1513.66 2217.77 1516.35 Q2220.97 1519.03 2220.97 1523.52 Q2220.97 1525.65 2220.16 1527.57 Q2219.37 1529.47 2217.26 1532.07 Q2216.69 1532.74 2213.58 1535.95 Q2210.48 1539.15 2204.83 1544.91 Z" fill="#000000" fill-rule="nonzero" fill-opacity="1"></path><path clip-path="url(#clip780)" d="M2230.97 1542.97 L2235.85 1542.97 L2235.85 1548.85 L2230.97 1548.85 L2230.97 1542.97 Z" fill="#000000" fill-rule="nonzero" fill-opacity="1"></path><path clip-path="url(#clip780)" d="M2256.04 1517.37 Q2252.43 1517.37 2250.6 1520.93 Q2248.79 1524.47 2248.79 1531.6 Q2248.79 1538.71 2250.6 1542.27 Q2252.43 1545.82 2256.04 1545.82 Q2259.67 1545.82 2261.48 1542.27 Q2263.31 1538.71 2263.31 1531.6 Q2263.31 1524.47 2261.48 1520.93 Q2259.67 1517.37 2256.04 1517.37 M2256.04 1513.66 Q2261.85 1513.66 2264.9 1518.27 Q2267.98 1522.85 2267.98 1531.6 Q2267.98 1540.33 2264.9 1544.94 Q2261.85 1549.52 2256.04 1549.52 Q2250.23 1549.52 2247.15 1544.94 Q2244.09 1540.33 2244.09 1531.6 Q2244.09 1522.85 2247.15 1518.27 Q2250.23 1513.66 2256.04 1513.66 Z" fill="#000000" fill-rule="nonzero" fill-opacity="1"></path><polyline clip-path="url(#clip780)" style="stroke:#000000; stroke-linecap:round; stroke-linejoin:round; stroke-width:4; stroke-opacity:1; fill:none" points="186.274,1486.45 186.274,47.2441 "></polyline>
<polyline clip-path="url(#clip780)" style="stroke:#000000; stroke-linecap:round; stroke-linejoin:round; stroke-width:4; stroke-opacity:1; fill:none" points="186.274,1477.92 205.172,1477.92 "></polyline>
<polyline clip-path="url(#clip780)" style="stroke:#000000; stroke-linecap:round; stroke-linejoin:round; stroke-width:4; stroke-opacity:1; fill:none" points="186.274,1122.38 205.172,1122.38 "></polyline>
<polyline clip-path="url(#clip780)" style="stroke:#000000; stroke-linecap:round; stroke-linejoin:round; stroke-width:4; stroke-opacity:1; fill:none" points="186.274,766.846 205.172,766.846 "></polyline>
<polyline clip-path="url(#clip780)" style="stroke:#000000; stroke-linecap:round; stroke-linejoin:round; stroke-width:4; stroke-opacity:1; fill:none" points="186.274,411.311 205.172,411.311 "></polyline>
<polyline clip-path="url(#clip780)" style="stroke:#000000; stroke-linecap:round; stroke-linejoin:round; stroke-width:4; stroke-opacity:1; fill:none" points="186.274,55.7769 205.172,55.7769 "></polyline>
<path clip-path="url(#clip780)" d="M62.9365 1463.71 Q59.3254 1463.71 57.4967 1467.28 Q55.6912 1470.82 55.6912 1477.95 Q55.6912 1485.06 57.4967 1488.62 Q59.3254 1492.16 62.9365 1492.16 Q66.5707 1492.16 68.3763 1488.62 Q70.205 1485.06 70.205 1477.95 Q70.205 1470.82 68.3763 1467.28 Q66.5707 1463.71 62.9365 1463.71 M62.9365 1460.01 Q68.7467 1460.01 71.8022 1464.62 Q74.8809 1469.2 74.8809 1477.95 Q74.8809 1486.68 71.8022 1491.28 Q68.7467 1495.87 62.9365 1495.87 Q57.1264 1495.87 54.0477 1491.28 Q50.9921 1486.68 50.9921 1477.95 Q50.9921 1469.2 54.0477 1464.62 Q57.1264 1460.01 62.9365 1460.01 Z" fill="#000000" fill-rule="nonzero" fill-opacity="1"></path><path clip-path="url(#clip780)" d="M83.0984 1489.32 L87.9827 1489.32 L87.9827 1495.2 L83.0984 1495.2 L83.0984 1489.32 Z" fill="#000000" fill-rule="nonzero" fill-opacity="1"></path><path clip-path="url(#clip780)" d="M108.168 1463.71 Q104.557 1463.71 102.728 1467.28 Q100.922 1470.82 100.922 1477.95 Q100.922 1485.06 102.728 1488.62 Q104.557 1492.16 108.168 1492.16 Q111.802 1492.16 113.608 1488.62 Q115.436 1485.06 115.436 1477.95 Q115.436 1470.82 113.608 1467.28 Q111.802 1463.71 108.168 1463.71 M108.168 1460.01 Q113.978 1460.01 117.033 1464.62 Q120.112 1469.2 120.112 1477.95 Q120.112 1486.68 117.033 1491.28 Q113.978 1495.87 108.168 1495.87 Q102.358 1495.87 99.2789 1491.28 Q96.2234 1486.68 96.2234 1477.95 Q96.2234 1469.2 99.2789 1464.62 Q102.358 1460.01 108.168 1460.01 Z" fill="#000000" fill-rule="nonzero" fill-opacity="1"></path><path clip-path="url(#clip780)" d="M138.33 1463.71 Q134.719 1463.71 132.89 1467.28 Q131.084 1470.82 131.084 1477.95 Q131.084 1485.06 132.89 1488.62 Q134.719 1492.16 138.33 1492.16 Q141.964 1492.16 143.769 1488.62 Q145.598 1485.06 145.598 1477.95 Q145.598 1470.82 143.769 1467.28 Q141.964 1463.71 138.33 1463.71 M138.33 1460.01 Q144.14 1460.01 147.195 1464.62 Q150.274 1469.2 150.274 1477.95 Q150.274 1486.68 147.195 1491.28 Q144.14 1495.87 138.33 1495.87 Q132.519 1495.87 129.441 1491.28 Q126.385 1486.68 126.385 1477.95 Q126.385 1469.2 129.441 1464.62 Q132.519 1460.01 138.33 1460.01 Z" fill="#000000" fill-rule="nonzero" fill-opacity="1"></path><path clip-path="url(#clip780)" d="M63.9319 1108.18 Q60.3208 1108.18 58.4921 1111.74 Q56.6865 1115.29 56.6865 1122.42 Q56.6865 1129.52 58.4921 1133.09 Q60.3208 1136.63 63.9319 1136.63 Q67.5661 1136.63 69.3717 1133.09 Q71.2004 1129.52 71.2004 1122.42 Q71.2004 1115.29 69.3717 1111.74 Q67.5661 1108.18 63.9319 1108.18 M63.9319 1104.48 Q69.742 1104.48 72.7976 1109.08 Q75.8763 1113.67 75.8763 1122.42 Q75.8763 1131.14 72.7976 1135.75 Q69.742 1140.33 63.9319 1140.33 Q58.1217 1140.33 55.043 1135.75 Q51.9875 1131.14 51.9875 1122.42 Q51.9875 1113.67 55.043 1109.08 Q58.1217 1104.48 63.9319 1104.48 Z" fill="#000000" fill-rule="nonzero" fill-opacity="1"></path><path clip-path="url(#clip780)" d="M84.0938 1133.78 L88.978 1133.78 L88.978 1139.66 L84.0938 1139.66 L84.0938 1133.78 Z" fill="#000000" fill-rule="nonzero" fill-opacity="1"></path><path clip-path="url(#clip780)" d="M103.191 1135.73 L119.51 1135.73 L119.51 1139.66 L97.566 1139.66 L97.566 1135.73 Q100.228 1132.97 104.811 1128.34 Q109.418 1123.69 110.598 1122.35 Q112.844 1119.82 113.723 1118.09 Q114.626 1116.33 114.626 1114.64 Q114.626 1111.88 112.682 1110.15 Q110.76 1108.41 107.658 1108.41 Q105.459 1108.41 103.006 1109.17 Q100.575 1109.94 97.7974 1111.49 L97.7974 1106.77 Q100.621 1105.63 103.075 1105.05 Q105.529 1104.48 107.566 1104.48 Q112.936 1104.48 116.131 1107.16 Q119.325 1109.85 119.325 1114.34 Q119.325 1116.47 118.515 1118.39 Q117.728 1120.29 115.621 1122.88 Q115.043 1123.55 111.941 1126.77 Q108.839 1129.96 103.191 1135.73 Z" fill="#000000" fill-rule="nonzero" fill-opacity="1"></path><path clip-path="url(#clip780)" d="M129.371 1105.1 L147.728 1105.1 L147.728 1109.04 L133.654 1109.04 L133.654 1117.51 Q134.672 1117.16 135.691 1117 Q136.709 1116.81 137.728 1116.81 Q143.515 1116.81 146.894 1119.98 Q150.274 1123.16 150.274 1128.57 Q150.274 1134.15 146.802 1137.25 Q143.33 1140.33 137.01 1140.33 Q134.834 1140.33 132.566 1139.96 Q130.32 1139.59 127.913 1138.85 L127.913 1134.15 Q129.996 1135.29 132.219 1135.84 Q134.441 1136.4 136.918 1136.4 Q140.922 1136.4 143.26 1134.29 Q145.598 1132.18 145.598 1128.57 Q145.598 1124.96 143.26 1122.86 Q140.922 1120.75 136.918 1120.75 Q135.043 1120.75 133.168 1121.17 Q131.316 1121.58 129.371 1122.46 L129.371 1105.1 Z" fill="#000000" fill-rule="nonzero" fill-opacity="1"></path><path clip-path="url(#clip780)" d="M62.9365 752.645 Q59.3254 752.645 57.4967 756.209 Q55.6912 759.751 55.6912 766.881 Q55.6912 773.987 57.4967 777.552 Q59.3254 781.094 62.9365 781.094 Q66.5707 781.094 68.3763 777.552 Q70.205 773.987 70.205 766.881 Q70.205 759.751 68.3763 756.209 Q66.5707 752.645 62.9365 752.645 M62.9365 748.941 Q68.7467 748.941 71.8022 753.547 Q74.8809 758.131 74.8809 766.881 Q74.8809 775.608 71.8022 780.214 Q68.7467 784.797 62.9365 784.797 Q57.1264 784.797 54.0477 780.214 Q50.9921 775.608 50.9921 766.881 Q50.9921 758.131 54.0477 753.547 Q57.1264 748.941 62.9365 748.941 Z" fill="#000000" fill-rule="nonzero" fill-opacity="1"></path><path clip-path="url(#clip780)" d="M83.0984 778.246 L87.9827 778.246 L87.9827 784.126 L83.0984 784.126 L83.0984 778.246 Z" fill="#000000" fill-rule="nonzero" fill-opacity="1"></path><path clip-path="url(#clip780)" d="M98.2141 749.566 L116.57 749.566 L116.57 753.501 L102.496 753.501 L102.496 761.973 Q103.515 761.626 104.534 761.464 Q105.552 761.279 106.571 761.279 Q112.358 761.279 115.737 764.45 Q119.117 767.621 119.117 773.038 Q119.117 778.617 115.645 781.719 Q112.172 784.797 105.853 784.797 Q103.677 784.797 101.409 784.427 Q99.1632 784.057 96.7558 783.316 L96.7558 778.617 Q98.8391 779.751 101.061 780.307 Q103.284 780.862 105.76 780.862 Q109.765 780.862 112.103 778.756 Q114.441 776.649 114.441 773.038 Q114.441 769.427 112.103 767.321 Q109.765 765.214 105.76 765.214 Q103.885 765.214 102.01 765.631 Q100.159 766.047 98.2141 766.927 L98.2141 749.566 Z" fill="#000000" fill-rule="nonzero" fill-opacity="1"></path><path clip-path="url(#clip780)" d="M138.33 752.645 Q134.719 752.645 132.89 756.209 Q131.084 759.751 131.084 766.881 Q131.084 773.987 132.89 777.552 Q134.719 781.094 138.33 781.094 Q141.964 781.094 143.769 777.552 Q145.598 773.987 145.598 766.881 Q145.598 759.751 143.769 756.209 Q141.964 752.645 138.33 752.645 M138.33 748.941 Q144.14 748.941 147.195 753.547 Q150.274 758.131 150.274 766.881 Q150.274 775.608 147.195 780.214 Q144.14 784.797 138.33 784.797 Q132.519 784.797 129.441 780.214 Q126.385 775.608 126.385 766.881 Q126.385 758.131 129.441 753.547 Q132.519 748.941 138.33 748.941 Z" fill="#000000" fill-rule="nonzero" fill-opacity="1"></path><path clip-path="url(#clip780)" d="M63.9319 397.11 Q60.3208 397.11 58.4921 400.675 Q56.6865 404.217 56.6865 411.346 Q56.6865 418.453 58.4921 422.017 Q60.3208 425.559 63.9319 425.559 Q67.5661 425.559 69.3717 422.017 Q71.2004 418.453 71.2004 411.346 Q71.2004 404.217 69.3717 400.675 Q67.5661 397.11 63.9319 397.11 M63.9319 393.406 Q69.742 393.406 72.7976 398.013 Q75.8763 402.596 75.8763 411.346 Q75.8763 420.073 72.7976 424.679 Q69.742 429.263 63.9319 429.263 Q58.1217 429.263 55.043 424.679 Q51.9875 420.073 51.9875 411.346 Q51.9875 402.596 55.043 398.013 Q58.1217 393.406 63.9319 393.406 Z" fill="#000000" fill-rule="nonzero" fill-opacity="1"></path><path clip-path="url(#clip780)" d="M84.0938 422.712 L88.978 422.712 L88.978 428.591 L84.0938 428.591 L84.0938 422.712 Z" fill="#000000" fill-rule="nonzero" fill-opacity="1"></path><path clip-path="url(#clip780)" d="M97.9826 394.031 L120.205 394.031 L120.205 396.022 L107.658 428.591 L102.774 428.591 L114.58 397.967 L97.9826 397.967 L97.9826 394.031 Z" fill="#000000" fill-rule="nonzero" fill-opacity="1"></path><path clip-path="url(#clip780)" d="M129.371 394.031 L147.728 394.031 L147.728 397.967 L133.654 397.967 L133.654 406.439 Q134.672 406.092 135.691 405.93 Q136.709 405.744 137.728 405.744 Q143.515 405.744 146.894 408.916 Q150.274 412.087 150.274 417.504 Q150.274 423.082 146.802 426.184 Q143.33 429.263 137.01 429.263 Q134.834 429.263 132.566 428.892 Q130.32 428.522 127.913 427.781 L127.913 423.082 Q129.996 424.216 132.219 424.772 Q134.441 425.328 136.918 425.328 Q140.922 425.328 143.26 423.221 Q145.598 421.115 145.598 417.504 Q145.598 413.892 143.26 411.786 Q140.922 409.68 136.918 409.68 Q135.043 409.68 133.168 410.096 Q131.316 410.513 129.371 411.392 L129.371 394.031 Z" fill="#000000" fill-rule="nonzero" fill-opacity="1"></path><path clip-path="url(#clip780)" d="M53.7467 69.1218 L61.3856 69.1218 L61.3856 42.7562 L53.0754 44.4228 L53.0754 40.1636 L61.3393 38.4969 L66.0152 38.4969 L66.0152 69.1218 L73.654 69.1218 L73.654 73.0569 L53.7467 73.0569 L53.7467 69.1218 Z" fill="#000000" fill-rule="nonzero" fill-opacity="1"></path><path clip-path="url(#clip780)" d="M83.0984 67.1773 L87.9827 67.1773 L87.9827 73.0569 L83.0984 73.0569 L83.0984 67.1773 Z" fill="#000000" fill-rule="nonzero" fill-opacity="1"></path><path clip-path="url(#clip780)" d="M108.168 41.5756 Q104.557 41.5756 102.728 45.1404 Q100.922 48.6821 100.922 55.8116 Q100.922 62.9181 102.728 66.4829 Q104.557 70.0245 108.168 70.0245 Q111.802 70.0245 113.608 66.4829 Q115.436 62.9181 115.436 55.8116 Q115.436 48.6821 113.608 45.1404 Q111.802 41.5756 108.168 41.5756 M108.168 37.8719 Q113.978 37.8719 117.033 42.4784 Q120.112 47.0617 120.112 55.8116 Q120.112 64.5385 117.033 69.1449 Q113.978 73.7282 108.168 73.7282 Q102.358 73.7282 99.2789 69.1449 Q96.2234 64.5385 96.2234 55.8116 Q96.2234 47.0617 99.2789 42.4784 Q102.358 37.8719 108.168 37.8719 Z" fill="#000000" fill-rule="nonzero" fill-opacity="1"></path><path clip-path="url(#clip780)" d="M138.33 41.5756 Q134.719 41.5756 132.89 45.1404 Q131.084 48.6821 131.084 55.8116 Q131.084 62.9181 132.89 66.4829 Q134.719 70.0245 138.33 70.0245 Q141.964 70.0245 143.769 66.4829 Q145.598 62.9181 145.598 55.8116 Q145.598 48.6821 143.769 45.1404 Q141.964 41.5756 138.33 41.5756 M138.33 37.8719 Q144.14 37.8719 147.195 42.4784 Q150.274 47.0617 150.274 55.8116 Q150.274 64.5385 147.195 69.1449 Q144.14 73.7282 138.33 73.7282 Q132.519 73.7282 129.441 69.1449 Q126.385 64.5385 126.385 55.8116 Q126.385 47.0617 129.441 42.4784 Q132.519 37.8719 138.33 37.8719 Z" fill="#000000" fill-rule="nonzero" fill-opacity="1"></path><path clip-path="url(#clip782)" d="M305.434 69.9983 L305.434 1477.92 L353.638 1477.92 L353.638 69.9983 L305.434 69.9983 L305.434 69.9983  Z" fill="#009af9" fill-rule="evenodd" fill-opacity="1"></path>
<polyline clip-path="url(#clip782)" style="stroke:#000000; stroke-linecap:round; stroke-linejoin:round; stroke-width:4; stroke-opacity:1; fill:none" points="305.434,69.9983 305.434,1477.92 353.638,1477.92 353.638,69.9983 305.434,69.9983 "></polyline>
<path clip-path="url(#clip782)" d="M353.638 60.3278 L353.638 1477.92 L401.842 1477.92 L401.842 60.3278 L353.638 60.3278 L353.638 60.3278  Z" fill="#009af9" fill-rule="evenodd" fill-opacity="1"></path>
<polyline clip-path="url(#clip782)" style="stroke:#000000; stroke-linecap:round; stroke-linejoin:round; stroke-width:4; stroke-opacity:1; fill:none" points="353.638,60.3278 353.638,1477.92 401.842,1477.92 401.842,60.3278 353.638,60.3278 "></polyline>
<path clip-path="url(#clip782)" d="M401.842 64.5942 L401.842 1477.92 L450.046 1477.92 L450.046 64.5942 L401.842 64.5942 L401.842 64.5942  Z" fill="#009af9" fill-rule="evenodd" fill-opacity="1"></path>
<polyline clip-path="url(#clip782)" style="stroke:#000000; stroke-linecap:round; stroke-linejoin:round; stroke-width:4; stroke-opacity:1; fill:none" points="401.842,64.5942 401.842,1477.92 450.046,1477.92 450.046,64.5942 401.842,64.5942 "></polyline>
<path clip-path="url(#clip782)" d="M450.046 73.127 L450.046 1477.92 L498.25 1477.92 L498.25 73.127 L450.046 73.127 L450.046 73.127  Z" fill="#009af9" fill-rule="evenodd" fill-opacity="1"></path>
<polyline clip-path="url(#clip782)" style="stroke:#000000; stroke-linecap:round; stroke-linejoin:round; stroke-width:4; stroke-opacity:1; fill:none" points="450.046,73.127 450.046,1477.92 498.25,1477.92 498.25,73.127 450.046,73.127 "></polyline>
<path clip-path="url(#clip782)" d="M498.25 87.064 L498.25 1477.92 L546.455 1477.92 L546.455 87.064 L498.25 87.064 L498.25 87.064  Z" fill="#009af9" fill-rule="evenodd" fill-opacity="1"></path>
<polyline clip-path="url(#clip782)" style="stroke:#000000; stroke-linecap:round; stroke-linejoin:round; stroke-width:4; stroke-opacity:1; fill:none" points="498.25,87.064 498.25,1477.92 546.455,1477.92 546.455,87.064 498.25,87.064 "></polyline>
<path clip-path="url(#clip782)" d="M546.455 68.8606 L546.455 1477.92 L594.659 1477.92 L594.659 68.8606 L546.455 68.8606 L546.455 68.8606  Z" fill="#009af9" fill-rule="evenodd" fill-opacity="1"></path>
<polyline clip-path="url(#clip782)" style="stroke:#000000; stroke-linecap:round; stroke-linejoin:round; stroke-width:4; stroke-opacity:1; fill:none" points="546.455,68.8606 546.455,1477.92 594.659,1477.92 594.659,68.8606 546.455,68.8606 "></polyline>
<path clip-path="url(#clip782)" d="M594.659 105.552 L594.659 1477.92 L642.863 1477.92 L642.863 105.552 L594.659 105.552 L594.659 105.552  Z" fill="#009af9" fill-rule="evenodd" fill-opacity="1"></path>
<polyline clip-path="url(#clip782)" style="stroke:#000000; stroke-linecap:round; stroke-linejoin:round; stroke-width:4; stroke-opacity:1; fill:none" points="594.659,105.552 594.659,1477.92 642.863,1477.92 642.863,105.552 594.659,105.552 "></polyline>
<path clip-path="url(#clip782)" d="M642.863 107.258 L642.863 1477.92 L691.067 1477.92 L691.067 107.258 L642.863 107.258 L642.863 107.258  Z" fill="#009af9" fill-rule="evenodd" fill-opacity="1"></path>
<polyline clip-path="url(#clip782)" style="stroke:#000000; stroke-linecap:round; stroke-linejoin:round; stroke-width:4; stroke-opacity:1; fill:none" points="642.863,107.258 642.863,1477.92 691.067,1477.92 691.067,107.258 642.863,107.258 "></polyline>
<path clip-path="url(#clip782)" d="M691.067 151.913 L691.067 1477.92 L739.271 1477.92 L739.271 151.913 L691.067 151.913 L691.067 151.913  Z" fill="#009af9" fill-rule="evenodd" fill-opacity="1"></path>
<polyline clip-path="url(#clip782)" style="stroke:#000000; stroke-linecap:round; stroke-linejoin:round; stroke-width:4; stroke-opacity:1; fill:none" points="691.067,151.913 691.067,1477.92 739.271,1477.92 739.271,151.913 691.067,151.913 "></polyline>
<path clip-path="url(#clip782)" d="M739.271 94.7435 L739.271 1477.92 L787.475 1477.92 L787.475 94.7435 L739.271 94.7435 L739.271 94.7435  Z" fill="#009af9" fill-rule="evenodd" fill-opacity="1"></path>
<polyline clip-path="url(#clip782)" style="stroke:#000000; stroke-linecap:round; stroke-linejoin:round; stroke-width:4; stroke-opacity:1; fill:none" points="739.271,94.7435 739.271,1477.92 787.475,1477.92 787.475,94.7435 739.271,94.7435 "></polyline>
<path clip-path="url(#clip782)" d="M787.475 120.342 L787.475 1477.92 L835.679 1477.92 L835.679 120.342 L787.475 120.342 L787.475 120.342  Z" fill="#009af9" fill-rule="evenodd" fill-opacity="1"></path>
<polyline clip-path="url(#clip782)" style="stroke:#000000; stroke-linecap:round; stroke-linejoin:round; stroke-width:4; stroke-opacity:1; fill:none" points="787.475,120.342 787.475,1477.92 835.679,1477.92 835.679,120.342 787.475,120.342 "></polyline>
<path clip-path="url(#clip782)" d="M835.679 138.261 L835.679 1477.92 L883.883 1477.92 L883.883 138.261 L835.679 138.261 L835.679 138.261  Z" fill="#009af9" fill-rule="evenodd" fill-opacity="1"></path>
<polyline clip-path="url(#clip782)" style="stroke:#000000; stroke-linecap:round; stroke-linejoin:round; stroke-width:4; stroke-opacity:1; fill:none" points="835.679,138.261 835.679,1477.92 883.883,1477.92 883.883,138.261 835.679,138.261 "></polyline>
<path clip-path="url(#clip782)" d="M883.883 160.446 L883.883 1477.92 L932.087 1477.92 L932.087 160.446 L883.883 160.446 L883.883 160.446  Z" fill="#009af9" fill-rule="evenodd" fill-opacity="1"></path>
<polyline clip-path="url(#clip782)" style="stroke:#000000; stroke-linecap:round; stroke-linejoin:round; stroke-width:4; stroke-opacity:1; fill:none" points="883.883,160.446 883.883,1477.92 932.087,1477.92 932.087,160.446 883.883,160.446 "></polyline>
<path clip-path="url(#clip782)" d="M932.087 137.408 L932.087 1477.92 L980.291 1477.92 L980.291 137.408 L932.087 137.408 L932.087 137.408  Z" fill="#009af9" fill-rule="evenodd" fill-opacity="1"></path>
<polyline clip-path="url(#clip782)" style="stroke:#000000; stroke-linecap:round; stroke-linejoin:round; stroke-width:4; stroke-opacity:1; fill:none" points="932.087,137.408 932.087,1477.92 980.291,1477.92 980.291,137.408 932.087,137.408 "></polyline>
<path clip-path="url(#clip782)" d="M980.291 178.65 L980.291 1477.92 L1028.49 1477.92 L1028.49 178.65 L980.291 178.65 L980.291 178.65  Z" fill="#009af9" fill-rule="evenodd" fill-opacity="1"></path>
<polyline clip-path="url(#clip782)" style="stroke:#000000; stroke-linecap:round; stroke-linejoin:round; stroke-width:4; stroke-opacity:1; fill:none" points="980.291,178.65 980.291,1477.92 1028.49,1477.92 1028.49,178.65 980.291,178.65 "></polyline>
<path clip-path="url(#clip782)" d="M1028.49 193.724 L1028.49 1477.92 L1076.7 1477.92 L1076.7 193.724 L1028.49 193.724 L1028.49 193.724  Z" fill="#009af9" fill-rule="evenodd" fill-opacity="1"></path>
<polyline clip-path="url(#clip782)" style="stroke:#000000; stroke-linecap:round; stroke-linejoin:round; stroke-width:4; stroke-opacity:1; fill:none" points="1028.49,193.724 1028.49,1477.92 1076.7,1477.92 1076.7,193.724 1028.49,193.724 "></polyline>
<path clip-path="url(#clip782)" d="M1076.7 172.392 L1076.7 1477.92 L1124.9 1477.92 L1124.9 172.392 L1076.7 172.392 L1076.7 172.392  Z" fill="#009af9" fill-rule="evenodd" fill-opacity="1"></path>
<polyline clip-path="url(#clip782)" style="stroke:#000000; stroke-linecap:round; stroke-linejoin:round; stroke-width:4; stroke-opacity:1; fill:none" points="1076.7,172.392 1076.7,1477.92 1124.9,1477.92 1124.9,172.392 1076.7,172.392 "></polyline>
<path clip-path="url(#clip782)" d="M1124.9 212.497 L1124.9 1477.92 L1173.11 1477.92 L1173.11 212.497 L1124.9 212.497 L1124.9 212.497  Z" fill="#009af9" fill-rule="evenodd" fill-opacity="1"></path>
<polyline clip-path="url(#clip782)" style="stroke:#000000; stroke-linecap:round; stroke-linejoin:round; stroke-width:4; stroke-opacity:1; fill:none" points="1124.9,212.497 1124.9,1477.92 1173.11,1477.92 1173.11,212.497 1124.9,212.497 "></polyline>
<path clip-path="url(#clip782)" d="M1173.11 173.814 L1173.11 1477.92 L1221.31 1477.92 L1221.31 173.814 L1173.11 173.814 L1173.11 173.814  Z" fill="#009af9" fill-rule="evenodd" fill-opacity="1"></path>
<polyline clip-path="url(#clip782)" style="stroke:#000000; stroke-linecap:round; stroke-linejoin:round; stroke-width:4; stroke-opacity:1; fill:none" points="1173.11,173.814 1173.11,1477.92 1221.31,1477.92 1221.31,173.814 1173.11,173.814 "></polyline>
<path clip-path="url(#clip782)" d="M1221.31 177.796 L1221.31 1477.92 L1269.51 1477.92 L1269.51 177.796 L1221.31 177.796 L1221.31 177.796  Z" fill="#009af9" fill-rule="evenodd" fill-opacity="1"></path>
<polyline clip-path="url(#clip782)" style="stroke:#000000; stroke-linecap:round; stroke-linejoin:round; stroke-width:4; stroke-opacity:1; fill:none" points="1221.31,177.796 1221.31,1477.92 1269.51,1477.92 1269.51,177.796 1221.31,177.796 "></polyline>
<path clip-path="url(#clip782)" d="M1269.51 1341.96 L1269.51 1477.92 L1317.72 1477.92 L1317.72 1341.96 L1269.51 1341.96 L1269.51 1341.96  Z" fill="#009af9" fill-rule="evenodd" fill-opacity="1"></path>
<polyline clip-path="url(#clip782)" style="stroke:#000000; stroke-linecap:round; stroke-linejoin:round; stroke-width:4; stroke-opacity:1; fill:none" points="1269.51,1341.96 1269.51,1477.92 1317.72,1477.92 1317.72,1341.96 1269.51,1341.96 "></polyline>
<path clip-path="url(#clip782)" d="M1317.72 1345.37 L1317.72 1477.92 L1365.92 1477.92 L1365.92 1345.37 L1317.72 1345.37 L1317.72 1345.37  Z" fill="#009af9" fill-rule="evenodd" fill-opacity="1"></path>
<polyline clip-path="url(#clip782)" style="stroke:#000000; stroke-linecap:round; stroke-linejoin:round; stroke-width:4; stroke-opacity:1; fill:none" points="1317.72,1345.37 1317.72,1477.92 1365.92,1477.92 1365.92,1345.37 1317.72,1345.37 "></polyline>
<path clip-path="url(#clip782)" d="M1365.92 1348.22 L1365.92 1477.92 L1414.13 1477.92 L1414.13 1348.22 L1365.92 1348.22 L1365.92 1348.22  Z" fill="#009af9" fill-rule="evenodd" fill-opacity="1"></path>
<polyline clip-path="url(#clip782)" style="stroke:#000000; stroke-linecap:round; stroke-linejoin:round; stroke-width:4; stroke-opacity:1; fill:none" points="1365.92,1348.22 1365.92,1477.92 1414.13,1477.92 1414.13,1348.22 1365.92,1348.22 "></polyline>
<path clip-path="url(#clip782)" d="M1414.13 1352.2 L1414.13 1477.92 L1462.33 1477.92 L1462.33 1352.2 L1414.13 1352.2 L1414.13 1352.2  Z" fill="#009af9" fill-rule="evenodd" fill-opacity="1"></path>
<polyline clip-path="url(#clip782)" style="stroke:#000000; stroke-linecap:round; stroke-linejoin:round; stroke-width:4; stroke-opacity:1; fill:none" points="1414.13,1352.2 1414.13,1477.92 1462.33,1477.92 1462.33,1352.2 1414.13,1352.2 "></polyline>
<path clip-path="url(#clip782)" d="M1462.33 1379.5 L1462.33 1477.92 L1510.54 1477.92 L1510.54 1379.5 L1462.33 1379.5 L1462.33 1379.5  Z" fill="#009af9" fill-rule="evenodd" fill-opacity="1"></path>
<polyline clip-path="url(#clip782)" style="stroke:#000000; stroke-linecap:round; stroke-linejoin:round; stroke-width:4; stroke-opacity:1; fill:none" points="1462.33,1379.5 1462.33,1477.92 1510.54,1477.92 1510.54,1379.5 1462.33,1379.5 "></polyline>
<path clip-path="url(#clip782)" d="M1510.54 1369.83 L1510.54 1477.92 L1558.74 1477.92 L1558.74 1369.83 L1510.54 1369.83 L1510.54 1369.83  Z" fill="#009af9" fill-rule="evenodd" fill-opacity="1"></path>
<polyline clip-path="url(#clip782)" style="stroke:#000000; stroke-linecap:round; stroke-linejoin:round; stroke-width:4; stroke-opacity:1; fill:none" points="1510.54,1369.83 1510.54,1477.92 1558.74,1477.92 1558.74,1369.83 1510.54,1369.83 "></polyline>
<path clip-path="url(#clip782)" d="M1558.74 1375.81 L1558.74 1477.92 L1606.94 1477.92 L1606.94 1375.81 L1558.74 1375.81 L1558.74 1375.81  Z" fill="#009af9" fill-rule="evenodd" fill-opacity="1"></path>
<polyline clip-path="url(#clip782)" style="stroke:#000000; stroke-linecap:round; stroke-linejoin:round; stroke-width:4; stroke-opacity:1; fill:none" points="1558.74,1375.81 1558.74,1477.92 1606.94,1477.92 1606.94,1375.81 1558.74,1375.81 "></polyline>
<path clip-path="url(#clip782)" d="M1606.94 1380.07 L1606.94 1477.92 L1655.15 1477.92 L1655.15 1380.07 L1606.94 1380.07 L1606.94 1380.07  Z" fill="#009af9" fill-rule="evenodd" fill-opacity="1"></path>
<polyline clip-path="url(#clip782)" style="stroke:#000000; stroke-linecap:round; stroke-linejoin:round; stroke-width:4; stroke-opacity:1; fill:none" points="1606.94,1380.07 1606.94,1477.92 1655.15,1477.92 1655.15,1380.07 1606.94,1380.07 "></polyline>
<path clip-path="url(#clip782)" d="M1655.15 1390.03 L1655.15 1477.92 L1703.35 1477.92 L1703.35 1390.03 L1655.15 1390.03 L1655.15 1390.03  Z" fill="#009af9" fill-rule="evenodd" fill-opacity="1"></path>
<polyline clip-path="url(#clip782)" style="stroke:#000000; stroke-linecap:round; stroke-linejoin:round; stroke-width:4; stroke-opacity:1; fill:none" points="1655.15,1390.03 1655.15,1477.92 1703.35,1477.92 1703.35,1390.03 1655.15,1390.03 "></polyline>
<path clip-path="url(#clip782)" d="M1703.35 1406.81 L1703.35 1477.92 L1751.56 1477.92 L1751.56 1406.81 L1703.35 1406.81 L1703.35 1406.81  Z" fill="#009af9" fill-rule="evenodd" fill-opacity="1"></path>
<polyline clip-path="url(#clip782)" style="stroke:#000000; stroke-linecap:round; stroke-linejoin:round; stroke-width:4; stroke-opacity:1; fill:none" points="1703.35,1406.81 1703.35,1477.92 1751.56,1477.92 1751.56,1406.81 1703.35,1406.81 "></polyline>
<path clip-path="url(#clip782)" d="M1751.56 1411.93 L1751.56 1477.92 L1799.76 1477.92 L1799.76 1411.93 L1751.56 1411.93 L1751.56 1411.93  Z" fill="#009af9" fill-rule="evenodd" fill-opacity="1"></path>
<polyline clip-path="url(#clip782)" style="stroke:#000000; stroke-linecap:round; stroke-linejoin:round; stroke-width:4; stroke-opacity:1; fill:none" points="1751.56,1411.93 1751.56,1477.92 1799.76,1477.92 1799.76,1411.93 1751.56,1411.93 "></polyline>
<path clip-path="url(#clip782)" d="M1799.76 1417.05 L1799.76 1477.92 L1847.96 1477.92 L1847.96 1417.05 L1799.76 1417.05 L1799.76 1417.05  Z" fill="#009af9" fill-rule="evenodd" fill-opacity="1"></path>
<polyline clip-path="url(#clip782)" style="stroke:#000000; stroke-linecap:round; stroke-linejoin:round; stroke-width:4; stroke-opacity:1; fill:none" points="1799.76,1417.05 1799.76,1477.92 1847.96,1477.92 1847.96,1417.05 1799.76,1417.05 "></polyline>
<path clip-path="url(#clip782)" d="M1847.96 1429.56 L1847.96 1477.92 L1896.17 1477.92 L1896.17 1429.56 L1847.96 1429.56 L1847.96 1429.56  Z" fill="#009af9" fill-rule="evenodd" fill-opacity="1"></path>
<polyline clip-path="url(#clip782)" style="stroke:#000000; stroke-linecap:round; stroke-linejoin:round; stroke-width:4; stroke-opacity:1; fill:none" points="1847.96,1429.56 1847.96,1477.92 1896.17,1477.92 1896.17,1429.56 1847.96,1429.56 "></polyline>
<path clip-path="url(#clip782)" d="M1896.17 1434.4 L1896.17 1477.92 L1944.37 1477.92 L1944.37 1434.4 L1896.17 1434.4 L1896.17 1434.4  Z" fill="#009af9" fill-rule="evenodd" fill-opacity="1"></path>
<polyline clip-path="url(#clip782)" style="stroke:#000000; stroke-linecap:round; stroke-linejoin:round; stroke-width:4; stroke-opacity:1; fill:none" points="1896.17,1434.4 1896.17,1477.92 1944.37,1477.92 1944.37,1434.4 1896.17,1434.4 "></polyline>
<path clip-path="url(#clip782)" d="M1944.37 1438.38 L1944.37 1477.92 L1992.58 1477.92 L1992.58 1438.38 L1944.37 1438.38 L1944.37 1438.38  Z" fill="#009af9" fill-rule="evenodd" fill-opacity="1"></path>
<polyline clip-path="url(#clip782)" style="stroke:#000000; stroke-linecap:round; stroke-linejoin:round; stroke-width:4; stroke-opacity:1; fill:none" points="1944.37,1438.38 1944.37,1477.92 1992.58,1477.92 1992.58,1438.38 1944.37,1438.38 "></polyline>
<path clip-path="url(#clip782)" d="M1992.58 1444.35 L1992.58 1477.92 L2040.78 1477.92 L2040.78 1444.35 L1992.58 1444.35 L1992.58 1444.35  Z" fill="#009af9" fill-rule="evenodd" fill-opacity="1"></path>
<polyline clip-path="url(#clip782)" style="stroke:#000000; stroke-linecap:round; stroke-linejoin:round; stroke-width:4; stroke-opacity:1; fill:none" points="1992.58,1444.35 1992.58,1477.92 2040.78,1477.92 2040.78,1444.35 1992.58,1444.35 "></polyline>
<path clip-path="url(#clip782)" d="M2040.78 1456.58 L2040.78 1477.92 L2088.98 1477.92 L2088.98 1456.58 L2040.78 1456.58 L2040.78 1456.58  Z" fill="#009af9" fill-rule="evenodd" fill-opacity="1"></path>
<polyline clip-path="url(#clip782)" style="stroke:#000000; stroke-linecap:round; stroke-linejoin:round; stroke-width:4; stroke-opacity:1; fill:none" points="2040.78,1456.58 2040.78,1477.92 2088.98,1477.92 2088.98,1456.58 2040.78,1456.58 "></polyline>
<path clip-path="url(#clip782)" d="M2088.98 1461.99 L2088.98 1477.92 L2137.19 1477.92 L2137.19 1461.99 L2088.98 1461.99 L2088.98 1461.99  Z" fill="#009af9" fill-rule="evenodd" fill-opacity="1"></path>
<polyline clip-path="url(#clip782)" style="stroke:#000000; stroke-linecap:round; stroke-linejoin:round; stroke-width:4; stroke-opacity:1; fill:none" points="2088.98,1461.99 2088.98,1477.92 2137.19,1477.92 2137.19,1461.99 2088.98,1461.99 "></polyline>
<path clip-path="url(#clip782)" d="M2137.19 1468.24 L2137.19 1477.92 L2185.39 1477.92 L2185.39 1468.24 L2137.19 1468.24 L2137.19 1468.24  Z" fill="#009af9" fill-rule="evenodd" fill-opacity="1"></path>
<polyline clip-path="url(#clip782)" style="stroke:#000000; stroke-linecap:round; stroke-linejoin:round; stroke-width:4; stroke-opacity:1; fill:none" points="2137.19,1468.24 2137.19,1477.92 2185.39,1477.92 2185.39,1468.24 2137.19,1468.24 "></polyline>
<path clip-path="url(#clip782)" d="M2185.39 1472.8 L2185.39 1477.92 L2233.6 1477.92 L2233.6 1472.8 L2185.39 1472.8 L2185.39 1472.8  Z" fill="#009af9" fill-rule="evenodd" fill-opacity="1"></path>
<polyline clip-path="url(#clip782)" style="stroke:#000000; stroke-linecap:round; stroke-linejoin:round; stroke-width:4; stroke-opacity:1; fill:none" points="2185.39,1472.8 2185.39,1477.92 2233.6,1477.92 2233.6,1472.8 2185.39,1472.8 "></polyline>
<circle clip-path="url(#clip782)" style="fill:#009af9; stroke:none; fill-opacity:0" cx="329.536" cy="69.9983" r="2"></circle>
<circle clip-path="url(#clip782)" style="fill:#009af9; stroke:none; fill-opacity:0" cx="377.74" cy="60.3278" r="2"></circle>
<circle clip-path="url(#clip782)" style="fill:#009af9; stroke:none; fill-opacity:0" cx="425.944" cy="64.5942" r="2"></circle>
<circle clip-path="url(#clip782)" style="fill:#009af9; stroke:none; fill-opacity:0" cx="474.148" cy="73.127" r="2"></circle>
<circle clip-path="url(#clip782)" style="fill:#009af9; stroke:none; fill-opacity:0" cx="522.352" cy="87.064" r="2"></circle>
<circle clip-path="url(#clip782)" style="fill:#009af9; stroke:none; fill-opacity:0" cx="570.557" cy="68.8606" r="2"></circle>
<circle clip-path="url(#clip782)" style="fill:#009af9; stroke:none; fill-opacity:0" cx="618.761" cy="105.552" r="2"></circle>
<circle clip-path="url(#clip782)" style="fill:#009af9; stroke:none; fill-opacity:0" cx="666.965" cy="107.258" r="2"></circle>
<circle clip-path="url(#clip782)" style="fill:#009af9; stroke:none; fill-opacity:0" cx="715.169" cy="151.913" r="2"></circle>
<circle clip-path="url(#clip782)" style="fill:#009af9; stroke:none; fill-opacity:0" cx="763.373" cy="94.7435" r="2"></circle>
<circle clip-path="url(#clip782)" style="fill:#009af9; stroke:none; fill-opacity:0" cx="811.577" cy="120.342" r="2"></circle>
<circle clip-path="url(#clip782)" style="fill:#009af9; stroke:none; fill-opacity:0" cx="859.781" cy="138.261" r="2"></circle>
<circle clip-path="url(#clip782)" style="fill:#009af9; stroke:none; fill-opacity:0" cx="907.985" cy="160.446" r="2"></circle>
<circle clip-path="url(#clip782)" style="fill:#009af9; stroke:none; fill-opacity:0" cx="956.189" cy="137.408" r="2"></circle>
<circle clip-path="url(#clip782)" style="fill:#009af9; stroke:none; fill-opacity:0" cx="1004.39" cy="178.65" r="2"></circle>
<circle clip-path="url(#clip782)" style="fill:#009af9; stroke:none; fill-opacity:0" cx="1052.6" cy="193.724" r="2"></circle>
<circle clip-path="url(#clip782)" style="fill:#009af9; stroke:none; fill-opacity:0" cx="1100.8" cy="172.392" r="2"></circle>
<circle clip-path="url(#clip782)" style="fill:#009af9; stroke:none; fill-opacity:0" cx="1149" cy="212.497" r="2"></circle>
<circle clip-path="url(#clip782)" style="fill:#009af9; stroke:none; fill-opacity:0" cx="1197.21" cy="173.814" r="2"></circle>
<circle clip-path="url(#clip782)" style="fill:#009af9; stroke:none; fill-opacity:0" cx="1245.41" cy="177.796" r="2"></circle>
<circle clip-path="url(#clip782)" style="fill:#009af9; stroke:none; fill-opacity:0" cx="1293.62" cy="1341.96" r="2"></circle>
<circle clip-path="url(#clip782)" style="fill:#009af9; stroke:none; fill-opacity:0" cx="1341.82" cy="1345.37" r="2"></circle>
<circle clip-path="url(#clip782)" style="fill:#009af9; stroke:none; fill-opacity:0" cx="1390.03" cy="1348.22" r="2"></circle>
<circle clip-path="url(#clip782)" style="fill:#009af9; stroke:none; fill-opacity:0" cx="1438.23" cy="1352.2" r="2"></circle>
<circle clip-path="url(#clip782)" style="fill:#009af9; stroke:none; fill-opacity:0" cx="1486.43" cy="1379.5" r="2"></circle>
<circle clip-path="url(#clip782)" style="fill:#009af9; stroke:none; fill-opacity:0" cx="1534.64" cy="1369.83" r="2"></circle>
<circle clip-path="url(#clip782)" style="fill:#009af9; stroke:none; fill-opacity:0" cx="1582.84" cy="1375.81" r="2"></circle>
<circle clip-path="url(#clip782)" style="fill:#009af9; stroke:none; fill-opacity:0" cx="1631.05" cy="1380.07" r="2"></circle>
<circle clip-path="url(#clip782)" style="fill:#009af9; stroke:none; fill-opacity:0" cx="1679.25" cy="1390.03" r="2"></circle>
<circle clip-path="url(#clip782)" style="fill:#009af9; stroke:none; fill-opacity:0" cx="1727.45" cy="1406.81" r="2"></circle>
<circle clip-path="url(#clip782)" style="fill:#009af9; stroke:none; fill-opacity:0" cx="1775.66" cy="1411.93" r="2"></circle>
<circle clip-path="url(#clip782)" style="fill:#009af9; stroke:none; fill-opacity:0" cx="1823.86" cy="1417.05" r="2"></circle>
<circle clip-path="url(#clip782)" style="fill:#009af9; stroke:none; fill-opacity:0" cx="1872.07" cy="1429.56" r="2"></circle>
<circle clip-path="url(#clip782)" style="fill:#009af9; stroke:none; fill-opacity:0" cx="1920.27" cy="1434.4" r="2"></circle>
<circle clip-path="url(#clip782)" style="fill:#009af9; stroke:none; fill-opacity:0" cx="1968.47" cy="1438.38" r="2"></circle>
<circle clip-path="url(#clip782)" style="fill:#009af9; stroke:none; fill-opacity:0" cx="2016.68" cy="1444.35" r="2"></circle>
<circle clip-path="url(#clip782)" style="fill:#009af9; stroke:none; fill-opacity:0" cx="2064.88" cy="1456.58" r="2"></circle>
<circle clip-path="url(#clip782)" style="fill:#009af9; stroke:none; fill-opacity:0" cx="2113.09" cy="1461.99" r="2"></circle>
<circle clip-path="url(#clip782)" style="fill:#009af9; stroke:none; fill-opacity:0" cx="2161.29" cy="1468.24" r="2"></circle>
<circle clip-path="url(#clip782)" style="fill:#009af9; stroke:none; fill-opacity:0" cx="2209.49" cy="1472.8" r="2"></circle>
<polyline clip-path="url(#clip782)" style="stroke:#000000; stroke-linecap:round; stroke-linejoin:round; stroke-width:8; stroke-opacity:1; fill:none" points="247.59,47.2441 268.69,50.3566 392.271,68.5864 449.761,77.0669 526.819,88.4339 590.493,97.8266 649.703,106.561 724.033,117.525 790.706,127.361 867.024,138.618 924.071,147.033 997.035,157.797 1063.63,167.62 1101.53,173.21 1139.42,178.801 1169.46,183.232 1199.51,187.663 1218.17,190.416 1236.83,193.169 1246.16,194.545 1255.49,195.922 1260.15,196.61 1264.82,197.298 1265.99,197.47 1267.15,197.642 1267.74,197.728 1268.32,197.814 1268.9,197.9 1269.49,197.986 1270.07,1335.78 1270.65,1335.87 1271.24,1335.95 1271.82,1336.04 1272.98,1336.21 1274.15,1336.39 1275.94,1336.65 1277.72,1336.91 1279.51,1337.18 1281.3,1337.44 1284.87,1337.97 1288.44,1338.49 1295.59,1339.55 1302.73,1340.6 1317.03,1342.71 1331.32,1344.82 1411.91,1356.71 1472.14,1365.59 1540.63,1375.69 1608.47,1385.7 1683.09,1396.71 1740.09,1405.12 1812.03,1415.73 1878.56,1425.54 1947.17,1435.66 2016.72,1445.92 2089.34,1456.64 2146.54,1465.07 2276.82,1484.29 2291.44,1486.45 "></polyline>
<path clip-path="url(#clip780)" d="M2011.46 250.738 L2280.54 250.738 L2280.54 95.2176 L2011.46 95.2176  Z" fill="#ffffff" fill-rule="evenodd" fill-opacity="1"></path>
<polyline clip-path="url(#clip780)" style="stroke:#000000; stroke-linecap:round; stroke-linejoin:round; stroke-width:4; stroke-opacity:1; fill:none" points="2011.46,250.738 2280.54,250.738 2280.54,95.2176 2011.46,95.2176 2011.46,250.738 "></polyline>
<path clip-path="url(#clip780)" d="M2035.53 167.794 L2179.97 167.794 L2179.97 126.322 L2035.53 126.322 L2035.53 167.794  Z" fill="#009af9" fill-rule="evenodd" fill-opacity="1"></path>
<polyline clip-path="url(#clip780)" style="stroke:#000000; stroke-linecap:round; stroke-linejoin:round; stroke-width:4; stroke-opacity:1; fill:none" points="2035.53,167.794 2179.97,167.794 2179.97,126.322 2035.53,126.322 2035.53,167.794 "></polyline>
<path clip-path="url(#clip780)" d="M2217.88 166.745 Q2216.07 171.375 2214.36 172.787 Q2212.65 174.199 2209.78 174.199 L2206.38 174.199 L2206.38 170.634 L2208.88 170.634 Q2210.63 170.634 2211.61 169.8 Q2212.58 168.967 2213.76 165.865 L2214.52 163.921 L2204.04 138.412 L2208.55 138.412 L2216.65 158.689 L2224.76 138.412 L2229.27 138.412 L2217.88 166.745 Z" fill="#000000" fill-rule="nonzero" fill-opacity="1"></path><path clip-path="url(#clip780)" d="M2236.56 160.402 L2244.2 160.402 L2244.2 134.037 L2235.89 135.703 L2235.89 131.444 L2244.15 129.778 L2248.83 129.778 L2248.83 160.402 L2256.47 160.402 L2256.47 164.338 L2236.56 164.338 L2236.56 160.402 Z" fill="#000000" fill-rule="nonzero" fill-opacity="1"></path><polyline clip-path="url(#clip780)" style="stroke:#000000; stroke-linecap:round; stroke-linejoin:round; stroke-width:8; stroke-opacity:1; fill:none" points="2035.53,198.898 2179.97,198.898 "></polyline>
<path clip-path="url(#clip780)" d="M2217.88 218.585 Q2216.07 223.215 2214.36 224.627 Q2212.65 226.039 2209.78 226.039 L2206.38 226.039 L2206.38 222.474 L2208.88 222.474 Q2210.63 222.474 2211.61 221.64 Q2212.58 220.807 2213.76 217.705 L2214.52 215.761 L2204.04 190.252 L2208.55 190.252 L2216.65 210.529 L2224.76 190.252 L2229.27 190.252 L2217.88 218.585 Z" fill="#000000" fill-rule="nonzero" fill-opacity="1"></path><path clip-path="url(#clip780)" d="M2239.78 212.242 L2256.1 212.242 L2256.1 216.178 L2234.15 216.178 L2234.15 212.242 Q2236.82 209.488 2241.4 204.858 Q2246 200.205 2247.19 198.863 Q2249.43 196.34 2250.31 194.604 Q2251.21 192.844 2251.21 191.155 Q2251.21 188.4 2249.27 186.664 Q2247.35 184.928 2244.25 184.928 Q2242.05 184.928 2239.59 185.692 Q2237.16 186.455 2234.38 188.006 L2234.38 183.284 Q2237.21 182.15 2239.66 181.571 Q2242.12 180.993 2244.15 180.993 Q2249.52 180.993 2252.72 183.678 Q2255.91 186.363 2255.91 190.854 Q2255.91 192.983 2255.1 194.905 Q2254.32 196.803 2252.21 199.395 Q2251.63 200.067 2248.53 203.284 Q2245.43 206.479 2239.78 212.242 Z" fill="#000000" fill-rule="nonzero" fill-opacity="1"></path></svg>