<svg xmlns="http://www.w3.org/2000/svg" xmlns:xlink="http://www.w3.org/1999/xlink" width="600" height="400" viewBox="0 0 2400 1600">
<defs>
  <clipPath id="clip300">
    <rect x="0" y="0" width="2400" height="1600"></rect>
  </clipPath>
</defs>
<path clip-path="url(#clip300)" d="M0 1600 L2400 1600 L2400 0 L0 0  Z" fill="#ffffff" fill-rule="evenodd" fill-opacity="1"></path>
<defs>
  <clipPath id="clip301">
    <rect x="480" y="0" width="1681" height="1600"></rect>
  </clipPath>
</defs>
<path clip-path="url(#clip300)" d="M156.598 1486.45 L2352.76 1486.45 L2352.76 47.2441 L156.598 47.2441  Z" fill="#ffffff" fill-rule="evenodd" fill-opacity="1"></path>
<defs>
  <clipPath id="clip302">
    <rect x="156" y="47" width="2197" height="1440"></rect>
  </clipPath>
</defs>
<polyline clip-path="url(#clip302)" style="stroke:#000000; stroke-linecap:round; stroke-linejoin:round; stroke-width:2; stroke-opacity:0.1; fill:none" points="277.391,1486.45 277.391,47.2441 "></polyline>
<polyline clip-path="url(#clip302)" style="stroke:#000000; stroke-linecap:round; stroke-linejoin:round; stroke-width:2; stroke-opacity:0.1; fill:none" points="603.153,1486.45 603.153,47.2441 "></polyline>
<polyline clip-path="url(#clip302)" style="stroke:#000000; stroke-linecap:round; stroke-linejoin:round; stroke-width:2; stroke-opacity:0.1; fill:none" points="928.915,1486.45 928.915,47.2441 "></polyline>
<polyline clip-path="url(#clip302)" style="stroke:#000000; stroke-linecap:round; stroke-linejoin:round; stroke-width:2; stroke-opacity:0.1; fill:none" points="1254.68,1486.45 1254.68,47.2441 "></polyline>
<polyline clip-path="url(#clip302)" style="stroke:#000000; stroke-linecap:round; stroke-linejoin:round; stroke-width:2; stroke-opacity:0.1; fill:none" points="1580.44,1486.45 1580.44,47.2441 "></polyline>
<polyline clip-path="url(#clip302)" style="stroke:#000000; stroke-linecap:round; stroke-linejoin:round; stroke-width:2; stroke-opacity:0.1; fill:none" points="1906.2,1486.45 1906.2,47.2441 "></polyline>
<polyline clip-path="url(#clip302)" style="stroke:#000000; stroke-linecap:round; stroke-linejoin:round; stroke-width:2; stroke-opacity:0.1; fill:none" points="2231.96,1486.45 2231.96,47.2441 "></polyline>
<polyline clip-path="url(#clip302)" style="stroke:#000000; stroke-linecap:round; stroke-linejoin:round; stroke-width:2; stroke-opacity:0.1; fill:none" points="156.598,1486.45 2352.76,1486.45 "></polyline>
<polyline clip-path="url(#clip302)" style="stroke:#000000; stroke-linecap:round; stroke-linejoin:round; stroke-width:2; stroke-opacity:0.1; fill:none" points="156.598,1236.82 2352.76,1236.82 "></polyline>
<polyline clip-path="url(#clip302)" style="stroke:#000000; stroke-linecap:round; stroke-linejoin:round; stroke-width:2; stroke-opacity:0.1; fill:none" points="156.598,987.192 2352.76,987.192 "></polyline>
<polyline clip-path="url(#clip302)" style="stroke:#000000; stroke-linecap:round; stroke-linejoin:round; stroke-width:2; stroke-opacity:0.1; fill:none" points="156.598,737.565 2352.76,737.565 "></polyline>
<polyline clip-path="url(#clip302)" style="stroke:#000000; stroke-linecap:round; stroke-linejoin:round; stroke-width:2; stroke-opacity:0.1; fill:none" points="156.598,487.937 2352.76,487.937 "></polyline>
<polyline clip-path="url(#clip302)" style="stroke:#000000; stroke-linecap:round; stroke-linejoin:round; stroke-width:2; stroke-opacity:0.1; fill:none" points="156.598,238.309 2352.76,238.309 "></polyline>
<polyline clip-path="url(#clip300)" style="stroke:#000000; stroke-linecap:round; stroke-linejoin:round; stroke-width:4; stroke-opacity:1; fill:none" points="156.598,1486.45 2352.76,1486.45 "></polyline>
<polyline clip-path="url(#clip300)" style="stroke:#000000; stroke-linecap:round; stroke-linejoin:round; stroke-width:4; stroke-opacity:1; fill:none" points="277.391,1486.45 277.391,1467.55 "></polyline>
<polyline clip-path="url(#clip300)" style="stroke:#000000; stroke-linecap:round; stroke-linejoin:round; stroke-width:4; stroke-opacity:1; fill:none" points="603.153,1486.45 603.153,1467.55 "></polyline>
<polyline clip-path="url(#clip300)" style="stroke:#000000; stroke-linecap:round; stroke-linejoin:round; stroke-width:4; stroke-opacity:1; fill:none" points="928.915,1486.45 928.915,1467.55 "></polyline>
<polyline clip-path="url(#clip300)" style="stroke:#000000; stroke-linecap:round; stroke-linejoin:round; stroke-width:4; stroke-opacity:1; fill:none" points="1254.68,1486.45 1254.68,1467.55 "></polyline>
<polyline clip-path="url(#clip300)" style="stroke:#000000; stroke-linecap:round; stroke-linejoin:round; stroke-width:4; stroke-opacity:1; fill:none" points="1580.44,1486.45 1580.44,1467.55 "></polyline>
<polyline clip-path="url(#clip300)" style="stroke:#000000; stroke-linecap:round; stroke-linejoin:round; stroke-width:4; stroke-opacity:1; fill:none" points="1906.2,1486.45 1906.2,1467.55 "></polyline>
<polyline clip-path="url(#clip300)" style="stroke:#000000; stroke-linecap:round; stroke-linejoin:round; stroke-width:4; stroke-opacity:1; fill:none" points="2231.96,1486.45 2231.96,1467.55 "></polyline>
<path clip-path="url(#clip300)" d="M246.859 1532.02 L276.534 1532.02 L276.534 1535.95 L246.859 1535.95 L246.859 1532.02 Z" fill="#000000" fill-rule="nonzero" fill-opacity="1"></path><path clip-path="url(#clip300)" d="M300.793 1530.21 Q304.15 1530.93 306.025 1533.2 Q307.923 1535.47 307.923 1538.8 Q307.923 1543.92 304.405 1546.72 Q300.886 1549.52 294.405 1549.52 Q292.229 1549.52 289.914 1549.08 Q287.622 1548.66 285.169 1547.81 L285.169 1543.29 Q287.113 1544.43 289.428 1545.01 Q291.743 1545.58 294.266 1545.58 Q298.664 1545.58 300.956 1543.85 Q303.27 1542.11 303.27 1538.8 Q303.27 1535.75 301.118 1534.03 Q298.988 1532.3 295.168 1532.3 L291.141 1532.3 L291.141 1528.45 L295.354 1528.45 Q298.803 1528.45 300.631 1527.09 Q302.46 1525.7 302.46 1523.11 Q302.46 1520.45 300.562 1519.03 Q298.687 1517.6 295.168 1517.6 Q293.247 1517.6 291.048 1518.01 Q288.849 1518.43 286.21 1519.31 L286.21 1515.14 Q288.872 1514.4 291.187 1514.03 Q293.525 1513.66 295.585 1513.66 Q300.909 1513.66 304.011 1516.09 Q307.113 1518.5 307.113 1522.62 Q307.113 1525.49 305.469 1527.48 Q303.826 1529.45 300.793 1530.21 Z" fill="#000000" fill-rule="nonzero" fill-opacity="1"></path><path clip-path="url(#clip300)" d="M573.095 1532.02 L602.771 1532.02 L602.771 1535.95 L573.095 1535.95 L573.095 1532.02 Z" fill="#000000" fill-rule="nonzero" fill-opacity="1"></path><path clip-path="url(#clip300)" d="M616.891 1544.91 L633.211 1544.91 L633.211 1548.85 L611.266 1548.85 L611.266 1544.91 Q613.928 1542.16 618.512 1537.53 Q623.118 1532.88 624.299 1531.53 Q626.544 1529.01 627.424 1527.27 Q628.326 1525.51 628.326 1523.82 Q628.326 1521.07 626.382 1519.33 Q624.461 1517.6 621.359 1517.6 Q619.16 1517.6 616.706 1518.36 Q614.276 1519.13 611.498 1520.68 L611.498 1515.95 Q614.322 1514.82 616.776 1514.24 Q619.229 1513.66 621.266 1513.66 Q626.637 1513.66 629.831 1516.35 Q633.025 1519.03 633.025 1523.52 Q633.025 1525.65 632.215 1527.57 Q631.428 1529.47 629.322 1532.07 Q628.743 1532.74 625.641 1535.95 Q622.539 1539.15 616.891 1544.91 Z" fill="#000000" fill-rule="nonzero" fill-opacity="1"></path><path clip-path="url(#clip300)" d="M898.672 1532.02 L928.348 1532.02 L928.348 1535.95 L898.672 1535.95 L898.672 1532.02 Z" fill="#000000" fill-rule="nonzero" fill-opacity="1"></path><path clip-path="url(#clip300)" d="M939.251 1544.91 L946.889 1544.91 L946.889 1518.55 L938.579 1520.21 L938.579 1515.95 L946.843 1514.29 L951.519 1514.29 L951.519 1544.91 L959.158 1544.91 L959.158 1548.85 L939.251 1548.85 L939.251 1544.91 Z" fill="#000000" fill-rule="nonzero" fill-opacity="1"></path><path clip-path="url(#clip300)" d="M1254.68 1517.37 Q1251.07 1517.37 1249.24 1520.93 Q1247.43 1524.47 1247.43 1531.6 Q1247.43 1538.71 1249.24 1542.27 Q1251.07 1545.82 1254.68 1545.82 Q1258.31 1545.82 1260.12 1542.27 Q1261.95 1538.71 1261.95 1531.6 Q1261.95 1524.47 1260.12 1520.93 Q1258.31 1517.37 1254.68 1517.37 M1254.68 1513.66 Q1260.49 1513.66 1263.54 1518.27 Q1266.62 1522.85 1266.62 1531.6 Q1266.62 1540.33 1263.54 1544.94 Q1260.49 1549.52 1254.68 1549.52 Q1248.87 1549.52 1245.79 1544.94 Q1242.73 1540.33 1242.73 1531.6 Q1242.73 1522.85 1245.79 1518.27 Q1248.87 1513.66 1254.68 1513.66 Z" fill="#000000" fill-rule="nonzero" fill-opacity="1"></path><path clip-path="url(#clip300)" d="M1570.82 1544.91 L1578.46 1544.91 L1578.46 1518.55 L1570.15 1520.21 L1570.15 1515.95 L1578.41 1514.29 L1583.09 1514.29 L1583.09 1544.91 L1590.73 1544.91 L1590.73 1548.85 L1570.82 1548.85 L1570.82 1544.91 Z" fill="#000000" fill-rule="nonzero" fill-opacity="1"></path><path clip-path="url(#clip300)" d="M1900.85 1544.91 L1917.17 1544.91 L1917.17 1548.85 L1895.23 1548.85 L1895.23 1544.91 Q1897.89 1542.16 1902.47 1537.53 Q1907.08 1532.88 1908.26 1531.53 Q1910.51 1529.01 1911.39 1527.27 Q1912.29 1525.51 1912.29 1523.82 Q1912.29 1521.07 1910.34 1519.33 Q1908.42 1517.6 1905.32 1517.6 Q1903.12 1517.6 1900.67 1518.36 Q1898.24 1519.13 1895.46 1520.68 L1895.46 1515.95 Q1898.28 1514.82 1900.74 1514.24 Q1903.19 1513.66 1905.23 1513.66 Q1910.6 1513.66 1913.79 1516.35 Q1916.99 1519.03 1916.99 1523.52 Q1916.99 1525.65 1916.18 1527.57 Q1915.39 1529.47 1913.28 1532.07 Q1912.71 1532.74 1909.6 1535.95 Q1906.5 1539.15 1900.85 1544.91 Z" fill="#000000" fill-rule="nonzero" fill-opacity="1"></path><path clip-path="url(#clip300)" d="M2236.21 1530.21 Q2239.57 1530.93 2241.44 1533.2 Q2243.34 1535.47 2243.34 1538.8 Q2243.34 1543.92 2239.82 1546.72 Q2236.3 1549.52 2229.82 1549.52 Q2227.65 1549.52 2225.33 1549.08 Q2223.04 1548.66 2220.59 1547.81 L2220.59 1543.29 Q2222.53 1544.43 2224.85 1545.01 Q2227.16 1545.58 2229.68 1545.58 Q2234.08 1545.58 2236.37 1543.85 Q2238.69 1542.11 2238.69 1538.8 Q2238.69 1535.75 2236.54 1534.03 Q2234.41 1532.3 2230.59 1532.3 L2226.56 1532.3 L2226.56 1528.45 L2230.77 1528.45 Q2234.22 1528.45 2236.05 1527.09 Q2237.88 1525.7 2237.88 1523.11 Q2237.88 1520.45 2235.98 1519.03 Q2234.1 1517.6 2230.59 1517.6 Q2228.66 1517.6 2226.47 1518.01 Q2224.27 1518.43 2221.63 1519.31 L2221.63 1515.14 Q2224.29 1514.4 2226.6 1514.03 Q2228.94 1513.66 2231 1513.66 Q2236.33 1513.66 2239.43 1516.09 Q2242.53 1518.5 2242.53 1522.62 Q2242.53 1525.49 2240.89 1527.48 Q2239.24 1529.45 2236.21 1530.21 Z" fill="#000000" fill-rule="nonzero" fill-opacity="1"></path><polyline clip-path="url(#clip300)" style="stroke:#000000; stroke-linecap:round; stroke-linejoin:round; stroke-width:4; stroke-opacity:1; fill:none" points="156.598,1486.45 156.598,47.2441 "></polyline>
<polyline clip-path="url(#clip300)" style="stroke:#000000; stroke-linecap:round; stroke-linejoin:round; stroke-width:4; stroke-opacity:1; fill:none" points="156.598,1486.45 175.496,1486.45 "></polyline>
<polyline clip-path="url(#clip300)" style="stroke:#000000; stroke-linecap:round; stroke-linejoin:round; stroke-width:4; stroke-opacity:1; fill:none" points="156.598,1236.82 175.496,1236.82 "></polyline>
<polyline clip-path="url(#clip300)" style="stroke:#000000; stroke-linecap:round; stroke-linejoin:round; stroke-width:4; stroke-opacity:1; fill:none" points="156.598,987.192 175.496,987.192 "></polyline>
<polyline clip-path="url(#clip300)" style="stroke:#000000; stroke-linecap:round; stroke-linejoin:round; stroke-width:4; stroke-opacity:1; fill:none" points="156.598,737.565 175.496,737.565 "></polyline>
<polyline clip-path="url(#clip300)" style="stroke:#000000; stroke-linecap:round; stroke-linejoin:round; stroke-width:4; stroke-opacity:1; fill:none" points="156.598,487.937 175.496,487.937 "></polyline>
<polyline clip-path="url(#clip300)" style="stroke:#000000; stroke-linecap:round; stroke-linejoin:round; stroke-width:4; stroke-opacity:1; fill:none" points="156.598,238.309 175.496,238.309 "></polyline>
<path clip-path="url(#clip300)" d="M63.4226 1472.25 Q59.8115 1472.25 57.9828 1475.81 Q56.1773 1479.35 56.1773 1486.48 Q56.1773 1493.59 57.9828 1497.15 Q59.8115 1500.7 63.4226 1500.7 Q67.0569 1500.7 68.8624 1497.15 Q70.6911 1493.59 70.6911 1486.48 Q70.6911 1479.35 68.8624 1475.81 Q67.0569 1472.25 63.4226 1472.25 M63.4226 1468.54 Q69.2328 1468.54 72.2883 1473.15 Q75.367 1477.73 75.367 1486.48 Q75.367 1495.21 72.2883 1499.82 Q69.2328 1504.4 63.4226 1504.4 Q57.6125 1504.4 54.5338 1499.82 Q51.4782 1495.21 51.4782 1486.48 Q51.4782 1477.73 54.5338 1473.15 Q57.6125 1468.54 63.4226 1468.54 Z" fill="#000000" fill-rule="nonzero" fill-opacity="1"></path><path clip-path="url(#clip300)" d="M83.5845 1497.85 L88.4688 1497.85 L88.4688 1503.73 L83.5845 1503.73 L83.5845 1497.85 Z" fill="#000000" fill-rule="nonzero" fill-opacity="1"></path><path clip-path="url(#clip300)" d="M108.654 1472.25 Q105.043 1472.25 103.214 1475.81 Q101.409 1479.35 101.409 1486.48 Q101.409 1493.59 103.214 1497.15 Q105.043 1500.7 108.654 1500.7 Q112.288 1500.7 114.094 1497.15 Q115.922 1493.59 115.922 1486.48 Q115.922 1479.35 114.094 1475.81 Q112.288 1472.25 108.654 1472.25 M108.654 1468.54 Q114.464 1468.54 117.52 1473.15 Q120.598 1477.73 120.598 1486.48 Q120.598 1495.21 117.52 1499.82 Q114.464 1504.4 108.654 1504.4 Q102.844 1504.4 99.765 1499.82 Q96.7095 1495.21 96.7095 1486.48 Q96.7095 1477.73 99.765 1473.15 Q102.844 1468.54 108.654 1468.54 Z" fill="#000000" fill-rule="nonzero" fill-opacity="1"></path><path clip-path="url(#clip300)" d="M64.6495 1222.62 Q61.0384 1222.62 59.2097 1226.18 Q57.4041 1229.73 57.4041 1236.85 Q57.4041 1243.96 59.2097 1247.53 Q61.0384 1251.07 64.6495 1251.07 Q68.2837 1251.07 70.0892 1247.53 Q71.9179 1243.96 71.9179 1236.85 Q71.9179 1229.73 70.0892 1226.18 Q68.2837 1222.62 64.6495 1222.62 M64.6495 1218.92 Q70.4596 1218.92 73.5152 1223.52 Q76.5938 1228.1 76.5938 1236.85 Q76.5938 1245.58 73.5152 1250.19 Q70.4596 1254.77 64.6495 1254.77 Q58.8393 1254.77 55.7606 1250.19 Q52.7051 1245.58 52.7051 1236.85 Q52.7051 1228.1 55.7606 1223.52 Q58.8393 1218.92 64.6495 1218.92 Z" fill="#000000" fill-rule="nonzero" fill-opacity="1"></path><path clip-path="url(#clip300)" d="M84.8114 1248.22 L89.6956 1248.22 L89.6956 1254.1 L84.8114 1254.1 L84.8114 1248.22 Z" fill="#000000" fill-rule="nonzero" fill-opacity="1"></path><path clip-path="url(#clip300)" d="M100.691 1250.16 L108.33 1250.16 L108.33 1223.8 L100.02 1225.47 L100.02 1221.21 L108.283 1219.54 L112.959 1219.54 L112.959 1250.16 L120.598 1250.16 L120.598 1254.1 L100.691 1254.1 L100.691 1250.16 Z" fill="#000000" fill-rule="nonzero" fill-opacity="1"></path><path clip-path="url(#clip300)" d="M65.0198 972.991 Q61.4087 972.991 59.58 976.556 Q57.7745 980.098 57.7745 987.227 Q57.7745 994.334 59.58 997.898 Q61.4087 1001.44 65.0198 1001.44 Q68.6541 1001.44 70.4596 997.898 Q72.2883 994.334 72.2883 987.227 Q72.2883 980.098 70.4596 976.556 Q68.6541 972.991 65.0198 972.991 M65.0198 969.287 Q70.83 969.287 73.8855 973.894 Q76.9642 978.477 76.9642 987.227 Q76.9642 995.954 73.8855 1000.56 Q70.83 1005.14 65.0198 1005.14 Q59.2097 1005.14 56.131 1000.56 Q53.0754 995.954 53.0754 987.227 Q53.0754 978.477 56.131 973.894 Q59.2097 969.287 65.0198 969.287 Z" fill="#000000" fill-rule="nonzero" fill-opacity="1"></path><path clip-path="url(#clip300)" d="M85.1818 998.593 L90.066 998.593 L90.066 1004.47 L85.1818 1004.47 L85.1818 998.593 Z" fill="#000000" fill-rule="nonzero" fill-opacity="1"></path><path clip-path="url(#clip300)" d="M104.279 1000.54 L120.598 1000.54 L120.598 1004.47 L98.6539 1004.47 L98.6539 1000.54 Q101.316 997.783 105.899 993.153 Q110.506 988.5 111.686 987.158 Q113.932 984.635 114.811 982.898 Q115.714 981.139 115.714 979.449 Q115.714 976.695 113.77 974.959 Q111.848 973.223 108.746 973.223 Q106.547 973.223 104.094 973.986 Q101.663 974.75 98.8854 976.301 L98.8854 971.579 Q101.709 970.445 104.163 969.866 Q106.617 969.287 108.654 969.287 Q114.024 969.287 117.219 971.973 Q120.413 974.658 120.413 979.148 Q120.413 981.278 119.603 983.199 Q118.816 985.097 116.709 987.69 Q116.131 988.361 113.029 991.579 Q109.927 994.773 104.279 1000.54 Z" fill="#000000" fill-rule="nonzero" fill-opacity="1"></path><path clip-path="url(#clip300)" d="M64.0708 723.363 Q60.4597 723.363 58.631 726.928 Q56.8254 730.47 56.8254 737.599 Q56.8254 744.706 58.631 748.271 Q60.4597 751.812 64.0708 751.812 Q67.705 751.812 69.5105 748.271 Q71.3392 744.706 71.3392 737.599 Q71.3392 730.47 69.5105 726.928 Q67.705 723.363 64.0708 723.363 M64.0708 719.66 Q69.8809 719.66 72.9365 724.266 Q76.0151 728.849 76.0151 737.599 Q76.0151 746.326 72.9365 750.933 Q69.8809 755.516 64.0708 755.516 Q58.2606 755.516 55.1819 750.933 Q52.1264 746.326 52.1264 737.599 Q52.1264 728.849 55.1819 724.266 Q58.2606 719.66 64.0708 719.66 Z" fill="#000000" fill-rule="nonzero" fill-opacity="1"></path><path clip-path="url(#clip300)" d="M84.2327 748.965 L89.1169 748.965 L89.1169 754.845 L84.2327 754.845 L84.2327 748.965 Z" fill="#000000" fill-rule="nonzero" fill-opacity="1"></path><path clip-path="url(#clip300)" d="M113.469 736.21 Q116.825 736.928 118.7 739.197 Q120.598 741.465 120.598 744.798 Q120.598 749.914 117.08 752.715 Q113.561 755.516 107.08 755.516 Q104.904 755.516 102.589 755.076 Q100.297 754.659 97.8437 753.803 L97.8437 749.289 Q99.7882 750.423 102.103 751.002 Q104.418 751.581 106.941 751.581 Q111.339 751.581 113.631 749.845 Q115.945 748.109 115.945 744.798 Q115.945 741.743 113.793 740.03 Q111.663 738.294 107.844 738.294 L103.816 738.294 L103.816 734.451 L108.029 734.451 Q111.478 734.451 113.307 733.086 Q115.135 731.697 115.135 729.104 Q115.135 726.442 113.237 725.03 Q111.362 723.595 107.844 723.595 Q105.922 723.595 103.723 724.011 Q101.524 724.428 98.8854 725.308 L98.8854 721.141 Q101.547 720.4 103.862 720.03 Q106.2 719.66 108.26 719.66 Q113.584 719.66 116.686 722.09 Q119.788 724.498 119.788 728.618 Q119.788 731.488 118.145 733.479 Q116.501 735.447 113.469 736.21 Z" fill="#000000" fill-rule="nonzero" fill-opacity="1"></path><path clip-path="url(#clip300)" d="M62.9365 473.736 Q59.3254 473.736 57.4967 477.3 Q55.6912 480.842 55.6912 487.972 Q55.6912 495.078 57.4967 498.643 Q59.3254 502.185 62.9365 502.185 Q66.5707 502.185 68.3763 498.643 Q70.205 495.078 70.205 487.972 Q70.205 480.842 68.3763 477.3 Q66.5707 473.736 62.9365 473.736 M62.9365 470.032 Q68.7467 470.032 71.8022 474.638 Q74.8809 479.222 74.8809 487.972 Q74.8809 496.698 71.8022 501.305 Q68.7467 505.888 62.9365 505.888 Q57.1264 505.888 54.0477 501.305 Q50.9921 496.698 50.9921 487.972 Q50.9921 479.222 54.0477 474.638 Q57.1264 470.032 62.9365 470.032 Z" fill="#000000" fill-rule="nonzero" fill-opacity="1"></path><path clip-path="url(#clip300)" d="M83.0984 499.337 L87.9827 499.337 L87.9827 505.217 L83.0984 505.217 L83.0984 499.337 Z" fill="#000000" fill-rule="nonzero" fill-opacity="1"></path><path clip-path="url(#clip300)" d="M111.015 474.731 L99.2095 493.18 L111.015 493.18 L111.015 474.731 M109.788 470.657 L115.668 470.657 L115.668 493.18 L120.598 493.18 L120.598 497.069 L115.668 497.069 L115.668 505.217 L111.015 505.217 L111.015 497.069 L95.4132 497.069 L95.4132 492.555 L109.788 470.657 Z" fill="#000000" fill-rule="nonzero" fill-opacity="1"></path><path clip-path="url(#clip300)" d="M64.418 224.108 Q60.8069 224.108 58.9782 227.673 Q57.1726 231.214 57.1726 238.344 Q57.1726 245.45 58.9782 249.015 Q60.8069 252.557 64.418 252.557 Q68.0522 252.557 69.8578 249.015 Q71.6865 245.45 71.6865 238.344 Q71.6865 231.214 69.8578 227.673 Q68.0522 224.108 64.418 224.108 M64.418 220.404 Q70.2281 220.404 73.2837 225.011 Q76.3624 229.594 76.3624 238.344 Q76.3624 247.071 73.2837 251.677 Q70.2281 256.26 64.418 256.26 Q58.6078 256.26 55.5291 251.677 Q52.4736 247.071 52.4736 238.344 Q52.4736 229.594 55.5291 225.011 Q58.6078 220.404 64.418 220.404 Z" fill="#000000" fill-rule="nonzero" fill-opacity="1"></path><path clip-path="url(#clip300)" d="M84.5799 249.71 L89.4641 249.71 L89.4641 255.589 L84.5799 255.589 L84.5799 249.71 Z" fill="#000000" fill-rule="nonzero" fill-opacity="1"></path><path clip-path="url(#clip300)" d="M99.6956 221.029 L118.052 221.029 L118.052 224.964 L103.978 224.964 L103.978 233.437 Q104.996 233.089 106.015 232.927 Q107.033 232.742 108.052 232.742 Q113.839 232.742 117.219 235.913 Q120.598 239.085 120.598 244.501 Q120.598 250.08 117.126 253.182 Q113.654 256.26 107.334 256.26 Q105.159 256.26 102.89 255.89 Q100.645 255.52 98.2372 254.779 L98.2372 250.08 Q100.321 251.214 102.543 251.77 Q104.765 252.325 107.242 252.325 Q111.246 252.325 113.584 250.219 Q115.922 248.112 115.922 244.501 Q115.922 240.89 113.584 238.784 Q111.246 236.677 107.242 236.677 Q105.367 236.677 103.492 237.094 Q101.64 237.511 99.6956 238.39 L99.6956 221.029 Z" fill="#000000" fill-rule="nonzero" fill-opacity="1"></path><path clip-path="url(#clip302)" d="M277.391 1476.36 L277.391 1486.45 L293.679 1486.45 L293.679 1476.36 L277.391 1476.36 L277.391 1476.36  Z" fill="#009af9" fill-rule="evenodd" fill-opacity="1"></path>
<polyline clip-path="url(#clip302)" style="stroke:#000000; stroke-linecap:round; stroke-linejoin:round; stroke-width:4; stroke-opacity:1; fill:none" points="277.391,1476.36 277.391,1486.45 293.679,1486.45 293.679,1476.36 277.391,1476.36 "></polyline>
<path clip-path="url(#clip302)" d="M293.679 1476.26 L293.679 1486.45 L309.967 1486.45 L309.967 1476.26 L293.679 1476.26 L293.679 1476.26  Z" fill="#009af9" fill-rule="evenodd" fill-opacity="1"></path>
<polyline clip-path="url(#clip302)" style="stroke:#000000; stroke-linecap:round; stroke-linejoin:round; stroke-width:4; stroke-opacity:1; fill:none" points="293.679,1476.26 293.679,1486.45 309.967,1486.45 309.967,1476.26 293.679,1476.26 "></polyline>
<path clip-path="url(#clip302)" d="M309.967 1474.02 L309.967 1486.45 L326.255 1486.45 L326.255 1474.02 L309.967 1474.02 L309.967 1474.02  Z" fill="#009af9" fill-rule="evenodd" fill-opacity="1"></path>
<polyline clip-path="url(#clip302)" style="stroke:#000000; stroke-linecap:round; stroke-linejoin:round; stroke-width:4; stroke-opacity:1; fill:none" points="309.967,1474.02 309.967,1486.45 326.255,1486.45 326.255,1474.02 309.967,1474.02 "></polyline>
<path clip-path="url(#clip302)" d="M326.255 1473.47 L326.255 1486.45 L342.543 1486.45 L342.543 1473.47 L326.255 1473.47 L326.255 1473.47  Z" fill="#009af9" fill-rule="evenodd" fill-opacity="1"></path>
<polyline clip-path="url(#clip302)" style="stroke:#000000; stroke-linecap:round; stroke-linejoin:round; stroke-width:4; stroke-opacity:1; fill:none" points="326.255,1473.47 326.255,1486.45 342.543,1486.45 342.543,1473.47 326.255,1473.47 "></polyline>
<path clip-path="url(#clip302)" d="M342.543 1468.18 L342.543 1486.45 L358.831 1486.45 L358.831 1468.18 L342.543 1468.18 L342.543 1468.18  Z" fill="#009af9" fill-rule="evenodd" fill-opacity="1"></path>
<polyline clip-path="url(#clip302)" style="stroke:#000000; stroke-linecap:round; stroke-linejoin:round; stroke-width:4; stroke-opacity:1; fill:none" points="342.543,1468.18 342.543,1486.45 358.831,1486.45 358.831,1468.18 342.543,1468.18 "></polyline>
<path clip-path="url(#clip302)" d="M358.831 1460.94 L358.831 1486.45 L375.119 1486.45 L375.119 1460.94 L358.831 1460.94 L358.831 1460.94  Z" fill="#009af9" fill-rule="evenodd" fill-opacity="1"></path>
<polyline clip-path="url(#clip302)" style="stroke:#000000; stroke-linecap:round; stroke-linejoin:round; stroke-width:4; stroke-opacity:1; fill:none" points="358.831,1460.94 358.831,1486.45 375.119,1486.45 375.119,1460.94 358.831,1460.94 "></polyline>
<path clip-path="url(#clip302)" d="M375.119 1450.6 L375.119 1486.45 L391.408 1486.45 L391.408 1450.6 L375.119 1450.6 L375.119 1450.6  Z" fill="#009af9" fill-rule="evenodd" fill-opacity="1"></path>
<polyline clip-path="url(#clip302)" style="stroke:#000000; stroke-linecap:round; stroke-linejoin:round; stroke-width:4; stroke-opacity:1; fill:none" points="375.119,1450.6 375.119,1486.45 391.408,1486.45 391.408,1450.6 375.119,1450.6 "></polyline>
<path clip-path="url(#clip302)" d="M391.408 1436.02 L391.408 1486.45 L407.696 1486.45 L407.696 1436.02 L391.408 1436.02 L391.408 1436.02  Z" fill="#009af9" fill-rule="evenodd" fill-opacity="1"></path>
<polyline clip-path="url(#clip302)" style="stroke:#000000; stroke-linecap:round; stroke-linejoin:round; stroke-width:4; stroke-opacity:1; fill:none" points="391.408,1436.02 391.408,1486.45 407.696,1486.45 407.696,1436.02 391.408,1436.02 "></polyline>
<path clip-path="url(#clip302)" d="M407.696 1426.84 L407.696 1486.45 L423.984 1486.45 L423.984 1426.84 L407.696 1426.84 L407.696 1426.84  Z" fill="#009af9" fill-rule="evenodd" fill-opacity="1"></path>
<polyline clip-path="url(#clip302)" style="stroke:#000000; stroke-linecap:round; stroke-linejoin:round; stroke-width:4; stroke-opacity:1; fill:none" points="407.696,1426.84 407.696,1486.45 423.984,1486.45 423.984,1426.84 407.696,1426.84 "></polyline>
<path clip-path="url(#clip302)" d="M423.984 1416.35 L423.984 1486.45 L440.272 1486.45 L440.272 1416.35 L423.984 1416.35 L423.984 1416.35  Z" fill="#009af9" fill-rule="evenodd" fill-opacity="1"></path>
<polyline clip-path="url(#clip302)" style="stroke:#000000; stroke-linecap:round; stroke-linejoin:round; stroke-width:4; stroke-opacity:1; fill:none" points="423.984,1416.35 423.984,1486.45 440.272,1486.45 440.272,1416.35 423.984,1416.35 "></polyline>
<path clip-path="url(#clip302)" d="M440.272 1412.21 L440.272 1486.45 L456.56 1486.45 L456.56 1412.21 L440.272 1412.21 L440.272 1412.21  Z" fill="#009af9" fill-rule="evenodd" fill-opacity="1"></path>
<polyline clip-path="url(#clip302)" style="stroke:#000000; stroke-linecap:round; stroke-linejoin:round; stroke-width:4; stroke-opacity:1; fill:none" points="440.272,1412.21 440.272,1486.45 456.56,1486.45 456.56,1412.21 440.272,1412.21 "></polyline>
<path clip-path="url(#clip302)" d="M456.56 1416.95 L456.56 1486.45 L472.848 1486.45 L472.848 1416.95 L456.56 1416.95 L456.56 1416.95  Z" fill="#009af9" fill-rule="evenodd" fill-opacity="1"></path>
<polyline clip-path="url(#clip302)" style="stroke:#000000; stroke-linecap:round; stroke-linejoin:round; stroke-width:4; stroke-opacity:1; fill:none" points="456.56,1416.95 456.56,1486.45 472.848,1486.45 472.848,1416.95 456.56,1416.95 "></polyline>
<path clip-path="url(#clip302)" d="M472.848 1417 L472.848 1486.45 L489.136 1486.45 L489.136 1417 L472.848 1417 L472.848 1417  Z" fill="#009af9" fill-rule="evenodd" fill-opacity="1"></path>
<polyline clip-path="url(#clip302)" style="stroke:#000000; stroke-linecap:round; stroke-linejoin:round; stroke-width:4; stroke-opacity:1; fill:none" points="472.848,1417 472.848,1486.45 489.136,1486.45 489.136,1417 472.848,1417 "></polyline>
<path clip-path="url(#clip302)" d="M489.136 1430.18 L489.136 1486.45 L505.424 1486.45 L505.424 1430.18 L489.136 1430.18 L489.136 1430.18  Z" fill="#009af9" fill-rule="evenodd" fill-opacity="1"></path>
<polyline clip-path="url(#clip302)" style="stroke:#000000; stroke-linecap:round; stroke-linejoin:round; stroke-width:4; stroke-opacity:1; fill:none" points="489.136,1430.18 489.136,1486.45 505.424,1486.45 505.424,1430.18 489.136,1430.18 "></polyline>
<path clip-path="url(#clip302)" d="M505.424 1436.22 L505.424 1486.45 L521.712 1486.45 L521.712 1436.22 L505.424 1436.22 L505.424 1436.22  Z" fill="#009af9" fill-rule="evenodd" fill-opacity="1"></path>
<polyline clip-path="url(#clip302)" style="stroke:#000000; stroke-linecap:round; stroke-linejoin:round; stroke-width:4; stroke-opacity:1; fill:none" points="505.424,1436.22 505.424,1486.45 521.712,1486.45 521.712,1436.22 505.424,1436.22 "></polyline>
<path clip-path="url(#clip302)" d="M521.712 1444.26 L521.712 1486.45 L538 1486.45 L538 1444.26 L521.712 1444.26 L521.712 1444.26  Z" fill="#009af9" fill-rule="evenodd" fill-opacity="1"></path>
<polyline clip-path="url(#clip302)" style="stroke:#000000; stroke-linecap:round; stroke-linejoin:round; stroke-width:4; stroke-opacity:1; fill:none" points="521.712,1444.26 521.712,1486.45 538,1486.45 538,1444.26 521.712,1444.26 "></polyline>
<path clip-path="url(#clip302)" d="M538 1441.17 L538 1486.45 L554.289 1486.45 L554.289 1441.17 L538 1441.17 L538 1441.17  Z" fill="#009af9" fill-rule="evenodd" fill-opacity="1"></path>
<polyline clip-path="url(#clip302)" style="stroke:#000000; stroke-linecap:round; stroke-linejoin:round; stroke-width:4; stroke-opacity:1; fill:none" points="538,1441.17 538,1486.45 554.289,1486.45 554.289,1441.17 538,1441.17 "></polyline>
<path clip-path="url(#clip302)" d="M554.289 1434.33 L554.289 1486.45 L570.577 1486.45 L570.577 1434.33 L554.289 1434.33 L554.289 1434.33  Z" fill="#009af9" fill-rule="evenodd" fill-opacity="1"></path>
<polyline clip-path="url(#clip302)" style="stroke:#000000; stroke-linecap:round; stroke-linejoin:round; stroke-width:4; stroke-opacity:1; fill:none" points="554.289,1434.33 554.289,1486.45 570.577,1486.45 570.577,1434.33 554.289,1434.33 "></polyline>
<path clip-path="url(#clip302)" d="M570.577 1413.11 L570.577 1486.45 L586.865 1486.45 L586.865 1413.11 L570.577 1413.11 L570.577 1413.11  Z" fill="#009af9" fill-rule="evenodd" fill-opacity="1"></path>
<polyline clip-path="url(#clip302)" style="stroke:#000000; stroke-linecap:round; stroke-linejoin:round; stroke-width:4; stroke-opacity:1; fill:none" points="570.577,1413.11 570.577,1486.45 586.865,1486.45 586.865,1413.11 570.577,1413.11 "></polyline>
<path clip-path="url(#clip302)" d="M586.865 1389.59 L586.865 1486.45 L603.153 1486.45 L603.153 1389.59 L586.865 1389.59 L586.865 1389.59  Z" fill="#009af9" fill-rule="evenodd" fill-opacity="1"></path>
<polyline clip-path="url(#clip302)" style="stroke:#000000; stroke-linecap:round; stroke-linejoin:round; stroke-width:4; stroke-opacity:1; fill:none" points="586.865,1389.59 586.865,1486.45 603.153,1486.45 603.153,1389.59 586.865,1389.59 "></polyline>
<path clip-path="url(#clip302)" d="M603.153 1357.04 L603.153 1486.45 L619.441 1486.45 L619.441 1357.04 L603.153 1357.04 L603.153 1357.04  Z" fill="#009af9" fill-rule="evenodd" fill-opacity="1"></path>
<polyline clip-path="url(#clip302)" style="stroke:#000000; stroke-linecap:round; stroke-linejoin:round; stroke-width:4; stroke-opacity:1; fill:none" points="603.153,1357.04 603.153,1486.45 619.441,1486.45 619.441,1357.04 603.153,1357.04 "></polyline>
<path clip-path="url(#clip302)" d="M619.441 1312.51 L619.441 1486.45 L635.729 1486.45 L635.729 1312.51 L619.441 1312.51 L619.441 1312.51  Z" fill="#009af9" fill-rule="evenodd" fill-opacity="1"></path>
<polyline clip-path="url(#clip302)" style="stroke:#000000; stroke-linecap:round; stroke-linejoin:round; stroke-width:4; stroke-opacity:1; fill:none" points="619.441,1312.51 619.441,1486.45 635.729,1486.45 635.729,1312.51 619.441,1312.51 "></polyline>
<path clip-path="url(#clip302)" d="M635.729 1278.81 L635.729 1486.45 L652.017 1486.45 L652.017 1278.81 L635.729 1278.81 L635.729 1278.81  Z" fill="#009af9" fill-rule="evenodd" fill-opacity="1"></path>
<polyline clip-path="url(#clip302)" style="stroke:#000000; stroke-linecap:round; stroke-linejoin:round; stroke-width:4; stroke-opacity:1; fill:none" points="635.729,1278.81 635.729,1486.45 652.017,1486.45 652.017,1278.81 635.729,1278.81 "></polyline>
<path clip-path="url(#clip302)" d="M652.017 1246.26 L652.017 1486.45 L668.305 1486.45 L668.305 1246.26 L652.017 1246.26 L652.017 1246.26  Z" fill="#009af9" fill-rule="evenodd" fill-opacity="1"></path>
<polyline clip-path="url(#clip302)" style="stroke:#000000; stroke-linecap:round; stroke-linejoin:round; stroke-width:4; stroke-opacity:1; fill:none" points="652.017,1246.26 652.017,1486.45 668.305,1486.45 668.305,1246.26 652.017,1246.26 "></polyline>
<path clip-path="url(#clip302)" d="M668.305 1220 L668.305 1486.45 L684.593 1486.45 L684.593 1220 L668.305 1220 L668.305 1220  Z" fill="#009af9" fill-rule="evenodd" fill-opacity="1"></path>
<polyline clip-path="url(#clip302)" style="stroke:#000000; stroke-linecap:round; stroke-linejoin:round; stroke-width:4; stroke-opacity:1; fill:none" points="668.305,1220 668.305,1486.45 684.593,1486.45 684.593,1220 668.305,1220 "></polyline>
<path clip-path="url(#clip302)" d="M684.593 1222.59 L684.593 1486.45 L700.882 1486.45 L700.882 1222.59 L684.593 1222.59 L684.593 1222.59  Z" fill="#009af9" fill-rule="evenodd" fill-opacity="1"></path>
<polyline clip-path="url(#clip302)" style="stroke:#000000; stroke-linecap:round; stroke-linejoin:round; stroke-width:4; stroke-opacity:1; fill:none" points="684.593,1222.59 684.593,1486.45 700.882,1486.45 700.882,1222.59 684.593,1222.59 "></polyline>
<path clip-path="url(#clip302)" d="M700.882 1222.24 L700.882 1486.45 L717.17 1486.45 L717.17 1222.24 L700.882 1222.24 L700.882 1222.24  Z" fill="#009af9" fill-rule="evenodd" fill-opacity="1"></path>
<polyline clip-path="url(#clip302)" style="stroke:#000000; stroke-linecap:round; stroke-linejoin:round; stroke-width:4; stroke-opacity:1; fill:none" points="700.882,1222.24 700.882,1486.45 717.17,1486.45 717.17,1222.24 700.882,1222.24 "></polyline>
<path clip-path="url(#clip302)" d="M717.17 1232.33 L717.17 1486.45 L733.458 1486.45 L733.458 1232.33 L717.17 1232.33 L717.17 1232.33  Z" fill="#009af9" fill-rule="evenodd" fill-opacity="1"></path>
<polyline clip-path="url(#clip302)" style="stroke:#000000; stroke-linecap:round; stroke-linejoin:round; stroke-width:4; stroke-opacity:1; fill:none" points="717.17,1232.33 717.17,1486.45 733.458,1486.45 733.458,1232.33 717.17,1232.33 "></polyline>
<path clip-path="url(#clip302)" d="M733.458 1235.87 L733.458 1486.45 L749.746 1486.45 L749.746 1235.87 L733.458 1235.87 L733.458 1235.87  Z" fill="#009af9" fill-rule="evenodd" fill-opacity="1"></path>
<polyline clip-path="url(#clip302)" style="stroke:#000000; stroke-linecap:round; stroke-linejoin:round; stroke-width:4; stroke-opacity:1; fill:none" points="733.458,1235.87 733.458,1486.45 749.746,1486.45 749.746,1235.87 733.458,1235.87 "></polyline>
<path clip-path="url(#clip302)" d="M749.746 1193.98 L749.746 1486.45 L766.034 1486.45 L766.034 1193.98 L749.746 1193.98 L749.746 1193.98  Z" fill="#009af9" fill-rule="evenodd" fill-opacity="1"></path>
<polyline clip-path="url(#clip302)" style="stroke:#000000; stroke-linecap:round; stroke-linejoin:round; stroke-width:4; stroke-opacity:1; fill:none" points="749.746,1193.98 749.746,1486.45 766.034,1486.45 766.034,1193.98 749.746,1193.98 "></polyline>
<path clip-path="url(#clip302)" d="M766.034 1140.31 L766.034 1486.45 L782.322 1486.45 L782.322 1140.31 L766.034 1140.31 L766.034 1140.31  Z" fill="#009af9" fill-rule="evenodd" fill-opacity="1"></path>
<polyline clip-path="url(#clip302)" style="stroke:#000000; stroke-linecap:round; stroke-linejoin:round; stroke-width:4; stroke-opacity:1; fill:none" points="766.034,1140.31 766.034,1486.45 782.322,1486.45 782.322,1140.31 766.034,1140.31 "></polyline>
<path clip-path="url(#clip302)" d="M782.322 1061.78 L782.322 1486.45 L798.61 1486.45 L798.61 1061.78 L782.322 1061.78 L782.322 1061.78  Z" fill="#009af9" fill-rule="evenodd" fill-opacity="1"></path>
<polyline clip-path="url(#clip302)" style="stroke:#000000; stroke-linecap:round; stroke-linejoin:round; stroke-width:4; stroke-opacity:1; fill:none" points="782.322,1061.78 782.322,1486.45 798.61,1486.45 798.61,1061.78 782.322,1061.78 "></polyline>
<path clip-path="url(#clip302)" d="M798.61 996.878 L798.61 1486.45 L814.898 1486.45 L814.898 996.878 L798.61 996.878 L798.61 996.878  Z" fill="#009af9" fill-rule="evenodd" fill-opacity="1"></path>
<polyline clip-path="url(#clip302)" style="stroke:#000000; stroke-linecap:round; stroke-linejoin:round; stroke-width:4; stroke-opacity:1; fill:none" points="798.61,996.878 798.61,1486.45 814.898,1486.45 814.898,996.878 798.61,996.878 "></polyline>
<path clip-path="url(#clip302)" d="M814.898 949.648 L814.898 1486.45 L831.186 1486.45 L831.186 949.648 L814.898 949.648 L814.898 949.648  Z" fill="#009af9" fill-rule="evenodd" fill-opacity="1"></path>
<polyline clip-path="url(#clip302)" style="stroke:#000000; stroke-linecap:round; stroke-linejoin:round; stroke-width:4; stroke-opacity:1; fill:none" points="814.898,949.648 814.898,1486.45 831.186,1486.45 831.186,949.648 814.898,949.648 "></polyline>
<path clip-path="url(#clip302)" d="M831.186 938.016 L831.186 1486.45 L847.474 1486.45 L847.474 938.016 L831.186 938.016 L831.186 938.016  Z" fill="#009af9" fill-rule="evenodd" fill-opacity="1"></path>
<polyline clip-path="url(#clip302)" style="stroke:#000000; stroke-linecap:round; stroke-linejoin:round; stroke-width:4; stroke-opacity:1; fill:none" points="831.186,938.016 831.186,1486.45 847.474,1486.45 847.474,938.016 831.186,938.016 "></polyline>
<path clip-path="url(#clip302)" d="M847.474 970.817 L847.474 1486.45 L863.763 1486.45 L863.763 970.817 L847.474 970.817 L847.474 970.817  Z" fill="#009af9" fill-rule="evenodd" fill-opacity="1"></path>
<polyline clip-path="url(#clip302)" style="stroke:#000000; stroke-linecap:round; stroke-linejoin:round; stroke-width:4; stroke-opacity:1; fill:none" points="847.474,970.817 847.474,1486.45 863.763,1486.45 863.763,970.817 847.474,970.817 "></polyline>
<path clip-path="url(#clip302)" d="M863.763 1020.09 L863.763 1486.45 L880.051 1486.45 L880.051 1020.09 L863.763 1020.09 L863.763 1020.09  Z" fill="#009af9" fill-rule="evenodd" fill-opacity="1"></path>
<polyline clip-path="url(#clip302)" style="stroke:#000000; stroke-linecap:round; stroke-linejoin:round; stroke-width:4; stroke-opacity:1; fill:none" points="863.763,1020.09 863.763,1486.45 880.051,1486.45 880.051,1020.09 863.763,1020.09 "></polyline>
<path clip-path="url(#clip302)" d="M880.051 1088.54 L880.051 1486.45 L896.339 1486.45 L896.339 1088.54 L880.051 1088.54 L880.051 1088.54  Z" fill="#009af9" fill-rule="evenodd" fill-opacity="1"></path>
<polyline clip-path="url(#clip302)" style="stroke:#000000; stroke-linecap:round; stroke-linejoin:round; stroke-width:4; stroke-opacity:1; fill:none" points="880.051,1088.54 880.051,1486.45 896.339,1486.45 896.339,1088.54 880.051,1088.54 "></polyline>
<path clip-path="url(#clip302)" d="M896.339 1136.57 L896.339 1486.45 L912.627 1486.45 L912.627 1136.57 L896.339 1136.57 L896.339 1136.57  Z" fill="#009af9" fill-rule="evenodd" fill-opacity="1"></path>
<polyline clip-path="url(#clip302)" style="stroke:#000000; stroke-linecap:round; stroke-linejoin:round; stroke-width:4; stroke-opacity:1; fill:none" points="896.339,1136.57 896.339,1486.45 912.627,1486.45 912.627,1136.57 896.339,1136.57 "></polyline>
<path clip-path="url(#clip302)" d="M912.627 1180.8 L912.627 1486.45 L928.915 1486.45 L928.915 1180.8 L912.627 1180.8 L912.627 1180.8  Z" fill="#009af9" fill-rule="evenodd" fill-opacity="1"></path>
<polyline clip-path="url(#clip302)" style="stroke:#000000; stroke-linecap:round; stroke-linejoin:round; stroke-width:4; stroke-opacity:1; fill:none" points="912.627,1180.8 912.627,1486.45 928.915,1486.45 928.915,1180.8 912.627,1180.8 "></polyline>
<path clip-path="url(#clip302)" d="M928.915 1185.2 L928.915 1486.45 L945.203 1486.45 L945.203 1185.2 L928.915 1185.2 L928.915 1185.2  Z" fill="#009af9" fill-rule="evenodd" fill-opacity="1"></path>
<polyline clip-path="url(#clip302)" style="stroke:#000000; stroke-linecap:round; stroke-linejoin:round; stroke-width:4; stroke-opacity:1; fill:none" points="928.915,1185.2 928.915,1486.45 945.203,1486.45 945.203,1185.2 928.915,1185.2 "></polyline>
<path clip-path="url(#clip302)" d="M945.203 1158.64 L945.203 1486.45 L961.491 1486.45 L961.491 1158.64 L945.203 1158.64 L945.203 1158.64  Z" fill="#009af9" fill-rule="evenodd" fill-opacity="1"></path>
<polyline clip-path="url(#clip302)" style="stroke:#000000; stroke-linecap:round; stroke-linejoin:round; stroke-width:4; stroke-opacity:1; fill:none" points="945.203,1158.64 945.203,1486.45 961.491,1486.45 961.491,1158.64 945.203,1158.64 "></polyline>
<path clip-path="url(#clip302)" d="M961.491 1058.29 L961.491 1486.45 L977.779 1486.45 L977.779 1058.29 L961.491 1058.29 L961.491 1058.29  Z" fill="#009af9" fill-rule="evenodd" fill-opacity="1"></path>
<polyline clip-path="url(#clip302)" style="stroke:#000000; stroke-linecap:round; stroke-linejoin:round; stroke-width:4; stroke-opacity:1; fill:none" points="961.491,1058.29 961.491,1486.45 977.779,1486.45 977.779,1058.29 961.491,1058.29 "></polyline>
<path clip-path="url(#clip302)" d="M977.779 924.985 L977.779 1486.45 L994.067 1486.45 L994.067 924.985 L977.779 924.985 L977.779 924.985  Z" fill="#009af9" fill-rule="evenodd" fill-opacity="1"></path>
<polyline clip-path="url(#clip302)" style="stroke:#000000; stroke-linecap:round; stroke-linejoin:round; stroke-width:4; stroke-opacity:1; fill:none" points="977.779,924.985 977.779,1486.45 994.067,1486.45 994.067,924.985 977.779,924.985 "></polyline>
<path clip-path="url(#clip302)" d="M994.067 702.866 L994.067 1486.45 L1010.36 1486.45 L1010.36 702.866 L994.067 702.866 L994.067 702.866  Z" fill="#009af9" fill-rule="evenodd" fill-opacity="1"></path>
<polyline clip-path="url(#clip302)" style="stroke:#000000; stroke-linecap:round; stroke-linejoin:round; stroke-width:4; stroke-opacity:1; fill:none" points="994.067,702.866 994.067,1486.45 1010.36,1486.45 1010.36,702.866 994.067,702.866 "></polyline>
<path clip-path="url(#clip302)" d="M1010.36 468.616 L1010.36 1486.45 L1026.64 1486.45 L1026.64 468.616 L1010.36 468.616 L1010.36 468.616  Z" fill="#009af9" fill-rule="evenodd" fill-opacity="1"></path>
<polyline clip-path="url(#clip302)" style="stroke:#000000; stroke-linecap:round; stroke-linejoin:round; stroke-width:4; stroke-opacity:1; fill:none" points="1010.36,468.616 1010.36,1486.45 1026.64,1486.45 1026.64,468.616 1010.36,468.616 "></polyline>
<path clip-path="url(#clip302)" d="M1026.64 239.807 L1026.64 1486.45 L1042.93 1486.45 L1042.93 239.807 L1026.64 239.807 L1026.64 239.807  Z" fill="#009af9" fill-rule="evenodd" fill-opacity="1"></path>
<polyline clip-path="url(#clip302)" style="stroke:#000000; stroke-linecap:round; stroke-linejoin:round; stroke-width:4; stroke-opacity:1; fill:none" points="1026.64,239.807 1026.64,1486.45 1042.93,1486.45 1042.93,239.807 1026.64,239.807 "></polyline>
<path clip-path="url(#clip302)" d="M1042.93 93.6749 L1042.93 1486.45 L1059.22 1486.45 L1059.22 93.6749 L1042.93 93.6749 L1042.93 93.6749  Z" fill="#009af9" fill-rule="evenodd" fill-opacity="1"></path>
<polyline clip-path="url(#clip302)" style="stroke:#000000; stroke-linecap:round; stroke-linejoin:round; stroke-width:4; stroke-opacity:1; fill:none" points="1042.93,93.6749 1042.93,1486.45 1059.22,1486.45 1059.22,93.6749 1042.93,93.6749 "></polyline>
<path clip-path="url(#clip302)" d="M1059.22 64.718 L1059.22 1486.45 L1075.51 1486.45 L1075.51 64.718 L1059.22 64.718 L1059.22 64.718  Z" fill="#009af9" fill-rule="evenodd" fill-opacity="1"></path>
<polyline clip-path="url(#clip302)" style="stroke:#000000; stroke-linecap:round; stroke-linejoin:round; stroke-width:4; stroke-opacity:1; fill:none" points="1059.22,64.718 1059.22,1486.45 1075.51,1486.45 1075.51,64.718 1059.22,64.718 "></polyline>
<path clip-path="url(#clip302)" d="M1075.51 129.821 L1075.51 1486.45 L1091.8 1486.45 L1091.8 129.821 L1075.51 129.821 L1075.51 129.821  Z" fill="#009af9" fill-rule="evenodd" fill-opacity="1"></path>
<polyline clip-path="url(#clip302)" style="stroke:#000000; stroke-linecap:round; stroke-linejoin:round; stroke-width:4; stroke-opacity:1; fill:none" points="1075.51,129.821 1075.51,1486.45 1091.8,1486.45 1091.8,129.821 1075.51,129.821 "></polyline>
<path clip-path="url(#clip302)" d="M1091.8 283.791 L1091.8 1486.45 L1108.08 1486.45 L1108.08 283.791 L1091.8 283.791 L1091.8 283.791  Z" fill="#009af9" fill-rule="evenodd" fill-opacity="1"></path>
<polyline clip-path="url(#clip302)" style="stroke:#000000; stroke-linecap:round; stroke-linejoin:round; stroke-width:4; stroke-opacity:1; fill:none" points="1091.8,283.791 1091.8,1486.45 1108.08,1486.45 1108.08,283.791 1091.8,283.791 "></polyline>
<path clip-path="url(#clip302)" d="M1108.08 500.718 L1108.08 1486.45 L1124.37 1486.45 L1124.37 500.718 L1108.08 500.718 L1108.08 500.718  Z" fill="#009af9" fill-rule="evenodd" fill-opacity="1"></path>
<polyline clip-path="url(#clip302)" style="stroke:#000000; stroke-linecap:round; stroke-linejoin:round; stroke-width:4; stroke-opacity:1; fill:none" points="1108.08,500.718 1108.08,1486.45 1124.37,1486.45 1124.37,500.718 1108.08,500.718 "></polyline>
<path clip-path="url(#clip302)" d="M1124.37 660.23 L1124.37 1486.45 L1140.66 1486.45 L1140.66 660.23 L1124.37 660.23 L1124.37 660.23  Z" fill="#009af9" fill-rule="evenodd" fill-opacity="1"></path>
<polyline clip-path="url(#clip302)" style="stroke:#000000; stroke-linecap:round; stroke-linejoin:round; stroke-width:4; stroke-opacity:1; fill:none" points="1124.37,660.23 1124.37,1486.45 1140.66,1486.45 1140.66,660.23 1124.37,660.23 "></polyline>
<path clip-path="url(#clip302)" d="M1140.66 775.258 L1140.66 1486.45 L1156.95 1486.45 L1156.95 775.258 L1140.66 775.258 L1140.66 775.258  Z" fill="#009af9" fill-rule="evenodd" fill-opacity="1"></path>
<polyline clip-path="url(#clip302)" style="stroke:#000000; stroke-linecap:round; stroke-linejoin:round; stroke-width:4; stroke-opacity:1; fill:none" points="1140.66,775.258 1140.66,1486.45 1156.95,1486.45 1156.95,775.258 1140.66,775.258 "></polyline>
<path clip-path="url(#clip302)" d="M1156.95 811.504 L1156.95 1486.45 L1173.24 1486.45 L1173.24 811.504 L1156.95 811.504 L1156.95 811.504  Z" fill="#009af9" fill-rule="evenodd" fill-opacity="1"></path>
<polyline clip-path="url(#clip302)" style="stroke:#000000; stroke-linecap:round; stroke-linejoin:round; stroke-width:4; stroke-opacity:1; fill:none" points="1156.95,811.504 1156.95,1486.45 1173.24,1486.45 1173.24,811.504 1156.95,811.504 "></polyline>
<path clip-path="url(#clip302)" d="M1173.24 783.746 L1173.24 1486.45 L1189.52 1486.45 L1189.52 783.746 L1173.24 783.746 L1173.24 783.746  Z" fill="#009af9" fill-rule="evenodd" fill-opacity="1"></path>
<polyline clip-path="url(#clip302)" style="stroke:#000000; stroke-linecap:round; stroke-linejoin:round; stroke-width:4; stroke-opacity:1; fill:none" points="1173.24,783.746 1173.24,1486.45 1189.52,1486.45 1189.52,783.746 1173.24,783.746 "></polyline>
<path clip-path="url(#clip302)" d="M1189.52 705.562 L1189.52 1486.45 L1205.81 1486.45 L1205.81 705.562 L1189.52 705.562 L1189.52 705.562  Z" fill="#009af9" fill-rule="evenodd" fill-opacity="1"></path>
<polyline clip-path="url(#clip302)" style="stroke:#000000; stroke-linecap:round; stroke-linejoin:round; stroke-width:4; stroke-opacity:1; fill:none" points="1189.52,705.562 1189.52,1486.45 1205.81,1486.45 1205.81,705.562 1189.52,705.562 "></polyline>
<path clip-path="url(#clip302)" d="M1205.81 653.24 L1205.81 1486.45 L1222.1 1486.45 L1222.1 653.24 L1205.81 653.24 L1205.81 653.24  Z" fill="#009af9" fill-rule="evenodd" fill-opacity="1"></path>
<polyline clip-path="url(#clip302)" style="stroke:#000000; stroke-linecap:round; stroke-linejoin:round; stroke-width:4; stroke-opacity:1; fill:none" points="1205.81,653.24 1205.81,1486.45 1222.1,1486.45 1222.1,653.24 1205.81,653.24 "></polyline>
<path clip-path="url(#clip302)" d="M1222.1 613.4 L1222.1 1486.45 L1238.39 1486.45 L1238.39 613.4 L1222.1 613.4 L1222.1 613.4  Z" fill="#009af9" fill-rule="evenodd" fill-opacity="1"></path>
<polyline clip-path="url(#clip302)" style="stroke:#000000; stroke-linecap:round; stroke-linejoin:round; stroke-width:4; stroke-opacity:1; fill:none" points="1222.1,613.4 1222.1,1486.45 1238.39,1486.45 1238.39,613.4 1222.1,613.4 "></polyline>
<path clip-path="url(#clip302)" d="M1238.39 600.719 L1238.39 1486.45 L1254.68 1486.45 L1254.68 600.719 L1238.39 600.719 L1238.39 600.719  Z" fill="#009af9" fill-rule="evenodd" fill-opacity="1"></path>
<polyline clip-path="url(#clip302)" style="stroke:#000000; stroke-linecap:round; stroke-linejoin:round; stroke-width:4; stroke-opacity:1; fill:none" points="1238.39,600.719 1238.39,1486.45 1254.68,1486.45 1254.68,600.719 1238.39,600.719 "></polyline>
<path clip-path="url(#clip302)" d="M1254.68 602.266 L1254.68 1486.45 L1270.97 1486.45 L1270.97 602.266 L1254.68 602.266 L1254.68 602.266  Z" fill="#009af9" fill-rule="evenodd" fill-opacity="1"></path>
<polyline clip-path="url(#clip302)" style="stroke:#000000; stroke-linecap:round; stroke-linejoin:round; stroke-width:4; stroke-opacity:1; fill:none" points="1254.68,602.266 1254.68,1486.45 1270.97,1486.45 1270.97,602.266 1254.68,602.266 "></polyline>
<path clip-path="url(#clip302)" d="M1270.97 620.439 L1270.97 1486.45 L1287.25 1486.45 L1287.25 620.439 L1270.97 620.439 L1270.97 620.439  Z" fill="#009af9" fill-rule="evenodd" fill-opacity="1"></path>
<polyline clip-path="url(#clip302)" style="stroke:#000000; stroke-linecap:round; stroke-linejoin:round; stroke-width:4; stroke-opacity:1; fill:none" points="1270.97,620.439 1270.97,1486.45 1287.25,1486.45 1287.25,620.439 1270.97,620.439 "></polyline>
<path clip-path="url(#clip302)" d="M1287.25 655.287 L1287.25 1486.45 L1303.54 1486.45 L1303.54 655.287 L1287.25 655.287 L1287.25 655.287  Z" fill="#009af9" fill-rule="evenodd" fill-opacity="1"></path>
<polyline clip-path="url(#clip302)" style="stroke:#000000; stroke-linecap:round; stroke-linejoin:round; stroke-width:4; stroke-opacity:1; fill:none" points="1287.25,655.287 1287.25,1486.45 1303.54,1486.45 1303.54,655.287 1287.25,655.287 "></polyline>
<path clip-path="url(#clip302)" d="M1303.54 710.006 L1303.54 1486.45 L1319.83 1486.45 L1319.83 710.006 L1303.54 710.006 L1303.54 710.006  Z" fill="#009af9" fill-rule="evenodd" fill-opacity="1"></path>
<polyline clip-path="url(#clip302)" style="stroke:#000000; stroke-linecap:round; stroke-linejoin:round; stroke-width:4; stroke-opacity:1; fill:none" points="1303.54,710.006 1303.54,1486.45 1319.83,1486.45 1319.83,710.006 1303.54,710.006 "></polyline>
<path clip-path="url(#clip302)" d="M1319.83 768.618 L1319.83 1486.45 L1336.12 1486.45 L1336.12 768.618 L1319.83 768.618 L1319.83 768.618  Z" fill="#009af9" fill-rule="evenodd" fill-opacity="1"></path>
<polyline clip-path="url(#clip302)" style="stroke:#000000; stroke-linecap:round; stroke-linejoin:round; stroke-width:4; stroke-opacity:1; fill:none" points="1319.83,768.618 1319.83,1486.45 1336.12,1486.45 1336.12,768.618 1319.83,768.618 "></polyline>
<path clip-path="url(#clip302)" d="M1336.12 805.064 L1336.12 1486.45 L1352.41 1486.45 L1352.41 805.064 L1336.12 805.064 L1336.12 805.064  Z" fill="#009af9" fill-rule="evenodd" fill-opacity="1"></path>
<polyline clip-path="url(#clip302)" style="stroke:#000000; stroke-linecap:round; stroke-linejoin:round; stroke-width:4; stroke-opacity:1; fill:none" points="1336.12,805.064 1336.12,1486.45 1352.41,1486.45 1352.41,805.064 1336.12,805.064 "></polyline>
<path clip-path="url(#clip302)" d="M1352.41 769.367 L1352.41 1486.45 L1368.69 1486.45 L1368.69 769.367 L1352.41 769.367 L1352.41 769.367  Z" fill="#009af9" fill-rule="evenodd" fill-opacity="1"></path>
<polyline clip-path="url(#clip302)" style="stroke:#000000; stroke-linecap:round; stroke-linejoin:round; stroke-width:4; stroke-opacity:1; fill:none" points="1352.41,769.367 1352.41,1486.45 1368.69,1486.45 1368.69,769.367 1352.41,769.367 "></polyline>
<path clip-path="url(#clip302)" d="M1368.69 666.121 L1368.69 1486.45 L1384.98 1486.45 L1384.98 666.121 L1368.69 666.121 L1368.69 666.121  Z" fill="#009af9" fill-rule="evenodd" fill-opacity="1"></path>
<polyline clip-path="url(#clip302)" style="stroke:#000000; stroke-linecap:round; stroke-linejoin:round; stroke-width:4; stroke-opacity:1; fill:none" points="1368.69,666.121 1368.69,1486.45 1384.98,1486.45 1384.98,666.121 1368.69,666.121 "></polyline>
<path clip-path="url(#clip302)" d="M1384.98 498.721 L1384.98 1486.45 L1401.27 1486.45 L1401.27 498.721 L1384.98 498.721 L1384.98 498.721  Z" fill="#009af9" fill-rule="evenodd" fill-opacity="1"></path>
<polyline clip-path="url(#clip302)" style="stroke:#000000; stroke-linecap:round; stroke-linejoin:round; stroke-width:4; stroke-opacity:1; fill:none" points="1384.98,498.721 1384.98,1486.45 1401.27,1486.45 1401.27,498.721 1384.98,498.721 "></polyline>
<path clip-path="url(#clip302)" d="M1401.27 292.828 L1401.27 1486.45 L1417.56 1486.45 L1417.56 292.828 L1401.27 292.828 L1401.27 292.828  Z" fill="#009af9" fill-rule="evenodd" fill-opacity="1"></path>
<polyline clip-path="url(#clip302)" style="stroke:#000000; stroke-linecap:round; stroke-linejoin:round; stroke-width:4; stroke-opacity:1; fill:none" points="1401.27,292.828 1401.27,1486.45 1417.56,1486.45 1417.56,292.828 1401.27,292.828 "></polyline>
<path clip-path="url(#clip302)" d="M1417.56 145.048 L1417.56 1486.45 L1433.85 1486.45 L1433.85 145.048 L1417.56 145.048 L1417.56 145.048  Z" fill="#009af9" fill-rule="evenodd" fill-opacity="1"></path>
<polyline clip-path="url(#clip302)" style="stroke:#000000; stroke-linecap:round; stroke-linejoin:round; stroke-width:4; stroke-opacity:1; fill:none" points="1417.56,145.048 1417.56,1486.45 1433.85,1486.45 1433.85,145.048 1417.56,145.048 "></polyline>
<path clip-path="url(#clip302)" d="M1433.85 47.2441 L1433.85 1486.45 L1450.13 1486.45 L1450.13 47.2441 L1433.85 47.2441 L1433.85 47.2441  Z" fill="#009af9" fill-rule="evenodd" fill-opacity="1"></path>
<polyline clip-path="url(#clip302)" style="stroke:#000000; stroke-linecap:round; stroke-linejoin:round; stroke-width:4; stroke-opacity:1; fill:none" points="1433.85,47.2441 1433.85,1486.45 1450.13,1486.45 1450.13,47.2441 1433.85,47.2441 "></polyline>
<path clip-path="url(#clip302)" d="M1450.13 105.957 L1450.13 1486.45 L1466.42 1486.45 L1466.42 105.957 L1450.13 105.957 L1450.13 105.957  Z" fill="#009af9" fill-rule="evenodd" fill-opacity="1"></path>
<polyline clip-path="url(#clip302)" style="stroke:#000000; stroke-linecap:round; stroke-linejoin:round; stroke-width:4; stroke-opacity:1; fill:none" points="1450.13,105.957 1450.13,1486.45 1466.42,1486.45 1466.42,105.957 1450.13,105.957 "></polyline>
<path clip-path="url(#clip302)" d="M1466.42 244.4 L1466.42 1486.45 L1482.71 1486.45 L1482.71 244.4 L1466.42 244.4 L1466.42 244.4  Z" fill="#009af9" fill-rule="evenodd" fill-opacity="1"></path>
<polyline clip-path="url(#clip302)" style="stroke:#000000; stroke-linecap:round; stroke-linejoin:round; stroke-width:4; stroke-opacity:1; fill:none" points="1466.42,244.4 1466.42,1486.45 1482.71,1486.45 1482.71,244.4 1466.42,244.4 "></polyline>
<path clip-path="url(#clip302)" d="M1482.71 464.672 L1482.71 1486.45 L1499 1486.45 L1499 464.672 L1482.71 464.672 L1482.71 464.672  Z" fill="#009af9" fill-rule="evenodd" fill-opacity="1"></path>
<polyline clip-path="url(#clip302)" style="stroke:#000000; stroke-linecap:round; stroke-linejoin:round; stroke-width:4; stroke-opacity:1; fill:none" points="1482.71,464.672 1482.71,1486.45 1499,1486.45 1499,464.672 1482.71,464.672 "></polyline>
<path clip-path="url(#clip302)" d="M1499 710.255 L1499 1486.45 L1515.29 1486.45 L1515.29 710.255 L1499 710.255 L1499 710.255  Z" fill="#009af9" fill-rule="evenodd" fill-opacity="1"></path>
<polyline clip-path="url(#clip302)" style="stroke:#000000; stroke-linecap:round; stroke-linejoin:round; stroke-width:4; stroke-opacity:1; fill:none" points="1499,710.255 1499,1486.45 1515.29,1486.45 1515.29,710.255 1499,710.255 "></polyline>
<path clip-path="url(#clip302)" d="M1515.29 913.952 L1515.29 1486.45 L1531.57 1486.45 L1531.57 913.952 L1515.29 913.952 L1515.29 913.952  Z" fill="#009af9" fill-rule="evenodd" fill-opacity="1"></path>
<polyline clip-path="url(#clip302)" style="stroke:#000000; stroke-linecap:round; stroke-linejoin:round; stroke-width:4; stroke-opacity:1; fill:none" points="1515.29,913.952 1515.29,1486.45 1531.57,1486.45 1531.57,913.952 1515.29,913.952 "></polyline>
<path clip-path="url(#clip302)" d="M1531.57 1063.88 L1531.57 1486.45 L1547.86 1486.45 L1547.86 1063.88 L1531.57 1063.88 L1531.57 1063.88  Z" fill="#009af9" fill-rule="evenodd" fill-opacity="1"></path>
<polyline clip-path="url(#clip302)" style="stroke:#000000; stroke-linecap:round; stroke-linejoin:round; stroke-width:4; stroke-opacity:1; fill:none" points="1531.57,1063.88 1531.57,1486.45 1547.86,1486.45 1547.86,1063.88 1531.57,1063.88 "></polyline>
<path clip-path="url(#clip302)" d="M1547.86 1144.86 L1547.86 1486.45 L1564.15 1486.45 L1564.15 1144.86 L1547.86 1144.86 L1547.86 1144.86  Z" fill="#009af9" fill-rule="evenodd" fill-opacity="1"></path>
<polyline clip-path="url(#clip302)" style="stroke:#000000; stroke-linecap:round; stroke-linejoin:round; stroke-width:4; stroke-opacity:1; fill:none" points="1547.86,1144.86 1547.86,1486.45 1564.15,1486.45 1564.15,1144.86 1547.86,1144.86 "></polyline>
<path clip-path="url(#clip302)" d="M1564.15 1181.85 L1564.15 1486.45 L1580.44 1486.45 L1580.44 1181.85 L1564.15 1181.85 L1564.15 1181.85  Z" fill="#009af9" fill-rule="evenodd" fill-opacity="1"></path>
<polyline clip-path="url(#clip302)" style="stroke:#000000; stroke-linecap:round; stroke-linejoin:round; stroke-width:4; stroke-opacity:1; fill:none" points="1564.15,1181.85 1564.15,1486.45 1580.44,1486.45 1580.44,1181.85 1564.15,1181.85 "></polyline>
<path clip-path="url(#clip302)" d="M1580.44 1178.91 L1580.44 1486.45 L1596.73 1486.45 L1596.73 1178.91 L1580.44 1178.91 L1580.44 1178.91  Z" fill="#009af9" fill-rule="evenodd" fill-opacity="1"></path>
<polyline clip-path="url(#clip302)" style="stroke:#000000; stroke-linecap:round; stroke-linejoin:round; stroke-width:4; stroke-opacity:1; fill:none" points="1580.44,1178.91 1580.44,1486.45 1596.73,1486.45 1596.73,1178.91 1580.44,1178.91 "></polyline>
<path clip-path="url(#clip302)" d="M1596.73 1146.36 L1596.73 1486.45 L1613.02 1486.45 L1613.02 1146.36 L1596.73 1146.36 L1596.73 1146.36  Z" fill="#009af9" fill-rule="evenodd" fill-opacity="1"></path>
<polyline clip-path="url(#clip302)" style="stroke:#000000; stroke-linecap:round; stroke-linejoin:round; stroke-width:4; stroke-opacity:1; fill:none" points="1596.73,1146.36 1596.73,1486.45 1613.02,1486.45 1613.02,1146.36 1596.73,1146.36 "></polyline>
<path clip-path="url(#clip302)" d="M1613.02 1083.2 L1613.02 1486.45 L1629.3 1486.45 L1629.3 1083.2 L1613.02 1083.2 L1613.02 1083.2  Z" fill="#009af9" fill-rule="evenodd" fill-opacity="1"></path>
<polyline clip-path="url(#clip302)" style="stroke:#000000; stroke-linecap:round; stroke-linejoin:round; stroke-width:4; stroke-opacity:1; fill:none" points="1613.02,1083.2 1613.02,1486.45 1629.3,1486.45 1629.3,1083.2 1613.02,1083.2 "></polyline>
<path clip-path="url(#clip302)" d="M1629.3 1024.09 L1629.3 1486.45 L1645.59 1486.45 L1645.59 1024.09 L1629.3 1024.09 L1629.3 1024.09  Z" fill="#009af9" fill-rule="evenodd" fill-opacity="1"></path>
<polyline clip-path="url(#clip302)" style="stroke:#000000; stroke-linecap:round; stroke-linejoin:round; stroke-width:4; stroke-opacity:1; fill:none" points="1629.3,1024.09 1629.3,1486.45 1645.59,1486.45 1645.59,1024.09 1629.3,1024.09 "></polyline>
<path clip-path="url(#clip302)" d="M1645.59 958.186 L1645.59 1486.45 L1661.88 1486.45 L1661.88 958.186 L1645.59 958.186 L1645.59 958.186  Z" fill="#009af9" fill-rule="evenodd" fill-opacity="1"></path>
<polyline clip-path="url(#clip302)" style="stroke:#000000; stroke-linecap:round; stroke-linejoin:round; stroke-width:4; stroke-opacity:1; fill:none" points="1645.59,958.186 1645.59,1486.45 1661.88,1486.45 1661.88,958.186 1645.59,958.186 "></polyline>
<path clip-path="url(#clip302)" d="M1661.88 947.002 L1661.88 1486.45 L1678.17 1486.45 L1678.17 947.002 L1661.88 947.002 L1661.88 947.002  Z" fill="#009af9" fill-rule="evenodd" fill-opacity="1"></path>
<polyline clip-path="url(#clip302)" style="stroke:#000000; stroke-linecap:round; stroke-linejoin:round; stroke-width:4; stroke-opacity:1; fill:none" points="1661.88,947.002 1661.88,1486.45 1678.17,1486.45 1678.17,947.002 1661.88,947.002 "></polyline>
<path clip-path="url(#clip302)" d="M1678.17 949.449 L1678.17 1486.45 L1694.46 1486.45 L1694.46 949.449 L1678.17 949.449 L1678.17 949.449  Z" fill="#009af9" fill-rule="evenodd" fill-opacity="1"></path>
<polyline clip-path="url(#clip302)" style="stroke:#000000; stroke-linecap:round; stroke-linejoin:round; stroke-width:4; stroke-opacity:1; fill:none" points="1678.17,949.449 1678.17,1486.45 1694.46,1486.45 1694.46,949.449 1678.17,949.449 "></polyline>
<path clip-path="url(#clip302)" d="M1694.46 993.283 L1694.46 1486.45 L1710.74 1486.45 L1710.74 993.283 L1694.46 993.283 L1694.46 993.283  Z" fill="#009af9" fill-rule="evenodd" fill-opacity="1"></path>
<polyline clip-path="url(#clip302)" style="stroke:#000000; stroke-linecap:round; stroke-linejoin:round; stroke-width:4; stroke-opacity:1; fill:none" points="1694.46,993.283 1694.46,1486.45 1710.74,1486.45 1710.74,993.283 1694.46,993.283 "></polyline>
<path clip-path="url(#clip302)" d="M1710.74 1075.01 L1710.74 1486.45 L1727.03 1486.45 L1727.03 1075.01 L1710.74 1075.01 L1710.74 1075.01  Z" fill="#009af9" fill-rule="evenodd" fill-opacity="1"></path>
<polyline clip-path="url(#clip302)" style="stroke:#000000; stroke-linecap:round; stroke-linejoin:round; stroke-width:4; stroke-opacity:1; fill:none" points="1710.74,1075.01 1710.74,1486.45 1727.03,1486.45 1727.03,1075.01 1710.74,1075.01 "></polyline>
<path clip-path="url(#clip302)" d="M1727.03 1133.77 L1727.03 1486.45 L1743.32 1486.45 L1743.32 1133.77 L1727.03 1133.77 L1727.03 1133.77  Z" fill="#009af9" fill-rule="evenodd" fill-opacity="1"></path>
<polyline clip-path="url(#clip302)" style="stroke:#000000; stroke-linecap:round; stroke-linejoin:round; stroke-width:4; stroke-opacity:1; fill:none" points="1727.03,1133.77 1727.03,1486.45 1743.32,1486.45 1743.32,1133.77 1727.03,1133.77 "></polyline>
<path clip-path="url(#clip302)" d="M1743.32 1196.68 L1743.32 1486.45 L1759.61 1486.45 L1759.61 1196.68 L1743.32 1196.68 L1743.32 1196.68  Z" fill="#009af9" fill-rule="evenodd" fill-opacity="1"></path>
<polyline clip-path="url(#clip302)" style="stroke:#000000; stroke-linecap:round; stroke-linejoin:round; stroke-width:4; stroke-opacity:1; fill:none" points="1743.32,1196.68 1743.32,1486.45 1759.61,1486.45 1759.61,1196.68 1743.32,1196.68 "></polyline>
<path clip-path="url(#clip302)" d="M1759.61 1225.24 L1759.61 1486.45 L1775.9 1486.45 L1775.9 1225.24 L1759.61 1225.24 L1759.61 1225.24  Z" fill="#009af9" fill-rule="evenodd" fill-opacity="1"></path>
<polyline clip-path="url(#clip302)" style="stroke:#000000; stroke-linecap:round; stroke-linejoin:round; stroke-width:4; stroke-opacity:1; fill:none" points="1759.61,1225.24 1759.61,1486.45 1775.9,1486.45 1775.9,1225.24 1759.61,1225.24 "></polyline>
<path clip-path="url(#clip302)" d="M1775.9 1238.02 L1775.9 1486.45 L1792.18 1486.45 L1792.18 1238.02 L1775.9 1238.02 L1775.9 1238.02  Z" fill="#009af9" fill-rule="evenodd" fill-opacity="1"></path>
<polyline clip-path="url(#clip302)" style="stroke:#000000; stroke-linecap:round; stroke-linejoin:round; stroke-width:4; stroke-opacity:1; fill:none" points="1775.9,1238.02 1775.9,1486.45 1792.18,1486.45 1792.18,1238.02 1775.9,1238.02 "></polyline>
<path clip-path="url(#clip302)" d="M1792.18 1234.62 L1792.18 1486.45 L1808.47 1486.45 L1808.47 1234.62 L1792.18 1234.62 L1792.18 1234.62  Z" fill="#009af9" fill-rule="evenodd" fill-opacity="1"></path>
<polyline clip-path="url(#clip302)" style="stroke:#000000; stroke-linecap:round; stroke-linejoin:round; stroke-width:4; stroke-opacity:1; fill:none" points="1792.18,1234.62 1792.18,1486.45 1808.47,1486.45 1808.47,1234.62 1792.18,1234.62 "></polyline>
<path clip-path="url(#clip302)" d="M1808.47 1224.29 L1808.47 1486.45 L1824.76 1486.45 L1824.76 1224.29 L1808.47 1224.29 L1808.47 1224.29  Z" fill="#009af9" fill-rule="evenodd" fill-opacity="1"></path>
<polyline clip-path="url(#clip302)" style="stroke:#000000; stroke-linecap:round; stroke-linejoin:round; stroke-width:4; stroke-opacity:1; fill:none" points="1808.47,1224.29 1808.47,1486.45 1824.76,1486.45 1824.76,1224.29 1808.47,1224.29 "></polyline>
<path clip-path="url(#clip302)" d="M1824.76 1222.94 L1824.76 1486.45 L1841.05 1486.45 L1841.05 1222.94 L1824.76 1222.94 L1824.76 1222.94  Z" fill="#009af9" fill-rule="evenodd" fill-opacity="1"></path>
<polyline clip-path="url(#clip302)" style="stroke:#000000; stroke-linecap:round; stroke-linejoin:round; stroke-width:4; stroke-opacity:1; fill:none" points="1824.76,1222.94 1824.76,1486.45 1841.05,1486.45 1841.05,1222.94 1824.76,1222.94 "></polyline>
<path clip-path="url(#clip302)" d="M1841.05 1251.95 L1841.05 1486.45 L1857.34 1486.45 L1857.34 1251.95 L1841.05 1251.95 L1841.05 1251.95  Z" fill="#009af9" fill-rule="evenodd" fill-opacity="1"></path>
<polyline clip-path="url(#clip302)" style="stroke:#000000; stroke-linecap:round; stroke-linejoin:round; stroke-width:4; stroke-opacity:1; fill:none" points="1841.05,1251.95 1841.05,1486.45 1857.34,1486.45 1857.34,1251.95 1841.05,1251.95 "></polyline>
<path clip-path="url(#clip302)" d="M1857.34 1276.56 L1857.34 1486.45 L1873.63 1486.45 L1873.63 1276.56 L1857.34 1276.56 L1857.34 1276.56  Z" fill="#009af9" fill-rule="evenodd" fill-opacity="1"></path>
<polyline clip-path="url(#clip302)" style="stroke:#000000; stroke-linecap:round; stroke-linejoin:round; stroke-width:4; stroke-opacity:1; fill:none" points="1857.34,1276.56 1857.34,1486.45 1873.63,1486.45 1873.63,1276.56 1857.34,1276.56 "></polyline>
<path clip-path="url(#clip302)" d="M1873.63 1317.8 L1873.63 1486.45 L1889.91 1486.45 L1889.91 1317.8 L1873.63 1317.8 L1873.63 1317.8  Z" fill="#009af9" fill-rule="evenodd" fill-opacity="1"></path>
<polyline clip-path="url(#clip302)" style="stroke:#000000; stroke-linecap:round; stroke-linejoin:round; stroke-width:4; stroke-opacity:1; fill:none" points="1873.63,1317.8 1873.63,1486.45 1889.91,1486.45 1889.91,1317.8 1873.63,1317.8 "></polyline>
<path clip-path="url(#clip302)" d="M1889.91 1357.29 L1889.91 1486.45 L1906.2 1486.45 L1906.2 1357.29 L1889.91 1357.29 L1889.91 1357.29  Z" fill="#009af9" fill-rule="evenodd" fill-opacity="1"></path>
<polyline clip-path="url(#clip302)" style="stroke:#000000; stroke-linecap:round; stroke-linejoin:round; stroke-width:4; stroke-opacity:1; fill:none" points="1889.91,1357.29 1889.91,1486.45 1906.2,1486.45 1906.2,1357.29 1889.91,1357.29 "></polyline>
<path clip-path="url(#clip302)" d="M1906.2 1391.49 L1906.2 1486.45 L1922.49 1486.45 L1922.49 1391.49 L1906.2 1391.49 L1906.2 1391.49  Z" fill="#009af9" fill-rule="evenodd" fill-opacity="1"></path>
<polyline clip-path="url(#clip302)" style="stroke:#000000; stroke-linecap:round; stroke-linejoin:round; stroke-width:4; stroke-opacity:1; fill:none" points="1906.2,1391.49 1906.2,1486.45 1922.49,1486.45 1922.49,1391.49 1906.2,1391.49 "></polyline>
<path clip-path="url(#clip302)" d="M1922.49 1415 L1922.49 1486.45 L1938.78 1486.45 L1938.78 1415 L1922.49 1415 L1922.49 1415  Z" fill="#009af9" fill-rule="evenodd" fill-opacity="1"></path>
<polyline clip-path="url(#clip302)" style="stroke:#000000; stroke-linecap:round; stroke-linejoin:round; stroke-width:4; stroke-opacity:1; fill:none" points="1922.49,1415 1922.49,1486.45 1938.78,1486.45 1938.78,1415 1922.49,1415 "></polyline>
<path clip-path="url(#clip302)" d="M1938.78 1432.63 L1938.78 1486.45 L1955.07 1486.45 L1955.07 1432.63 L1938.78 1432.63 L1938.78 1432.63  Z" fill="#009af9" fill-rule="evenodd" fill-opacity="1"></path>
<polyline clip-path="url(#clip302)" style="stroke:#000000; stroke-linecap:round; stroke-linejoin:round; stroke-width:4; stroke-opacity:1; fill:none" points="1938.78,1432.63 1938.78,1486.45 1955.07,1486.45 1955.07,1432.63 1938.78,1432.63 "></polyline>
<path clip-path="url(#clip302)" d="M1955.07 1440.47 L1955.07 1486.45 L1971.35 1486.45 L1971.35 1440.47 L1955.07 1440.47 L1955.07 1440.47  Z" fill="#009af9" fill-rule="evenodd" fill-opacity="1"></path>
<polyline clip-path="url(#clip302)" style="stroke:#000000; stroke-linecap:round; stroke-linejoin:round; stroke-width:4; stroke-opacity:1; fill:none" points="1955.07,1440.47 1955.07,1486.45 1971.35,1486.45 1971.35,1440.47 1955.07,1440.47 "></polyline>
<path clip-path="url(#clip302)" d="M1971.35 1441.12 L1971.35 1486.45 L1987.64 1486.45 L1987.64 1441.12 L1971.35 1441.12 L1971.35 1441.12  Z" fill="#009af9" fill-rule="evenodd" fill-opacity="1"></path>
<polyline clip-path="url(#clip302)" style="stroke:#000000; stroke-linecap:round; stroke-linejoin:round; stroke-width:4; stroke-opacity:1; fill:none" points="1971.35,1441.12 1971.35,1486.45 1987.64,1486.45 1987.64,1441.12 1971.35,1441.12 "></polyline>
<path clip-path="url(#clip302)" d="M1987.64 1438.07 L1987.64 1486.45 L2003.93 1486.45 L2003.93 1438.07 L1987.64 1438.07 L1987.64 1438.07  Z" fill="#009af9" fill-rule="evenodd" fill-opacity="1"></path>
<polyline clip-path="url(#clip302)" style="stroke:#000000; stroke-linecap:round; stroke-linejoin:round; stroke-width:4; stroke-opacity:1; fill:none" points="1987.64,1438.07 1987.64,1486.45 2003.93,1486.45 2003.93,1438.07 1987.64,1438.07 "></polyline>
<path clip-path="url(#clip302)" d="M2003.93 1429.18 L2003.93 1486.45 L2020.22 1486.45 L2020.22 1429.18 L2003.93 1429.18 L2003.93 1429.18  Z" fill="#009af9" fill-rule="evenodd" fill-opacity="1"></path>
<polyline clip-path="url(#clip302)" style="stroke:#000000; stroke-linecap:round; stroke-linejoin:round; stroke-width:4; stroke-opacity:1; fill:none" points="2003.93,1429.18 2003.93,1486.45 2020.22,1486.45 2020.22,1429.18 2003.93,1429.18 "></polyline>
<path clip-path="url(#clip302)" d="M2020.22 1419.7 L2020.22 1486.45 L2036.51 1486.45 L2036.51 1419.7 L2020.22 1419.7 L2020.22 1419.7  Z" fill="#009af9" fill-rule="evenodd" fill-opacity="1"></path>
<polyline clip-path="url(#clip302)" style="stroke:#000000; stroke-linecap:round; stroke-linejoin:round; stroke-width:4; stroke-opacity:1; fill:none" points="2020.22,1419.7 2020.22,1486.45 2036.51,1486.45 2036.51,1419.7 2020.22,1419.7 "></polyline>
<path clip-path="url(#clip302)" d="M2036.51 1412.21 L2036.51 1486.45 L2052.79 1486.45 L2052.79 1412.21 L2036.51 1412.21 L2036.51 1412.21  Z" fill="#009af9" fill-rule="evenodd" fill-opacity="1"></path>
<polyline clip-path="url(#clip302)" style="stroke:#000000; stroke-linecap:round; stroke-linejoin:round; stroke-width:4; stroke-opacity:1; fill:none" points="2036.51,1412.21 2036.51,1486.45 2052.79,1486.45 2052.79,1412.21 2036.51,1412.21 "></polyline>
<path clip-path="url(#clip302)" d="M2052.79 1408.56 L2052.79 1486.45 L2069.08 1486.45 L2069.08 1408.56 L2052.79 1408.56 L2052.79 1408.56  Z" fill="#009af9" fill-rule="evenodd" fill-opacity="1"></path>
<polyline clip-path="url(#clip302)" style="stroke:#000000; stroke-linecap:round; stroke-linejoin:round; stroke-width:4; stroke-opacity:1; fill:none" points="2052.79,1408.56 2052.79,1486.45 2069.08,1486.45 2069.08,1408.56 2052.79,1408.56 "></polyline>
<path clip-path="url(#clip302)" d="M2069.08 1415.45 L2069.08 1486.45 L2085.37 1486.45 L2085.37 1415.45 L2069.08 1415.45 L2069.08 1415.45  Z" fill="#009af9" fill-rule="evenodd" fill-opacity="1"></path>
<polyline clip-path="url(#clip302)" style="stroke:#000000; stroke-linecap:round; stroke-linejoin:round; stroke-width:4; stroke-opacity:1; fill:none" points="2069.08,1415.45 2069.08,1486.45 2085.37,1486.45 2085.37,1415.45 2069.08,1415.45 "></polyline>
<path clip-path="url(#clip302)" d="M2085.37 1427.39 L2085.37 1486.45 L2101.66 1486.45 L2101.66 1427.39 L2085.37 1427.39 L2085.37 1427.39  Z" fill="#009af9" fill-rule="evenodd" fill-opacity="1"></path>
<polyline clip-path="url(#clip302)" style="stroke:#000000; stroke-linecap:round; stroke-linejoin:round; stroke-width:4; stroke-opacity:1; fill:none" points="2085.37,1427.39 2085.37,1486.45 2101.66,1486.45 2101.66,1427.39 2085.37,1427.39 "></polyline>
<path clip-path="url(#clip302)" d="M2101.66 1439.32 L2101.66 1486.45 L2117.95 1486.45 L2117.95 1439.32 L2101.66 1439.32 L2101.66 1439.32  Z" fill="#009af9" fill-rule="evenodd" fill-opacity="1"></path>
<polyline clip-path="url(#clip302)" style="stroke:#000000; stroke-linecap:round; stroke-linejoin:round; stroke-width:4; stroke-opacity:1; fill:none" points="2101.66,1439.32 2101.66,1486.45 2117.95,1486.45 2117.95,1439.32 2101.66,1439.32 "></polyline>
<path clip-path="url(#clip302)" d="M2117.95 1450.7 L2117.95 1486.45 L2134.23 1486.45 L2134.23 1450.7 L2117.95 1450.7 L2117.95 1450.7  Z" fill="#009af9" fill-rule="evenodd" fill-opacity="1"></path>
<polyline clip-path="url(#clip302)" style="stroke:#000000; stroke-linecap:round; stroke-linejoin:round; stroke-width:4; stroke-opacity:1; fill:none" points="2117.95,1450.7 2117.95,1486.45 2134.23,1486.45 2134.23,1450.7 2117.95,1450.7 "></polyline>
<path clip-path="url(#clip302)" d="M2134.23 1460.04 L2134.23 1486.45 L2150.52 1486.45 L2150.52 1460.04 L2134.23 1460.04 L2134.23 1460.04  Z" fill="#009af9" fill-rule="evenodd" fill-opacity="1"></path>
<polyline clip-path="url(#clip302)" style="stroke:#000000; stroke-linecap:round; stroke-linejoin:round; stroke-width:4; stroke-opacity:1; fill:none" points="2134.23,1460.04 2134.23,1486.45 2150.52,1486.45 2150.52,1460.04 2134.23,1460.04 "></polyline>
<path clip-path="url(#clip302)" d="M2150.52 1468.18 L2150.52 1486.45 L2166.81 1486.45 L2166.81 1468.18 L2150.52 1468.18 L2150.52 1468.18  Z" fill="#009af9" fill-rule="evenodd" fill-opacity="1"></path>
<polyline clip-path="url(#clip302)" style="stroke:#000000; stroke-linecap:round; stroke-linejoin:round; stroke-width:4; stroke-opacity:1; fill:none" points="2150.52,1468.18 2150.52,1486.45 2166.81,1486.45 2166.81,1468.18 2150.52,1468.18 "></polyline>
<path clip-path="url(#clip302)" d="M2166.81 1472.97 L2166.81 1486.45 L2183.1 1486.45 L2183.1 1472.97 L2166.81 1472.97 L2166.81 1472.97  Z" fill="#009af9" fill-rule="evenodd" fill-opacity="1"></path>
<polyline clip-path="url(#clip302)" style="stroke:#000000; stroke-linecap:round; stroke-linejoin:round; stroke-width:4; stroke-opacity:1; fill:none" points="2166.81,1472.97 2166.81,1486.45 2183.1,1486.45 2183.1,1472.97 2166.81,1472.97 "></polyline>
<path clip-path="url(#clip302)" d="M2183.1 1475.96 L2183.1 1486.45 L2199.39 1486.45 L2199.39 1475.96 L2183.1 1475.96 L2183.1 1475.96  Z" fill="#009af9" fill-rule="evenodd" fill-opacity="1"></path>
<polyline clip-path="url(#clip302)" style="stroke:#000000; stroke-linecap:round; stroke-linejoin:round; stroke-width:4; stroke-opacity:1; fill:none" points="2183.1,1475.96 2183.1,1486.45 2199.39,1486.45 2199.39,1475.96 2183.1,1475.96 "></polyline>
<path clip-path="url(#clip302)" d="M2199.39 1474.57 L2199.39 1486.45 L2215.68 1486.45 L2215.68 1474.57 L2199.39 1474.57 L2199.39 1474.57  Z" fill="#009af9" fill-rule="evenodd" fill-opacity="1"></path>
<polyline clip-path="url(#clip302)" style="stroke:#000000; stroke-linecap:round; stroke-linejoin:round; stroke-width:4; stroke-opacity:1; fill:none" points="2199.39,1474.57 2199.39,1486.45 2215.68,1486.45 2215.68,1474.57 2199.39,1474.57 "></polyline>
<path clip-path="url(#clip302)" d="M2215.68 1475.81 L2215.68 1486.45 L2231.96 1486.45 L2231.96 1475.81 L2215.68 1475.81 L2215.68 1475.81  Z" fill="#009af9" fill-rule="evenodd" fill-opacity="1"></path>
<polyline clip-path="url(#clip302)" style="stroke:#000000; stroke-linecap:round; stroke-linejoin:round; stroke-width:4; stroke-opacity:1; fill:none" points="2215.68,1475.81 2215.68,1486.45 2231.96,1486.45 2231.96,1475.81 2215.68,1475.81 "></polyline>
<circle clip-path="url(#clip302)" style="fill:#009af9; stroke:none; fill-opacity:0" cx="285.535" cy="1476.36" r="2"></circle>
<circle clip-path="url(#clip302)" style="fill:#009af9; stroke:none; fill-opacity:0" cx="301.823" cy="1476.26" r="2"></circle>
<circle clip-path="url(#clip302)" style="fill:#009af9; stroke:none; fill-opacity:0" cx="318.111" cy="1474.02" r="2"></circle>
<circle clip-path="url(#clip302)" style="fill:#009af9; stroke:none; fill-opacity:0" cx="334.399" cy="1473.47" r="2"></circle>
<circle clip-path="url(#clip302)" style="fill:#009af9; stroke:none; fill-opacity:0" cx="350.687" cy="1468.18" r="2"></circle>
<circle clip-path="url(#clip302)" style="fill:#009af9; stroke:none; fill-opacity:0" cx="366.975" cy="1460.94" r="2"></circle>
<circle clip-path="url(#clip302)" style="fill:#009af9; stroke:none; fill-opacity:0" cx="383.263" cy="1450.6" r="2"></circle>
<circle clip-path="url(#clip302)" style="fill:#009af9; stroke:none; fill-opacity:0" cx="399.552" cy="1436.02" r="2"></circle>
<circle clip-path="url(#clip302)" style="fill:#009af9; stroke:none; fill-opacity:0" cx="415.84" cy="1426.84" r="2"></circle>
<circle clip-path="url(#clip302)" style="fill:#009af9; stroke:none; fill-opacity:0" cx="432.128" cy="1416.35" r="2"></circle>
<circle clip-path="url(#clip302)" style="fill:#009af9; stroke:none; fill-opacity:0" cx="448.416" cy="1412.21" r="2"></circle>
<circle clip-path="url(#clip302)" style="fill:#009af9; stroke:none; fill-opacity:0" cx="464.704" cy="1416.95" r="2"></circle>
<circle clip-path="url(#clip302)" style="fill:#009af9; stroke:none; fill-opacity:0" cx="480.992" cy="1417" r="2"></circle>
<circle clip-path="url(#clip302)" style="fill:#009af9; stroke:none; fill-opacity:0" cx="497.28" cy="1430.18" r="2"></circle>
<circle clip-path="url(#clip302)" style="fill:#009af9; stroke:none; fill-opacity:0" cx="513.568" cy="1436.22" r="2"></circle>
<circle clip-path="url(#clip302)" style="fill:#009af9; stroke:none; fill-opacity:0" cx="529.856" cy="1444.26" r="2"></circle>
<circle clip-path="url(#clip302)" style="fill:#009af9; stroke:none; fill-opacity:0" cx="546.145" cy="1441.17" r="2"></circle>
<circle clip-path="url(#clip302)" style="fill:#009af9; stroke:none; fill-opacity:0" cx="562.433" cy="1434.33" r="2"></circle>
<circle clip-path="url(#clip302)" style="fill:#009af9; stroke:none; fill-opacity:0" cx="578.721" cy="1413.11" r="2"></circle>
<circle clip-path="url(#clip302)" style="fill:#009af9; stroke:none; fill-opacity:0" cx="595.009" cy="1389.59" r="2"></circle>
<circle clip-path="url(#clip302)" style="fill:#009af9; stroke:none; fill-opacity:0" cx="611.297" cy="1357.04" r="2"></circle>
<circle clip-path="url(#clip302)" style="fill:#009af9; stroke:none; fill-opacity:0" cx="627.585" cy="1312.51" r="2"></circle>
<circle clip-path="url(#clip302)" style="fill:#009af9; stroke:none; fill-opacity:0" cx="643.873" cy="1278.81" r="2"></circle>
<circle clip-path="url(#clip302)" style="fill:#009af9; stroke:none; fill-opacity:0" cx="660.161" cy="1246.26" r="2"></circle>
<circle clip-path="url(#clip302)" style="fill:#009af9; stroke:none; fill-opacity:0" cx="676.449" cy="1220" r="2"></circle>
<circle clip-path="url(#clip302)" style="fill:#009af9; stroke:none; fill-opacity:0" cx="692.737" cy="1222.59" r="2"></circle>
<circle clip-path="url(#clip302)" style="fill:#009af9; stroke:none; fill-opacity:0" cx="709.026" cy="1222.24" r="2"></circle>
<circle clip-path="url(#clip302)" style="fill:#009af9; stroke:none; fill-opacity:0" cx="725.314" cy="1232.33" r="2"></circle>
<circle clip-path="url(#clip302)" style="fill:#009af9; stroke:none; fill-opacity:0" cx="741.602" cy="1235.87" r="2"></circle>
<circle clip-path="url(#clip302)" style="fill:#009af9; stroke:none; fill-opacity:0" cx="757.89" cy="1193.98" r="2"></circle>
<circle clip-path="url(#clip302)" style="fill:#009af9; stroke:none; fill-opacity:0" cx="774.178" cy="1140.31" r="2"></circle>
<circle clip-path="url(#clip302)" style="fill:#009af9; stroke:none; fill-opacity:0" cx="790.466" cy="1061.78" r="2"></circle>
<circle clip-path="url(#clip302)" style="fill:#009af9; stroke:none; fill-opacity:0" cx="806.754" cy="996.878" r="2"></circle>
<circle clip-path="url(#clip302)" style="fill:#009af9; stroke:none; fill-opacity:0" cx="823.042" cy="949.648" r="2"></circle>
<circle clip-path="url(#clip302)" style="fill:#009af9; stroke:none; fill-opacity:0" cx="839.33" cy="938.016" r="2"></circle>
<circle clip-path="url(#clip302)" style="fill:#009af9; stroke:none; fill-opacity:0" cx="855.619" cy="970.817" r="2"></circle>
<circle clip-path="url(#clip302)" style="fill:#009af9; stroke:none; fill-opacity:0" cx="871.907" cy="1020.09" r="2"></circle>
<circle clip-path="url(#clip302)" style="fill:#009af9; stroke:none; fill-opacity:0" cx="888.195" cy="1088.54" r="2"></circle>
<circle clip-path="url(#clip302)" style="fill:#009af9; stroke:none; fill-opacity:0" cx="904.483" cy="1136.57" r="2"></circle>
<circle clip-path="url(#clip302)" style="fill:#009af9; stroke:none; fill-opacity:0" cx="920.771" cy="1180.8" r="2"></circle>
<circle clip-path="url(#clip302)" style="fill:#009af9; stroke:none; fill-opacity:0" cx="937.059" cy="1185.2" r="2"></circle>
<circle clip-path="url(#clip302)" style="fill:#009af9; stroke:none; fill-opacity:0" cx="953.347" cy="1158.64" r="2"></circle>
<circle clip-path="url(#clip302)" style="fill:#009af9; stroke:none; fill-opacity:0" cx="969.635" cy="1058.29" r="2"></circle>
<circle clip-path="url(#clip302)" style="fill:#009af9; stroke:none; fill-opacity:0" cx="985.923" cy="924.985" r="2"></circle>
<circle clip-path="url(#clip302)" style="fill:#009af9; stroke:none; fill-opacity:0" cx="1002.21" cy="702.866" r="2"></circle>
<circle clip-path="url(#clip302)" style="fill:#009af9; stroke:none; fill-opacity:0" cx="1018.5" cy="468.616" r="2"></circle>
<circle clip-path="url(#clip302)" style="fill:#009af9; stroke:none; fill-opacity:0" cx="1034.79" cy="239.807" r="2"></circle>
<circle clip-path="url(#clip302)" style="fill:#009af9; stroke:none; fill-opacity:0" cx="1051.08" cy="93.6749" r="2"></circle>
<circle clip-path="url(#clip302)" style="fill:#009af9; stroke:none; fill-opacity:0" cx="1067.36" cy="64.718" r="2"></circle>
<circle clip-path="url(#clip302)" style="fill:#009af9; stroke:none; fill-opacity:0" cx="1083.65" cy="129.821" r="2"></circle>
<circle clip-path="url(#clip302)" style="fill:#009af9; stroke:none; fill-opacity:0" cx="1099.94" cy="283.791" r="2"></circle>
<circle clip-path="url(#clip302)" style="fill:#009af9; stroke:none; fill-opacity:0" cx="1116.23" cy="500.718" r="2"></circle>
<circle clip-path="url(#clip302)" style="fill:#009af9; stroke:none; fill-opacity:0" cx="1132.52" cy="660.23" r="2"></circle>
<circle clip-path="url(#clip302)" style="fill:#009af9; stroke:none; fill-opacity:0" cx="1148.8" cy="775.258" r="2"></circle>
<circle clip-path="url(#clip302)" style="fill:#009af9; stroke:none; fill-opacity:0" cx="1165.09" cy="811.504" r="2"></circle>
<circle clip-path="url(#clip302)" style="fill:#009af9; stroke:none; fill-opacity:0" cx="1181.38" cy="783.746" r="2"></circle>
<circle clip-path="url(#clip302)" style="fill:#009af9; stroke:none; fill-opacity:0" cx="1197.67" cy="705.562" r="2"></circle>
<circle clip-path="url(#clip302)" style="fill:#009af9; stroke:none; fill-opacity:0" cx="1213.96" cy="653.24" r="2"></circle>
<circle clip-path="url(#clip302)" style="fill:#009af9; stroke:none; fill-opacity:0" cx="1230.24" cy="613.4" r="2"></circle>
<circle clip-path="url(#clip302)" style="fill:#009af9; stroke:none; fill-opacity:0" cx="1246.53" cy="600.719" r="2"></circle>
<circle clip-path="url(#clip302)" style="fill:#009af9; stroke:none; fill-opacity:0" cx="1262.82" cy="602.266" r="2"></circle>
<circle clip-path="url(#clip302)" style="fill:#009af9; stroke:none; fill-opacity:0" cx="1279.11" cy="620.439" r="2"></circle>
<circle clip-path="url(#clip302)" style="fill:#009af9; stroke:none; fill-opacity:0" cx="1295.4" cy="655.287" r="2"></circle>
<circle clip-path="url(#clip302)" style="fill:#009af9; stroke:none; fill-opacity:0" cx="1311.69" cy="710.006" r="2"></circle>
<circle clip-path="url(#clip302)" style="fill:#009af9; stroke:none; fill-opacity:0" cx="1327.97" cy="768.618" r="2"></circle>
<circle clip-path="url(#clip302)" style="fill:#009af9; stroke:none; fill-opacity:0" cx="1344.26" cy="805.064" r="2"></circle>
<circle clip-path="url(#clip302)" style="fill:#009af9; stroke:none; fill-opacity:0" cx="1360.55" cy="769.367" r="2"></circle>
<circle clip-path="url(#clip302)" style="fill:#009af9; stroke:none; fill-opacity:0" cx="1376.84" cy="666.121" r="2"></circle>
<circle clip-path="url(#clip302)" style="fill:#009af9; stroke:none; fill-opacity:0" cx="1393.13" cy="498.721" r="2"></circle>
<circle clip-path="url(#clip302)" style="fill:#009af9; stroke:none; fill-opacity:0" cx="1409.41" cy="292.828" r="2"></circle>
<circle clip-path="url(#clip302)" style="fill:#009af9; stroke:none; fill-opacity:0" cx="1425.7" cy="145.048" r="2"></circle>
<circle clip-path="url(#clip302)" style="fill:#009af9; stroke:none; fill-opacity:0" cx="1441.99" cy="47.2441" r="2"></circle>
<circle clip-path="url(#clip302)" style="fill:#009af9; stroke:none; fill-opacity:0" cx="1458.28" cy="105.957" r="2"></circle>
<circle clip-path="url(#clip302)" style="fill:#009af9; stroke:none; fill-opacity:0" cx="1474.57" cy="244.4" r="2"></circle>
<circle clip-path="url(#clip302)" style="fill:#009af9; stroke:none; fill-opacity:0" cx="1490.85" cy="464.672" r="2"></circle>
<circle clip-path="url(#clip302)" style="fill:#009af9; stroke:none; fill-opacity:0" cx="1507.14" cy="710.255" r="2"></circle>
<circle clip-path="url(#clip302)" style="fill:#009af9; stroke:none; fill-opacity:0" cx="1523.43" cy="913.952" r="2"></circle>
<circle clip-path="url(#clip302)" style="fill:#009af9; stroke:none; fill-opacity:0" cx="1539.72" cy="1063.88" r="2"></circle>
<circle clip-path="url(#clip302)" style="fill:#009af9; stroke:none; fill-opacity:0" cx="1556.01" cy="1144.86" r="2"></circle>
<circle clip-path="url(#clip302)" style="fill:#009af9; stroke:none; fill-opacity:0" cx="1572.3" cy="1181.85" r="2"></circle>
<circle clip-path="url(#clip302)" style="fill:#009af9; stroke:none; fill-opacity:0" cx="1588.58" cy="1178.91" r="2"></circle>
<circle clip-path="url(#clip302)" style="fill:#009af9; stroke:none; fill-opacity:0" cx="1604.87" cy="1146.36" r="2"></circle>
<circle clip-path="url(#clip302)" style="fill:#009af9; stroke:none; fill-opacity:0" cx="1621.16" cy="1083.2" r="2"></circle>
<circle clip-path="url(#clip302)" style="fill:#009af9; stroke:none; fill-opacity:0" cx="1637.45" cy="1024.09" r="2"></circle>
<circle clip-path="url(#clip302)" style="fill:#009af9; stroke:none; fill-opacity:0" cx="1653.74" cy="958.186" r="2"></circle>
<circle clip-path="url(#clip302)" style="fill:#009af9; stroke:none; fill-opacity:0" cx="1670.02" cy="947.002" r="2"></circle>
<circle clip-path="url(#clip302)" style="fill:#009af9; stroke:none; fill-opacity:0" cx="1686.31" cy="949.449" r="2"></circle>
<circle clip-path="url(#clip302)" style="fill:#009af9; stroke:none; fill-opacity:0" cx="1702.6" cy="993.283" r="2"></circle>
<circle clip-path="url(#clip302)" style="fill:#009af9; stroke:none; fill-opacity:0" cx="1718.89" cy="1075.01" r="2"></circle>
<circle clip-path="url(#clip302)" style="fill:#009af9; stroke:none; fill-opacity:0" cx="1735.18" cy="1133.77" r="2"></circle>
<circle clip-path="url(#clip302)" style="fill:#009af9; stroke:none; fill-opacity:0" cx="1751.46" cy="1196.68" r="2"></circle>
<circle clip-path="url(#clip302)" style="fill:#009af9; stroke:none; fill-opacity:0" cx="1767.75" cy="1225.24" r="2"></circle>
<circle clip-path="url(#clip302)" style="fill:#009af9; stroke:none; fill-opacity:0" cx="1784.04" cy="1238.02" r="2"></circle>
<circle clip-path="url(#clip302)" style="fill:#009af9; stroke:none; fill-opacity:0" cx="1800.33" cy="1234.62" r="2"></circle>
<circle clip-path="url(#clip302)" style="fill:#009af9; stroke:none; fill-opacity:0" cx="1816.62" cy="1224.29" r="2"></circle>
<circle clip-path="url(#clip302)" style="fill:#009af9; stroke:none; fill-opacity:0" cx="1832.9" cy="1222.94" r="2"></circle>
<circle clip-path="url(#clip302)" style="fill:#009af9; stroke:none; fill-opacity:0" cx="1849.19" cy="1251.95" r="2"></circle>
<circle clip-path="url(#clip302)" style="fill:#009af9; stroke:none; fill-opacity:0" cx="1865.48" cy="1276.56" r="2"></circle>
<circle clip-path="url(#clip302)" style="fill:#009af9; stroke:none; fill-opacity:0" cx="1881.77" cy="1317.8" r="2"></circle>
<circle clip-path="url(#clip302)" style="fill:#009af9; stroke:none; fill-opacity:0" cx="1898.06" cy="1357.29" r="2"></circle>
<circle clip-path="url(#clip302)" style="fill:#009af9; stroke:none; fill-opacity:0" cx="1914.35" cy="1391.49" r="2"></circle>
<circle clip-path="url(#clip302)" style="fill:#009af9; stroke:none; fill-opacity:0" cx="1930.63" cy="1415" r="2"></circle>
<circle clip-path="url(#clip302)" style="fill:#009af9; stroke:none; fill-opacity:0" cx="1946.92" cy="1432.63" r="2"></circle>
<circle clip-path="url(#clip302)" style="fill:#009af9; stroke:none; fill-opacity:0" cx="1963.21" cy="1440.47" r="2"></circle>
<circle clip-path="url(#clip302)" style="fill:#009af9; stroke:none; fill-opacity:0" cx="1979.5" cy="1441.12" r="2"></circle>
<circle clip-path="url(#clip302)" style="fill:#009af9; stroke:none; fill-opacity:0" cx="1995.79" cy="1438.07" r="2"></circle>
<circle clip-path="url(#clip302)" style="fill:#009af9; stroke:none; fill-opacity:0" cx="2012.07" cy="1429.18" r="2"></circle>
<circle clip-path="url(#clip302)" style="fill:#009af9; stroke:none; fill-opacity:0" cx="2028.36" cy="1419.7" r="2"></circle>
<circle clip-path="url(#clip302)" style="fill:#009af9; stroke:none; fill-opacity:0" cx="2044.65" cy="1412.21" r="2"></circle>
<circle clip-path="url(#clip302)" style="fill:#009af9; stroke:none; fill-opacity:0" cx="2060.94" cy="1408.56" r="2"></circle>
<circle clip-path="url(#clip302)" style="fill:#009af9; stroke:none; fill-opacity:0" cx="2077.23" cy="1415.45" r="2"></circle>
<circle clip-path="url(#clip302)" style="fill:#009af9; stroke:none; fill-opacity:0" cx="2093.51" cy="1427.39" r="2"></circle>
<circle clip-path="url(#clip302)" style="fill:#009af9; stroke:none; fill-opacity:0" cx="2109.8" cy="1439.32" r="2"></circle>
<circle clip-path="url(#clip302)" style="fill:#009af9; stroke:none; fill-opacity:0" cx="2126.09" cy="1450.7" r="2"></circle>
<circle clip-path="url(#clip302)" style="fill:#009af9; stroke:none; fill-opacity:0" cx="2142.38" cy="1460.04" r="2"></circle>
<circle clip-path="url(#clip302)" style="fill:#009af9; stroke:none; fill-opacity:0" cx="2158.67" cy="1468.18" r="2"></circle>
<circle clip-path="url(#clip302)" style="fill:#009af9; stroke:none; fill-opacity:0" cx="2174.95" cy="1472.97" r="2"></circle>
<circle clip-path="url(#clip302)" style="fill:#009af9; stroke:none; fill-opacity:0" cx="2191.24" cy="1475.96" r="2"></circle>
<circle clip-path="url(#clip302)" style="fill:#009af9; stroke:none; fill-opacity:0" cx="2207.53" cy="1474.57" r="2"></circle>
<circle clip-path="url(#clip302)" style="fill:#009af9; stroke:none; fill-opacity:0" cx="2223.82" cy="1475.81" r="2"></circle>
<polyline clip-path="url(#clip302)" style="stroke:#000000; stroke-linecap:round; stroke-linejoin:round; stroke-width:8; stroke-opacity:1; fill:none" points="218.754,1480.83 224.101,1480.5 229.448,1480.18 234.795,1479.85 240.143,1479.52 271.461,1477.66 302.78,1476.14 318.439,1475.04 334.098,1472.87 349.758,1468.71 365.417,1461.78 379.986,1452.71 394.556,1441.75 409.125,1430.35 423.695,1420.42 433.459,1415.56 443.223,1412.67 452.987,1411.96 462.751,1413.44 482.28,1421.57 501.808,1432.65 517.945,1440.11 534.081,1443.26 542.149,1442.65 550.218,1440.39 558.286,1436.34 566.354,1430.37 573.857,1423.01 581.36,1413.79 588.862,1402.66 596.365,1389.58 603.868,1374.63 611.37,1357.97 618.873,1339.9 626.376,1320.88 635.794,1296.6 645.212,1273.25 654.631,1252.43 664.049,1235.68 668.758,1229.22 673.468,1224.17 678.177,1220.59 682.886,1218.45 692.305,1218.23 701.723,1222.28 710.171,1227.83 718.62,1233.17 722.844,1235.08 727.068,1236.12 731.292,1236.03 735.516,1234.56 739.741,1231.52 743.965,1226.74 748.189,1220.09 752.413,1211.5 756.637,1200.98 760.862,1188.55 765.086,1174.33 769.31,1158.48 778.98,1117.34 788.651,1072.44 793.486,1049.93 798.321,1028.14 803.156,1007.65 807.991,988.995 812.826,972.655 817.662,959.048 822.497,948.505 827.332,941.261 832.167,937.449 837.002,937.1 839.42,938.204 841.837,940.14 844.255,942.884 846.672,946.406 850.287,953.049 853.901,961.225 857.515,970.785 861.13,981.564 868.358,1006.07 875.587,1033.28 882.815,1061.71 890.044,1089.96 897.272,1116.75 904.501,1140.93 909.124,1154.54 913.746,1166.41 918.369,1176.27 922.992,1183.87 927.615,1188.95 932.237,1191.23 936.86,1190.41 941.483,1186.19 943.794,1182.7 946.106,1178.24 948.417,1172.77 950.728,1166.25 953.04,1158.63 955.351,1149.89 957.662,1139.98 959.974,1128.87 962.285,1116.53 964.596,1102.93 966.908,1088.05 969.219,1071.86 971.531,1054.37 973.842,1035.55 976.153,1015.42 978.465,993.966 980.574,973.252 982.684,951.471 984.793,928.646 986.903,904.807 991.122,854.23 995.341,800.103 999.561,742.894 1003.78,683.178 1008,621.629 1012.22,559.015 1016.44,496.182 1020.66,434.038 1024.88,373.538 1029.09,315.654 1031.2,287.997 1033.31,261.356 1035.42,235.848 1037.53,211.585 1039.64,188.677 1041.75,167.226 1043.86,147.33 1045.97,129.08 1048.37,110.419 1050.77,94.108 1053.17,80.2433 1055.58,68.9049 1057.98,60.1558 1060.38,54.0417 1062.78,50.5905 1065.18,49.8111 1067.58,51.6939 1069.98,56.2103 1072.38,63.3131 1074.78,72.9365 1077.18,84.9967 1079.59,99.3927 1081.99,116.007 1084.39,134.706 1086.79,155.343 1089.19,177.758 1091.59,201.778 1093.99,227.222 1098.79,281.612 1103.6,339.339 1108.4,398.764 1113.2,458.261 1118,516.27 1122.8,571.357 1126.61,612.105 1130.42,649.676 1132.32,667.127 1134.22,683.624 1136.13,699.126 1138.03,713.599 1139.93,727.015 1141.84,739.353 1143.74,750.598 1145.64,760.742 1147.55,769.783 1149.45,777.724 1151.35,784.575 1153.26,790.351 1155.16,795.074 1157.06,798.768 1158.97,801.463 1160.87,803.196 1164.68,803.93 1168.48,801.318 1172.29,795.756 1176.1,787.667 1179.9,777.492 1183.71,765.676 1193.17,731.976 1202.63,696.752 1207.35,680.048 1212.08,664.522 1216.81,650.461 1221.54,638.053 1226.27,627.393 1231,618.506 1235.73,611.366 1240.46,605.914 1245.19,602.083 1249.92,599.81 1254.65,599.051 1259.38,599.791 1266.62,603.874 1273.86,611.687 1277.49,617.067 1281.11,623.467 1284.73,630.904 1288.35,639.381 1295.59,659.362 1302.84,682.937 1310.08,709.096 1317.33,736.221 1322.43,754.745 1327.54,771.729 1332.64,786.155 1337.75,796.957 1340.3,800.666 1342.86,803.074 1345.41,804.06 1347.96,803.508 1350.52,801.313 1353.07,797.38 1355.62,791.629 1358.18,783.993 1360.73,774.42 1363.28,762.879 1365.84,749.353 1368.39,733.847 1370.94,716.386 1373.49,697.017 1376.05,675.804 1378.6,652.835 1381.15,628.219 1383.71,602.082 1386.26,574.573 1388.81,545.856 1393.92,485.542 1399.03,422.773 1402.84,375.345 1406.66,328.36 1410.47,282.641 1414.29,239.012 1416.2,218.233 1418.1,198.275 1420.01,179.233 1421.92,161.198 1423.83,144.257 1425.74,128.493 1427.64,113.984 1429.55,100.801 1431.46,89.0127 1433.37,78.6784 1435.28,69.8526 1437.18,62.5825 1439.09,56.9086 1441,52.8639 1442.91,50.4742 1444.82,49.7579 1446.72,50.7259 1448.63,53.3813 1450.54,57.72 1452.45,63.7304 1454.36,71.3936 1456.26,80.6837 1458.17,91.5676 1460.08,104.006 1462.25,119.981 1464.42,137.83 1466.59,157.466 1468.76,178.795 1470.93,201.713 1473.1,226.11 1475.27,251.87 1477.44,278.873 1481.78,336.101 1486.12,396.756 1490.46,459.778 1494.79,524.114 1499.13,588.745 1503.47,652.712 1507.81,715.132 1512.15,775.224 1514.32,804.18 1516.49,832.31 1518.66,859.547 1520.83,885.832 1523,911.114 1525.17,935.35 1527.34,958.502 1529.51,980.542 1531.66,1001.25 1533.81,1020.83 1535.96,1039.27 1538.11,1056.57 1540.25,1072.73 1542.4,1087.75 1544.55,1101.65 1546.7,1114.44 1548.85,1126.14 1551,1136.77 1553.15,1146.35 1555.3,1154.92 1557.44,1162.49 1559.59,1169.11 1561.74,1174.79 1563.89,1179.58 1568.19,1186.59 1572.49,1190.41 1576.78,1191.28 1581.08,1189.45 1585.38,1185.17 1589.68,1178.66 1593.97,1170.14 1598.27,1159.8 1603,1146.59 1607.73,1131.7 1612.45,1115.42 1617.18,1098.05 1626.64,1061.32 1636.1,1024.32 1640.82,1006.7 1645.55,990.219 1650.28,975.296 1655.01,962.332 1659.74,951.701 1664.46,943.736 1669.19,938.712 1673.92,936.836 1677.53,937.606 1681.14,940.31 1684.75,944.938 1688.37,951.448 1691.98,959.766 1695.59,969.786 1699.2,981.372 1702.81,994.362 1710.03,1023.79 1717.26,1056.35 1724.48,1090.16 1731.7,1123.31 1736.26,1143.08 1740.82,1161.49 1745.37,1178.22 1749.93,1192.99 1754.49,1205.63 1759.05,1216.03 1763.6,1224.16 1768.16,1230.08 1772.72,1233.92 1777.28,1235.86 1781.83,1236.17 1786.39,1235.12 1795.51,1230.31 1804.62,1224.15 1813.05,1219.53 1821.48,1217.7 1825.69,1218.24 1829.91,1219.87 1834.12,1222.66 1838.34,1226.62 1842.56,1231.74 1846.77,1237.97 1850.99,1245.22 1855.2,1253.4 1863.63,1272.04 1872.06,1292.78 1880.75,1315.15 1889.45,1337.33 1898.14,1358.34 1906.84,1377.46 1915.53,1394.23 1924.23,1408.44 1932.92,1420.05 1941.61,1429.15 1950.43,1435.93 1959.24,1440.43 1968.05,1442.79 1976.86,1443.19 1994.49,1438.96 2012.11,1430.09 2030.52,1419.77 2048.92,1412.9 2058.12,1411.93 2067.33,1412.9 2076.53,1415.82 2085.73,1420.46 2100.23,1430.35 2114.73,1441.7 2129.22,1452.6 2143.72,1461.66 2160.23,1468.92 2176.74,1473.15 2193.24,1475.25 2209.75,1476.3 2242.77,1477.93 2275.78,1479.92 2279.49,1480.15 2283.19,1480.38 2286.9,1480.6 2290.6,1480.83 "></polyline>
<path clip-path="url(#clip300)" d="M2007.5 250.738 L2279.55 250.738 L2279.55 95.2176 L2007.5 95.2176  Z" fill="#ffffff" fill-rule="evenodd" fill-opacity="1"></path>
<polyline clip-path="url(#clip300)" style="stroke:#000000; stroke-linecap:round; stroke-linejoin:round; stroke-width:4; stroke-opacity:1; fill:none" points="2007.5,250.738 2279.55,250.738 2279.55,95.2176 2007.5,95.2176 2007.5,250.738 "></polyline>
<path clip-path="url(#clip300)" d="M2031.91 167.794 L2178.32 167.794 L2178.32 126.322 L2031.91 126.322 L2031.91 167.794  Z" fill="#009af9" fill-rule="evenodd" fill-opacity="1"></path>
<polyline clip-path="url(#clip300)" style="stroke:#000000; stroke-linecap:round; stroke-linejoin:round; stroke-width:4; stroke-opacity:1; fill:none" points="2031.91,167.794 2178.32,167.794 2178.32,126.322 2031.91,126.322 2031.91,167.794 "></polyline>
<path clip-path="url(#clip300)" d="M2216.56 166.745 Q2214.76 171.375 2213.04 172.787 Q2211.33 174.199 2208.46 174.199 L2205.06 174.199 L2205.06 170.634 L2207.56 170.634 Q2209.32 170.634 2210.29 169.8 Q2211.26 168.967 2212.44 165.865 L2213.2 163.921 L2202.72 138.412 L2207.23 138.412 L2215.33 158.689 L2223.44 138.412 L2227.95 138.412 L2216.56 166.745 Z" fill="#000000" fill-rule="nonzero" fill-opacity="1"></path><path clip-path="url(#clip300)" d="M2235.24 160.402 L2242.88 160.402 L2242.88 134.037 L2234.57 135.703 L2234.57 131.444 L2242.83 129.778 L2247.51 129.778 L2247.51 160.402 L2255.15 160.402 L2255.15 164.338 L2235.24 164.338 L2235.24 160.402 Z" fill="#000000" fill-rule="nonzero" fill-opacity="1"></path><polyline clip-path="url(#clip300)" style="stroke:#000000; stroke-linecap:round; stroke-linejoin:round; stroke-width:8; stroke-opacity:1; fill:none" points="2031.91,198.898 2178.32,198.898 "></polyline>
<path clip-path="url(#clip300)" d="M2216.56 218.585 Q2214.76 223.215 2213.04 224.627 Q2211.33 226.039 2208.46 226.039 L2205.06 226.039 L2205.06 222.474 L2207.56 222.474 Q2209.32 222.474 2210.29 221.64 Q2211.26 220.807 2212.44 217.705 L2213.2 215.761 L2202.72 190.252 L2207.23 190.252 L2215.33 210.529 L2223.44 190.252 L2227.95 190.252 L2216.56 218.585 Z" fill="#000000" fill-rule="nonzero" fill-opacity="1"></path><path clip-path="url(#clip300)" d="M2238.46 212.242 L2254.78 212.242 L2254.78 216.178 L2232.83 216.178 L2232.83 212.242 Q2235.5 209.488 2240.08 204.858 Q2244.69 200.205 2245.87 198.863 Q2248.11 196.34 2248.99 194.604 Q2249.89 192.844 2249.89 191.155 Q2249.89 188.4 2247.95 186.664 Q2246.03 184.928 2242.93 184.928 Q2240.73 184.928 2238.27 185.692 Q2235.84 186.455 2233.07 188.006 L2233.07 183.284 Q2235.89 182.15 2238.34 181.571 Q2240.8 180.993 2242.83 180.993 Q2248.2 180.993 2251.4 183.678 Q2254.59 186.363 2254.59 190.854 Q2254.59 192.983 2253.78 194.905 Q2253 196.803 2250.89 199.395 Q2250.31 200.067 2247.21 203.284 Q2244.11 206.479 2238.46 212.242 Z" fill="#000000" fill-rule="nonzero" fill-opacity="1"></path></svg>