<svg xmlns="http://www.w3.org/2000/svg" xmlns:xlink="http://www.w3.org/1999/xlink" width="600" height="400" viewBox="0 0 2400 1600">
<defs>
  <clipPath id="clip740">
    <rect x="0" y="0" width="2400" height="1600"></rect>
  </clipPath>
</defs>
<path clip-path="url(#clip740)" d="M0 1600 L2400 1600 L2400 0 L0 0  Z" fill="#ffffff" fill-rule="evenodd" fill-opacity="1"></path>
<defs>
  <clipPath id="clip741">
    <rect x="480" y="0" width="1681" height="1600"></rect>
  </clipPath>
</defs>
<path clip-path="url(#clip740)" d="M156.598 1486.45 L2352.76 1486.45 L2352.76 47.2441 L156.598 47.2441  Z" fill="#ffffff" fill-rule="evenodd" fill-opacity="1"></path>
<defs>
  <clipPath id="clip742">
    <rect x="156" y="47" width="2197" height="1440"></rect>
  </clipPath>
</defs>
<polyline clip-path="url(#clip742)" style="stroke:#000000; stroke-linecap:round; stroke-linejoin:round; stroke-width:2; stroke-opacity:0.1; fill:none" points="299.108,1486.45 299.108,47.2441 "></polyline>
<polyline clip-path="url(#clip742)" style="stroke:#000000; stroke-linecap:round; stroke-linejoin:round; stroke-width:2; stroke-opacity:0.1; fill:none" points="733.458,1486.45 733.458,47.2441 "></polyline>
<polyline clip-path="url(#clip742)" style="stroke:#000000; stroke-linecap:round; stroke-linejoin:round; stroke-width:2; stroke-opacity:0.1; fill:none" points="1167.81,1486.45 1167.81,47.2441 "></polyline>
<polyline clip-path="url(#clip742)" style="stroke:#000000; stroke-linecap:round; stroke-linejoin:round; stroke-width:2; stroke-opacity:0.1; fill:none" points="1602.16,1486.45 1602.16,47.2441 "></polyline>
<polyline clip-path="url(#clip742)" style="stroke:#000000; stroke-linecap:round; stroke-linejoin:round; stroke-width:2; stroke-opacity:0.1; fill:none" points="2036.51,1486.45 2036.51,47.2441 "></polyline>
<polyline clip-path="url(#clip742)" style="stroke:#000000; stroke-linecap:round; stroke-linejoin:round; stroke-width:2; stroke-opacity:0.1; fill:none" points="156.598,1486.45 2352.76,1486.45 "></polyline>
<polyline clip-path="url(#clip742)" style="stroke:#000000; stroke-linecap:round; stroke-linejoin:round; stroke-width:2; stroke-opacity:0.1; fill:none" points="156.598,1129.94 2352.76,1129.94 "></polyline>
<polyline clip-path="url(#clip742)" style="stroke:#000000; stroke-linecap:round; stroke-linejoin:round; stroke-width:2; stroke-opacity:0.1; fill:none" points="156.598,773.441 2352.76,773.441 "></polyline>
<polyline clip-path="url(#clip742)" style="stroke:#000000; stroke-linecap:round; stroke-linejoin:round; stroke-width:2; stroke-opacity:0.1; fill:none" points="156.598,416.938 2352.76,416.938 "></polyline>
<polyline clip-path="url(#clip742)" style="stroke:#000000; stroke-linecap:round; stroke-linejoin:round; stroke-width:2; stroke-opacity:0.1; fill:none" points="156.598,60.4347 2352.76,60.4347 "></polyline>
<polyline clip-path="url(#clip740)" style="stroke:#000000; stroke-linecap:round; stroke-linejoin:round; stroke-width:4; stroke-opacity:1; fill:none" points="156.598,1486.45 2352.76,1486.45 "></polyline>
<polyline clip-path="url(#clip740)" style="stroke:#000000; stroke-linecap:round; stroke-linejoin:round; stroke-width:4; stroke-opacity:1; fill:none" points="299.108,1486.45 299.108,1467.55 "></polyline>
<polyline clip-path="url(#clip740)" style="stroke:#000000; stroke-linecap:round; stroke-linejoin:round; stroke-width:4; stroke-opacity:1; fill:none" points="733.458,1486.45 733.458,1467.55 "></polyline>
<polyline clip-path="url(#clip740)" style="stroke:#000000; stroke-linecap:round; stroke-linejoin:round; stroke-width:4; stroke-opacity:1; fill:none" points="1167.81,1486.45 1167.81,1467.55 "></polyline>
<polyline clip-path="url(#clip740)" style="stroke:#000000; stroke-linecap:round; stroke-linejoin:round; stroke-width:4; stroke-opacity:1; fill:none" points="1602.16,1486.45 1602.16,1467.55 "></polyline>
<polyline clip-path="url(#clip740)" style="stroke:#000000; stroke-linecap:round; stroke-linejoin:round; stroke-width:4; stroke-opacity:1; fill:none" points="2036.51,1486.45 2036.51,1467.55 "></polyline>
<path clip-path="url(#clip740)" d="M268.009 1532.02 L297.685 1532.02 L297.685 1535.95 L268.009 1535.95 L268.009 1532.02 Z" fill="#000000" fill-rule="nonzero" fill-opacity="1"></path><path clip-path="url(#clip740)" d="M320.624 1518.36 L308.819 1536.81 L320.624 1536.81 L320.624 1518.36 M319.398 1514.29 L325.277 1514.29 L325.277 1536.81 L330.208 1536.81 L330.208 1540.7 L325.277 1540.7 L325.277 1548.85 L320.624 1548.85 L320.624 1540.7 L305.023 1540.7 L305.023 1536.19 L319.398 1514.29 Z" fill="#000000" fill-rule="nonzero" fill-opacity="1"></path><path clip-path="url(#clip740)" d="M703.4 1532.02 L733.076 1532.02 L733.076 1535.95 L703.4 1535.95 L703.4 1532.02 Z" fill="#000000" fill-rule="nonzero" fill-opacity="1"></path><path clip-path="url(#clip740)" d="M747.196 1544.91 L763.515 1544.91 L763.515 1548.85 L741.571 1548.85 L741.571 1544.91 Q744.233 1542.16 748.816 1537.53 Q753.423 1532.88 754.603 1531.53 Q756.849 1529.01 757.728 1527.27 Q758.631 1525.51 758.631 1523.82 Q758.631 1521.07 756.687 1519.33 Q754.765 1517.6 751.664 1517.6 Q749.465 1517.6 747.011 1518.36 Q744.58 1519.13 741.803 1520.68 L741.803 1515.95 Q744.627 1514.82 747.08 1514.24 Q749.534 1513.66 751.571 1513.66 Q756.941 1513.66 760.136 1516.35 Q763.33 1519.03 763.33 1523.52 Q763.33 1525.65 762.52 1527.57 Q761.733 1529.47 759.627 1532.07 Q759.048 1532.74 755.946 1535.95 Q752.844 1539.15 747.196 1544.91 Z" fill="#000000" fill-rule="nonzero" fill-opacity="1"></path><path clip-path="url(#clip740)" d="M1167.81 1517.37 Q1164.2 1517.37 1162.37 1520.93 Q1160.56 1524.47 1160.56 1531.6 Q1160.56 1538.71 1162.37 1542.27 Q1164.2 1545.82 1167.81 1545.82 Q1171.44 1545.82 1173.25 1542.27 Q1175.08 1538.71 1175.08 1531.6 Q1175.08 1524.47 1173.25 1520.93 Q1171.44 1517.37 1167.81 1517.37 M1167.81 1513.66 Q1173.62 1513.66 1176.67 1518.27 Q1179.75 1522.85 1179.75 1531.6 Q1179.75 1540.33 1176.67 1544.94 Q1173.62 1549.52 1167.81 1549.52 Q1162 1549.52 1158.92 1544.94 Q1155.86 1540.33 1155.86 1531.6 Q1155.86 1522.85 1158.92 1518.27 Q1162 1513.66 1167.81 1513.66 Z" fill="#000000" fill-rule="nonzero" fill-opacity="1"></path><path clip-path="url(#clip740)" d="M1596.81 1544.91 L1613.13 1544.91 L1613.13 1548.85 L1591.18 1548.85 L1591.18 1544.91 Q1593.85 1542.16 1598.43 1537.53 Q1603.04 1532.88 1604.22 1531.53 Q1606.46 1529.01 1607.34 1527.27 Q1608.24 1525.51 1608.24 1523.82 Q1608.24 1521.07 1606.3 1519.33 Q1604.38 1517.6 1601.28 1517.6 Q1599.08 1517.6 1596.62 1518.36 Q1594.19 1519.13 1591.42 1520.68 L1591.42 1515.95 Q1594.24 1514.82 1596.69 1514.24 Q1599.15 1513.66 1601.18 1513.66 Q1606.55 1513.66 1609.75 1516.35 Q1612.94 1519.03 1612.94 1523.52 Q1612.94 1525.65 1612.13 1527.57 Q1611.35 1529.47 1609.24 1532.07 Q1608.66 1532.74 1605.56 1535.95 Q1602.46 1539.15 1596.81 1544.91 Z" fill="#000000" fill-rule="nonzero" fill-opacity="1"></path><path clip-path="url(#clip740)" d="M2039.52 1518.36 L2027.71 1536.81 L2039.52 1536.81 L2039.52 1518.36 M2038.29 1514.29 L2044.17 1514.29 L2044.17 1536.81 L2049.1 1536.81 L2049.1 1540.7 L2044.17 1540.7 L2044.17 1548.85 L2039.52 1548.85 L2039.52 1540.7 L2023.91 1540.7 L2023.91 1536.19 L2038.29 1514.29 Z" fill="#000000" fill-rule="nonzero" fill-opacity="1"></path><polyline clip-path="url(#clip740)" style="stroke:#000000; stroke-linecap:round; stroke-linejoin:round; stroke-width:4; stroke-opacity:1; fill:none" points="156.598,1486.45 156.598,47.2441 "></polyline>
<polyline clip-path="url(#clip740)" style="stroke:#000000; stroke-linecap:round; stroke-linejoin:round; stroke-width:4; stroke-opacity:1; fill:none" points="156.598,1486.45 175.496,1486.45 "></polyline>
<polyline clip-path="url(#clip740)" style="stroke:#000000; stroke-linecap:round; stroke-linejoin:round; stroke-width:4; stroke-opacity:1; fill:none" points="156.598,1129.94 175.496,1129.94 "></polyline>
<polyline clip-path="url(#clip740)" style="stroke:#000000; stroke-linecap:round; stroke-linejoin:round; stroke-width:4; stroke-opacity:1; fill:none" points="156.598,773.441 175.496,773.441 "></polyline>
<polyline clip-path="url(#clip740)" style="stroke:#000000; stroke-linecap:round; stroke-linejoin:round; stroke-width:4; stroke-opacity:1; fill:none" points="156.598,416.938 175.496,416.938 "></polyline>
<polyline clip-path="url(#clip740)" style="stroke:#000000; stroke-linecap:round; stroke-linejoin:round; stroke-width:4; stroke-opacity:1; fill:none" points="156.598,60.4347 175.496,60.4347 "></polyline>
<path clip-path="url(#clip740)" d="M63.4226 1472.25 Q59.8115 1472.25 57.9828 1475.81 Q56.1773 1479.35 56.1773 1486.48 Q56.1773 1493.59 57.9828 1497.15 Q59.8115 1500.7 63.4226 1500.7 Q67.0569 1500.7 68.8624 1497.15 Q70.6911 1493.59 70.6911 1486.48 Q70.6911 1479.35 68.8624 1475.81 Q67.0569 1472.25 63.4226 1472.25 M63.4226 1468.54 Q69.2328 1468.54 72.2883 1473.15 Q75.367 1477.73 75.367 1486.48 Q75.367 1495.21 72.2883 1499.82 Q69.2328 1504.4 63.4226 1504.4 Q57.6125 1504.4 54.5338 1499.82 Q51.4782 1495.21 51.4782 1486.48 Q51.4782 1477.73 54.5338 1473.15 Q57.6125 1468.54 63.4226 1468.54 Z" fill="#000000" fill-rule="nonzero" fill-opacity="1"></path><path clip-path="url(#clip740)" d="M83.5845 1497.85 L88.4688 1497.85 L88.4688 1503.73 L83.5845 1503.73 L83.5845 1497.85 Z" fill="#000000" fill-rule="nonzero" fill-opacity="1"></path><path clip-path="url(#clip740)" d="M108.654 1472.25 Q105.043 1472.25 103.214 1475.81 Q101.409 1479.35 101.409 1486.48 Q101.409 1493.59 103.214 1497.15 Q105.043 1500.7 108.654 1500.7 Q112.288 1500.7 114.094 1497.15 Q115.922 1493.59 115.922 1486.48 Q115.922 1479.35 114.094 1475.81 Q112.288 1472.25 108.654 1472.25 M108.654 1468.54 Q114.464 1468.54 117.52 1473.15 Q120.598 1477.73 120.598 1486.48 Q120.598 1495.21 117.52 1499.82 Q114.464 1504.4 108.654 1504.4 Q102.844 1504.4 99.765 1499.82 Q96.7095 1495.21 96.7095 1486.48 Q96.7095 1477.73 99.765 1473.15 Q102.844 1468.54 108.654 1468.54 Z" fill="#000000" fill-rule="nonzero" fill-opacity="1"></path><path clip-path="url(#clip740)" d="M64.6495 1115.74 Q61.0384 1115.74 59.2097 1119.31 Q57.4041 1122.85 57.4041 1129.98 Q57.4041 1137.09 59.2097 1140.65 Q61.0384 1144.19 64.6495 1144.19 Q68.2837 1144.19 70.0892 1140.65 Q71.9179 1137.09 71.9179 1129.98 Q71.9179 1122.85 70.0892 1119.31 Q68.2837 1115.74 64.6495 1115.74 M64.6495 1112.04 Q70.4596 1112.04 73.5152 1116.65 Q76.5938 1121.23 76.5938 1129.98 Q76.5938 1138.71 73.5152 1143.31 Q70.4596 1147.9 64.6495 1147.9 Q58.8393 1147.9 55.7606 1143.31 Q52.7051 1138.71 52.7051 1129.98 Q52.7051 1121.23 55.7606 1116.65 Q58.8393 1112.04 64.6495 1112.04 Z" fill="#000000" fill-rule="nonzero" fill-opacity="1"></path><path clip-path="url(#clip740)" d="M84.8114 1141.34 L89.6956 1141.34 L89.6956 1147.22 L84.8114 1147.22 L84.8114 1141.34 Z" fill="#000000" fill-rule="nonzero" fill-opacity="1"></path><path clip-path="url(#clip740)" d="M100.691 1143.29 L108.33 1143.29 L108.33 1116.92 L100.02 1118.59 L100.02 1114.33 L108.283 1112.66 L112.959 1112.66 L112.959 1143.29 L120.598 1143.29 L120.598 1147.22 L100.691 1147.22 L100.691 1143.29 Z" fill="#000000" fill-rule="nonzero" fill-opacity="1"></path><path clip-path="url(#clip740)" d="M65.0198 759.24 Q61.4087 759.24 59.58 762.805 Q57.7745 766.346 57.7745 773.476 Q57.7745 780.582 59.58 784.147 Q61.4087 787.689 65.0198 787.689 Q68.6541 787.689 70.4596 784.147 Q72.2883 780.582 72.2883 773.476 Q72.2883 766.346 70.4596 762.805 Q68.6541 759.24 65.0198 759.24 M65.0198 755.536 Q70.83 755.536 73.8855 760.143 Q76.9642 764.726 76.9642 773.476 Q76.9642 782.203 73.8855 786.809 Q70.83 791.393 65.0198 791.393 Q59.2097 791.393 56.131 786.809 Q53.0754 782.203 53.0754 773.476 Q53.0754 764.726 56.131 760.143 Q59.2097 755.536 65.0198 755.536 Z" fill="#000000" fill-rule="nonzero" fill-opacity="1"></path><path clip-path="url(#clip740)" d="M85.1818 784.842 L90.066 784.842 L90.066 790.721 L85.1818 790.721 L85.1818 784.842 Z" fill="#000000" fill-rule="nonzero" fill-opacity="1"></path><path clip-path="url(#clip740)" d="M104.279 786.786 L120.598 786.786 L120.598 790.721 L98.6539 790.721 L98.6539 786.786 Q101.316 784.032 105.899 779.402 Q110.506 774.749 111.686 773.407 Q113.932 770.883 114.811 769.147 Q115.714 767.388 115.714 765.698 Q115.714 762.944 113.77 761.208 Q111.848 759.471 108.746 759.471 Q106.547 759.471 104.094 760.235 Q101.663 760.999 98.8854 762.55 L98.8854 757.828 Q101.709 756.694 104.163 756.115 Q106.617 755.536 108.654 755.536 Q114.024 755.536 117.219 758.221 Q120.413 760.907 120.413 765.397 Q120.413 767.527 119.603 769.448 Q118.816 771.346 116.709 773.939 Q116.131 774.61 113.029 777.828 Q109.927 781.022 104.279 786.786 Z" fill="#000000" fill-rule="nonzero" fill-opacity="1"></path><path clip-path="url(#clip740)" d="M64.0708 402.737 Q60.4597 402.737 58.631 406.301 Q56.8254 409.843 56.8254 416.973 Q56.8254 424.079 58.631 427.644 Q60.4597 431.186 64.0708 431.186 Q67.705 431.186 69.5105 427.644 Q71.3392 424.079 71.3392 416.973 Q71.3392 409.843 69.5105 406.301 Q67.705 402.737 64.0708 402.737 M64.0708 399.033 Q69.8809 399.033 72.9365 403.639 Q76.0151 408.223 76.0151 416.973 Q76.0151 425.7 72.9365 430.306 Q69.8809 434.889 64.0708 434.889 Q58.2606 434.889 55.1819 430.306 Q52.1264 425.7 52.1264 416.973 Q52.1264 408.223 55.1819 403.639 Q58.2606 399.033 64.0708 399.033 Z" fill="#000000" fill-rule="nonzero" fill-opacity="1"></path><path clip-path="url(#clip740)" d="M84.2327 428.338 L89.1169 428.338 L89.1169 434.218 L84.2327 434.218 L84.2327 428.338 Z" fill="#000000" fill-rule="nonzero" fill-opacity="1"></path><path clip-path="url(#clip740)" d="M113.469 415.584 Q116.825 416.301 118.7 418.57 Q120.598 420.838 120.598 424.172 Q120.598 429.287 117.08 432.088 Q113.561 434.889 107.08 434.889 Q104.904 434.889 102.589 434.449 Q100.297 434.033 97.8437 433.176 L97.8437 428.662 Q99.7882 429.797 102.103 430.375 Q104.418 430.954 106.941 430.954 Q111.339 430.954 113.631 429.218 Q115.945 427.482 115.945 424.172 Q115.945 421.116 113.793 419.403 Q111.663 417.667 107.844 417.667 L103.816 417.667 L103.816 413.825 L108.029 413.825 Q111.478 413.825 113.307 412.459 Q115.135 411.07 115.135 408.477 Q115.135 405.815 113.237 404.403 Q111.362 402.968 107.844 402.968 Q105.922 402.968 103.723 403.385 Q101.524 403.802 98.8854 404.681 L98.8854 400.514 Q101.547 399.774 103.862 399.403 Q106.2 399.033 108.26 399.033 Q113.584 399.033 116.686 401.464 Q119.788 403.871 119.788 407.991 Q119.788 410.862 118.145 412.852 Q116.501 414.82 113.469 415.584 Z" fill="#000000" fill-rule="nonzero" fill-opacity="1"></path><path clip-path="url(#clip740)" d="M62.9365 46.2334 Q59.3254 46.2334 57.4967 49.7982 Q55.6912 53.3398 55.6912 60.4694 Q55.6912 67.5759 57.4967 71.1407 Q59.3254 74.6823 62.9365 74.6823 Q66.5707 74.6823 68.3763 71.1407 Q70.205 67.5759 70.205 60.4694 Q70.205 53.3398 68.3763 49.7982 Q66.5707 46.2334 62.9365 46.2334 M62.9365 42.5297 Q68.7467 42.5297 71.8022 47.1362 Q74.8809 51.7195 74.8809 60.4694 Q74.8809 69.1962 71.8022 73.8027 Q68.7467 78.386 62.9365 78.386 Q57.1264 78.386 54.0477 73.8027 Q50.9921 69.1962 50.9921 60.4694 Q50.9921 51.7195 54.0477 47.1362 Q57.1264 42.5297 62.9365 42.5297 Z" fill="#000000" fill-rule="nonzero" fill-opacity="1"></path><path clip-path="url(#clip740)" d="M83.0984 71.8351 L87.9827 71.8351 L87.9827 77.7147 L83.0984 77.7147 L83.0984 71.8351 Z" fill="#000000" fill-rule="nonzero" fill-opacity="1"></path><path clip-path="url(#clip740)" d="M111.015 47.2288 L99.2095 65.6777 L111.015 65.6777 L111.015 47.2288 M109.788 43.1547 L115.668 43.1547 L115.668 65.6777 L120.598 65.6777 L120.598 69.5666 L115.668 69.5666 L115.668 77.7147 L111.015 77.7147 L111.015 69.5666 L95.4132 69.5666 L95.4132 65.0527 L109.788 43.1547 Z" fill="#000000" fill-rule="nonzero" fill-opacity="1"></path><path clip-path="url(#clip742)" d="M277.391 1486.09 L277.391 1486.45 L299.108 1486.45 L299.108 1486.09 L277.391 1486.09 L277.391 1486.09  Z" fill="#009af9" fill-rule="evenodd" fill-opacity="1"></path>
<polyline clip-path="url(#clip742)" style="stroke:#000000; stroke-linecap:round; stroke-linejoin:round; stroke-width:4; stroke-opacity:1; fill:none" points="277.391,1486.09 277.391,1486.45 299.108,1486.45 299.108,1486.09 277.391,1486.09 "></polyline>
<path clip-path="url(#clip742)" d="M299.108 1486.09 L299.108 1486.45 L320.826 1486.45 L320.826 1486.09 L299.108 1486.09 L299.108 1486.09  Z" fill="#009af9" fill-rule="evenodd" fill-opacity="1"></path>
<polyline clip-path="url(#clip742)" style="stroke:#000000; stroke-linecap:round; stroke-linejoin:round; stroke-width:4; stroke-opacity:1; fill:none" points="299.108,1486.09 299.108,1486.45 320.826,1486.45 320.826,1486.09 299.108,1486.09 "></polyline>
<path clip-path="url(#clip742)" d="M320.826 1485.73 L320.826 1486.45 L342.543 1486.45 L342.543 1485.73 L320.826 1485.73 L320.826 1485.73  Z" fill="#009af9" fill-rule="evenodd" fill-opacity="1"></path>
<polyline clip-path="url(#clip742)" style="stroke:#000000; stroke-linecap:round; stroke-linejoin:round; stroke-width:4; stroke-opacity:1; fill:none" points="320.826,1485.73 320.826,1486.45 342.543,1486.45 342.543,1485.73 320.826,1485.73 "></polyline>
<path clip-path="url(#clip742)" d="M342.543 1485.73 L342.543 1486.45 L364.261 1486.45 L364.261 1485.73 L342.543 1485.73 L342.543 1485.73  Z" fill="#009af9" fill-rule="evenodd" fill-opacity="1"></path>
<polyline clip-path="url(#clip742)" style="stroke:#000000; stroke-linecap:round; stroke-linejoin:round; stroke-width:4; stroke-opacity:1; fill:none" points="342.543,1485.73 342.543,1486.45 364.261,1486.45 364.261,1485.73 342.543,1485.73 "></polyline>
<path clip-path="url(#clip742)" d="M364.261 1484.67 L364.261 1486.45 L385.978 1486.45 L385.978 1484.67 L364.261 1484.67 L364.261 1484.67  Z" fill="#009af9" fill-rule="evenodd" fill-opacity="1"></path>
<polyline clip-path="url(#clip742)" style="stroke:#000000; stroke-linecap:round; stroke-linejoin:round; stroke-width:4; stroke-opacity:1; fill:none" points="364.261,1484.67 364.261,1486.45 385.978,1486.45 385.978,1484.67 364.261,1484.67 "></polyline>
<path clip-path="url(#clip742)" d="M385.978 1481.46 L385.978 1486.45 L407.696 1486.45 L407.696 1481.46 L385.978 1481.46 L385.978 1481.46  Z" fill="#009af9" fill-rule="evenodd" fill-opacity="1"></path>
<polyline clip-path="url(#clip742)" style="stroke:#000000; stroke-linecap:round; stroke-linejoin:round; stroke-width:4; stroke-opacity:1; fill:none" points="385.978,1481.46 385.978,1486.45 407.696,1486.45 407.696,1481.46 385.978,1481.46 "></polyline>
<path clip-path="url(#clip742)" d="M407.696 1483.95 L407.696 1486.45 L429.413 1486.45 L429.413 1483.95 L407.696 1483.95 L407.696 1483.95  Z" fill="#009af9" fill-rule="evenodd" fill-opacity="1"></path>
<polyline clip-path="url(#clip742)" style="stroke:#000000; stroke-linecap:round; stroke-linejoin:round; stroke-width:4; stroke-opacity:1; fill:none" points="407.696,1483.95 407.696,1486.45 429.413,1486.45 429.413,1483.95 407.696,1483.95 "></polyline>
<path clip-path="url(#clip742)" d="M429.413 1482.17 L429.413 1486.45 L451.131 1486.45 L451.131 1482.17 L429.413 1482.17 L429.413 1482.17  Z" fill="#009af9" fill-rule="evenodd" fill-opacity="1"></path>
<polyline clip-path="url(#clip742)" style="stroke:#000000; stroke-linecap:round; stroke-linejoin:round; stroke-width:4; stroke-opacity:1; fill:none" points="429.413,1482.17 429.413,1486.45 451.131,1486.45 451.131,1482.17 429.413,1482.17 "></polyline>
<path clip-path="url(#clip742)" d="M451.131 1480.39 L451.131 1486.45 L472.848 1486.45 L472.848 1480.39 L451.131 1480.39 L451.131 1480.39  Z" fill="#009af9" fill-rule="evenodd" fill-opacity="1"></path>
<polyline clip-path="url(#clip742)" style="stroke:#000000; stroke-linecap:round; stroke-linejoin:round; stroke-width:4; stroke-opacity:1; fill:none" points="451.131,1480.39 451.131,1486.45 472.848,1486.45 472.848,1480.39 451.131,1480.39 "></polyline>
<path clip-path="url(#clip742)" d="M472.848 1476.82 L472.848 1486.45 L494.566 1486.45 L494.566 1476.82 L472.848 1476.82 L472.848 1476.82  Z" fill="#009af9" fill-rule="evenodd" fill-opacity="1"></path>
<polyline clip-path="url(#clip742)" style="stroke:#000000; stroke-linecap:round; stroke-linejoin:round; stroke-width:4; stroke-opacity:1; fill:none" points="472.848,1476.82 472.848,1486.45 494.566,1486.45 494.566,1476.82 472.848,1476.82 "></polyline>
<path clip-path="url(#clip742)" d="M494.566 1475.04 L494.566 1486.45 L516.283 1486.45 L516.283 1475.04 L494.566 1475.04 L494.566 1475.04  Z" fill="#009af9" fill-rule="evenodd" fill-opacity="1"></path>
<polyline clip-path="url(#clip742)" style="stroke:#000000; stroke-linecap:round; stroke-linejoin:round; stroke-width:4; stroke-opacity:1; fill:none" points="494.566,1475.04 494.566,1486.45 516.283,1486.45 516.283,1475.04 494.566,1475.04 "></polyline>
<path clip-path="url(#clip742)" d="M516.283 1465.06 L516.283 1486.45 L538 1486.45 L538 1465.06 L516.283 1465.06 L516.283 1465.06  Z" fill="#009af9" fill-rule="evenodd" fill-opacity="1"></path>
<polyline clip-path="url(#clip742)" style="stroke:#000000; stroke-linecap:round; stroke-linejoin:round; stroke-width:4; stroke-opacity:1; fill:none" points="516.283,1465.06 516.283,1486.45 538,1486.45 538,1465.06 516.283,1465.06 "></polyline>
<path clip-path="url(#clip742)" d="M538 1464.34 L538 1486.45 L559.718 1486.45 L559.718 1464.34 L538 1464.34 L538 1464.34  Z" fill="#009af9" fill-rule="evenodd" fill-opacity="1"></path>
<polyline clip-path="url(#clip742)" style="stroke:#000000; stroke-linecap:round; stroke-linejoin:round; stroke-width:4; stroke-opacity:1; fill:none" points="538,1464.34 538,1486.45 559.718,1486.45 559.718,1464.34 538,1464.34 "></polyline>
<path clip-path="url(#clip742)" d="M559.718 1455.43 L559.718 1486.45 L581.435 1486.45 L581.435 1455.43 L559.718 1455.43 L559.718 1455.43  Z" fill="#009af9" fill-rule="evenodd" fill-opacity="1"></path>
<polyline clip-path="url(#clip742)" style="stroke:#000000; stroke-linecap:round; stroke-linejoin:round; stroke-width:4; stroke-opacity:1; fill:none" points="559.718,1455.43 559.718,1486.45 581.435,1486.45 581.435,1455.43 559.718,1455.43 "></polyline>
<path clip-path="url(#clip742)" d="M581.435 1440.1 L581.435 1486.45 L603.153 1486.45 L603.153 1440.1 L581.435 1440.1 L581.435 1440.1  Z" fill="#009af9" fill-rule="evenodd" fill-opacity="1"></path>
<polyline clip-path="url(#clip742)" style="stroke:#000000; stroke-linecap:round; stroke-linejoin:round; stroke-width:4; stroke-opacity:1; fill:none" points="581.435,1440.1 581.435,1486.45 603.153,1486.45 603.153,1440.1 581.435,1440.1 "></polyline>
<path clip-path="url(#clip742)" d="M603.153 1430.48 L603.153 1486.45 L624.87 1486.45 L624.87 1430.48 L603.153 1430.48 L603.153 1430.48  Z" fill="#009af9" fill-rule="evenodd" fill-opacity="1"></path>
<polyline clip-path="url(#clip742)" style="stroke:#000000; stroke-linecap:round; stroke-linejoin:round; stroke-width:4; stroke-opacity:1; fill:none" points="603.153,1430.48 603.153,1486.45 624.87,1486.45 624.87,1430.48 603.153,1430.48 "></polyline>
<path clip-path="url(#clip742)" d="M624.87 1419.43 L624.87 1486.45 L646.588 1486.45 L646.588 1419.43 L624.87 1419.43 L624.87 1419.43  Z" fill="#009af9" fill-rule="evenodd" fill-opacity="1"></path>
<polyline clip-path="url(#clip742)" style="stroke:#000000; stroke-linecap:round; stroke-linejoin:round; stroke-width:4; stroke-opacity:1; fill:none" points="624.87,1419.43 624.87,1486.45 646.588,1486.45 646.588,1419.43 624.87,1419.43 "></polyline>
<path clip-path="url(#clip742)" d="M646.588 1396.61 L646.588 1486.45 L668.305 1486.45 L668.305 1396.61 L646.588 1396.61 L646.588 1396.61  Z" fill="#009af9" fill-rule="evenodd" fill-opacity="1"></path>
<polyline clip-path="url(#clip742)" style="stroke:#000000; stroke-linecap:round; stroke-linejoin:round; stroke-width:4; stroke-opacity:1; fill:none" points="646.588,1396.61 646.588,1486.45 668.305,1486.45 668.305,1396.61 646.588,1396.61 "></polyline>
<path clip-path="url(#clip742)" d="M668.305 1380.21 L668.305 1486.45 L690.023 1486.45 L690.023 1380.21 L668.305 1380.21 L668.305 1380.21  Z" fill="#009af9" fill-rule="evenodd" fill-opacity="1"></path>
<polyline clip-path="url(#clip742)" style="stroke:#000000; stroke-linecap:round; stroke-linejoin:round; stroke-width:4; stroke-opacity:1; fill:none" points="668.305,1380.21 668.305,1486.45 690.023,1486.45 690.023,1380.21 668.305,1380.21 "></polyline>
<path clip-path="url(#clip742)" d="M690.023 1349.55 L690.023 1486.45 L711.74 1486.45 L711.74 1349.55 L690.023 1349.55 L690.023 1349.55  Z" fill="#009af9" fill-rule="evenodd" fill-opacity="1"></path>
<polyline clip-path="url(#clip742)" style="stroke:#000000; stroke-linecap:round; stroke-linejoin:round; stroke-width:4; stroke-opacity:1; fill:none" points="690.023,1349.55 690.023,1486.45 711.74,1486.45 711.74,1349.55 690.023,1349.55 "></polyline>
<path clip-path="url(#clip742)" d="M711.74 1312.83 L711.74 1486.45 L733.458 1486.45 L733.458 1312.83 L711.74 1312.83 L711.74 1312.83  Z" fill="#009af9" fill-rule="evenodd" fill-opacity="1"></path>
<polyline clip-path="url(#clip742)" style="stroke:#000000; stroke-linecap:round; stroke-linejoin:round; stroke-width:4; stroke-opacity:1; fill:none" points="711.74,1312.83 711.74,1486.45 733.458,1486.45 733.458,1312.83 711.74,1312.83 "></polyline>
<path clip-path="url(#clip742)" d="M733.458 1291.44 L733.458 1486.45 L755.175 1486.45 L755.175 1291.44 L733.458 1291.44 L733.458 1291.44  Z" fill="#009af9" fill-rule="evenodd" fill-opacity="1"></path>
<polyline clip-path="url(#clip742)" style="stroke:#000000; stroke-linecap:round; stroke-linejoin:round; stroke-width:4; stroke-opacity:1; fill:none" points="733.458,1291.44 733.458,1486.45 755.175,1486.45 755.175,1291.44 733.458,1291.44 "></polyline>
<path clip-path="url(#clip742)" d="M755.175 1225.13 L755.175 1486.45 L776.893 1486.45 L776.893 1225.13 L755.175 1225.13 L755.175 1225.13  Z" fill="#009af9" fill-rule="evenodd" fill-opacity="1"></path>
<polyline clip-path="url(#clip742)" style="stroke:#000000; stroke-linecap:round; stroke-linejoin:round; stroke-width:4; stroke-opacity:1; fill:none" points="755.175,1225.13 755.175,1486.45 776.893,1486.45 776.893,1225.13 755.175,1225.13 "></polyline>
<path clip-path="url(#clip742)" d="M776.893 1185.92 L776.893 1486.45 L798.61 1486.45 L798.61 1185.92 L776.893 1185.92 L776.893 1185.92  Z" fill="#009af9" fill-rule="evenodd" fill-opacity="1"></path>
<polyline clip-path="url(#clip742)" style="stroke:#000000; stroke-linecap:round; stroke-linejoin:round; stroke-width:4; stroke-opacity:1; fill:none" points="776.893,1185.92 776.893,1486.45 798.61,1486.45 798.61,1185.92 776.893,1185.92 "></polyline>
<path clip-path="url(#clip742)" d="M798.61 1123.17 L798.61 1486.45 L820.328 1486.45 L820.328 1123.17 L798.61 1123.17 L798.61 1123.17  Z" fill="#009af9" fill-rule="evenodd" fill-opacity="1"></path>
<polyline clip-path="url(#clip742)" style="stroke:#000000; stroke-linecap:round; stroke-linejoin:round; stroke-width:4; stroke-opacity:1; fill:none" points="798.61,1123.17 798.61,1486.45 820.328,1486.45 820.328,1123.17 798.61,1123.17 "></polyline>
<path clip-path="url(#clip742)" d="M820.328 1056.86 L820.328 1486.45 L842.045 1486.45 L842.045 1056.86 L820.328 1056.86 L820.328 1056.86  Z" fill="#009af9" fill-rule="evenodd" fill-opacity="1"></path>
<polyline clip-path="url(#clip742)" style="stroke:#000000; stroke-linecap:round; stroke-linejoin:round; stroke-width:4; stroke-opacity:1; fill:none" points="820.328,1056.86 820.328,1486.45 842.045,1486.45 842.045,1056.86 820.328,1056.86 "></polyline>
<path clip-path="url(#clip742)" d="M842.045 968.805 L842.045 1486.45 L863.763 1486.45 L863.763 968.805 L842.045 968.805 L842.045 968.805  Z" fill="#009af9" fill-rule="evenodd" fill-opacity="1"></path>
<polyline clip-path="url(#clip742)" style="stroke:#000000; stroke-linecap:round; stroke-linejoin:round; stroke-width:4; stroke-opacity:1; fill:none" points="842.045,968.805 842.045,1486.45 863.763,1486.45 863.763,968.805 842.045,968.805 "></polyline>
<path clip-path="url(#clip742)" d="M863.763 929.233 L863.763 1486.45 L885.48 1486.45 L885.48 929.233 L863.763 929.233 L863.763 929.233  Z" fill="#009af9" fill-rule="evenodd" fill-opacity="1"></path>
<polyline clip-path="url(#clip742)" style="stroke:#000000; stroke-linecap:round; stroke-linejoin:round; stroke-width:4; stroke-opacity:1; fill:none" points="863.763,929.233 863.763,1486.45 885.48,1486.45 885.48,929.233 863.763,929.233 "></polyline>
<path clip-path="url(#clip742)" d="M885.48 830.482 L885.48 1486.45 L907.198 1486.45 L907.198 830.482 L885.48 830.482 L885.48 830.482  Z" fill="#009af9" fill-rule="evenodd" fill-opacity="1"></path>
<polyline clip-path="url(#clip742)" style="stroke:#000000; stroke-linecap:round; stroke-linejoin:round; stroke-width:4; stroke-opacity:1; fill:none" points="885.48,830.482 885.48,1486.45 907.198,1486.45 907.198,830.482 885.48,830.482 "></polyline>
<path clip-path="url(#clip742)" d="M907.198 770.946 L907.198 1486.45 L928.915 1486.45 L928.915 770.946 L907.198 770.946 L907.198 770.946  Z" fill="#009af9" fill-rule="evenodd" fill-opacity="1"></path>
<polyline clip-path="url(#clip742)" style="stroke:#000000; stroke-linecap:round; stroke-linejoin:round; stroke-width:4; stroke-opacity:1; fill:none" points="907.198,770.946 907.198,1486.45 928.915,1486.45 928.915,770.946 907.198,770.946 "></polyline>
<path clip-path="url(#clip742)" d="M928.915 641.179 L928.915 1486.45 L950.632 1486.45 L950.632 641.179 L928.915 641.179 L928.915 641.179  Z" fill="#009af9" fill-rule="evenodd" fill-opacity="1"></path>
<polyline clip-path="url(#clip742)" style="stroke:#000000; stroke-linecap:round; stroke-linejoin:round; stroke-width:4; stroke-opacity:1; fill:none" points="928.915,641.179 928.915,1486.45 950.632,1486.45 950.632,641.179 928.915,641.179 "></polyline>
<path clip-path="url(#clip742)" d="M950.632 589.486 L950.632 1486.45 L972.35 1486.45 L972.35 589.486 L950.632 589.486 L950.632 589.486  Z" fill="#009af9" fill-rule="evenodd" fill-opacity="1"></path>
<polyline clip-path="url(#clip742)" style="stroke:#000000; stroke-linecap:round; stroke-linejoin:round; stroke-width:4; stroke-opacity:1; fill:none" points="950.632,589.486 950.632,1486.45 972.35,1486.45 972.35,589.486 950.632,589.486 "></polyline>
<path clip-path="url(#clip742)" d="M972.35 519.611 L972.35 1486.45 L994.067 1486.45 L994.067 519.611 L972.35 519.611 L972.35 519.611  Z" fill="#009af9" fill-rule="evenodd" fill-opacity="1"></path>
<polyline clip-path="url(#clip742)" style="stroke:#000000; stroke-linecap:round; stroke-linejoin:round; stroke-width:4; stroke-opacity:1; fill:none" points="972.35,519.611 972.35,1486.45 994.067,1486.45 994.067,519.611 972.35,519.611 "></polyline>
<path clip-path="url(#clip742)" d="M994.067 405.886 L994.067 1486.45 L1015.78 1486.45 L1015.78 405.886 L994.067 405.886 L994.067 405.886  Z" fill="#009af9" fill-rule="evenodd" fill-opacity="1"></path>
<polyline clip-path="url(#clip742)" style="stroke:#000000; stroke-linecap:round; stroke-linejoin:round; stroke-width:4; stroke-opacity:1; fill:none" points="994.067,405.886 994.067,1486.45 1015.78,1486.45 1015.78,405.886 994.067,405.886 "></polyline>
<path clip-path="url(#clip742)" d="M1015.78 321.752 L1015.78 1486.45 L1037.5 1486.45 L1037.5 321.752 L1015.78 321.752 L1015.78 321.752  Z" fill="#009af9" fill-rule="evenodd" fill-opacity="1"></path>
<polyline clip-path="url(#clip742)" style="stroke:#000000; stroke-linecap:round; stroke-linejoin:round; stroke-width:4; stroke-opacity:1; fill:none" points="1015.78,321.752 1015.78,1486.45 1037.5,1486.45 1037.5,321.752 1015.78,321.752 "></polyline>
<path clip-path="url(#clip742)" d="M1037.5 265.068 L1037.5 1486.45 L1059.22 1486.45 L1059.22 265.068 L1037.5 265.068 L1037.5 265.068  Z" fill="#009af9" fill-rule="evenodd" fill-opacity="1"></path>
<polyline clip-path="url(#clip742)" style="stroke:#000000; stroke-linecap:round; stroke-linejoin:round; stroke-width:4; stroke-opacity:1; fill:none" points="1037.5,265.068 1037.5,1486.45 1059.22,1486.45 1059.22,265.068 1037.5,265.068 "></polyline>
<path clip-path="url(#clip742)" d="M1059.22 180.22 L1059.22 1486.45 L1080.94 1486.45 L1080.94 180.22 L1059.22 180.22 L1059.22 180.22  Z" fill="#009af9" fill-rule="evenodd" fill-opacity="1"></path>
<polyline clip-path="url(#clip742)" style="stroke:#000000; stroke-linecap:round; stroke-linejoin:round; stroke-width:4; stroke-opacity:1; fill:none" points="1059.22,180.22 1059.22,1486.45 1080.94,1486.45 1080.94,180.22 1059.22,180.22 "></polyline>
<path clip-path="url(#clip742)" d="M1080.94 141.717 L1080.94 1486.45 L1102.65 1486.45 L1102.65 141.717 L1080.94 141.717 L1080.94 141.717  Z" fill="#009af9" fill-rule="evenodd" fill-opacity="1"></path>
<polyline clip-path="url(#clip742)" style="stroke:#000000; stroke-linecap:round; stroke-linejoin:round; stroke-width:4; stroke-opacity:1; fill:none" points="1080.94,141.717 1080.94,1486.45 1102.65,1486.45 1102.65,141.717 1080.94,141.717 "></polyline>
<path clip-path="url(#clip742)" d="M1102.65 97.8676 L1102.65 1486.45 L1124.37 1486.45 L1124.37 97.8676 L1102.65 97.8676 L1102.65 97.8676  Z" fill="#009af9" fill-rule="evenodd" fill-opacity="1"></path>
<polyline clip-path="url(#clip742)" style="stroke:#000000; stroke-linecap:round; stroke-linejoin:round; stroke-width:4; stroke-opacity:1; fill:none" points="1102.65,97.8676 1102.65,1486.45 1124.37,1486.45 1124.37,97.8676 1102.65,97.8676 "></polyline>
<path clip-path="url(#clip742)" d="M1124.37 100.72 L1124.37 1486.45 L1146.09 1486.45 L1146.09 100.72 L1124.37 100.72 L1124.37 100.72  Z" fill="#009af9" fill-rule="evenodd" fill-opacity="1"></path>
<polyline clip-path="url(#clip742)" style="stroke:#000000; stroke-linecap:round; stroke-linejoin:round; stroke-width:4; stroke-opacity:1; fill:none" points="1124.37,100.72 1124.37,1486.45 1146.09,1486.45 1146.09,100.72 1124.37,100.72 "></polyline>
<path clip-path="url(#clip742)" d="M1146.09 74.3383 L1146.09 1486.45 L1167.81 1486.45 L1167.81 74.3383 L1146.09 74.3383 L1146.09 74.3383  Z" fill="#009af9" fill-rule="evenodd" fill-opacity="1"></path>
<polyline clip-path="url(#clip742)" style="stroke:#000000; stroke-linecap:round; stroke-linejoin:round; stroke-width:4; stroke-opacity:1; fill:none" points="1146.09,74.3383 1146.09,1486.45 1167.81,1486.45 1167.81,74.3383 1146.09,74.3383 "></polyline>
<path clip-path="url(#clip742)" d="M1167.81 76.4774 L1167.81 1486.45 L1189.52 1486.45 L1189.52 76.4774 L1167.81 76.4774 L1167.81 76.4774  Z" fill="#009af9" fill-rule="evenodd" fill-opacity="1"></path>
<polyline clip-path="url(#clip742)" style="stroke:#000000; stroke-linecap:round; stroke-linejoin:round; stroke-width:4; stroke-opacity:1; fill:none" points="1167.81,76.4774 1167.81,1486.45 1189.52,1486.45 1189.52,76.4774 1167.81,76.4774 "></polyline>
<path clip-path="url(#clip742)" d="M1189.52 47.2441 L1189.52 1486.45 L1211.24 1486.45 L1211.24 47.2441 L1189.52 47.2441 L1189.52 47.2441  Z" fill="#009af9" fill-rule="evenodd" fill-opacity="1"></path>
<polyline clip-path="url(#clip742)" style="stroke:#000000; stroke-linecap:round; stroke-linejoin:round; stroke-width:4; stroke-opacity:1; fill:none" points="1189.52,47.2441 1189.52,1486.45 1211.24,1486.45 1211.24,47.2441 1189.52,47.2441 "></polyline>
<path clip-path="url(#clip742)" d="M1211.24 111.415 L1211.24 1486.45 L1232.96 1486.45 L1232.96 111.415 L1211.24 111.415 L1211.24 111.415  Z" fill="#009af9" fill-rule="evenodd" fill-opacity="1"></path>
<polyline clip-path="url(#clip742)" style="stroke:#000000; stroke-linecap:round; stroke-linejoin:round; stroke-width:4; stroke-opacity:1; fill:none" points="1211.24,111.415 1211.24,1486.45 1232.96,1486.45 1232.96,111.415 1211.24,111.415 "></polyline>
<path clip-path="url(#clip742)" d="M1232.96 133.874 L1232.96 1486.45 L1254.68 1486.45 L1254.68 133.874 L1232.96 133.874 L1232.96 133.874  Z" fill="#009af9" fill-rule="evenodd" fill-opacity="1"></path>
<polyline clip-path="url(#clip742)" style="stroke:#000000; stroke-linecap:round; stroke-linejoin:round; stroke-width:4; stroke-opacity:1; fill:none" points="1232.96,133.874 1232.96,1486.45 1254.68,1486.45 1254.68,133.874 1232.96,133.874 "></polyline>
<path clip-path="url(#clip742)" d="M1254.68 228.348 L1254.68 1486.45 L1276.39 1486.45 L1276.39 228.348 L1254.68 228.348 L1254.68 228.348  Z" fill="#009af9" fill-rule="evenodd" fill-opacity="1"></path>
<polyline clip-path="url(#clip742)" style="stroke:#000000; stroke-linecap:round; stroke-linejoin:round; stroke-width:4; stroke-opacity:1; fill:none" points="1254.68,228.348 1254.68,1486.45 1276.39,1486.45 1276.39,228.348 1254.68,228.348 "></polyline>
<path clip-path="url(#clip742)" d="M1276.39 233.339 L1276.39 1486.45 L1298.11 1486.45 L1298.11 233.339 L1276.39 233.339 L1276.39 233.339  Z" fill="#009af9" fill-rule="evenodd" fill-opacity="1"></path>
<polyline clip-path="url(#clip742)" style="stroke:#000000; stroke-linecap:round; stroke-linejoin:round; stroke-width:4; stroke-opacity:1; fill:none" points="1276.39,233.339 1276.39,1486.45 1298.11,1486.45 1298.11,233.339 1276.39,233.339 "></polyline>
<path clip-path="url(#clip742)" d="M1298.11 329.238 L1298.11 1486.45 L1319.83 1486.45 L1319.83 329.238 L1298.11 329.238 L1298.11 329.238  Z" fill="#009af9" fill-rule="evenodd" fill-opacity="1"></path>
<polyline clip-path="url(#clip742)" style="stroke:#000000; stroke-linecap:round; stroke-linejoin:round; stroke-width:4; stroke-opacity:1; fill:none" points="1298.11,329.238 1298.11,1486.45 1319.83,1486.45 1319.83,329.238 1298.11,329.238 "></polyline>
<path clip-path="url(#clip742)" d="M1319.83 458.649 L1319.83 1486.45 L1341.55 1486.45 L1341.55 458.649 L1319.83 458.649 L1319.83 458.649  Z" fill="#009af9" fill-rule="evenodd" fill-opacity="1"></path>
<polyline clip-path="url(#clip742)" style="stroke:#000000; stroke-linecap:round; stroke-linejoin:round; stroke-width:4; stroke-opacity:1; fill:none" points="1319.83,458.649 1319.83,1486.45 1341.55,1486.45 1341.55,458.649 1319.83,458.649 "></polyline>
<path clip-path="url(#clip742)" d="M1341.55 497.151 L1341.55 1486.45 L1363.26 1486.45 L1363.26 497.151 L1341.55 497.151 L1341.55 497.151  Z" fill="#009af9" fill-rule="evenodd" fill-opacity="1"></path>
<polyline clip-path="url(#clip742)" style="stroke:#000000; stroke-linecap:round; stroke-linejoin:round; stroke-width:4; stroke-opacity:1; fill:none" points="1341.55,497.151 1341.55,1486.45 1363.26,1486.45 1363.26,497.151 1341.55,497.151 "></polyline>
<path clip-path="url(#clip742)" d="M1363.26 547.775 L1363.26 1486.45 L1384.98 1486.45 L1384.98 547.775 L1363.26 547.775 L1363.26 547.775  Z" fill="#009af9" fill-rule="evenodd" fill-opacity="1"></path>
<polyline clip-path="url(#clip742)" style="stroke:#000000; stroke-linecap:round; stroke-linejoin:round; stroke-width:4; stroke-opacity:1; fill:none" points="1363.26,547.775 1363.26,1486.45 1384.98,1486.45 1384.98,547.775 1363.26,547.775 "></polyline>
<path clip-path="url(#clip742)" d="M1384.98 671.838 L1384.98 1486.45 L1406.7 1486.45 L1406.7 671.838 L1384.98 671.838 L1384.98 671.838  Z" fill="#009af9" fill-rule="evenodd" fill-opacity="1"></path>
<polyline clip-path="url(#clip742)" style="stroke:#000000; stroke-linecap:round; stroke-linejoin:round; stroke-width:4; stroke-opacity:1; fill:none" points="1384.98,671.838 1384.98,1486.45 1406.7,1486.45 1406.7,671.838 1384.98,671.838 "></polyline>
<path clip-path="url(#clip742)" d="M1406.7 774.867 L1406.7 1486.45 L1428.42 1486.45 L1428.42 774.867 L1406.7 774.867 L1406.7 774.867  Z" fill="#009af9" fill-rule="evenodd" fill-opacity="1"></path>
<polyline clip-path="url(#clip742)" style="stroke:#000000; stroke-linecap:round; stroke-linejoin:round; stroke-width:4; stroke-opacity:1; fill:none" points="1406.7,774.867 1406.7,1486.45 1428.42,1486.45 1428.42,774.867 1406.7,774.867 "></polyline>
<path clip-path="url(#clip742)" d="M1428.42 829.769 L1428.42 1486.45 L1450.13 1486.45 L1450.13 829.769 L1428.42 829.769 L1428.42 829.769  Z" fill="#009af9" fill-rule="evenodd" fill-opacity="1"></path>
<polyline clip-path="url(#clip742)" style="stroke:#000000; stroke-linecap:round; stroke-linejoin:round; stroke-width:4; stroke-opacity:1; fill:none" points="1428.42,829.769 1428.42,1486.45 1450.13,1486.45 1450.13,829.769 1428.42,829.769 "></polyline>
<path clip-path="url(#clip742)" d="M1450.13 900.713 L1450.13 1486.45 L1471.85 1486.45 L1471.85 900.713 L1450.13 900.713 L1450.13 900.713  Z" fill="#009af9" fill-rule="evenodd" fill-opacity="1"></path>
<polyline clip-path="url(#clip742)" style="stroke:#000000; stroke-linecap:round; stroke-linejoin:round; stroke-width:4; stroke-opacity:1; fill:none" points="1450.13,900.713 1450.13,1486.45 1471.85,1486.45 1471.85,900.713 1450.13,900.713 "></polyline>
<path clip-path="url(#clip742)" d="M1471.85 994.473 L1471.85 1486.45 L1493.57 1486.45 L1493.57 994.473 L1471.85 994.473 L1471.85 994.473  Z" fill="#009af9" fill-rule="evenodd" fill-opacity="1"></path>
<polyline clip-path="url(#clip742)" style="stroke:#000000; stroke-linecap:round; stroke-linejoin:round; stroke-width:4; stroke-opacity:1; fill:none" points="1471.85,994.473 1471.85,1486.45 1493.57,1486.45 1493.57,994.473 1471.85,994.473 "></polyline>
<path clip-path="url(#clip742)" d="M1493.57 1061.5 L1493.57 1486.45 L1515.29 1486.45 L1515.29 1061.5 L1493.57 1061.5 L1493.57 1061.5  Z" fill="#009af9" fill-rule="evenodd" fill-opacity="1"></path>
<polyline clip-path="url(#clip742)" style="stroke:#000000; stroke-linecap:round; stroke-linejoin:round; stroke-width:4; stroke-opacity:1; fill:none" points="1493.57,1061.5 1493.57,1486.45 1515.29,1486.45 1515.29,1061.5 1493.57,1061.5 "></polyline>
<path clip-path="url(#clip742)" d="M1515.29 1121.03 L1515.29 1486.45 L1537 1486.45 L1537 1121.03 L1515.29 1121.03 L1515.29 1121.03  Z" fill="#009af9" fill-rule="evenodd" fill-opacity="1"></path>
<polyline clip-path="url(#clip742)" style="stroke:#000000; stroke-linecap:round; stroke-linejoin:round; stroke-width:4; stroke-opacity:1; fill:none" points="1515.29,1121.03 1515.29,1486.45 1537,1486.45 1537,1121.03 1515.29,1121.03 "></polyline>
<path clip-path="url(#clip742)" d="M1537 1173.79 L1537 1486.45 L1558.72 1486.45 L1558.72 1173.79 L1537 1173.79 L1537 1173.79  Z" fill="#009af9" fill-rule="evenodd" fill-opacity="1"></path>
<polyline clip-path="url(#clip742)" style="stroke:#000000; stroke-linecap:round; stroke-linejoin:round; stroke-width:4; stroke-opacity:1; fill:none" points="1537,1173.79 1537,1486.45 1558.72,1486.45 1558.72,1173.79 1537,1173.79 "></polyline>
<path clip-path="url(#clip742)" d="M1558.72 1225.49 L1558.72 1486.45 L1580.44 1486.45 L1580.44 1225.49 L1558.72 1225.49 L1558.72 1225.49  Z" fill="#009af9" fill-rule="evenodd" fill-opacity="1"></path>
<polyline clip-path="url(#clip742)" style="stroke:#000000; stroke-linecap:round; stroke-linejoin:round; stroke-width:4; stroke-opacity:1; fill:none" points="1558.72,1225.49 1558.72,1486.45 1580.44,1486.45 1580.44,1225.49 1558.72,1225.49 "></polyline>
<path clip-path="url(#clip742)" d="M1580.44 1274.68 L1580.44 1486.45 L1602.16 1486.45 L1602.16 1274.68 L1580.44 1274.68 L1580.44 1274.68  Z" fill="#009af9" fill-rule="evenodd" fill-opacity="1"></path>
<polyline clip-path="url(#clip742)" style="stroke:#000000; stroke-linecap:round; stroke-linejoin:round; stroke-width:4; stroke-opacity:1; fill:none" points="1580.44,1274.68 1580.44,1486.45 1602.16,1486.45 1602.16,1274.68 1580.44,1274.68 "></polyline>
<path clip-path="url(#clip742)" d="M1602.16 1311.76 L1602.16 1486.45 L1623.87 1486.45 L1623.87 1311.76 L1602.16 1311.76 L1602.16 1311.76  Z" fill="#009af9" fill-rule="evenodd" fill-opacity="1"></path>
<polyline clip-path="url(#clip742)" style="stroke:#000000; stroke-linecap:round; stroke-linejoin:round; stroke-width:4; stroke-opacity:1; fill:none" points="1602.16,1311.76 1602.16,1486.45 1623.87,1486.45 1623.87,1311.76 1602.16,1311.76 "></polyline>
<path clip-path="url(#clip742)" d="M1623.87 1342.42 L1623.87 1486.45 L1645.59 1486.45 L1645.59 1342.42 L1623.87 1342.42 L1623.87 1342.42  Z" fill="#009af9" fill-rule="evenodd" fill-opacity="1"></path>
<polyline clip-path="url(#clip742)" style="stroke:#000000; stroke-linecap:round; stroke-linejoin:round; stroke-width:4; stroke-opacity:1; fill:none" points="1623.87,1342.42 1623.87,1486.45 1645.59,1486.45 1645.59,1342.42 1623.87,1342.42 "></polyline>
<path clip-path="url(#clip742)" d="M1645.59 1371.65 L1645.59 1486.45 L1667.31 1486.45 L1667.31 1371.65 L1645.59 1371.65 L1645.59 1371.65  Z" fill="#009af9" fill-rule="evenodd" fill-opacity="1"></path>
<polyline clip-path="url(#clip742)" style="stroke:#000000; stroke-linecap:round; stroke-linejoin:round; stroke-width:4; stroke-opacity:1; fill:none" points="1645.59,1371.65 1645.59,1486.45 1667.31,1486.45 1667.31,1371.65 1645.59,1371.65 "></polyline>
<path clip-path="url(#clip742)" d="M1667.31 1398.75 L1667.31 1486.45 L1689.03 1486.45 L1689.03 1398.75 L1667.31 1398.75 L1667.31 1398.75  Z" fill="#009af9" fill-rule="evenodd" fill-opacity="1"></path>
<polyline clip-path="url(#clip742)" style="stroke:#000000; stroke-linecap:round; stroke-linejoin:round; stroke-width:4; stroke-opacity:1; fill:none" points="1667.31,1398.75 1667.31,1486.45 1689.03,1486.45 1689.03,1398.75 1667.31,1398.75 "></polyline>
<path clip-path="url(#clip742)" d="M1689.03 1411.94 L1689.03 1486.45 L1710.74 1486.45 L1710.74 1411.94 L1689.03 1411.94 L1689.03 1411.94  Z" fill="#009af9" fill-rule="evenodd" fill-opacity="1"></path>
<polyline clip-path="url(#clip742)" style="stroke:#000000; stroke-linecap:round; stroke-linejoin:round; stroke-width:4; stroke-opacity:1; fill:none" points="1689.03,1411.94 1689.03,1486.45 1710.74,1486.45 1710.74,1411.94 1689.03,1411.94 "></polyline>
<path clip-path="url(#clip742)" d="M1710.74 1431.9 L1710.74 1486.45 L1732.46 1486.45 L1732.46 1431.9 L1710.74 1431.9 L1710.74 1431.9  Z" fill="#009af9" fill-rule="evenodd" fill-opacity="1"></path>
<polyline clip-path="url(#clip742)" style="stroke:#000000; stroke-linecap:round; stroke-linejoin:round; stroke-width:4; stroke-opacity:1; fill:none" points="1710.74,1431.9 1710.74,1486.45 1732.46,1486.45 1732.46,1431.9 1710.74,1431.9 "></polyline>
<path clip-path="url(#clip742)" d="M1732.46 1441.88 L1732.46 1486.45 L1754.18 1486.45 L1754.18 1441.88 L1732.46 1441.88 L1732.46 1441.88  Z" fill="#009af9" fill-rule="evenodd" fill-opacity="1"></path>
<polyline clip-path="url(#clip742)" style="stroke:#000000; stroke-linecap:round; stroke-linejoin:round; stroke-width:4; stroke-opacity:1; fill:none" points="1732.46,1441.88 1732.46,1486.45 1754.18,1486.45 1754.18,1441.88 1732.46,1441.88 "></polyline>
<path clip-path="url(#clip742)" d="M1754.18 1455.79 L1754.18 1486.45 L1775.9 1486.45 L1775.9 1455.79 L1754.18 1455.79 L1754.18 1455.79  Z" fill="#009af9" fill-rule="evenodd" fill-opacity="1"></path>
<polyline clip-path="url(#clip742)" style="stroke:#000000; stroke-linecap:round; stroke-linejoin:round; stroke-width:4; stroke-opacity:1; fill:none" points="1754.18,1455.79 1754.18,1486.45 1775.9,1486.45 1775.9,1455.79 1754.18,1455.79 "></polyline>
<path clip-path="url(#clip742)" d="M1775.9 1463.28 L1775.9 1486.45 L1797.61 1486.45 L1797.61 1463.28 L1775.9 1463.28 L1775.9 1463.28  Z" fill="#009af9" fill-rule="evenodd" fill-opacity="1"></path>
<polyline clip-path="url(#clip742)" style="stroke:#000000; stroke-linecap:round; stroke-linejoin:round; stroke-width:4; stroke-opacity:1; fill:none" points="1775.9,1463.28 1775.9,1486.45 1797.61,1486.45 1797.61,1463.28 1775.9,1463.28 "></polyline>
<path clip-path="url(#clip742)" d="M1797.61 1471.47 L1797.61 1486.45 L1819.33 1486.45 L1819.33 1471.47 L1797.61 1471.47 L1797.61 1471.47  Z" fill="#009af9" fill-rule="evenodd" fill-opacity="1"></path>
<polyline clip-path="url(#clip742)" style="stroke:#000000; stroke-linecap:round; stroke-linejoin:round; stroke-width:4; stroke-opacity:1; fill:none" points="1797.61,1471.47 1797.61,1486.45 1819.33,1486.45 1819.33,1471.47 1797.61,1471.47 "></polyline>
<path clip-path="url(#clip742)" d="M1819.33 1472.9 L1819.33 1486.45 L1841.05 1486.45 L1841.05 1472.9 L1819.33 1472.9 L1819.33 1472.9  Z" fill="#009af9" fill-rule="evenodd" fill-opacity="1"></path>
<polyline clip-path="url(#clip742)" style="stroke:#000000; stroke-linecap:round; stroke-linejoin:round; stroke-width:4; stroke-opacity:1; fill:none" points="1819.33,1472.9 1819.33,1486.45 1841.05,1486.45 1841.05,1472.9 1819.33,1472.9 "></polyline>
<path clip-path="url(#clip742)" d="M1841.05 1477.54 L1841.05 1486.45 L1862.77 1486.45 L1862.77 1477.54 L1841.05 1477.54 L1841.05 1477.54  Z" fill="#009af9" fill-rule="evenodd" fill-opacity="1"></path>
<polyline clip-path="url(#clip742)" style="stroke:#000000; stroke-linecap:round; stroke-linejoin:round; stroke-width:4; stroke-opacity:1; fill:none" points="1841.05,1477.54 1841.05,1486.45 1862.77,1486.45 1862.77,1477.54 1841.05,1477.54 "></polyline>
<path clip-path="url(#clip742)" d="M1862.77 1478.6 L1862.77 1486.45 L1884.48 1486.45 L1884.48 1478.6 L1862.77 1478.6 L1862.77 1478.6  Z" fill="#009af9" fill-rule="evenodd" fill-opacity="1"></path>
<polyline clip-path="url(#clip742)" style="stroke:#000000; stroke-linecap:round; stroke-linejoin:round; stroke-width:4; stroke-opacity:1; fill:none" points="1862.77,1478.6 1862.77,1486.45 1884.48,1486.45 1884.48,1478.6 1862.77,1478.6 "></polyline>
<path clip-path="url(#clip742)" d="M1884.48 1481.81 L1884.48 1486.45 L1906.2 1486.45 L1906.2 1481.81 L1884.48 1481.81 L1884.48 1481.81  Z" fill="#009af9" fill-rule="evenodd" fill-opacity="1"></path>
<polyline clip-path="url(#clip742)" style="stroke:#000000; stroke-linecap:round; stroke-linejoin:round; stroke-width:4; stroke-opacity:1; fill:none" points="1884.48,1481.81 1884.48,1486.45 1906.2,1486.45 1906.2,1481.81 1884.48,1481.81 "></polyline>
<path clip-path="url(#clip742)" d="M1906.2 1484.67 L1906.2 1486.45 L1927.92 1486.45 L1927.92 1484.67 L1906.2 1484.67 L1906.2 1484.67  Z" fill="#009af9" fill-rule="evenodd" fill-opacity="1"></path>
<polyline clip-path="url(#clip742)" style="stroke:#000000; stroke-linecap:round; stroke-linejoin:round; stroke-width:4; stroke-opacity:1; fill:none" points="1906.2,1484.67 1906.2,1486.45 1927.92,1486.45 1927.92,1484.67 1906.2,1484.67 "></polyline>
<path clip-path="url(#clip742)" d="M1927.92 1482.17 L1927.92 1486.45 L1949.64 1486.45 L1949.64 1482.17 L1927.92 1482.17 L1927.92 1482.17  Z" fill="#009af9" fill-rule="evenodd" fill-opacity="1"></path>
<polyline clip-path="url(#clip742)" style="stroke:#000000; stroke-linecap:round; stroke-linejoin:round; stroke-width:4; stroke-opacity:1; fill:none" points="1927.92,1482.17 1927.92,1486.45 1949.64,1486.45 1949.64,1482.17 1927.92,1482.17 "></polyline>
<path clip-path="url(#clip742)" d="M1949.64 1484.31 L1949.64 1486.45 L1971.35 1486.45 L1971.35 1484.31 L1949.64 1484.31 L1949.64 1484.31  Z" fill="#009af9" fill-rule="evenodd" fill-opacity="1"></path>
<polyline clip-path="url(#clip742)" style="stroke:#000000; stroke-linecap:round; stroke-linejoin:round; stroke-width:4; stroke-opacity:1; fill:none" points="1949.64,1484.31 1949.64,1486.45 1971.35,1486.45 1971.35,1484.31 1949.64,1484.31 "></polyline>
<path clip-path="url(#clip742)" d="M1971.35 1484.67 L1971.35 1486.45 L1993.07 1486.45 L1993.07 1484.67 L1971.35 1484.67 L1971.35 1484.67  Z" fill="#009af9" fill-rule="evenodd" fill-opacity="1"></path>
<polyline clip-path="url(#clip742)" style="stroke:#000000; stroke-linecap:round; stroke-linejoin:round; stroke-width:4; stroke-opacity:1; fill:none" points="1971.35,1484.67 1971.35,1486.45 1993.07,1486.45 1993.07,1484.67 1971.35,1484.67 "></polyline>
<path clip-path="url(#clip742)" d="M1993.07 1485.38 L1993.07 1486.45 L2014.79 1486.45 L2014.79 1485.38 L1993.07 1485.38 L1993.07 1485.38  Z" fill="#009af9" fill-rule="evenodd" fill-opacity="1"></path>
<polyline clip-path="url(#clip742)" style="stroke:#000000; stroke-linecap:round; stroke-linejoin:round; stroke-width:4; stroke-opacity:1; fill:none" points="1993.07,1485.38 1993.07,1486.45 2014.79,1486.45 2014.79,1485.38 1993.07,1485.38 "></polyline>
<path clip-path="url(#clip742)" d="M2014.79 1486.09 L2014.79 1486.45 L2036.51 1486.45 L2036.51 1486.09 L2014.79 1486.09 L2014.79 1486.09  Z" fill="#009af9" fill-rule="evenodd" fill-opacity="1"></path>
<polyline clip-path="url(#clip742)" style="stroke:#000000; stroke-linecap:round; stroke-linejoin:round; stroke-width:4; stroke-opacity:1; fill:none" points="2014.79,1486.09 2014.79,1486.45 2036.51,1486.45 2036.51,1486.09 2014.79,1486.09 "></polyline>
<path clip-path="url(#clip742)" d="M2036.51 1486.45 L2036.51 1486.45 L2058.22 1486.45 L2058.22 1486.45 L2036.51 1486.45 L2036.51 1486.45  Z" fill="#009af9" fill-rule="evenodd" fill-opacity="1"></path>
<polyline clip-path="url(#clip742)" style="stroke:#000000; stroke-linecap:round; stroke-linejoin:round; stroke-width:4; stroke-opacity:1; fill:none" points="2036.51,1486.45 2036.51,1486.45 2058.22,1486.45 2036.51,1486.45 "></polyline>
<path clip-path="url(#clip742)" d="M2058.22 1486.09 L2058.22 1486.45 L2079.94 1486.45 L2079.94 1486.09 L2058.22 1486.09 L2058.22 1486.09  Z" fill="#009af9" fill-rule="evenodd" fill-opacity="1"></path>
<polyline clip-path="url(#clip742)" style="stroke:#000000; stroke-linecap:round; stroke-linejoin:round; stroke-width:4; stroke-opacity:1; fill:none" points="2058.22,1486.09 2058.22,1486.45 2079.94,1486.45 2079.94,1486.09 2058.22,1486.09 "></polyline>
<path clip-path="url(#clip742)" d="M2079.94 1486.45 L2079.94 1486.45 L2101.66 1486.45 L2101.66 1486.45 L2079.94 1486.45 L2079.94 1486.45  Z" fill="#009af9" fill-rule="evenodd" fill-opacity="1"></path>
<polyline clip-path="url(#clip742)" style="stroke:#000000; stroke-linecap:round; stroke-linejoin:round; stroke-width:4; stroke-opacity:1; fill:none" points="2079.94,1486.45 2079.94,1486.45 2101.66,1486.45 2079.94,1486.45 "></polyline>
<path clip-path="url(#clip742)" d="M2101.66 1486.45 L2101.66 1486.45 L2123.38 1486.45 L2123.38 1486.45 L2101.66 1486.45 L2101.66 1486.45  Z" fill="#009af9" fill-rule="evenodd" fill-opacity="1"></path>
<polyline clip-path="url(#clip742)" style="stroke:#000000; stroke-linecap:round; stroke-linejoin:round; stroke-width:4; stroke-opacity:1; fill:none" points="2101.66,1486.45 2101.66,1486.45 2123.38,1486.45 2101.66,1486.45 "></polyline>
<path clip-path="url(#clip742)" d="M2123.38 1486.45 L2123.38 1486.45 L2145.09 1486.45 L2145.09 1486.45 L2123.38 1486.45 L2123.38 1486.45  Z" fill="#009af9" fill-rule="evenodd" fill-opacity="1"></path>
<polyline clip-path="url(#clip742)" style="stroke:#000000; stroke-linecap:round; stroke-linejoin:round; stroke-width:4; stroke-opacity:1; fill:none" points="2123.38,1486.45 2123.38,1486.45 2145.09,1486.45 2123.38,1486.45 "></polyline>
<path clip-path="url(#clip742)" d="M2145.09 1486.45 L2145.09 1486.45 L2166.81 1486.45 L2166.81 1486.45 L2145.09 1486.45 L2145.09 1486.45  Z" fill="#009af9" fill-rule="evenodd" fill-opacity="1"></path>
<polyline clip-path="url(#clip742)" style="stroke:#000000; stroke-linecap:round; stroke-linejoin:round; stroke-width:4; stroke-opacity:1; fill:none" points="2145.09,1486.45 2145.09,1486.45 2166.81,1486.45 2145.09,1486.45 "></polyline>
<path clip-path="url(#clip742)" d="M2166.81 1486.45 L2166.81 1486.45 L2188.53 1486.45 L2188.53 1486.45 L2166.81 1486.45 L2166.81 1486.45  Z" fill="#009af9" fill-rule="evenodd" fill-opacity="1"></path>
<polyline clip-path="url(#clip742)" style="stroke:#000000; stroke-linecap:round; stroke-linejoin:round; stroke-width:4; stroke-opacity:1; fill:none" points="2166.81,1486.45 2166.81,1486.45 2188.53,1486.45 2166.81,1486.45 "></polyline>
<path clip-path="url(#clip742)" d="M2188.53 1486.45 L2188.53 1486.45 L2210.25 1486.45 L2210.25 1486.45 L2188.53 1486.45 L2188.53 1486.45  Z" fill="#009af9" fill-rule="evenodd" fill-opacity="1"></path>
<polyline clip-path="url(#clip742)" style="stroke:#000000; stroke-linecap:round; stroke-linejoin:round; stroke-width:4; stroke-opacity:1; fill:none" points="2188.53,1486.45 2188.53,1486.45 2210.25,1486.45 2188.53,1486.45 "></polyline>
<path clip-path="url(#clip742)" d="M2210.25 1486.09 L2210.25 1486.45 L2231.96 1486.45 L2231.96 1486.09 L2210.25 1486.09 L2210.25 1486.09  Z" fill="#009af9" fill-rule="evenodd" fill-opacity="1"></path>
<polyline clip-path="url(#clip742)" style="stroke:#000000; stroke-linecap:round; stroke-linejoin:round; stroke-width:4; stroke-opacity:1; fill:none" points="2210.25,1486.09 2210.25,1486.45 2231.96,1486.45 2231.96,1486.09 2210.25,1486.09 "></polyline>
<circle clip-path="url(#clip742)" style="fill:#009af9; stroke:none; fill-opacity:0" cx="288.25" cy="1486.09" r="2"></circle>
<circle clip-path="url(#clip742)" style="fill:#009af9; stroke:none; fill-opacity:0" cx="309.967" cy="1486.09" r="2"></circle>
<circle clip-path="url(#clip742)" style="fill:#009af9; stroke:none; fill-opacity:0" cx="331.684" cy="1485.73" r="2"></circle>
<circle clip-path="url(#clip742)" style="fill:#009af9; stroke:none; fill-opacity:0" cx="353.402" cy="1485.73" r="2"></circle>
<circle clip-path="url(#clip742)" style="fill:#009af9; stroke:none; fill-opacity:0" cx="375.119" cy="1484.67" r="2"></circle>
<circle clip-path="url(#clip742)" style="fill:#009af9; stroke:none; fill-opacity:0" cx="396.837" cy="1481.46" r="2"></circle>
<circle clip-path="url(#clip742)" style="fill:#009af9; stroke:none; fill-opacity:0" cx="418.554" cy="1483.95" r="2"></circle>
<circle clip-path="url(#clip742)" style="fill:#009af9; stroke:none; fill-opacity:0" cx="440.272" cy="1482.17" r="2"></circle>
<circle clip-path="url(#clip742)" style="fill:#009af9; stroke:none; fill-opacity:0" cx="461.989" cy="1480.39" r="2"></circle>
<circle clip-path="url(#clip742)" style="fill:#009af9; stroke:none; fill-opacity:0" cx="483.707" cy="1476.82" r="2"></circle>
<circle clip-path="url(#clip742)" style="fill:#009af9; stroke:none; fill-opacity:0" cx="505.424" cy="1475.04" r="2"></circle>
<circle clip-path="url(#clip742)" style="fill:#009af9; stroke:none; fill-opacity:0" cx="527.142" cy="1465.06" r="2"></circle>
<circle clip-path="url(#clip742)" style="fill:#009af9; stroke:none; fill-opacity:0" cx="548.859" cy="1464.34" r="2"></circle>
<circle clip-path="url(#clip742)" style="fill:#009af9; stroke:none; fill-opacity:0" cx="570.577" cy="1455.43" r="2"></circle>
<circle clip-path="url(#clip742)" style="fill:#009af9; stroke:none; fill-opacity:0" cx="592.294" cy="1440.1" r="2"></circle>
<circle clip-path="url(#clip742)" style="fill:#009af9; stroke:none; fill-opacity:0" cx="614.012" cy="1430.48" r="2"></circle>
<circle clip-path="url(#clip742)" style="fill:#009af9; stroke:none; fill-opacity:0" cx="635.729" cy="1419.43" r="2"></circle>
<circle clip-path="url(#clip742)" style="fill:#009af9; stroke:none; fill-opacity:0" cx="657.447" cy="1396.61" r="2"></circle>
<circle clip-path="url(#clip742)" style="fill:#009af9; stroke:none; fill-opacity:0" cx="679.164" cy="1380.21" r="2"></circle>
<circle clip-path="url(#clip742)" style="fill:#009af9; stroke:none; fill-opacity:0" cx="700.882" cy="1349.55" r="2"></circle>
<circle clip-path="url(#clip742)" style="fill:#009af9; stroke:none; fill-opacity:0" cx="722.599" cy="1312.83" r="2"></circle>
<circle clip-path="url(#clip742)" style="fill:#009af9; stroke:none; fill-opacity:0" cx="744.316" cy="1291.44" r="2"></circle>
<circle clip-path="url(#clip742)" style="fill:#009af9; stroke:none; fill-opacity:0" cx="766.034" cy="1225.13" r="2"></circle>
<circle clip-path="url(#clip742)" style="fill:#009af9; stroke:none; fill-opacity:0" cx="787.751" cy="1185.92" r="2"></circle>
<circle clip-path="url(#clip742)" style="fill:#009af9; stroke:none; fill-opacity:0" cx="809.469" cy="1123.17" r="2"></circle>
<circle clip-path="url(#clip742)" style="fill:#009af9; stroke:none; fill-opacity:0" cx="831.186" cy="1056.86" r="2"></circle>
<circle clip-path="url(#clip742)" style="fill:#009af9; stroke:none; fill-opacity:0" cx="852.904" cy="968.805" r="2"></circle>
<circle clip-path="url(#clip742)" style="fill:#009af9; stroke:none; fill-opacity:0" cx="874.621" cy="929.233" r="2"></circle>
<circle clip-path="url(#clip742)" style="fill:#009af9; stroke:none; fill-opacity:0" cx="896.339" cy="830.482" r="2"></circle>
<circle clip-path="url(#clip742)" style="fill:#009af9; stroke:none; fill-opacity:0" cx="918.056" cy="770.946" r="2"></circle>
<circle clip-path="url(#clip742)" style="fill:#009af9; stroke:none; fill-opacity:0" cx="939.774" cy="641.179" r="2"></circle>
<circle clip-path="url(#clip742)" style="fill:#009af9; stroke:none; fill-opacity:0" cx="961.491" cy="589.486" r="2"></circle>
<circle clip-path="url(#clip742)" style="fill:#009af9; stroke:none; fill-opacity:0" cx="983.209" cy="519.611" r="2"></circle>
<circle clip-path="url(#clip742)" style="fill:#009af9; stroke:none; fill-opacity:0" cx="1004.93" cy="405.886" r="2"></circle>
<circle clip-path="url(#clip742)" style="fill:#009af9; stroke:none; fill-opacity:0" cx="1026.64" cy="321.752" r="2"></circle>
<circle clip-path="url(#clip742)" style="fill:#009af9; stroke:none; fill-opacity:0" cx="1048.36" cy="265.068" r="2"></circle>
<circle clip-path="url(#clip742)" style="fill:#009af9; stroke:none; fill-opacity:0" cx="1070.08" cy="180.22" r="2"></circle>
<circle clip-path="url(#clip742)" style="fill:#009af9; stroke:none; fill-opacity:0" cx="1091.8" cy="141.717" r="2"></circle>
<circle clip-path="url(#clip742)" style="fill:#009af9; stroke:none; fill-opacity:0" cx="1113.51" cy="97.8676" r="2"></circle>
<circle clip-path="url(#clip742)" style="fill:#009af9; stroke:none; fill-opacity:0" cx="1135.23" cy="100.72" r="2"></circle>
<circle clip-path="url(#clip742)" style="fill:#009af9; stroke:none; fill-opacity:0" cx="1156.95" cy="74.3383" r="2"></circle>
<circle clip-path="url(#clip742)" style="fill:#009af9; stroke:none; fill-opacity:0" cx="1178.67" cy="76.4774" r="2"></circle>
<circle clip-path="url(#clip742)" style="fill:#009af9; stroke:none; fill-opacity:0" cx="1200.38" cy="47.2441" r="2"></circle>
<circle clip-path="url(#clip742)" style="fill:#009af9; stroke:none; fill-opacity:0" cx="1222.1" cy="111.415" r="2"></circle>
<circle clip-path="url(#clip742)" style="fill:#009af9; stroke:none; fill-opacity:0" cx="1243.82" cy="133.874" r="2"></circle>
<circle clip-path="url(#clip742)" style="fill:#009af9; stroke:none; fill-opacity:0" cx="1265.54" cy="228.348" r="2"></circle>
<circle clip-path="url(#clip742)" style="fill:#009af9; stroke:none; fill-opacity:0" cx="1287.25" cy="233.339" r="2"></circle>
<circle clip-path="url(#clip742)" style="fill:#009af9; stroke:none; fill-opacity:0" cx="1308.97" cy="329.238" r="2"></circle>
<circle clip-path="url(#clip742)" style="fill:#009af9; stroke:none; fill-opacity:0" cx="1330.69" cy="458.649" r="2"></circle>
<circle clip-path="url(#clip742)" style="fill:#009af9; stroke:none; fill-opacity:0" cx="1352.41" cy="497.151" r="2"></circle>
<circle clip-path="url(#clip742)" style="fill:#009af9; stroke:none; fill-opacity:0" cx="1374.12" cy="547.775" r="2"></circle>
<circle clip-path="url(#clip742)" style="fill:#009af9; stroke:none; fill-opacity:0" cx="1395.84" cy="671.838" r="2"></circle>
<circle clip-path="url(#clip742)" style="fill:#009af9; stroke:none; fill-opacity:0" cx="1417.56" cy="774.867" r="2"></circle>
<circle clip-path="url(#clip742)" style="fill:#009af9; stroke:none; fill-opacity:0" cx="1439.28" cy="829.769" r="2"></circle>
<circle clip-path="url(#clip742)" style="fill:#009af9; stroke:none; fill-opacity:0" cx="1460.99" cy="900.713" r="2"></circle>
<circle clip-path="url(#clip742)" style="fill:#009af9; stroke:none; fill-opacity:0" cx="1482.71" cy="994.473" r="2"></circle>
<circle clip-path="url(#clip742)" style="fill:#009af9; stroke:none; fill-opacity:0" cx="1504.43" cy="1061.5" r="2"></circle>
<circle clip-path="url(#clip742)" style="fill:#009af9; stroke:none; fill-opacity:0" cx="1526.15" cy="1121.03" r="2"></circle>
<circle clip-path="url(#clip742)" style="fill:#009af9; stroke:none; fill-opacity:0" cx="1547.86" cy="1173.79" r="2"></circle>
<circle clip-path="url(#clip742)" style="fill:#009af9; stroke:none; fill-opacity:0" cx="1569.58" cy="1225.49" r="2"></circle>
<circle clip-path="url(#clip742)" style="fill:#009af9; stroke:none; fill-opacity:0" cx="1591.3" cy="1274.68" r="2"></circle>
<circle clip-path="url(#clip742)" style="fill:#009af9; stroke:none; fill-opacity:0" cx="1613.02" cy="1311.76" r="2"></circle>
<circle clip-path="url(#clip742)" style="fill:#009af9; stroke:none; fill-opacity:0" cx="1634.73" cy="1342.42" r="2"></circle>
<circle clip-path="url(#clip742)" style="fill:#009af9; stroke:none; fill-opacity:0" cx="1656.45" cy="1371.65" r="2"></circle>
<circle clip-path="url(#clip742)" style="fill:#009af9; stroke:none; fill-opacity:0" cx="1678.17" cy="1398.75" r="2"></circle>
<circle clip-path="url(#clip742)" style="fill:#009af9; stroke:none; fill-opacity:0" cx="1699.89" cy="1411.94" r="2"></circle>
<circle clip-path="url(#clip742)" style="fill:#009af9; stroke:none; fill-opacity:0" cx="1721.6" cy="1431.9" r="2"></circle>
<circle clip-path="url(#clip742)" style="fill:#009af9; stroke:none; fill-opacity:0" cx="1743.32" cy="1441.88" r="2"></circle>
<circle clip-path="url(#clip742)" style="fill:#009af9; stroke:none; fill-opacity:0" cx="1765.04" cy="1455.79" r="2"></circle>
<circle clip-path="url(#clip742)" style="fill:#009af9; stroke:none; fill-opacity:0" cx="1786.76" cy="1463.28" r="2"></circle>
<circle clip-path="url(#clip742)" style="fill:#009af9; stroke:none; fill-opacity:0" cx="1808.47" cy="1471.47" r="2"></circle>
<circle clip-path="url(#clip742)" style="fill:#009af9; stroke:none; fill-opacity:0" cx="1830.19" cy="1472.9" r="2"></circle>
<circle clip-path="url(#clip742)" style="fill:#009af9; stroke:none; fill-opacity:0" cx="1851.91" cy="1477.54" r="2"></circle>
<circle clip-path="url(#clip742)" style="fill:#009af9; stroke:none; fill-opacity:0" cx="1873.63" cy="1478.6" r="2"></circle>
<circle clip-path="url(#clip742)" style="fill:#009af9; stroke:none; fill-opacity:0" cx="1895.34" cy="1481.81" r="2"></circle>
<circle clip-path="url(#clip742)" style="fill:#009af9; stroke:none; fill-opacity:0" cx="1917.06" cy="1484.67" r="2"></circle>
<circle clip-path="url(#clip742)" style="fill:#009af9; stroke:none; fill-opacity:0" cx="1938.78" cy="1482.17" r="2"></circle>
<circle clip-path="url(#clip742)" style="fill:#009af9; stroke:none; fill-opacity:0" cx="1960.49" cy="1484.31" r="2"></circle>
<circle clip-path="url(#clip742)" style="fill:#009af9; stroke:none; fill-opacity:0" cx="1982.21" cy="1484.67" r="2"></circle>
<circle clip-path="url(#clip742)" style="fill:#009af9; stroke:none; fill-opacity:0" cx="2003.93" cy="1485.38" r="2"></circle>
<circle clip-path="url(#clip742)" style="fill:#009af9; stroke:none; fill-opacity:0" cx="2025.65" cy="1486.09" r="2"></circle>
<circle clip-path="url(#clip742)" style="fill:#009af9; stroke:none; fill-opacity:0" cx="2047.36" cy="1486.45" r="2"></circle>
<circle clip-path="url(#clip742)" style="fill:#009af9; stroke:none; fill-opacity:0" cx="2069.08" cy="1486.09" r="2"></circle>
<circle clip-path="url(#clip742)" style="fill:#009af9; stroke:none; fill-opacity:0" cx="2090.8" cy="1486.45" r="2"></circle>
<circle clip-path="url(#clip742)" style="fill:#009af9; stroke:none; fill-opacity:0" cx="2112.52" cy="1486.45" r="2"></circle>
<circle clip-path="url(#clip742)" style="fill:#009af9; stroke:none; fill-opacity:0" cx="2134.23" cy="1486.45" r="2"></circle>
<circle clip-path="url(#clip742)" style="fill:#009af9; stroke:none; fill-opacity:0" cx="2155.95" cy="1486.45" r="2"></circle>
<circle clip-path="url(#clip742)" style="fill:#009af9; stroke:none; fill-opacity:0" cx="2177.67" cy="1486.45" r="2"></circle>
<circle clip-path="url(#clip742)" style="fill:#009af9; stroke:none; fill-opacity:0" cx="2199.39" cy="1486.45" r="2"></circle>
<circle clip-path="url(#clip742)" style="fill:#009af9; stroke:none; fill-opacity:0" cx="2221.1" cy="1486.09" r="2"></circle>
<polyline clip-path="url(#clip742)" style="stroke:#000000; stroke-linecap:round; stroke-linejoin:round; stroke-width:8; stroke-opacity:1; fill:none" points="218.754,1486.35 229.448,1486.32 240.143,1486.29 302.78,1485.94 365.417,1484.9 394.556,1483.94 423.695,1482.43 462.751,1479.13 501.808,1473.54 517.945,1470.28 534.081,1466.31 550.218,1461.51 566.354,1455.72 581.36,1449.33 596.365,1441.83 611.37,1433.06 626.376,1422.87 645.212,1407.82 664.049,1389.93 682.886,1368.86 701.723,1344.27 718.62,1318.94 735.516,1290.29 752.413,1258.13 769.31,1222.29 778.98,1200.09 788.651,1176.63 798.321,1151.92 807.991,1125.95 817.662,1098.73 827.332,1070.29 837.002,1040.64 846.672,1009.83 861.13,961.687 875.587,911.24 890.044,858.732 904.501,804.459 941.483,660.136 978.465,513.886 995.341,448.848 1012.22,386.125 1020.66,355.919 1029.09,326.636 1037.53,298.39 1045.97,271.291 1055.58,241.985 1065.18,214.462 1074.78,188.871 1084.39,165.35 1093.99,144.031 1103.6,125.033 1113.2,108.464 1122.8,94.4175 1130.42,85.1296 1138.03,77.5123 1145.64,71.5933 1153.26,67.3945 1160.87,64.9311 1168.48,64.2124 1176.1,65.2409 1183.71,68.0129 1193.17,73.8693 1202.63,82.3673 1212.08,93.4589 1221.54,107.082 1231,123.16 1240.46,141.604 1249.92,162.312 1259.38,185.172 1266.62,204.058 1273.86,224.075 1281.11,245.161 1288.35,267.252 1302.84,314.18 1317.33,364.307 1337.75,439.305 1358.18,517.895 1378.6,598.476 1399.03,679.522 1414.29,739.544 1429.55,798.508 1444.82,855.939 1460.08,911.423 1477.44,971.711 1494.79,1028.61 1503.47,1055.69 1512.15,1081.82 1520.83,1106.96 1529.51,1131.11 1538.11,1154.04 1546.7,1175.98 1555.3,1196.92 1563.89,1216.87 1572.49,1235.84 1581.08,1253.83 1589.68,1270.88 1598.27,1286.99 1607.73,1303.65 1617.18,1319.24 1626.64,1333.79 1636.1,1347.34 1655.01,1371.59 1673.92,1392.33 1688.37,1406.03 1702.81,1418.03 1717.26,1428.5 1731.7,1437.58 1749.93,1447.29 1768.16,1455.29 1786.39,1461.83 1804.62,1467.13 1838.34,1474.34 1872.06,1479.04 1941.61,1483.96 2012.11,1485.7 2085.73,1486.26 2143.72,1486.39 2275.78,1486.44 2290.6,1486.45 "></polyline>
<path clip-path="url(#clip740)" d="M2007.5 250.738 L2279.55 250.738 L2279.55 95.2176 L2007.5 95.2176  Z" fill="#ffffff" fill-rule="evenodd" fill-opacity="1"></path>
<polyline clip-path="url(#clip740)" style="stroke:#000000; stroke-linecap:round; stroke-linejoin:round; stroke-width:4; stroke-opacity:1; fill:none" points="2007.5,250.738 2279.55,250.738 2279.55,95.2176 2007.5,95.2176 2007.5,250.738 "></polyline>
<path clip-path="url(#clip740)" d="M2031.91 167.794 L2178.32 167.794 L2178.32 126.322 L2031.91 126.322 L2031.91 167.794  Z" fill="#009af9" fill-rule="evenodd" fill-opacity="1"></path>
<polyline clip-path="url(#clip740)" style="stroke:#000000; stroke-linecap:round; stroke-linejoin:round; stroke-width:4; stroke-opacity:1; fill:none" points="2031.91,167.794 2178.32,167.794 2178.32,126.322 2031.91,126.322 2031.91,167.794 "></polyline>
<path clip-path="url(#clip740)" d="M2216.56 166.745 Q2214.76 171.375 2213.04 172.787 Q2211.33 174.199 2208.46 174.199 L2205.06 174.199 L2205.06 170.634 L2207.56 170.634 Q2209.32 170.634 2210.29 169.8 Q2211.26 168.967 2212.44 165.865 L2213.2 163.921 L2202.72 138.412 L2207.23 138.412 L2215.33 158.689 L2223.44 138.412 L2227.95 138.412 L2216.56 166.745 Z" fill="#000000" fill-rule="nonzero" fill-opacity="1"></path><path clip-path="url(#clip740)" d="M2235.24 160.402 L2242.88 160.402 L2242.88 134.037 L2234.57 135.703 L2234.57 131.444 L2242.83 129.778 L2247.51 129.778 L2247.51 160.402 L2255.15 160.402 L2255.15 164.338 L2235.24 164.338 L2235.24 160.402 Z" fill="#000000" fill-rule="nonzero" fill-opacity="1"></path><polyline clip-path="url(#clip740)" style="stroke:#000000; stroke-linecap:round; stroke-linejoin:round; stroke-width:8; stroke-opacity:1; fill:none" points="2031.91,198.898 2178.32,198.898 "></polyline>
<path clip-path="url(#clip740)" d="M2216.56 218.585 Q2214.76 223.215 2213.04 224.627 Q2211.33 226.039 2208.46 226.039 L2205.06 226.039 L2205.06 222.474 L2207.56 222.474 Q2209.32 222.474 2210.29 221.64 Q2211.26 220.807 2212.44 217.705 L2213.2 215.761 L2202.72 190.252 L2207.23 190.252 L2215.33 210.529 L2223.44 190.252 L2227.95 190.252 L2216.56 218.585 Z" fill="#000000" fill-rule="nonzero" fill-opacity="1"></path><path clip-path="url(#clip740)" d="M2238.46 212.242 L2254.78 212.242 L2254.78 216.178 L2232.83 216.178 L2232.83 212.242 Q2235.5 209.488 2240.08 204.858 Q2244.69 200.205 2245.87 198.863 Q2248.11 196.34 2248.99 194.604 Q2249.89 192.844 2249.89 191.155 Q2249.89 188.4 2247.95 186.664 Q2246.03 184.928 2242.93 184.928 Q2240.73 184.928 2238.27 185.692 Q2235.84 186.455 2233.07 188.006 L2233.07 183.284 Q2235.89 182.15 2238.34 181.571 Q2240.8 180.993 2242.83 180.993 Q2248.2 180.993 2251.4 183.678 Q2254.59 186.363 2254.59 190.854 Q2254.59 192.983 2253.78 194.905 Q2253 196.803 2250.89 199.395 Q2250.31 200.067 2247.21 203.284 Q2244.11 206.479 2238.46 212.242 Z" fill="#000000" fill-rule="nonzero" fill-opacity="1"></path></svg>