<svg xmlns="http://www.w3.org/2000/svg" xmlns:xlink="http://www.w3.org/1999/xlink" width="600" height="400" viewBox="0 0 2400 1600">
<defs>
  <clipPath id="clip180">
    <rect x="0" y="0" width="2400" height="1600"></rect>
  </clipPath>
</defs>
<path clip-path="url(#clip180)" d="M0 1600 L2400 1600 L2400 0 L0 0  Z" fill="#ffffff" fill-rule="evenodd" fill-opacity="1"></path>
<defs>
  <clipPath id="clip181">
    <rect x="480" y="0" width="1681" height="1600"></rect>
  </clipPath>
</defs>
<path clip-path="url(#clip180)" d="M156.598 1486.45 L2352.76 1486.45 L2352.76 47.2441 L156.598 47.2441  Z" fill="#ffffff" fill-rule="evenodd" fill-opacity="1"></path>
<defs>
  <clipPath id="clip182">
    <rect x="156" y="47" width="2197" height="1440"></rect>
  </clipPath>
</defs>
<polyline clip-path="url(#clip182)" style="stroke:#000000; stroke-linecap:round; stroke-linejoin:round; stroke-width:2; stroke-opacity:0.1; fill:none" points="156.598,1486.45 156.598,47.2441 "></polyline>
<polyline clip-path="url(#clip182)" style="stroke:#000000; stroke-linecap:round; stroke-linejoin:round; stroke-width:2; stroke-opacity:0.1; fill:none" points="661.784,1486.45 661.784,47.2441 "></polyline>
<polyline clip-path="url(#clip182)" style="stroke:#000000; stroke-linecap:round; stroke-linejoin:round; stroke-width:2; stroke-opacity:0.1; fill:none" points="1166.97,1486.45 1166.97,47.2441 "></polyline>
<polyline clip-path="url(#clip182)" style="stroke:#000000; stroke-linecap:round; stroke-linejoin:round; stroke-width:2; stroke-opacity:0.1; fill:none" points="1672.16,1486.45 1672.16,47.2441 "></polyline>
<polyline clip-path="url(#clip182)" style="stroke:#000000; stroke-linecap:round; stroke-linejoin:round; stroke-width:2; stroke-opacity:0.1; fill:none" points="2177.34,1486.45 2177.34,47.2441 "></polyline>
<polyline clip-path="url(#clip180)" style="stroke:#000000; stroke-linecap:round; stroke-linejoin:round; stroke-width:4; stroke-opacity:1; fill:none" points="156.598,1486.45 2352.76,1486.45 "></polyline>
<polyline clip-path="url(#clip180)" style="stroke:#000000; stroke-linecap:round; stroke-linejoin:round; stroke-width:4; stroke-opacity:1; fill:none" points="156.598,1486.45 156.598,1467.55 "></polyline>
<polyline clip-path="url(#clip180)" style="stroke:#000000; stroke-linecap:round; stroke-linejoin:round; stroke-width:4; stroke-opacity:1; fill:none" points="661.784,1486.45 661.784,1467.55 "></polyline>
<polyline clip-path="url(#clip180)" style="stroke:#000000; stroke-linecap:round; stroke-linejoin:round; stroke-width:4; stroke-opacity:1; fill:none" points="1166.97,1486.45 1166.97,1467.55 "></polyline>
<polyline clip-path="url(#clip180)" style="stroke:#000000; stroke-linecap:round; stroke-linejoin:round; stroke-width:4; stroke-opacity:1; fill:none" points="1672.16,1486.45 1672.16,1467.55 "></polyline>
<polyline clip-path="url(#clip180)" style="stroke:#000000; stroke-linecap:round; stroke-linejoin:round; stroke-width:4; stroke-opacity:1; fill:none" points="2177.34,1486.45 2177.34,1467.55 "></polyline>
<path clip-path="url(#clip180)" d="M156.598 1517.37 Q152.987 1517.37 151.158 1520.93 Q149.353 1524.47 149.353 1531.6 Q149.353 1538.71 151.158 1542.27 Q152.987 1545.82 156.598 1545.82 Q160.232 1545.82 162.038 1542.27 Q163.867 1538.71 163.867 1531.6 Q163.867 1524.47 162.038 1520.93 Q160.232 1517.37 156.598 1517.37 M156.598 1513.66 Q162.408 1513.66 165.464 1518.27 Q168.543 1522.85 168.543 1531.6 Q168.543 1540.33 165.464 1544.94 Q162.408 1549.52 156.598 1549.52 Q150.788 1549.52 147.709 1544.94 Q144.654 1540.33 144.654 1531.6 Q144.654 1522.85 147.709 1518.27 Q150.788 1513.66 156.598 1513.66 Z" fill="#000000" fill-rule="nonzero" fill-opacity="1"></path><path clip-path="url(#clip180)" d="M652.166 1544.91 L659.805 1544.91 L659.805 1518.55 L651.495 1520.21 L651.495 1515.95 L659.759 1514.29 L664.434 1514.29 L664.434 1544.91 L672.073 1544.91 L672.073 1548.85 L652.166 1548.85 L652.166 1544.91 Z" fill="#000000" fill-rule="nonzero" fill-opacity="1"></path><path clip-path="url(#clip180)" d="M1161.62 1544.91 L1177.94 1544.91 L1177.94 1548.85 L1156 1548.85 L1156 1544.91 Q1158.66 1542.16 1163.24 1537.53 Q1167.85 1532.88 1169.03 1531.53 Q1171.28 1529.01 1172.15 1527.27 Q1173.06 1525.51 1173.06 1523.82 Q1173.06 1521.07 1171.11 1519.33 Q1169.19 1517.6 1166.09 1517.6 Q1163.89 1517.6 1161.44 1518.36 Q1159.01 1519.13 1156.23 1520.68 L1156.23 1515.95 Q1159.05 1514.82 1161.51 1514.24 Q1163.96 1513.66 1166 1513.66 Q1171.37 1513.66 1174.56 1516.35 Q1177.76 1519.03 1177.76 1523.52 Q1177.76 1525.65 1176.95 1527.57 Q1176.16 1529.47 1174.05 1532.07 Q1173.47 1532.74 1170.37 1535.95 Q1167.27 1539.15 1161.62 1544.91 Z" fill="#000000" fill-rule="nonzero" fill-opacity="1"></path><path clip-path="url(#clip180)" d="M1676.4 1530.21 Q1679.76 1530.93 1681.63 1533.2 Q1683.53 1535.47 1683.53 1538.8 Q1683.53 1543.92 1680.01 1546.72 Q1676.5 1549.52 1670.01 1549.52 Q1667.84 1549.52 1665.52 1549.08 Q1663.23 1548.66 1660.78 1547.81 L1660.78 1543.29 Q1662.72 1544.43 1665.04 1545.01 Q1667.35 1545.58 1669.88 1545.58 Q1674.27 1545.58 1676.57 1543.85 Q1678.88 1542.11 1678.88 1538.8 Q1678.88 1535.75 1676.73 1534.03 Q1674.6 1532.3 1670.78 1532.3 L1666.75 1532.3 L1666.75 1528.45 L1670.96 1528.45 Q1674.41 1528.45 1676.24 1527.09 Q1678.07 1525.7 1678.07 1523.11 Q1678.07 1520.45 1676.17 1519.03 Q1674.3 1517.6 1670.78 1517.6 Q1668.86 1517.6 1666.66 1518.01 Q1664.46 1518.43 1661.82 1519.31 L1661.82 1515.14 Q1664.48 1514.4 1666.8 1514.03 Q1669.13 1513.66 1671.19 1513.66 Q1676.52 1513.66 1679.62 1516.09 Q1682.72 1518.5 1682.72 1522.62 Q1682.72 1525.49 1681.08 1527.48 Q1679.44 1529.45 1676.4 1530.21 Z" fill="#000000" fill-rule="nonzero" fill-opacity="1"></path><path clip-path="url(#clip180)" d="M2180.35 1518.36 L2168.55 1536.81 L2180.35 1536.81 L2180.35 1518.36 M2179.12 1514.29 L2185 1514.29 L2185 1536.81 L2189.93 1536.81 L2189.93 1540.7 L2185 1540.7 L2185 1548.85 L2180.35 1548.85 L2180.35 1540.7 L2164.75 1540.7 L2164.75 1536.19 L2179.12 1514.29 Z" fill="#000000" fill-rule="nonzero" fill-opacity="1"></path><polyline clip-path="url(#clip182)" style="stroke:#000000; stroke-linecap:round; stroke-linejoin:round; stroke-width:2; stroke-opacity:0.1; fill:none" points="156.598,1486.45 2352.76,1486.45 "></polyline>
<polyline clip-path="url(#clip182)" style="stroke:#000000; stroke-linecap:round; stroke-linejoin:round; stroke-width:2; stroke-opacity:0.1; fill:none" points="156.598,1136.2 2352.76,1136.2 "></polyline>
<polyline clip-path="url(#clip182)" style="stroke:#000000; stroke-linecap:round; stroke-linejoin:round; stroke-width:2; stroke-opacity:0.1; fill:none" points="156.598,785.953 2352.76,785.953 "></polyline>
<polyline clip-path="url(#clip182)" style="stroke:#000000; stroke-linecap:round; stroke-linejoin:round; stroke-width:2; stroke-opacity:0.1; fill:none" points="156.598,435.705 2352.76,435.705 "></polyline>
<polyline clip-path="url(#clip182)" style="stroke:#000000; stroke-linecap:round; stroke-linejoin:round; stroke-width:2; stroke-opacity:0.1; fill:none" points="156.598,85.458 2352.76,85.458 "></polyline>
<polyline clip-path="url(#clip180)" style="stroke:#000000; stroke-linecap:round; stroke-linejoin:round; stroke-width:4; stroke-opacity:1; fill:none" points="156.598,1486.45 156.598,47.2441 "></polyline>
<polyline clip-path="url(#clip180)" style="stroke:#000000; stroke-linecap:round; stroke-linejoin:round; stroke-width:4; stroke-opacity:1; fill:none" points="156.598,1486.45 175.496,1486.45 "></polyline>
<polyline clip-path="url(#clip180)" style="stroke:#000000; stroke-linecap:round; stroke-linejoin:round; stroke-width:4; stroke-opacity:1; fill:none" points="156.598,1136.2 175.496,1136.2 "></polyline>
<polyline clip-path="url(#clip180)" style="stroke:#000000; stroke-linecap:round; stroke-linejoin:round; stroke-width:4; stroke-opacity:1; fill:none" points="156.598,785.953 175.496,785.953 "></polyline>
<polyline clip-path="url(#clip180)" style="stroke:#000000; stroke-linecap:round; stroke-linejoin:round; stroke-width:4; stroke-opacity:1; fill:none" points="156.598,435.705 175.496,435.705 "></polyline>
<polyline clip-path="url(#clip180)" style="stroke:#000000; stroke-linecap:round; stroke-linejoin:round; stroke-width:4; stroke-opacity:1; fill:none" points="156.598,85.458 175.496,85.458 "></polyline>
<path clip-path="url(#clip180)" d="M63.4226 1472.25 Q59.8115 1472.25 57.9828 1475.81 Q56.1773 1479.35 56.1773 1486.48 Q56.1773 1493.59 57.9828 1497.15 Q59.8115 1500.7 63.4226 1500.7 Q67.0569 1500.7 68.8624 1497.15 Q70.6911 1493.59 70.6911 1486.48 Q70.6911 1479.35 68.8624 1475.81 Q67.0569 1472.25 63.4226 1472.25 M63.4226 1468.54 Q69.2328 1468.54 72.2883 1473.15 Q75.367 1477.73 75.367 1486.48 Q75.367 1495.21 72.2883 1499.82 Q69.2328 1504.4 63.4226 1504.4 Q57.6125 1504.4 54.5338 1499.82 Q51.4782 1495.21 51.4782 1486.48 Q51.4782 1477.73 54.5338 1473.15 Q57.6125 1468.54 63.4226 1468.54 Z" fill="#000000" fill-rule="nonzero" fill-opacity="1"></path><path clip-path="url(#clip180)" d="M83.5845 1497.85 L88.4688 1497.85 L88.4688 1503.73 L83.5845 1503.73 L83.5845 1497.85 Z" fill="#000000" fill-rule="nonzero" fill-opacity="1"></path><path clip-path="url(#clip180)" d="M108.654 1472.25 Q105.043 1472.25 103.214 1475.81 Q101.409 1479.35 101.409 1486.48 Q101.409 1493.59 103.214 1497.15 Q105.043 1500.7 108.654 1500.7 Q112.288 1500.7 114.094 1497.15 Q115.922 1493.59 115.922 1486.48 Q115.922 1479.35 114.094 1475.81 Q112.288 1472.25 108.654 1472.25 M108.654 1468.54 Q114.464 1468.54 117.52 1473.15 Q120.598 1477.73 120.598 1486.48 Q120.598 1495.21 117.52 1499.82 Q114.464 1504.4 108.654 1504.4 Q102.844 1504.4 99.765 1499.82 Q96.7095 1495.21 96.7095 1486.48 Q96.7095 1477.73 99.765 1473.15 Q102.844 1468.54 108.654 1468.54 Z" fill="#000000" fill-rule="nonzero" fill-opacity="1"></path><path clip-path="url(#clip180)" d="M65.0198 1122 Q61.4087 1122 59.58 1125.56 Q57.7745 1129.11 57.7745 1136.24 Q57.7745 1143.34 59.58 1146.91 Q61.4087 1150.45 65.0198 1150.45 Q68.6541 1150.45 70.4596 1146.91 Q72.2883 1143.34 72.2883 1136.24 Q72.2883 1129.11 70.4596 1125.56 Q68.6541 1122 65.0198 1122 M65.0198 1118.3 Q70.83 1118.3 73.8855 1122.9 Q76.9642 1127.49 76.9642 1136.24 Q76.9642 1144.96 73.8855 1149.57 Q70.83 1154.15 65.0198 1154.15 Q59.2097 1154.15 56.131 1149.57 Q53.0754 1144.96 53.0754 1136.24 Q53.0754 1127.49 56.131 1122.9 Q59.2097 1118.3 65.0198 1118.3 Z" fill="#000000" fill-rule="nonzero" fill-opacity="1"></path><path clip-path="url(#clip180)" d="M85.1818 1147.6 L90.066 1147.6 L90.066 1153.48 L85.1818 1153.48 L85.1818 1147.6 Z" fill="#000000" fill-rule="nonzero" fill-opacity="1"></path><path clip-path="url(#clip180)" d="M104.279 1149.55 L120.598 1149.55 L120.598 1153.48 L98.6539 1153.48 L98.6539 1149.55 Q101.316 1146.79 105.899 1142.16 Q110.506 1137.51 111.686 1136.17 Q113.932 1133.64 114.811 1131.91 Q115.714 1130.15 115.714 1128.46 Q115.714 1125.7 113.77 1123.97 Q111.848 1122.23 108.746 1122.23 Q106.547 1122.23 104.094 1122.99 Q101.663 1123.76 98.8854 1125.31 L98.8854 1120.59 Q101.709 1119.45 104.163 1118.87 Q106.617 1118.3 108.654 1118.3 Q114.024 1118.3 117.219 1120.98 Q120.413 1123.67 120.413 1128.16 Q120.413 1130.29 119.603 1132.21 Q118.816 1134.11 116.709 1136.7 Q116.131 1137.37 113.029 1140.59 Q109.927 1143.78 104.279 1149.55 Z" fill="#000000" fill-rule="nonzero" fill-opacity="1"></path><path clip-path="url(#clip180)" d="M62.9365 771.752 Q59.3254 771.752 57.4967 775.316 Q55.6912 778.858 55.6912 785.988 Q55.6912 793.094 57.4967 796.659 Q59.3254 800.201 62.9365 800.201 Q66.5707 800.201 68.3763 796.659 Q70.205 793.094 70.205 785.988 Q70.205 778.858 68.3763 775.316 Q66.5707 771.752 62.9365 771.752 M62.9365 768.048 Q68.7467 768.048 71.8022 772.654 Q74.8809 777.238 74.8809 785.988 Q74.8809 794.714 71.8022 799.321 Q68.7467 803.904 62.9365 803.904 Q57.1264 803.904 54.0477 799.321 Q50.9921 794.714 50.9921 785.988 Q50.9921 777.238 54.0477 772.654 Q57.1264 768.048 62.9365 768.048 Z" fill="#000000" fill-rule="nonzero" fill-opacity="1"></path><path clip-path="url(#clip180)" d="M83.0984 797.353 L87.9827 797.353 L87.9827 803.233 L83.0984 803.233 L83.0984 797.353 Z" fill="#000000" fill-rule="nonzero" fill-opacity="1"></path><path clip-path="url(#clip180)" d="M111.015 772.747 L99.2095 791.196 L111.015 791.196 L111.015 772.747 M109.788 768.673 L115.668 768.673 L115.668 791.196 L120.598 791.196 L120.598 795.085 L115.668 795.085 L115.668 803.233 L111.015 803.233 L111.015 795.085 L95.4132 795.085 L95.4132 790.571 L109.788 768.673 Z" fill="#000000" fill-rule="nonzero" fill-opacity="1"></path><path clip-path="url(#clip180)" d="M63.2606 421.504 Q59.6495 421.504 57.8208 425.069 Q56.0152 428.611 56.0152 435.74 Q56.0152 442.847 57.8208 446.411 Q59.6495 449.953 63.2606 449.953 Q66.8948 449.953 68.7004 446.411 Q70.5291 442.847 70.5291 435.74 Q70.5291 428.611 68.7004 425.069 Q66.8948 421.504 63.2606 421.504 M63.2606 417.8 Q69.0707 417.8 72.1263 422.407 Q75.205 426.99 75.205 435.74 Q75.205 444.467 72.1263 449.073 Q69.0707 453.657 63.2606 453.657 Q57.4504 453.657 54.3717 449.073 Q51.3162 444.467 51.3162 435.74 Q51.3162 426.99 54.3717 422.407 Q57.4504 417.8 63.2606 417.8 Z" fill="#000000" fill-rule="nonzero" fill-opacity="1"></path><path clip-path="url(#clip180)" d="M83.4225 447.106 L88.3067 447.106 L88.3067 452.985 L83.4225 452.985 L83.4225 447.106 Z" fill="#000000" fill-rule="nonzero" fill-opacity="1"></path><path clip-path="url(#clip180)" d="M109.071 433.842 Q105.922 433.842 104.071 435.995 Q102.242 438.148 102.242 441.898 Q102.242 445.624 104.071 447.8 Q105.922 449.953 109.071 449.953 Q112.219 449.953 114.047 447.8 Q115.899 445.624 115.899 441.898 Q115.899 438.148 114.047 435.995 Q112.219 433.842 109.071 433.842 M118.353 419.189 L118.353 423.449 Q116.594 422.615 114.788 422.175 Q113.006 421.736 111.246 421.736 Q106.617 421.736 104.163 424.861 Q101.733 427.986 101.385 434.305 Q102.751 432.291 104.811 431.226 Q106.871 430.138 109.348 430.138 Q114.557 430.138 117.566 433.31 Q120.598 436.458 120.598 441.898 Q120.598 447.222 117.45 450.439 Q114.302 453.657 109.071 453.657 Q103.075 453.657 99.9039 449.073 Q96.7326 444.467 96.7326 435.74 Q96.7326 427.546 100.621 422.685 Q104.51 417.8 111.061 417.8 Q112.82 417.8 114.603 418.148 Q116.408 418.495 118.353 419.189 Z" fill="#000000" fill-rule="nonzero" fill-opacity="1"></path><path clip-path="url(#clip180)" d="M63.5152 71.2567 Q59.9041 71.2567 58.0754 74.8215 Q56.2699 78.3631 56.2699 85.4927 Q56.2699 92.5992 58.0754 96.164 Q59.9041 99.7056 63.5152 99.7056 Q67.1494 99.7056 68.955 96.164 Q70.7837 92.5992 70.7837 85.4927 Q70.7837 78.3631 68.955 74.8215 Q67.1494 71.2567 63.5152 71.2567 M63.5152 67.553 Q69.3254 67.553 72.3809 72.1595 Q75.4596 76.7428 75.4596 85.4927 Q75.4596 94.2195 72.3809 98.826 Q69.3254 103.409 63.5152 103.409 Q57.7051 103.409 54.6264 98.826 Q51.5708 94.2195 51.5708 85.4927 Q51.5708 76.7428 54.6264 72.1595 Q57.7051 67.553 63.5152 67.553 Z" fill="#000000" fill-rule="nonzero" fill-opacity="1"></path><path clip-path="url(#clip180)" d="M83.6771 96.8584 L88.5614 96.8584 L88.5614 102.738 L83.6771 102.738 L83.6771 96.8584 Z" fill="#000000" fill-rule="nonzero" fill-opacity="1"></path><path clip-path="url(#clip180)" d="M108.746 86.3261 Q105.413 86.3261 103.492 88.1085 Q101.594 89.8909 101.594 93.0158 Q101.594 96.1408 103.492 97.9232 Q105.413 99.7056 108.746 99.7056 Q112.08 99.7056 114.001 97.9232 Q115.922 96.1177 115.922 93.0158 Q115.922 89.8909 114.001 88.1085 Q112.103 86.3261 108.746 86.3261 M104.071 84.3353 Q101.061 83.5946 99.3715 81.5344 Q97.7048 79.4743 97.7048 76.5113 Q97.7048 72.3678 100.645 69.9604 Q103.608 67.553 108.746 67.553 Q113.908 67.553 116.848 69.9604 Q119.788 72.3678 119.788 76.5113 Q119.788 79.4743 118.098 81.5344 Q116.432 83.5946 113.445 84.3353 Q116.825 85.1224 118.7 87.414 Q120.598 89.7057 120.598 93.0158 Q120.598 98.039 117.52 100.724 Q114.464 103.409 108.746 103.409 Q103.029 103.409 99.9502 100.724 Q96.8947 98.039 96.8947 93.0158 Q96.8947 89.7057 98.7928 87.414 Q100.691 85.1224 104.071 84.3353 M102.358 76.9511 Q102.358 79.6363 104.024 81.1409 Q105.714 82.6455 108.746 82.6455 Q111.756 82.6455 113.445 81.1409 Q115.158 79.6363 115.158 76.9511 Q115.158 74.2659 113.445 72.7613 Q111.756 71.2567 108.746 71.2567 Q105.714 71.2567 104.024 72.7613 Q102.358 74.2659 102.358 76.9511 Z" fill="#000000" fill-rule="nonzero" fill-opacity="1"></path><polyline clip-path="url(#clip182)" style="stroke:#000000; stroke-linecap:round; stroke-linejoin:round; stroke-width:4; stroke-opacity:1; fill:none" points="156.598,1486.45 1578.06,1486.45 "></polyline>
<circle clip-path="url(#clip182)" cx="1578.06" cy="1486.45" r="14.4" fill="#000000" fill-rule="evenodd" fill-opacity="1" stroke="none"></circle>
<polyline clip-path="url(#clip182)" style="stroke:#000000; stroke-linecap:round; stroke-linejoin:round; stroke-width:4; stroke-opacity:1; fill:none" points="156.598,1417.67 1578.06,1417.67 1578.06,1486.45 "></polyline>
<polyline clip-path="url(#clip182)" style="stroke:#000000; stroke-linecap:round; stroke-linejoin:round; stroke-width:4; stroke-opacity:1; fill:none" stroke-dasharray="16, 10" points="1396.41,1417.67 1396.41,1486.45 "></polyline>
<circle clip-path="url(#clip182)" cx="1396.41" cy="1417.67" r="14.4" fill="#000000" fill-rule="evenodd" fill-opacity="1" stroke="none"></circle>
<polyline clip-path="url(#clip182)" style="stroke:#000000; stroke-linecap:round; stroke-linejoin:round; stroke-width:4; stroke-opacity:1; fill:none" points="156.598,1338.82 1396.41,1338.82 1396.41,1417.67 "></polyline>
<polyline clip-path="url(#clip182)" style="stroke:#000000; stroke-linecap:round; stroke-linejoin:round; stroke-width:4; stroke-opacity:1; fill:none" stroke-dasharray="16, 10" points="1227.69,1338.82 1227.69,1417.67 "></polyline>
<circle clip-path="url(#clip182)" cx="1227.69" cy="1338.82" r="14.4" fill="#000000" fill-rule="evenodd" fill-opacity="1" stroke="none"></circle>
<polyline clip-path="url(#clip182)" style="stroke:#000000; stroke-linecap:round; stroke-linejoin:round; stroke-width:4; stroke-opacity:1; fill:none" points="156.598,1247.55 1227.69,1247.55 1227.69,1338.82 "></polyline>
<polyline clip-path="url(#clip182)" style="stroke:#000000; stroke-linecap:round; stroke-linejoin:round; stroke-width:4; stroke-opacity:1; fill:none" stroke-dasharray="16, 10" points="1106.09,1247.55 1106.09,1338.82 "></polyline>
<circle clip-path="url(#clip182)" cx="1106.09" cy="1247.55" r="14.4" fill="#000000" fill-rule="evenodd" fill-opacity="1" stroke="none"></circle>
<polyline clip-path="url(#clip182)" style="stroke:#000000; stroke-linecap:round; stroke-linejoin:round; stroke-width:4; stroke-opacity:1; fill:none" points="156.598,1144.59 1106.09,1144.59 1106.09,1247.55 "></polyline>
<polyline clip-path="url(#clip182)" style="stroke:#000000; stroke-linecap:round; stroke-linejoin:round; stroke-width:4; stroke-opacity:1; fill:none" stroke-dasharray="16, 10" points="1004.31,1144.59 1004.31,1247.55 "></polyline>
<circle clip-path="url(#clip182)" cx="1004.31" cy="1144.59" r="14.4" fill="#000000" fill-rule="evenodd" fill-opacity="1" stroke="none"></circle>
<polyline clip-path="url(#clip182)" style="stroke:#000000; stroke-linecap:round; stroke-linejoin:round; stroke-width:4; stroke-opacity:1; fill:none" points="156.598,1029.27 1004.31,1029.27 1004.31,1144.59 "></polyline>
<polyline clip-path="url(#clip182)" style="stroke:#000000; stroke-linecap:round; stroke-linejoin:round; stroke-width:4; stroke-opacity:1; fill:none" stroke-dasharray="16, 10" points="911.748,1029.27 911.748,1144.59 "></polyline>
<circle clip-path="url(#clip182)" cx="911.748" cy="1029.27" r="14.4" fill="#000000" fill-rule="evenodd" fill-opacity="1" stroke="none"></circle>
<polyline clip-path="url(#clip182)" style="stroke:#000000; stroke-linecap:round; stroke-linejoin:round; stroke-width:4; stroke-opacity:1; fill:none" points="156.598,899.809 911.748,899.809 911.748,1029.27 "></polyline>
<polyline clip-path="url(#clip182)" style="stroke:#000000; stroke-linecap:round; stroke-linejoin:round; stroke-width:4; stroke-opacity:1; fill:none" stroke-dasharray="16, 10" points="822.171,899.809 822.171,1029.27 "></polyline>
<circle clip-path="url(#clip182)" cx="822.171" cy="899.809" r="14.4" fill="#000000" fill-rule="evenodd" fill-opacity="1" stroke="none"></circle>
<polyline clip-path="url(#clip182)" style="stroke:#000000; stroke-linecap:round; stroke-linejoin:round; stroke-width:4; stroke-opacity:1; fill:none" points="156.598,752.928 822.171,752.928 822.171,899.809 "></polyline>
<polyline clip-path="url(#clip182)" style="stroke:#000000; stroke-linecap:round; stroke-linejoin:round; stroke-width:4; stroke-opacity:1; fill:none" stroke-dasharray="16, 10" points="730.126,752.928 730.126,899.809 "></polyline>
<circle clip-path="url(#clip182)" cx="730.126" cy="752.928" r="14.4" fill="#000000" fill-rule="evenodd" fill-opacity="1" stroke="none"></circle>
<polyline clip-path="url(#clip182)" style="stroke:#000000; stroke-linecap:round; stroke-linejoin:round; stroke-width:4; stroke-opacity:1; fill:none" points="156.598,582.473 730.126,582.473 730.126,752.928 "></polyline>
<polyline clip-path="url(#clip182)" style="stroke:#000000; stroke-linecap:round; stroke-linejoin:round; stroke-width:4; stroke-opacity:1; fill:none" stroke-dasharray="16, 10" points="628.067,582.473 628.067,752.928 "></polyline>
<circle clip-path="url(#clip182)" cx="628.067" cy="582.473" r="14.4" fill="#000000" fill-rule="evenodd" fill-opacity="1" stroke="none"></circle>
<polyline clip-path="url(#clip182)" style="stroke:#000000; stroke-linecap:round; stroke-linejoin:round; stroke-width:4; stroke-opacity:1; fill:none" points="156.598,375.12 628.067,375.12 628.067,582.473 "></polyline>
<polyline clip-path="url(#clip182)" style="stroke:#000000; stroke-linecap:round; stroke-linejoin:round; stroke-width:4; stroke-opacity:1; fill:none" stroke-dasharray="16, 10" points="498.468,375.12 498.468,582.473 "></polyline>
<circle clip-path="url(#clip182)" cx="498.468" cy="375.12" r="14.4" fill="#000000" fill-rule="evenodd" fill-opacity="1" stroke="none"></circle>
<polyline clip-path="url(#clip182)" style="stroke:#000000; stroke-linecap:round; stroke-linejoin:round; stroke-width:4; stroke-opacity:1; fill:none" points="156.598,89.1627 498.468,89.1627 498.468,375.12 "></polyline>
<polyline clip-path="url(#clip182)" style="stroke:#000000; stroke-linecap:round; stroke-linejoin:round; stroke-width:4; stroke-opacity:1; fill:none" stroke-dasharray="16, 10" points="156.598,89.1627 156.598,375.12 "></polyline>
<circle clip-path="url(#clip182)" cx="156.598" cy="89.1627" r="14.4" fill="#000000" fill-rule="evenodd" fill-opacity="1" stroke="none"></circle>
<polyline clip-path="url(#clip182)" style="stroke:#0000ff; stroke-linecap:round; stroke-linejoin:round; stroke-width:8; stroke-opacity:1; fill:none" points="156.598,89.1627 160.173,89.1976 163.747,89.3026 167.322,89.4774 170.896,89.7222 187.422,91.7612 203.948,95.2867 220.474,100.287 237,106.747 253.526,114.646 270.052,123.958 286.578,134.655 303.104,146.702 322.967,162.914 342.829,180.951 362.692,200.73 382.555,222.166 399.349,241.513 416.142,261.918 432.936,283.319 449.73,305.652 486.215,357.061 522.701,411.852 556.337,464.739 589.973,519.32 662.097,639.476 745.659,778.425 782.789,838.328 819.919,896.359 852.478,945.366 885.038,992.36 920.537,1041.07 956.035,1086.96 991.745,1130.13 1027.45,1170.21 1047.2,1191.04 1066.94,1210.91 1086.68,1229.85 1106.42,1247.84 1143.98,1279.54 1181.55,1308.03 1220.61,1334.39 1259.67,1357.62 1292.55,1374.93 1325.43,1390.31 1365.57,1406.71 1405.72,1420.73 1442.49,1431.7 1479.26,1441.08 1513.22,1448.49 1547.19,1454.83 1581.59,1460.29 1615.99,1464.91 1693.11,1472.75 1762.98,1477.54 1842.99,1481.13 1917.07,1483.22 1990.1,1484.52 2061,1485.3 2133.69,1485.79 2213.33,1486.1 2329.02,1486.31 2352.76,1486.34 "></polyline>
</svg>